G04 #@! TF.GenerationSoftware,KiCad,Pcbnew,(5.1.5)-3*
G04 #@! TF.CreationDate,2020-05-26T01:54:40-08:00*
G04 #@! TF.ProjectId,board,626f6172-642e-46b6-9963-61645f706362,rev?*
G04 #@! TF.SameCoordinates,Original*
G04 #@! TF.FileFunction,Copper,L2,Bot*
G04 #@! TF.FilePolarity,Positive*
%FSLAX46Y46*%
G04 Gerber Fmt 4.6, Leading zero omitted, Abs format (unit mm)*
G04 Created by KiCad (PCBNEW (5.1.5)-3) date 2020-05-26 01:54:40*
%MOMM*%
%LPD*%
G04 APERTURE LIST*
%ADD10C,1.600000*%
%ADD11R,1.600000X1.600000*%
%ADD12R,1.700000X1.700000*%
%ADD13O,1.700000X1.700000*%
%ADD14C,0.800000*%
%ADD15C,2.000000*%
%ADD16C,0.200000*%
%ADD17C,0.254000*%
G04 APERTURE END LIST*
D10*
X120180000Y-86390000D03*
X120180000Y-88930000D03*
X120180000Y-91470000D03*
X120180000Y-83850000D03*
X120180000Y-81310000D03*
X120180000Y-78770000D03*
X120180000Y-76230000D03*
X120180000Y-73690000D03*
X120180000Y-71150000D03*
X120180000Y-68610000D03*
D11*
X120180000Y-66070000D03*
D10*
X120180000Y-94010000D03*
X120180000Y-96550000D03*
X120180000Y-99090000D03*
X120180000Y-101630000D03*
X120180000Y-104170000D03*
X120180000Y-106710000D03*
X120180000Y-109250000D03*
X120180000Y-111790000D03*
X120180000Y-114330000D03*
X125260000Y-114330000D03*
X127800000Y-114330000D03*
X130340000Y-114330000D03*
X135420000Y-114330000D03*
X135420000Y-111790000D03*
X135420000Y-109250000D03*
X135420000Y-106710000D03*
X135420000Y-104170000D03*
X135420000Y-101630000D03*
X135420000Y-99090000D03*
X135420000Y-96550000D03*
X135420000Y-94010000D03*
X135420000Y-91470000D03*
X135420000Y-88930000D03*
X135420000Y-86390000D03*
X135420000Y-83850000D03*
X135420000Y-81310000D03*
X135420000Y-78770000D03*
X135420000Y-76230000D03*
X135420000Y-73690000D03*
X135420000Y-71150000D03*
X135420000Y-68610000D03*
X135420000Y-66070000D03*
X130340000Y-99090000D03*
X130340000Y-101630000D03*
X130340000Y-104170000D03*
X130340000Y-106710000D03*
X127800000Y-99090000D03*
X127800000Y-101630000D03*
X127800000Y-104170000D03*
X127800000Y-106710000D03*
X125260000Y-106710000D03*
D12*
X192300000Y-65400000D03*
D13*
X192300000Y-67940000D03*
X192300000Y-70480000D03*
D12*
X164100000Y-135200000D03*
D13*
X161560000Y-135200000D03*
X159020000Y-135200000D03*
X156480000Y-135200000D03*
D14*
X38800000Y-75200000D03*
D15*
X125000000Y-119300000D03*
X128300000Y-119300000D03*
X131000000Y-119200000D03*
X133800000Y-127500000D03*
X136500000Y-127400000D03*
X139000000Y-127300000D03*
D14*
X137500000Y-69900000D03*
X148400000Y-99300000D03*
X143500000Y-109600000D03*
X164300000Y-81700000D03*
X155900000Y-88300000D03*
X151100000Y-93400000D03*
X161800000Y-83700000D03*
X153900000Y-91200000D03*
X142600000Y-108100000D03*
X135300000Y-119600000D03*
X132300000Y-109600000D03*
D16*
X120979999Y-72890001D02*
X121009999Y-72890001D01*
X120180000Y-73690000D02*
X120979999Y-72890001D01*
X121009999Y-72890001D02*
X124100000Y-69800000D01*
X124100000Y-69800000D02*
X137400000Y-69800000D01*
X137400000Y-69800000D02*
X137500000Y-69900000D01*
X135630000Y-99300000D02*
X135420000Y-99090000D01*
X148400000Y-99300000D02*
X135630000Y-99300000D01*
X135770000Y-109600000D02*
X135420000Y-109250000D01*
X143500000Y-109600000D02*
X135770000Y-109600000D01*
X164300000Y-81700000D02*
X162600000Y-80000000D01*
X121410000Y-80000000D02*
X120180000Y-78770000D01*
X162600000Y-80000000D02*
X121410000Y-80000000D01*
X155900000Y-88300000D02*
X155300000Y-87700000D01*
X121410000Y-87700000D02*
X120180000Y-88930000D01*
X155300000Y-87700000D02*
X121410000Y-87700000D01*
X151100000Y-93400000D02*
X150500000Y-92800000D01*
X121390000Y-92800000D02*
X120180000Y-94010000D01*
X150500000Y-92800000D02*
X121390000Y-92800000D01*
X120979999Y-82109999D02*
X120180000Y-81310000D01*
X121250001Y-82380001D02*
X120979999Y-82109999D01*
X160480001Y-82380001D02*
X121250001Y-82380001D01*
X161800000Y-83700000D02*
X160480001Y-82380001D01*
X121450000Y-90200000D02*
X120180000Y-91470000D01*
X153900000Y-91200000D02*
X152900000Y-90200000D01*
X152900000Y-90200000D02*
X121450000Y-90200000D01*
X121570000Y-108100000D02*
X120180000Y-106710000D01*
X142600000Y-108100000D02*
X121570000Y-108100000D01*
X132300000Y-117475000D02*
X132300000Y-109600000D01*
X135300000Y-119600000D02*
X134425000Y-119600000D01*
X134425000Y-119600000D02*
X132300000Y-117475000D01*
D17*
G36*
X203198505Y-53892434D02*
G01*
X203485641Y-53979125D01*
X203750472Y-54119938D01*
X203982906Y-54309507D01*
X204174095Y-54540615D01*
X204316750Y-54804451D01*
X204405445Y-55090977D01*
X204440000Y-55419748D01*
X204440001Y-137967711D01*
X204407566Y-138298505D01*
X204320875Y-138585641D01*
X204180060Y-138850475D01*
X203990494Y-139082906D01*
X203759384Y-139274096D01*
X203495550Y-139416750D01*
X203209023Y-139505445D01*
X202880252Y-139540000D01*
X116832279Y-139540000D01*
X116501495Y-139507566D01*
X116214359Y-139420875D01*
X115949525Y-139280060D01*
X115717094Y-139090494D01*
X115525904Y-138859384D01*
X115383250Y-138595550D01*
X115294555Y-138309023D01*
X115260000Y-137980252D01*
X115260000Y-136379872D01*
X115965000Y-136379872D01*
X115965000Y-136820128D01*
X116050890Y-137251925D01*
X116219369Y-137658669D01*
X116463962Y-138024729D01*
X116775271Y-138336038D01*
X117141331Y-138580631D01*
X117548075Y-138749110D01*
X117979872Y-138835000D01*
X118420128Y-138835000D01*
X118851925Y-138749110D01*
X119258669Y-138580631D01*
X119624729Y-138336038D01*
X119936038Y-138024729D01*
X120180631Y-137658669D01*
X120349110Y-137251925D01*
X120435000Y-136820128D01*
X120435000Y-136379872D01*
X120349110Y-135948075D01*
X120180631Y-135541331D01*
X119936038Y-135175271D01*
X119814507Y-135053740D01*
X154995000Y-135053740D01*
X154995000Y-135346260D01*
X155052068Y-135633158D01*
X155164010Y-135903411D01*
X155326525Y-136146632D01*
X155533368Y-136353475D01*
X155776589Y-136515990D01*
X156046842Y-136627932D01*
X156333740Y-136685000D01*
X156626260Y-136685000D01*
X156913158Y-136627932D01*
X157183411Y-136515990D01*
X157426632Y-136353475D01*
X157633475Y-136146632D01*
X157750000Y-135972240D01*
X157866525Y-136146632D01*
X158073368Y-136353475D01*
X158316589Y-136515990D01*
X158586842Y-136627932D01*
X158873740Y-136685000D01*
X159166260Y-136685000D01*
X159453158Y-136627932D01*
X159723411Y-136515990D01*
X159966632Y-136353475D01*
X160173475Y-136146632D01*
X160295195Y-135964466D01*
X160364822Y-136081355D01*
X160559731Y-136297588D01*
X160793080Y-136471641D01*
X161055901Y-136596825D01*
X161203110Y-136641476D01*
X161433000Y-136520155D01*
X161433000Y-135327000D01*
X161413000Y-135327000D01*
X161413000Y-135073000D01*
X161433000Y-135073000D01*
X161433000Y-133879845D01*
X161687000Y-133879845D01*
X161687000Y-135073000D01*
X161707000Y-135073000D01*
X161707000Y-135327000D01*
X161687000Y-135327000D01*
X161687000Y-136520155D01*
X161916890Y-136641476D01*
X162064099Y-136596825D01*
X162326920Y-136471641D01*
X162560269Y-136297588D01*
X162636034Y-136213534D01*
X162660498Y-136294180D01*
X162719463Y-136404494D01*
X162798815Y-136501185D01*
X162895506Y-136580537D01*
X163005820Y-136639502D01*
X163125518Y-136675812D01*
X163250000Y-136688072D01*
X164950000Y-136688072D01*
X165074482Y-136675812D01*
X165194180Y-136639502D01*
X165304494Y-136580537D01*
X165401185Y-136501185D01*
X165480537Y-136404494D01*
X165493697Y-136379872D01*
X188965000Y-136379872D01*
X188965000Y-136820128D01*
X189050890Y-137251925D01*
X189219369Y-137658669D01*
X189463962Y-138024729D01*
X189775271Y-138336038D01*
X190141331Y-138580631D01*
X190548075Y-138749110D01*
X190979872Y-138835000D01*
X191420128Y-138835000D01*
X191851925Y-138749110D01*
X192258669Y-138580631D01*
X192624729Y-138336038D01*
X192936038Y-138024729D01*
X193180631Y-137658669D01*
X193349110Y-137251925D01*
X193435000Y-136820128D01*
X193435000Y-136379872D01*
X193349110Y-135948075D01*
X193180631Y-135541331D01*
X192936038Y-135175271D01*
X192624729Y-134863962D01*
X192258669Y-134619369D01*
X191851925Y-134450890D01*
X191420128Y-134365000D01*
X190979872Y-134365000D01*
X190548075Y-134450890D01*
X190141331Y-134619369D01*
X189775271Y-134863962D01*
X189463962Y-135175271D01*
X189219369Y-135541331D01*
X189050890Y-135948075D01*
X188965000Y-136379872D01*
X165493697Y-136379872D01*
X165539502Y-136294180D01*
X165575812Y-136174482D01*
X165588072Y-136050000D01*
X165588072Y-134350000D01*
X165575812Y-134225518D01*
X165539502Y-134105820D01*
X165480537Y-133995506D01*
X165401185Y-133898815D01*
X165304494Y-133819463D01*
X165194180Y-133760498D01*
X165074482Y-133724188D01*
X164950000Y-133711928D01*
X163250000Y-133711928D01*
X163125518Y-133724188D01*
X163005820Y-133760498D01*
X162895506Y-133819463D01*
X162798815Y-133898815D01*
X162719463Y-133995506D01*
X162660498Y-134105820D01*
X162636034Y-134186466D01*
X162560269Y-134102412D01*
X162326920Y-133928359D01*
X162064099Y-133803175D01*
X161916890Y-133758524D01*
X161687000Y-133879845D01*
X161433000Y-133879845D01*
X161203110Y-133758524D01*
X161055901Y-133803175D01*
X160793080Y-133928359D01*
X160559731Y-134102412D01*
X160364822Y-134318645D01*
X160295195Y-134435534D01*
X160173475Y-134253368D01*
X159966632Y-134046525D01*
X159723411Y-133884010D01*
X159453158Y-133772068D01*
X159166260Y-133715000D01*
X158873740Y-133715000D01*
X158586842Y-133772068D01*
X158316589Y-133884010D01*
X158073368Y-134046525D01*
X157866525Y-134253368D01*
X157750000Y-134427760D01*
X157633475Y-134253368D01*
X157426632Y-134046525D01*
X157183411Y-133884010D01*
X156913158Y-133772068D01*
X156626260Y-133715000D01*
X156333740Y-133715000D01*
X156046842Y-133772068D01*
X155776589Y-133884010D01*
X155533368Y-134046525D01*
X155326525Y-134253368D01*
X155164010Y-134496589D01*
X155052068Y-134766842D01*
X154995000Y-135053740D01*
X119814507Y-135053740D01*
X119624729Y-134863962D01*
X119258669Y-134619369D01*
X118851925Y-134450890D01*
X118420128Y-134365000D01*
X117979872Y-134365000D01*
X117548075Y-134450890D01*
X117141331Y-134619369D01*
X116775271Y-134863962D01*
X116463962Y-135175271D01*
X116219369Y-135541331D01*
X116050890Y-135948075D01*
X115965000Y-136379872D01*
X115260000Y-136379872D01*
X115260000Y-66870000D01*
X118741928Y-66870000D01*
X118754188Y-66994482D01*
X118790498Y-67114180D01*
X118849463Y-67224494D01*
X118928815Y-67321185D01*
X119025506Y-67400537D01*
X119135820Y-67459502D01*
X119255518Y-67495812D01*
X119263961Y-67496643D01*
X119065363Y-67695241D01*
X118908320Y-67930273D01*
X118800147Y-68191426D01*
X118745000Y-68468665D01*
X118745000Y-68751335D01*
X118800147Y-69028574D01*
X118908320Y-69289727D01*
X119065363Y-69524759D01*
X119265241Y-69724637D01*
X119497759Y-69880000D01*
X119265241Y-70035363D01*
X119065363Y-70235241D01*
X118908320Y-70470273D01*
X118800147Y-70731426D01*
X118745000Y-71008665D01*
X118745000Y-71291335D01*
X118800147Y-71568574D01*
X118908320Y-71829727D01*
X119065363Y-72064759D01*
X119265241Y-72264637D01*
X119497759Y-72420000D01*
X119265241Y-72575363D01*
X119065363Y-72775241D01*
X118908320Y-73010273D01*
X118800147Y-73271426D01*
X118745000Y-73548665D01*
X118745000Y-73831335D01*
X118800147Y-74108574D01*
X118908320Y-74369727D01*
X119065363Y-74604759D01*
X119265241Y-74804637D01*
X119497759Y-74960000D01*
X119265241Y-75115363D01*
X119065363Y-75315241D01*
X118908320Y-75550273D01*
X118800147Y-75811426D01*
X118745000Y-76088665D01*
X118745000Y-76371335D01*
X118800147Y-76648574D01*
X118908320Y-76909727D01*
X119065363Y-77144759D01*
X119265241Y-77344637D01*
X119497759Y-77500000D01*
X119265241Y-77655363D01*
X119065363Y-77855241D01*
X118908320Y-78090273D01*
X118800147Y-78351426D01*
X118745000Y-78628665D01*
X118745000Y-78911335D01*
X118800147Y-79188574D01*
X118908320Y-79449727D01*
X119065363Y-79684759D01*
X119265241Y-79884637D01*
X119497759Y-80040000D01*
X119265241Y-80195363D01*
X119065363Y-80395241D01*
X118908320Y-80630273D01*
X118800147Y-80891426D01*
X118745000Y-81168665D01*
X118745000Y-81451335D01*
X118800147Y-81728574D01*
X118908320Y-81989727D01*
X119065363Y-82224759D01*
X119265241Y-82424637D01*
X119497759Y-82580000D01*
X119265241Y-82735363D01*
X119065363Y-82935241D01*
X118908320Y-83170273D01*
X118800147Y-83431426D01*
X118745000Y-83708665D01*
X118745000Y-83991335D01*
X118800147Y-84268574D01*
X118908320Y-84529727D01*
X119065363Y-84764759D01*
X119265241Y-84964637D01*
X119497759Y-85120000D01*
X119265241Y-85275363D01*
X119065363Y-85475241D01*
X118908320Y-85710273D01*
X118800147Y-85971426D01*
X118745000Y-86248665D01*
X118745000Y-86531335D01*
X118800147Y-86808574D01*
X118908320Y-87069727D01*
X119065363Y-87304759D01*
X119265241Y-87504637D01*
X119497759Y-87660000D01*
X119265241Y-87815363D01*
X119065363Y-88015241D01*
X118908320Y-88250273D01*
X118800147Y-88511426D01*
X118745000Y-88788665D01*
X118745000Y-89071335D01*
X118800147Y-89348574D01*
X118908320Y-89609727D01*
X119065363Y-89844759D01*
X119265241Y-90044637D01*
X119497759Y-90200000D01*
X119265241Y-90355363D01*
X119065363Y-90555241D01*
X118908320Y-90790273D01*
X118800147Y-91051426D01*
X118745000Y-91328665D01*
X118745000Y-91611335D01*
X118800147Y-91888574D01*
X118908320Y-92149727D01*
X119065363Y-92384759D01*
X119265241Y-92584637D01*
X119497759Y-92740000D01*
X119265241Y-92895363D01*
X119065363Y-93095241D01*
X118908320Y-93330273D01*
X118800147Y-93591426D01*
X118745000Y-93868665D01*
X118745000Y-94151335D01*
X118800147Y-94428574D01*
X118908320Y-94689727D01*
X119065363Y-94924759D01*
X119265241Y-95124637D01*
X119497759Y-95280000D01*
X119265241Y-95435363D01*
X119065363Y-95635241D01*
X118908320Y-95870273D01*
X118800147Y-96131426D01*
X118745000Y-96408665D01*
X118745000Y-96691335D01*
X118800147Y-96968574D01*
X118908320Y-97229727D01*
X119065363Y-97464759D01*
X119265241Y-97664637D01*
X119497759Y-97820000D01*
X119265241Y-97975363D01*
X119065363Y-98175241D01*
X118908320Y-98410273D01*
X118800147Y-98671426D01*
X118745000Y-98948665D01*
X118745000Y-99231335D01*
X118800147Y-99508574D01*
X118908320Y-99769727D01*
X119065363Y-100004759D01*
X119265241Y-100204637D01*
X119497759Y-100360000D01*
X119265241Y-100515363D01*
X119065363Y-100715241D01*
X118908320Y-100950273D01*
X118800147Y-101211426D01*
X118745000Y-101488665D01*
X118745000Y-101771335D01*
X118800147Y-102048574D01*
X118908320Y-102309727D01*
X119065363Y-102544759D01*
X119265241Y-102744637D01*
X119497759Y-102900000D01*
X119265241Y-103055363D01*
X119065363Y-103255241D01*
X118908320Y-103490273D01*
X118800147Y-103751426D01*
X118745000Y-104028665D01*
X118745000Y-104311335D01*
X118800147Y-104588574D01*
X118908320Y-104849727D01*
X119065363Y-105084759D01*
X119265241Y-105284637D01*
X119497759Y-105440000D01*
X119265241Y-105595363D01*
X119065363Y-105795241D01*
X118908320Y-106030273D01*
X118800147Y-106291426D01*
X118745000Y-106568665D01*
X118745000Y-106851335D01*
X118800147Y-107128574D01*
X118908320Y-107389727D01*
X119065363Y-107624759D01*
X119265241Y-107824637D01*
X119497759Y-107980000D01*
X119265241Y-108135363D01*
X119065363Y-108335241D01*
X118908320Y-108570273D01*
X118800147Y-108831426D01*
X118745000Y-109108665D01*
X118745000Y-109391335D01*
X118800147Y-109668574D01*
X118908320Y-109929727D01*
X119065363Y-110164759D01*
X119265241Y-110364637D01*
X119497759Y-110520000D01*
X119265241Y-110675363D01*
X119065363Y-110875241D01*
X118908320Y-111110273D01*
X118800147Y-111371426D01*
X118745000Y-111648665D01*
X118745000Y-111931335D01*
X118800147Y-112208574D01*
X118908320Y-112469727D01*
X119065363Y-112704759D01*
X119265241Y-112904637D01*
X119497759Y-113060000D01*
X119265241Y-113215363D01*
X119065363Y-113415241D01*
X118908320Y-113650273D01*
X118800147Y-113911426D01*
X118745000Y-114188665D01*
X118745000Y-114471335D01*
X118800147Y-114748574D01*
X118908320Y-115009727D01*
X119065363Y-115244759D01*
X119265241Y-115444637D01*
X119500273Y-115601680D01*
X119761426Y-115709853D01*
X120038665Y-115765000D01*
X120321335Y-115765000D01*
X120598574Y-115709853D01*
X120859727Y-115601680D01*
X121094759Y-115444637D01*
X121294637Y-115244759D01*
X121451680Y-115009727D01*
X121559853Y-114748574D01*
X121615000Y-114471335D01*
X121615000Y-114188665D01*
X123825000Y-114188665D01*
X123825000Y-114471335D01*
X123880147Y-114748574D01*
X123988320Y-115009727D01*
X124145363Y-115244759D01*
X124345241Y-115444637D01*
X124580273Y-115601680D01*
X124841426Y-115709853D01*
X125118665Y-115765000D01*
X125401335Y-115765000D01*
X125678574Y-115709853D01*
X125939727Y-115601680D01*
X126174759Y-115444637D01*
X126296694Y-115322702D01*
X126986903Y-115322702D01*
X127058486Y-115566671D01*
X127313996Y-115687571D01*
X127588184Y-115756300D01*
X127870512Y-115770217D01*
X128150130Y-115728787D01*
X128416292Y-115633603D01*
X128541514Y-115566671D01*
X128613097Y-115322702D01*
X127800000Y-114509605D01*
X126986903Y-115322702D01*
X126296694Y-115322702D01*
X126374637Y-115244759D01*
X126530915Y-115010872D01*
X126563329Y-115071514D01*
X126807298Y-115143097D01*
X127620395Y-114330000D01*
X126807298Y-113516903D01*
X126563329Y-113588486D01*
X126532806Y-113652992D01*
X126531680Y-113650273D01*
X126374637Y-113415241D01*
X126296694Y-113337298D01*
X126986903Y-113337298D01*
X127800000Y-114150395D01*
X128613097Y-113337298D01*
X128541514Y-113093329D01*
X128286004Y-112972429D01*
X128011816Y-112903700D01*
X127729488Y-112889783D01*
X127449870Y-112931213D01*
X127183708Y-113026397D01*
X127058486Y-113093329D01*
X126986903Y-113337298D01*
X126296694Y-113337298D01*
X126174759Y-113215363D01*
X125939727Y-113058320D01*
X125678574Y-112950147D01*
X125401335Y-112895000D01*
X125118665Y-112895000D01*
X124841426Y-112950147D01*
X124580273Y-113058320D01*
X124345241Y-113215363D01*
X124145363Y-113415241D01*
X123988320Y-113650273D01*
X123880147Y-113911426D01*
X123825000Y-114188665D01*
X121615000Y-114188665D01*
X121559853Y-113911426D01*
X121451680Y-113650273D01*
X121294637Y-113415241D01*
X121094759Y-113215363D01*
X120862241Y-113060000D01*
X121094759Y-112904637D01*
X121294637Y-112704759D01*
X121451680Y-112469727D01*
X121559853Y-112208574D01*
X121615000Y-111931335D01*
X121615000Y-111648665D01*
X121559853Y-111371426D01*
X121451680Y-111110273D01*
X121294637Y-110875241D01*
X121094759Y-110675363D01*
X120862241Y-110520000D01*
X121094759Y-110364637D01*
X121294637Y-110164759D01*
X121451680Y-109929727D01*
X121559853Y-109668574D01*
X121615000Y-109391335D01*
X121615000Y-109108665D01*
X121561097Y-108837679D01*
X121570000Y-108838556D01*
X121606105Y-108835000D01*
X131601289Y-108835000D01*
X131496063Y-108940226D01*
X131382795Y-109109744D01*
X131304774Y-109298102D01*
X131265000Y-109498061D01*
X131265000Y-109701939D01*
X131304774Y-109901898D01*
X131382795Y-110090256D01*
X131496063Y-110259774D01*
X131565001Y-110328712D01*
X131565000Y-113580412D01*
X131454637Y-113415241D01*
X131254759Y-113215363D01*
X131019727Y-113058320D01*
X130758574Y-112950147D01*
X130481335Y-112895000D01*
X130198665Y-112895000D01*
X129921426Y-112950147D01*
X129660273Y-113058320D01*
X129425241Y-113215363D01*
X129225363Y-113415241D01*
X129069085Y-113649128D01*
X129036671Y-113588486D01*
X128792702Y-113516903D01*
X127979605Y-114330000D01*
X128792702Y-115143097D01*
X129036671Y-115071514D01*
X129067194Y-115007008D01*
X129068320Y-115009727D01*
X129225363Y-115244759D01*
X129425241Y-115444637D01*
X129660273Y-115601680D01*
X129921426Y-115709853D01*
X130198665Y-115765000D01*
X130481335Y-115765000D01*
X130758574Y-115709853D01*
X131019727Y-115601680D01*
X131254759Y-115444637D01*
X131454637Y-115244759D01*
X131565000Y-115079588D01*
X131565000Y-117438895D01*
X131561444Y-117475000D01*
X131565000Y-117511104D01*
X131575635Y-117619084D01*
X131617663Y-117757632D01*
X131685913Y-117885319D01*
X131777762Y-117997237D01*
X131805808Y-118020254D01*
X133879746Y-120094193D01*
X133902762Y-120122238D01*
X134014680Y-120214087D01*
X134142367Y-120282337D01*
X134280915Y-120324365D01*
X134425000Y-120338556D01*
X134461105Y-120335000D01*
X134571289Y-120335000D01*
X134640226Y-120403937D01*
X134809744Y-120517205D01*
X134998102Y-120595226D01*
X135198061Y-120635000D01*
X135401939Y-120635000D01*
X135601898Y-120595226D01*
X135790256Y-120517205D01*
X135959774Y-120403937D01*
X136103937Y-120259774D01*
X136217205Y-120090256D01*
X136295226Y-119901898D01*
X136335000Y-119701939D01*
X136335000Y-119498061D01*
X136295226Y-119298102D01*
X136217205Y-119109744D01*
X136103937Y-118940226D01*
X135959774Y-118796063D01*
X135790256Y-118682795D01*
X135601898Y-118604774D01*
X135401939Y-118565000D01*
X135198061Y-118565000D01*
X134998102Y-118604774D01*
X134809744Y-118682795D01*
X134652385Y-118787938D01*
X133035000Y-117170554D01*
X133035000Y-110328711D01*
X133103937Y-110259774D01*
X133217205Y-110090256D01*
X133295226Y-109901898D01*
X133335000Y-109701939D01*
X133335000Y-109498061D01*
X133295226Y-109298102D01*
X133217205Y-109109744D01*
X133103937Y-108940226D01*
X132998711Y-108835000D01*
X134039436Y-108835000D01*
X133985000Y-109108665D01*
X133985000Y-109391335D01*
X134040147Y-109668574D01*
X134148320Y-109929727D01*
X134305363Y-110164759D01*
X134505241Y-110364637D01*
X134737759Y-110520000D01*
X134505241Y-110675363D01*
X134305363Y-110875241D01*
X134148320Y-111110273D01*
X134040147Y-111371426D01*
X133985000Y-111648665D01*
X133985000Y-111931335D01*
X134040147Y-112208574D01*
X134148320Y-112469727D01*
X134305363Y-112704759D01*
X134505241Y-112904637D01*
X134737759Y-113060000D01*
X134505241Y-113215363D01*
X134305363Y-113415241D01*
X134148320Y-113650273D01*
X134040147Y-113911426D01*
X133985000Y-114188665D01*
X133985000Y-114471335D01*
X134040147Y-114748574D01*
X134148320Y-115009727D01*
X134305363Y-115244759D01*
X134505241Y-115444637D01*
X134740273Y-115601680D01*
X135001426Y-115709853D01*
X135278665Y-115765000D01*
X135561335Y-115765000D01*
X135838574Y-115709853D01*
X136099727Y-115601680D01*
X136334759Y-115444637D01*
X136534637Y-115244759D01*
X136691680Y-115009727D01*
X136799853Y-114748574D01*
X136855000Y-114471335D01*
X136855000Y-114188665D01*
X136799853Y-113911426D01*
X136691680Y-113650273D01*
X136534637Y-113415241D01*
X136334759Y-113215363D01*
X136102241Y-113060000D01*
X136334759Y-112904637D01*
X136534637Y-112704759D01*
X136691680Y-112469727D01*
X136799853Y-112208574D01*
X136855000Y-111931335D01*
X136855000Y-111648665D01*
X136799853Y-111371426D01*
X136691680Y-111110273D01*
X136534637Y-110875241D01*
X136334759Y-110675363D01*
X136102241Y-110520000D01*
X136334759Y-110364637D01*
X136364396Y-110335000D01*
X142771289Y-110335000D01*
X142840226Y-110403937D01*
X143009744Y-110517205D01*
X143198102Y-110595226D01*
X143398061Y-110635000D01*
X143601939Y-110635000D01*
X143801898Y-110595226D01*
X143990256Y-110517205D01*
X144159774Y-110403937D01*
X144303937Y-110259774D01*
X144417205Y-110090256D01*
X144495226Y-109901898D01*
X144535000Y-109701939D01*
X144535000Y-109498061D01*
X144495226Y-109298102D01*
X144417205Y-109109744D01*
X144303937Y-108940226D01*
X144159774Y-108796063D01*
X143990256Y-108682795D01*
X143801898Y-108604774D01*
X143601939Y-108565000D01*
X143527666Y-108565000D01*
X143595226Y-108401898D01*
X143635000Y-108201939D01*
X143635000Y-107998061D01*
X143595226Y-107798102D01*
X143517205Y-107609744D01*
X143403937Y-107440226D01*
X143259774Y-107296063D01*
X143090256Y-107182795D01*
X142901898Y-107104774D01*
X142701939Y-107065000D01*
X142498061Y-107065000D01*
X142298102Y-107104774D01*
X142109744Y-107182795D01*
X141940226Y-107296063D01*
X141871289Y-107365000D01*
X136701922Y-107365000D01*
X136799853Y-107128574D01*
X136855000Y-106851335D01*
X136855000Y-106568665D01*
X136799853Y-106291426D01*
X136691680Y-106030273D01*
X136534637Y-105795241D01*
X136334759Y-105595363D01*
X136102241Y-105440000D01*
X136334759Y-105284637D01*
X136534637Y-105084759D01*
X136691680Y-104849727D01*
X136799853Y-104588574D01*
X136855000Y-104311335D01*
X136855000Y-104028665D01*
X136799853Y-103751426D01*
X136691680Y-103490273D01*
X136534637Y-103255241D01*
X136334759Y-103055363D01*
X136102241Y-102900000D01*
X136334759Y-102744637D01*
X136534637Y-102544759D01*
X136691680Y-102309727D01*
X136799853Y-102048574D01*
X136855000Y-101771335D01*
X136855000Y-101488665D01*
X136799853Y-101211426D01*
X136691680Y-100950273D01*
X136534637Y-100715241D01*
X136334759Y-100515363D01*
X136102241Y-100360000D01*
X136334759Y-100204637D01*
X136504396Y-100035000D01*
X147671289Y-100035000D01*
X147740226Y-100103937D01*
X147909744Y-100217205D01*
X148098102Y-100295226D01*
X148298061Y-100335000D01*
X148501939Y-100335000D01*
X148701898Y-100295226D01*
X148890256Y-100217205D01*
X149059774Y-100103937D01*
X149203937Y-99959774D01*
X149317205Y-99790256D01*
X149395226Y-99601898D01*
X149435000Y-99401939D01*
X149435000Y-99198061D01*
X149395226Y-98998102D01*
X149317205Y-98809744D01*
X149203937Y-98640226D01*
X149059774Y-98496063D01*
X148890256Y-98382795D01*
X148701898Y-98304774D01*
X148501939Y-98265000D01*
X148298061Y-98265000D01*
X148098102Y-98304774D01*
X147909744Y-98382795D01*
X147740226Y-98496063D01*
X147671289Y-98565000D01*
X136755770Y-98565000D01*
X136691680Y-98410273D01*
X136534637Y-98175241D01*
X136334759Y-97975363D01*
X136102241Y-97820000D01*
X136334759Y-97664637D01*
X136534637Y-97464759D01*
X136691680Y-97229727D01*
X136799853Y-96968574D01*
X136855000Y-96691335D01*
X136855000Y-96408665D01*
X136799853Y-96131426D01*
X136691680Y-95870273D01*
X136534637Y-95635241D01*
X136334759Y-95435363D01*
X136102241Y-95280000D01*
X136334759Y-95124637D01*
X136534637Y-94924759D01*
X136691680Y-94689727D01*
X136799853Y-94428574D01*
X136855000Y-94151335D01*
X136855000Y-93868665D01*
X136799853Y-93591426D01*
X136776481Y-93535000D01*
X150071576Y-93535000D01*
X150104774Y-93701898D01*
X150182795Y-93890256D01*
X150296063Y-94059774D01*
X150440226Y-94203937D01*
X150609744Y-94317205D01*
X150798102Y-94395226D01*
X150998061Y-94435000D01*
X151201939Y-94435000D01*
X151401898Y-94395226D01*
X151590256Y-94317205D01*
X151759774Y-94203937D01*
X151903937Y-94059774D01*
X152017205Y-93890256D01*
X152095226Y-93701898D01*
X152135000Y-93501939D01*
X152135000Y-93298061D01*
X152095226Y-93098102D01*
X152017205Y-92909744D01*
X151903937Y-92740226D01*
X151759774Y-92596063D01*
X151590256Y-92482795D01*
X151401898Y-92404774D01*
X151201939Y-92365000D01*
X151104446Y-92365000D01*
X151045258Y-92305812D01*
X151022238Y-92277762D01*
X150910320Y-92185913D01*
X150782633Y-92117663D01*
X150644085Y-92075635D01*
X150536105Y-92065000D01*
X150500000Y-92061444D01*
X150463895Y-92065000D01*
X136725997Y-92065000D01*
X136777571Y-91956004D01*
X136846300Y-91681816D01*
X136860217Y-91399488D01*
X136818787Y-91119870D01*
X136752674Y-90935000D01*
X152595554Y-90935000D01*
X152865000Y-91204446D01*
X152865000Y-91301939D01*
X152904774Y-91501898D01*
X152982795Y-91690256D01*
X153096063Y-91859774D01*
X153240226Y-92003937D01*
X153409744Y-92117205D01*
X153598102Y-92195226D01*
X153798061Y-92235000D01*
X154001939Y-92235000D01*
X154201898Y-92195226D01*
X154390256Y-92117205D01*
X154559774Y-92003937D01*
X154703937Y-91859774D01*
X154817205Y-91690256D01*
X154895226Y-91501898D01*
X154935000Y-91301939D01*
X154935000Y-91098061D01*
X154895226Y-90898102D01*
X154817205Y-90709744D01*
X154703937Y-90540226D01*
X154559774Y-90396063D01*
X154390256Y-90282795D01*
X154201898Y-90204774D01*
X154001939Y-90165000D01*
X153904446Y-90165000D01*
X153445258Y-89705812D01*
X153422238Y-89677762D01*
X153310320Y-89585913D01*
X153182633Y-89517663D01*
X153044085Y-89475635D01*
X152936105Y-89465000D01*
X152900000Y-89461444D01*
X152863895Y-89465000D01*
X136751628Y-89465000D01*
X136799853Y-89348574D01*
X136855000Y-89071335D01*
X136855000Y-88788665D01*
X136799853Y-88511426D01*
X136768196Y-88435000D01*
X154871576Y-88435000D01*
X154904774Y-88601898D01*
X154982795Y-88790256D01*
X155096063Y-88959774D01*
X155240226Y-89103937D01*
X155409744Y-89217205D01*
X155598102Y-89295226D01*
X155798061Y-89335000D01*
X156001939Y-89335000D01*
X156201898Y-89295226D01*
X156390256Y-89217205D01*
X156559774Y-89103937D01*
X156703937Y-88959774D01*
X156817205Y-88790256D01*
X156895226Y-88601898D01*
X156935000Y-88401939D01*
X156935000Y-88198061D01*
X156895226Y-87998102D01*
X156817205Y-87809744D01*
X156703937Y-87640226D01*
X156559774Y-87496063D01*
X156390256Y-87382795D01*
X156201898Y-87304774D01*
X156001939Y-87265000D01*
X155904446Y-87265000D01*
X155845258Y-87205812D01*
X155822238Y-87177762D01*
X155710320Y-87085913D01*
X155582633Y-87017663D01*
X155444085Y-86975635D01*
X155336105Y-86965000D01*
X155300000Y-86961444D01*
X155263895Y-86965000D01*
X136735059Y-86965000D01*
X136799853Y-86808574D01*
X136855000Y-86531335D01*
X136855000Y-86248665D01*
X136799853Y-85971426D01*
X136691680Y-85710273D01*
X136534637Y-85475241D01*
X136334759Y-85275363D01*
X136102241Y-85120000D01*
X136334759Y-84964637D01*
X136534637Y-84764759D01*
X136691680Y-84529727D01*
X136799853Y-84268574D01*
X136855000Y-83991335D01*
X136855000Y-83708665D01*
X136799853Y-83431426D01*
X136691680Y-83170273D01*
X136654749Y-83115001D01*
X160175555Y-83115001D01*
X160765000Y-83704447D01*
X160765000Y-83801939D01*
X160804774Y-84001898D01*
X160882795Y-84190256D01*
X160996063Y-84359774D01*
X161140226Y-84503937D01*
X161309744Y-84617205D01*
X161498102Y-84695226D01*
X161698061Y-84735000D01*
X161901939Y-84735000D01*
X162101898Y-84695226D01*
X162290256Y-84617205D01*
X162459774Y-84503937D01*
X162603937Y-84359774D01*
X162717205Y-84190256D01*
X162795226Y-84001898D01*
X162835000Y-83801939D01*
X162835000Y-83598061D01*
X162795226Y-83398102D01*
X162717205Y-83209744D01*
X162603937Y-83040226D01*
X162459774Y-82896063D01*
X162290256Y-82782795D01*
X162101898Y-82704774D01*
X161901939Y-82665000D01*
X161804447Y-82665000D01*
X161025259Y-81885813D01*
X161002239Y-81857763D01*
X160890321Y-81765914D01*
X160762634Y-81697664D01*
X160624086Y-81655636D01*
X160516106Y-81645001D01*
X160480001Y-81641445D01*
X160443896Y-81645001D01*
X136816477Y-81645001D01*
X136855000Y-81451335D01*
X136855000Y-81168665D01*
X136799853Y-80891426D01*
X136735059Y-80735000D01*
X162295554Y-80735000D01*
X163265000Y-81704447D01*
X163265000Y-81801939D01*
X163304774Y-82001898D01*
X163382795Y-82190256D01*
X163496063Y-82359774D01*
X163640226Y-82503937D01*
X163809744Y-82617205D01*
X163998102Y-82695226D01*
X164198061Y-82735000D01*
X164401939Y-82735000D01*
X164601898Y-82695226D01*
X164790256Y-82617205D01*
X164959774Y-82503937D01*
X165103937Y-82359774D01*
X165217205Y-82190256D01*
X165295226Y-82001898D01*
X165335000Y-81801939D01*
X165335000Y-81598061D01*
X165295226Y-81398102D01*
X165217205Y-81209744D01*
X165103937Y-81040226D01*
X164959774Y-80896063D01*
X164790256Y-80782795D01*
X164601898Y-80704774D01*
X164401939Y-80665000D01*
X164304447Y-80665000D01*
X163145258Y-79505812D01*
X163122238Y-79477762D01*
X163010320Y-79385913D01*
X162882633Y-79317663D01*
X162744085Y-79275635D01*
X162636105Y-79265000D01*
X162600000Y-79261444D01*
X162563895Y-79265000D01*
X136768196Y-79265000D01*
X136799853Y-79188574D01*
X136855000Y-78911335D01*
X136855000Y-78628665D01*
X136799853Y-78351426D01*
X136691680Y-78090273D01*
X136534637Y-77855241D01*
X136334759Y-77655363D01*
X136102241Y-77500000D01*
X136334759Y-77344637D01*
X136534637Y-77144759D01*
X136691680Y-76909727D01*
X136799853Y-76648574D01*
X136855000Y-76371335D01*
X136855000Y-76088665D01*
X136799853Y-75811426D01*
X136691680Y-75550273D01*
X136534637Y-75315241D01*
X136334759Y-75115363D01*
X136102241Y-74960000D01*
X136334759Y-74804637D01*
X136534637Y-74604759D01*
X136691680Y-74369727D01*
X136799853Y-74108574D01*
X136855000Y-73831335D01*
X136855000Y-73548665D01*
X136799853Y-73271426D01*
X136691680Y-73010273D01*
X136534637Y-72775241D01*
X136334759Y-72575363D01*
X136102241Y-72420000D01*
X136334759Y-72264637D01*
X136534637Y-72064759D01*
X136691680Y-71829727D01*
X136799853Y-71568574D01*
X136855000Y-71291335D01*
X136855000Y-71008665D01*
X136799853Y-70731426D01*
X136751867Y-70615578D01*
X136840226Y-70703937D01*
X137009744Y-70817205D01*
X137198102Y-70895226D01*
X137398061Y-70935000D01*
X137601939Y-70935000D01*
X137801898Y-70895226D01*
X137942732Y-70836890D01*
X190858524Y-70836890D01*
X190903175Y-70984099D01*
X191028359Y-71246920D01*
X191202412Y-71480269D01*
X191418645Y-71675178D01*
X191668748Y-71824157D01*
X191943109Y-71921481D01*
X192173000Y-71800814D01*
X192173000Y-70607000D01*
X192427000Y-70607000D01*
X192427000Y-71800814D01*
X192656891Y-71921481D01*
X192931252Y-71824157D01*
X193181355Y-71675178D01*
X193397588Y-71480269D01*
X193571641Y-71246920D01*
X193696825Y-70984099D01*
X193741476Y-70836890D01*
X193620155Y-70607000D01*
X192427000Y-70607000D01*
X192173000Y-70607000D01*
X190979845Y-70607000D01*
X190858524Y-70836890D01*
X137942732Y-70836890D01*
X137990256Y-70817205D01*
X138159774Y-70703937D01*
X138303937Y-70559774D01*
X138417205Y-70390256D01*
X138495226Y-70201898D01*
X138535000Y-70001939D01*
X138535000Y-69798061D01*
X138495226Y-69598102D01*
X138417205Y-69409744D01*
X138303937Y-69240226D01*
X138159774Y-69096063D01*
X137990256Y-68982795D01*
X137801898Y-68904774D01*
X137601939Y-68865000D01*
X137398061Y-68865000D01*
X137198102Y-68904774D01*
X137009744Y-68982795D01*
X136886715Y-69065000D01*
X136784765Y-69065000D01*
X136799853Y-69028574D01*
X136855000Y-68751335D01*
X136855000Y-68468665D01*
X136799853Y-68191426D01*
X136691680Y-67930273D01*
X136534637Y-67695241D01*
X136334759Y-67495363D01*
X136102241Y-67340000D01*
X136334759Y-67184637D01*
X136534637Y-66984759D01*
X136691680Y-66749727D01*
X136799853Y-66488574D01*
X136855000Y-66211335D01*
X136855000Y-65928665D01*
X136799853Y-65651426D01*
X136691680Y-65390273D01*
X136534637Y-65155241D01*
X136334759Y-64955363D01*
X136099727Y-64798320D01*
X135838574Y-64690147D01*
X135561335Y-64635000D01*
X135278665Y-64635000D01*
X135001426Y-64690147D01*
X134740273Y-64798320D01*
X134505241Y-64955363D01*
X134305363Y-65155241D01*
X134148320Y-65390273D01*
X134040147Y-65651426D01*
X133985000Y-65928665D01*
X133985000Y-66211335D01*
X134040147Y-66488574D01*
X134148320Y-66749727D01*
X134305363Y-66984759D01*
X134505241Y-67184637D01*
X134737759Y-67340000D01*
X134505241Y-67495363D01*
X134305363Y-67695241D01*
X134148320Y-67930273D01*
X134040147Y-68191426D01*
X133985000Y-68468665D01*
X133985000Y-68751335D01*
X134040147Y-69028574D01*
X134055235Y-69065000D01*
X124136094Y-69065000D01*
X124099999Y-69061445D01*
X124063904Y-69065000D01*
X124063895Y-69065000D01*
X123955915Y-69075635D01*
X123817367Y-69117663D01*
X123689680Y-69185913D01*
X123577762Y-69277762D01*
X123554746Y-69305807D01*
X121615000Y-71245554D01*
X121615000Y-71008665D01*
X121559853Y-70731426D01*
X121451680Y-70470273D01*
X121294637Y-70235241D01*
X121094759Y-70035363D01*
X120862241Y-69880000D01*
X121094759Y-69724637D01*
X121294637Y-69524759D01*
X121451680Y-69289727D01*
X121559853Y-69028574D01*
X121615000Y-68751335D01*
X121615000Y-68468665D01*
X121559853Y-68191426D01*
X121451680Y-67930273D01*
X121294637Y-67695241D01*
X121096039Y-67496643D01*
X121104482Y-67495812D01*
X121224180Y-67459502D01*
X121334494Y-67400537D01*
X121431185Y-67321185D01*
X121510537Y-67224494D01*
X121569502Y-67114180D01*
X121605812Y-66994482D01*
X121618072Y-66870000D01*
X121615000Y-66355750D01*
X121456250Y-66197000D01*
X120307000Y-66197000D01*
X120307000Y-66217000D01*
X120053000Y-66217000D01*
X120053000Y-66197000D01*
X118903750Y-66197000D01*
X118745000Y-66355750D01*
X118741928Y-66870000D01*
X115260000Y-66870000D01*
X115260000Y-65270000D01*
X118741928Y-65270000D01*
X118745000Y-65784250D01*
X118903750Y-65943000D01*
X120053000Y-65943000D01*
X120053000Y-64793750D01*
X120307000Y-64793750D01*
X120307000Y-65943000D01*
X121456250Y-65943000D01*
X121615000Y-65784250D01*
X121618072Y-65270000D01*
X121605812Y-65145518D01*
X121569502Y-65025820D01*
X121510537Y-64915506D01*
X121431185Y-64818815D01*
X121334494Y-64739463D01*
X121224180Y-64680498D01*
X121104482Y-64644188D01*
X120980000Y-64631928D01*
X120465750Y-64635000D01*
X120307000Y-64793750D01*
X120053000Y-64793750D01*
X119894250Y-64635000D01*
X119380000Y-64631928D01*
X119255518Y-64644188D01*
X119135820Y-64680498D01*
X119025506Y-64739463D01*
X118928815Y-64818815D01*
X118849463Y-64915506D01*
X118790498Y-65025820D01*
X118754188Y-65145518D01*
X118741928Y-65270000D01*
X115260000Y-65270000D01*
X115260000Y-63779872D01*
X139665000Y-63779872D01*
X139665000Y-64220128D01*
X139750890Y-64651925D01*
X139919369Y-65058669D01*
X140163962Y-65424729D01*
X140475271Y-65736038D01*
X140841331Y-65980631D01*
X141248075Y-66149110D01*
X141679872Y-66235000D01*
X142120128Y-66235000D01*
X142551925Y-66149110D01*
X142958669Y-65980631D01*
X143324729Y-65736038D01*
X143636038Y-65424729D01*
X143880631Y-65058669D01*
X144049110Y-64651925D01*
X144069384Y-64550000D01*
X190811928Y-64550000D01*
X190811928Y-66250000D01*
X190824188Y-66374482D01*
X190860498Y-66494180D01*
X190919463Y-66604494D01*
X190998815Y-66701185D01*
X191095506Y-66780537D01*
X191205820Y-66839502D01*
X191278380Y-66861513D01*
X191146525Y-66993368D01*
X190984010Y-67236589D01*
X190872068Y-67506842D01*
X190815000Y-67793740D01*
X190815000Y-68086260D01*
X190872068Y-68373158D01*
X190984010Y-68643411D01*
X191146525Y-68886632D01*
X191353368Y-69093475D01*
X191535534Y-69215195D01*
X191418645Y-69284822D01*
X191202412Y-69479731D01*
X191028359Y-69713080D01*
X190903175Y-69975901D01*
X190858524Y-70123110D01*
X190979845Y-70353000D01*
X192173000Y-70353000D01*
X192173000Y-70333000D01*
X192427000Y-70333000D01*
X192427000Y-70353000D01*
X193620155Y-70353000D01*
X193741476Y-70123110D01*
X193696825Y-69975901D01*
X193571641Y-69713080D01*
X193397588Y-69479731D01*
X193181355Y-69284822D01*
X193064466Y-69215195D01*
X193246632Y-69093475D01*
X193453475Y-68886632D01*
X193615990Y-68643411D01*
X193727932Y-68373158D01*
X193785000Y-68086260D01*
X193785000Y-67793740D01*
X193727932Y-67506842D01*
X193615990Y-67236589D01*
X193453475Y-66993368D01*
X193321620Y-66861513D01*
X193394180Y-66839502D01*
X193504494Y-66780537D01*
X193601185Y-66701185D01*
X193680537Y-66604494D01*
X193739502Y-66494180D01*
X193775812Y-66374482D01*
X193788072Y-66250000D01*
X193788072Y-64550000D01*
X193775812Y-64425518D01*
X193739502Y-64305820D01*
X193680537Y-64195506D01*
X193601185Y-64098815D01*
X193504494Y-64019463D01*
X193394180Y-63960498D01*
X193274482Y-63924188D01*
X193150000Y-63911928D01*
X191450000Y-63911928D01*
X191325518Y-63924188D01*
X191205820Y-63960498D01*
X191095506Y-64019463D01*
X190998815Y-64098815D01*
X190919463Y-64195506D01*
X190860498Y-64305820D01*
X190824188Y-64425518D01*
X190811928Y-64550000D01*
X144069384Y-64550000D01*
X144135000Y-64220128D01*
X144135000Y-63779872D01*
X144049110Y-63348075D01*
X143880631Y-62941331D01*
X143636038Y-62575271D01*
X143324729Y-62263962D01*
X142958669Y-62019369D01*
X142551925Y-61850890D01*
X142120128Y-61765000D01*
X141679872Y-61765000D01*
X141248075Y-61850890D01*
X140841331Y-62019369D01*
X140475271Y-62263962D01*
X140163962Y-62575271D01*
X139919369Y-62941331D01*
X139750890Y-63348075D01*
X139665000Y-63779872D01*
X115260000Y-63779872D01*
X115260000Y-56579872D01*
X115965000Y-56579872D01*
X115965000Y-57020128D01*
X116050890Y-57451925D01*
X116219369Y-57858669D01*
X116463962Y-58224729D01*
X116775271Y-58536038D01*
X117141331Y-58780631D01*
X117548075Y-58949110D01*
X117979872Y-59035000D01*
X118420128Y-59035000D01*
X118851925Y-58949110D01*
X119258669Y-58780631D01*
X119624729Y-58536038D01*
X119936038Y-58224729D01*
X120180631Y-57858669D01*
X120349110Y-57451925D01*
X120435000Y-57020128D01*
X120435000Y-56579872D01*
X139665000Y-56579872D01*
X139665000Y-57020128D01*
X139750890Y-57451925D01*
X139919369Y-57858669D01*
X140163962Y-58224729D01*
X140475271Y-58536038D01*
X140841331Y-58780631D01*
X141248075Y-58949110D01*
X141679872Y-59035000D01*
X142120128Y-59035000D01*
X142551925Y-58949110D01*
X142958669Y-58780631D01*
X143324729Y-58536038D01*
X143636038Y-58224729D01*
X143880631Y-57858669D01*
X144049110Y-57451925D01*
X144135000Y-57020128D01*
X144135000Y-56579872D01*
X199265000Y-56579872D01*
X199265000Y-57020128D01*
X199350890Y-57451925D01*
X199519369Y-57858669D01*
X199763962Y-58224729D01*
X200075271Y-58536038D01*
X200441331Y-58780631D01*
X200848075Y-58949110D01*
X201279872Y-59035000D01*
X201720128Y-59035000D01*
X202151925Y-58949110D01*
X202558669Y-58780631D01*
X202924729Y-58536038D01*
X203236038Y-58224729D01*
X203480631Y-57858669D01*
X203649110Y-57451925D01*
X203735000Y-57020128D01*
X203735000Y-56579872D01*
X203649110Y-56148075D01*
X203480631Y-55741331D01*
X203236038Y-55375271D01*
X202924729Y-55063962D01*
X202558669Y-54819369D01*
X202151925Y-54650890D01*
X201720128Y-54565000D01*
X201279872Y-54565000D01*
X200848075Y-54650890D01*
X200441331Y-54819369D01*
X200075271Y-55063962D01*
X199763962Y-55375271D01*
X199519369Y-55741331D01*
X199350890Y-56148075D01*
X199265000Y-56579872D01*
X144135000Y-56579872D01*
X144049110Y-56148075D01*
X143880631Y-55741331D01*
X143636038Y-55375271D01*
X143324729Y-55063962D01*
X142958669Y-54819369D01*
X142551925Y-54650890D01*
X142120128Y-54565000D01*
X141679872Y-54565000D01*
X141248075Y-54650890D01*
X140841331Y-54819369D01*
X140475271Y-55063962D01*
X140163962Y-55375271D01*
X139919369Y-55741331D01*
X139750890Y-56148075D01*
X139665000Y-56579872D01*
X120435000Y-56579872D01*
X120349110Y-56148075D01*
X120180631Y-55741331D01*
X119936038Y-55375271D01*
X119624729Y-55063962D01*
X119258669Y-54819369D01*
X118851925Y-54650890D01*
X118420128Y-54565000D01*
X117979872Y-54565000D01*
X117548075Y-54650890D01*
X117141331Y-54819369D01*
X116775271Y-55063962D01*
X116463962Y-55375271D01*
X116219369Y-55741331D01*
X116050890Y-56148075D01*
X115965000Y-56579872D01*
X115260000Y-56579872D01*
X115260000Y-55432279D01*
X115292434Y-55101495D01*
X115379125Y-54814359D01*
X115519938Y-54549528D01*
X115709507Y-54317094D01*
X115940615Y-54125905D01*
X116204451Y-53983250D01*
X116490977Y-53894555D01*
X116819748Y-53860000D01*
X202867721Y-53860000D01*
X203198505Y-53892434D01*
G37*
X203198505Y-53892434D02*
X203485641Y-53979125D01*
X203750472Y-54119938D01*
X203982906Y-54309507D01*
X204174095Y-54540615D01*
X204316750Y-54804451D01*
X204405445Y-55090977D01*
X204440000Y-55419748D01*
X204440001Y-137967711D01*
X204407566Y-138298505D01*
X204320875Y-138585641D01*
X204180060Y-138850475D01*
X203990494Y-139082906D01*
X203759384Y-139274096D01*
X203495550Y-139416750D01*
X203209023Y-139505445D01*
X202880252Y-139540000D01*
X116832279Y-139540000D01*
X116501495Y-139507566D01*
X116214359Y-139420875D01*
X115949525Y-139280060D01*
X115717094Y-139090494D01*
X115525904Y-138859384D01*
X115383250Y-138595550D01*
X115294555Y-138309023D01*
X115260000Y-137980252D01*
X115260000Y-136379872D01*
X115965000Y-136379872D01*
X115965000Y-136820128D01*
X116050890Y-137251925D01*
X116219369Y-137658669D01*
X116463962Y-138024729D01*
X116775271Y-138336038D01*
X117141331Y-138580631D01*
X117548075Y-138749110D01*
X117979872Y-138835000D01*
X118420128Y-138835000D01*
X118851925Y-138749110D01*
X119258669Y-138580631D01*
X119624729Y-138336038D01*
X119936038Y-138024729D01*
X120180631Y-137658669D01*
X120349110Y-137251925D01*
X120435000Y-136820128D01*
X120435000Y-136379872D01*
X120349110Y-135948075D01*
X120180631Y-135541331D01*
X119936038Y-135175271D01*
X119814507Y-135053740D01*
X154995000Y-135053740D01*
X154995000Y-135346260D01*
X155052068Y-135633158D01*
X155164010Y-135903411D01*
X155326525Y-136146632D01*
X155533368Y-136353475D01*
X155776589Y-136515990D01*
X156046842Y-136627932D01*
X156333740Y-136685000D01*
X156626260Y-136685000D01*
X156913158Y-136627932D01*
X157183411Y-136515990D01*
X157426632Y-136353475D01*
X157633475Y-136146632D01*
X157750000Y-135972240D01*
X157866525Y-136146632D01*
X158073368Y-136353475D01*
X158316589Y-136515990D01*
X158586842Y-136627932D01*
X158873740Y-136685000D01*
X159166260Y-136685000D01*
X159453158Y-136627932D01*
X159723411Y-136515990D01*
X159966632Y-136353475D01*
X160173475Y-136146632D01*
X160295195Y-135964466D01*
X160364822Y-136081355D01*
X160559731Y-136297588D01*
X160793080Y-136471641D01*
X161055901Y-136596825D01*
X161203110Y-136641476D01*
X161433000Y-136520155D01*
X161433000Y-135327000D01*
X161413000Y-135327000D01*
X161413000Y-135073000D01*
X161433000Y-135073000D01*
X161433000Y-133879845D01*
X161687000Y-133879845D01*
X161687000Y-135073000D01*
X161707000Y-135073000D01*
X161707000Y-135327000D01*
X161687000Y-135327000D01*
X161687000Y-136520155D01*
X161916890Y-136641476D01*
X162064099Y-136596825D01*
X162326920Y-136471641D01*
X162560269Y-136297588D01*
X162636034Y-136213534D01*
X162660498Y-136294180D01*
X162719463Y-136404494D01*
X162798815Y-136501185D01*
X162895506Y-136580537D01*
X163005820Y-136639502D01*
X163125518Y-136675812D01*
X163250000Y-136688072D01*
X164950000Y-136688072D01*
X165074482Y-136675812D01*
X165194180Y-136639502D01*
X165304494Y-136580537D01*
X165401185Y-136501185D01*
X165480537Y-136404494D01*
X165493697Y-136379872D01*
X188965000Y-136379872D01*
X188965000Y-136820128D01*
X189050890Y-137251925D01*
X189219369Y-137658669D01*
X189463962Y-138024729D01*
X189775271Y-138336038D01*
X190141331Y-138580631D01*
X190548075Y-138749110D01*
X190979872Y-138835000D01*
X191420128Y-138835000D01*
X191851925Y-138749110D01*
X192258669Y-138580631D01*
X192624729Y-138336038D01*
X192936038Y-138024729D01*
X193180631Y-137658669D01*
X193349110Y-137251925D01*
X193435000Y-136820128D01*
X193435000Y-136379872D01*
X193349110Y-135948075D01*
X193180631Y-135541331D01*
X192936038Y-135175271D01*
X192624729Y-134863962D01*
X192258669Y-134619369D01*
X191851925Y-134450890D01*
X191420128Y-134365000D01*
X190979872Y-134365000D01*
X190548075Y-134450890D01*
X190141331Y-134619369D01*
X189775271Y-134863962D01*
X189463962Y-135175271D01*
X189219369Y-135541331D01*
X189050890Y-135948075D01*
X188965000Y-136379872D01*
X165493697Y-136379872D01*
X165539502Y-136294180D01*
X165575812Y-136174482D01*
X165588072Y-136050000D01*
X165588072Y-134350000D01*
X165575812Y-134225518D01*
X165539502Y-134105820D01*
X165480537Y-133995506D01*
X165401185Y-133898815D01*
X165304494Y-133819463D01*
X165194180Y-133760498D01*
X165074482Y-133724188D01*
X164950000Y-133711928D01*
X163250000Y-133711928D01*
X163125518Y-133724188D01*
X163005820Y-133760498D01*
X162895506Y-133819463D01*
X162798815Y-133898815D01*
X162719463Y-133995506D01*
X162660498Y-134105820D01*
X162636034Y-134186466D01*
X162560269Y-134102412D01*
X162326920Y-133928359D01*
X162064099Y-133803175D01*
X161916890Y-133758524D01*
X161687000Y-133879845D01*
X161433000Y-133879845D01*
X161203110Y-133758524D01*
X161055901Y-133803175D01*
X160793080Y-133928359D01*
X160559731Y-134102412D01*
X160364822Y-134318645D01*
X160295195Y-134435534D01*
X160173475Y-134253368D01*
X159966632Y-134046525D01*
X159723411Y-133884010D01*
X159453158Y-133772068D01*
X159166260Y-133715000D01*
X158873740Y-133715000D01*
X158586842Y-133772068D01*
X158316589Y-133884010D01*
X158073368Y-134046525D01*
X157866525Y-134253368D01*
X157750000Y-134427760D01*
X157633475Y-134253368D01*
X157426632Y-134046525D01*
X157183411Y-133884010D01*
X156913158Y-133772068D01*
X156626260Y-133715000D01*
X156333740Y-133715000D01*
X156046842Y-133772068D01*
X155776589Y-133884010D01*
X155533368Y-134046525D01*
X155326525Y-134253368D01*
X155164010Y-134496589D01*
X155052068Y-134766842D01*
X154995000Y-135053740D01*
X119814507Y-135053740D01*
X119624729Y-134863962D01*
X119258669Y-134619369D01*
X118851925Y-134450890D01*
X118420128Y-134365000D01*
X117979872Y-134365000D01*
X117548075Y-134450890D01*
X117141331Y-134619369D01*
X116775271Y-134863962D01*
X116463962Y-135175271D01*
X116219369Y-135541331D01*
X116050890Y-135948075D01*
X115965000Y-136379872D01*
X115260000Y-136379872D01*
X115260000Y-66870000D01*
X118741928Y-66870000D01*
X118754188Y-66994482D01*
X118790498Y-67114180D01*
X118849463Y-67224494D01*
X118928815Y-67321185D01*
X119025506Y-67400537D01*
X119135820Y-67459502D01*
X119255518Y-67495812D01*
X119263961Y-67496643D01*
X119065363Y-67695241D01*
X118908320Y-67930273D01*
X118800147Y-68191426D01*
X118745000Y-68468665D01*
X118745000Y-68751335D01*
X118800147Y-69028574D01*
X118908320Y-69289727D01*
X119065363Y-69524759D01*
X119265241Y-69724637D01*
X119497759Y-69880000D01*
X119265241Y-70035363D01*
X119065363Y-70235241D01*
X118908320Y-70470273D01*
X118800147Y-70731426D01*
X118745000Y-71008665D01*
X118745000Y-71291335D01*
X118800147Y-71568574D01*
X118908320Y-71829727D01*
X119065363Y-72064759D01*
X119265241Y-72264637D01*
X119497759Y-72420000D01*
X119265241Y-72575363D01*
X119065363Y-72775241D01*
X118908320Y-73010273D01*
X118800147Y-73271426D01*
X118745000Y-73548665D01*
X118745000Y-73831335D01*
X118800147Y-74108574D01*
X118908320Y-74369727D01*
X119065363Y-74604759D01*
X119265241Y-74804637D01*
X119497759Y-74960000D01*
X119265241Y-75115363D01*
X119065363Y-75315241D01*
X118908320Y-75550273D01*
X118800147Y-75811426D01*
X118745000Y-76088665D01*
X118745000Y-76371335D01*
X118800147Y-76648574D01*
X118908320Y-76909727D01*
X119065363Y-77144759D01*
X119265241Y-77344637D01*
X119497759Y-77500000D01*
X119265241Y-77655363D01*
X119065363Y-77855241D01*
X118908320Y-78090273D01*
X118800147Y-78351426D01*
X118745000Y-78628665D01*
X118745000Y-78911335D01*
X118800147Y-79188574D01*
X118908320Y-79449727D01*
X119065363Y-79684759D01*
X119265241Y-79884637D01*
X119497759Y-80040000D01*
X119265241Y-80195363D01*
X119065363Y-80395241D01*
X118908320Y-80630273D01*
X118800147Y-80891426D01*
X118745000Y-81168665D01*
X118745000Y-81451335D01*
X118800147Y-81728574D01*
X118908320Y-81989727D01*
X119065363Y-82224759D01*
X119265241Y-82424637D01*
X119497759Y-82580000D01*
X119265241Y-82735363D01*
X119065363Y-82935241D01*
X118908320Y-83170273D01*
X118800147Y-83431426D01*
X118745000Y-83708665D01*
X118745000Y-83991335D01*
X118800147Y-84268574D01*
X118908320Y-84529727D01*
X119065363Y-84764759D01*
X119265241Y-84964637D01*
X119497759Y-85120000D01*
X119265241Y-85275363D01*
X119065363Y-85475241D01*
X118908320Y-85710273D01*
X118800147Y-85971426D01*
X118745000Y-86248665D01*
X118745000Y-86531335D01*
X118800147Y-86808574D01*
X118908320Y-87069727D01*
X119065363Y-87304759D01*
X119265241Y-87504637D01*
X119497759Y-87660000D01*
X119265241Y-87815363D01*
X119065363Y-88015241D01*
X118908320Y-88250273D01*
X118800147Y-88511426D01*
X118745000Y-88788665D01*
X118745000Y-89071335D01*
X118800147Y-89348574D01*
X118908320Y-89609727D01*
X119065363Y-89844759D01*
X119265241Y-90044637D01*
X119497759Y-90200000D01*
X119265241Y-90355363D01*
X119065363Y-90555241D01*
X118908320Y-90790273D01*
X118800147Y-91051426D01*
X118745000Y-91328665D01*
X118745000Y-91611335D01*
X118800147Y-91888574D01*
X118908320Y-92149727D01*
X119065363Y-92384759D01*
X119265241Y-92584637D01*
X119497759Y-92740000D01*
X119265241Y-92895363D01*
X119065363Y-93095241D01*
X118908320Y-93330273D01*
X118800147Y-93591426D01*
X118745000Y-93868665D01*
X118745000Y-94151335D01*
X118800147Y-94428574D01*
X118908320Y-94689727D01*
X119065363Y-94924759D01*
X119265241Y-95124637D01*
X119497759Y-95280000D01*
X119265241Y-95435363D01*
X119065363Y-95635241D01*
X118908320Y-95870273D01*
X118800147Y-96131426D01*
X118745000Y-96408665D01*
X118745000Y-96691335D01*
X118800147Y-96968574D01*
X118908320Y-97229727D01*
X119065363Y-97464759D01*
X119265241Y-97664637D01*
X119497759Y-97820000D01*
X119265241Y-97975363D01*
X119065363Y-98175241D01*
X118908320Y-98410273D01*
X118800147Y-98671426D01*
X118745000Y-98948665D01*
X118745000Y-99231335D01*
X118800147Y-99508574D01*
X118908320Y-99769727D01*
X119065363Y-100004759D01*
X119265241Y-100204637D01*
X119497759Y-100360000D01*
X119265241Y-100515363D01*
X119065363Y-100715241D01*
X118908320Y-100950273D01*
X118800147Y-101211426D01*
X118745000Y-101488665D01*
X118745000Y-101771335D01*
X118800147Y-102048574D01*
X118908320Y-102309727D01*
X119065363Y-102544759D01*
X119265241Y-102744637D01*
X119497759Y-102900000D01*
X119265241Y-103055363D01*
X119065363Y-103255241D01*
X118908320Y-103490273D01*
X118800147Y-103751426D01*
X118745000Y-104028665D01*
X118745000Y-104311335D01*
X118800147Y-104588574D01*
X118908320Y-104849727D01*
X119065363Y-105084759D01*
X119265241Y-105284637D01*
X119497759Y-105440000D01*
X119265241Y-105595363D01*
X119065363Y-105795241D01*
X118908320Y-106030273D01*
X118800147Y-106291426D01*
X118745000Y-106568665D01*
X118745000Y-106851335D01*
X118800147Y-107128574D01*
X118908320Y-107389727D01*
X119065363Y-107624759D01*
X119265241Y-107824637D01*
X119497759Y-107980000D01*
X119265241Y-108135363D01*
X119065363Y-108335241D01*
X118908320Y-108570273D01*
X118800147Y-108831426D01*
X118745000Y-109108665D01*
X118745000Y-109391335D01*
X118800147Y-109668574D01*
X118908320Y-109929727D01*
X119065363Y-110164759D01*
X119265241Y-110364637D01*
X119497759Y-110520000D01*
X119265241Y-110675363D01*
X119065363Y-110875241D01*
X118908320Y-111110273D01*
X118800147Y-111371426D01*
X118745000Y-111648665D01*
X118745000Y-111931335D01*
X118800147Y-112208574D01*
X118908320Y-112469727D01*
X119065363Y-112704759D01*
X119265241Y-112904637D01*
X119497759Y-113060000D01*
X119265241Y-113215363D01*
X119065363Y-113415241D01*
X118908320Y-113650273D01*
X118800147Y-113911426D01*
X118745000Y-114188665D01*
X118745000Y-114471335D01*
X118800147Y-114748574D01*
X118908320Y-115009727D01*
X119065363Y-115244759D01*
X119265241Y-115444637D01*
X119500273Y-115601680D01*
X119761426Y-115709853D01*
X120038665Y-115765000D01*
X120321335Y-115765000D01*
X120598574Y-115709853D01*
X120859727Y-115601680D01*
X121094759Y-115444637D01*
X121294637Y-115244759D01*
X121451680Y-115009727D01*
X121559853Y-114748574D01*
X121615000Y-114471335D01*
X121615000Y-114188665D01*
X123825000Y-114188665D01*
X123825000Y-114471335D01*
X123880147Y-114748574D01*
X123988320Y-115009727D01*
X124145363Y-115244759D01*
X124345241Y-115444637D01*
X124580273Y-115601680D01*
X124841426Y-115709853D01*
X125118665Y-115765000D01*
X125401335Y-115765000D01*
X125678574Y-115709853D01*
X125939727Y-115601680D01*
X126174759Y-115444637D01*
X126296694Y-115322702D01*
X126986903Y-115322702D01*
X127058486Y-115566671D01*
X127313996Y-115687571D01*
X127588184Y-115756300D01*
X127870512Y-115770217D01*
X128150130Y-115728787D01*
X128416292Y-115633603D01*
X128541514Y-115566671D01*
X128613097Y-115322702D01*
X127800000Y-114509605D01*
X126986903Y-115322702D01*
X126296694Y-115322702D01*
X126374637Y-115244759D01*
X126530915Y-115010872D01*
X126563329Y-115071514D01*
X126807298Y-115143097D01*
X127620395Y-114330000D01*
X126807298Y-113516903D01*
X126563329Y-113588486D01*
X126532806Y-113652992D01*
X126531680Y-113650273D01*
X126374637Y-113415241D01*
X126296694Y-113337298D01*
X126986903Y-113337298D01*
X127800000Y-114150395D01*
X128613097Y-113337298D01*
X128541514Y-113093329D01*
X128286004Y-112972429D01*
X128011816Y-112903700D01*
X127729488Y-112889783D01*
X127449870Y-112931213D01*
X127183708Y-113026397D01*
X127058486Y-113093329D01*
X126986903Y-113337298D01*
X126296694Y-113337298D01*
X126174759Y-113215363D01*
X125939727Y-113058320D01*
X125678574Y-112950147D01*
X125401335Y-112895000D01*
X125118665Y-112895000D01*
X124841426Y-112950147D01*
X124580273Y-113058320D01*
X124345241Y-113215363D01*
X124145363Y-113415241D01*
X123988320Y-113650273D01*
X123880147Y-113911426D01*
X123825000Y-114188665D01*
X121615000Y-114188665D01*
X121559853Y-113911426D01*
X121451680Y-113650273D01*
X121294637Y-113415241D01*
X121094759Y-113215363D01*
X120862241Y-113060000D01*
X121094759Y-112904637D01*
X121294637Y-112704759D01*
X121451680Y-112469727D01*
X121559853Y-112208574D01*
X121615000Y-111931335D01*
X121615000Y-111648665D01*
X121559853Y-111371426D01*
X121451680Y-111110273D01*
X121294637Y-110875241D01*
X121094759Y-110675363D01*
X120862241Y-110520000D01*
X121094759Y-110364637D01*
X121294637Y-110164759D01*
X121451680Y-109929727D01*
X121559853Y-109668574D01*
X121615000Y-109391335D01*
X121615000Y-109108665D01*
X121561097Y-108837679D01*
X121570000Y-108838556D01*
X121606105Y-108835000D01*
X131601289Y-108835000D01*
X131496063Y-108940226D01*
X131382795Y-109109744D01*
X131304774Y-109298102D01*
X131265000Y-109498061D01*
X131265000Y-109701939D01*
X131304774Y-109901898D01*
X131382795Y-110090256D01*
X131496063Y-110259774D01*
X131565001Y-110328712D01*
X131565000Y-113580412D01*
X131454637Y-113415241D01*
X131254759Y-113215363D01*
X131019727Y-113058320D01*
X130758574Y-112950147D01*
X130481335Y-112895000D01*
X130198665Y-112895000D01*
X129921426Y-112950147D01*
X129660273Y-113058320D01*
X129425241Y-113215363D01*
X129225363Y-113415241D01*
X129069085Y-113649128D01*
X129036671Y-113588486D01*
X128792702Y-113516903D01*
X127979605Y-114330000D01*
X128792702Y-115143097D01*
X129036671Y-115071514D01*
X129067194Y-115007008D01*
X129068320Y-115009727D01*
X129225363Y-115244759D01*
X129425241Y-115444637D01*
X129660273Y-115601680D01*
X129921426Y-115709853D01*
X130198665Y-115765000D01*
X130481335Y-115765000D01*
X130758574Y-115709853D01*
X131019727Y-115601680D01*
X131254759Y-115444637D01*
X131454637Y-115244759D01*
X131565000Y-115079588D01*
X131565000Y-117438895D01*
X131561444Y-117475000D01*
X131565000Y-117511104D01*
X131575635Y-117619084D01*
X131617663Y-117757632D01*
X131685913Y-117885319D01*
X131777762Y-117997237D01*
X131805808Y-118020254D01*
X133879746Y-120094193D01*
X133902762Y-120122238D01*
X134014680Y-120214087D01*
X134142367Y-120282337D01*
X134280915Y-120324365D01*
X134425000Y-120338556D01*
X134461105Y-120335000D01*
X134571289Y-120335000D01*
X134640226Y-120403937D01*
X134809744Y-120517205D01*
X134998102Y-120595226D01*
X135198061Y-120635000D01*
X135401939Y-120635000D01*
X135601898Y-120595226D01*
X135790256Y-120517205D01*
X135959774Y-120403937D01*
X136103937Y-120259774D01*
X136217205Y-120090256D01*
X136295226Y-119901898D01*
X136335000Y-119701939D01*
X136335000Y-119498061D01*
X136295226Y-119298102D01*
X136217205Y-119109744D01*
X136103937Y-118940226D01*
X135959774Y-118796063D01*
X135790256Y-118682795D01*
X135601898Y-118604774D01*
X135401939Y-118565000D01*
X135198061Y-118565000D01*
X134998102Y-118604774D01*
X134809744Y-118682795D01*
X134652385Y-118787938D01*
X133035000Y-117170554D01*
X133035000Y-110328711D01*
X133103937Y-110259774D01*
X133217205Y-110090256D01*
X133295226Y-109901898D01*
X133335000Y-109701939D01*
X133335000Y-109498061D01*
X133295226Y-109298102D01*
X133217205Y-109109744D01*
X133103937Y-108940226D01*
X132998711Y-108835000D01*
X134039436Y-108835000D01*
X133985000Y-109108665D01*
X133985000Y-109391335D01*
X134040147Y-109668574D01*
X134148320Y-109929727D01*
X134305363Y-110164759D01*
X134505241Y-110364637D01*
X134737759Y-110520000D01*
X134505241Y-110675363D01*
X134305363Y-110875241D01*
X134148320Y-111110273D01*
X134040147Y-111371426D01*
X133985000Y-111648665D01*
X133985000Y-111931335D01*
X134040147Y-112208574D01*
X134148320Y-112469727D01*
X134305363Y-112704759D01*
X134505241Y-112904637D01*
X134737759Y-113060000D01*
X134505241Y-113215363D01*
X134305363Y-113415241D01*
X134148320Y-113650273D01*
X134040147Y-113911426D01*
X133985000Y-114188665D01*
X133985000Y-114471335D01*
X134040147Y-114748574D01*
X134148320Y-115009727D01*
X134305363Y-115244759D01*
X134505241Y-115444637D01*
X134740273Y-115601680D01*
X135001426Y-115709853D01*
X135278665Y-115765000D01*
X135561335Y-115765000D01*
X135838574Y-115709853D01*
X136099727Y-115601680D01*
X136334759Y-115444637D01*
X136534637Y-115244759D01*
X136691680Y-115009727D01*
X136799853Y-114748574D01*
X136855000Y-114471335D01*
X136855000Y-114188665D01*
X136799853Y-113911426D01*
X136691680Y-113650273D01*
X136534637Y-113415241D01*
X136334759Y-113215363D01*
X136102241Y-113060000D01*
X136334759Y-112904637D01*
X136534637Y-112704759D01*
X136691680Y-112469727D01*
X136799853Y-112208574D01*
X136855000Y-111931335D01*
X136855000Y-111648665D01*
X136799853Y-111371426D01*
X136691680Y-111110273D01*
X136534637Y-110875241D01*
X136334759Y-110675363D01*
X136102241Y-110520000D01*
X136334759Y-110364637D01*
X136364396Y-110335000D01*
X142771289Y-110335000D01*
X142840226Y-110403937D01*
X143009744Y-110517205D01*
X143198102Y-110595226D01*
X143398061Y-110635000D01*
X143601939Y-110635000D01*
X143801898Y-110595226D01*
X143990256Y-110517205D01*
X144159774Y-110403937D01*
X144303937Y-110259774D01*
X144417205Y-110090256D01*
X144495226Y-109901898D01*
X144535000Y-109701939D01*
X144535000Y-109498061D01*
X144495226Y-109298102D01*
X144417205Y-109109744D01*
X144303937Y-108940226D01*
X144159774Y-108796063D01*
X143990256Y-108682795D01*
X143801898Y-108604774D01*
X143601939Y-108565000D01*
X143527666Y-108565000D01*
X143595226Y-108401898D01*
X143635000Y-108201939D01*
X143635000Y-107998061D01*
X143595226Y-107798102D01*
X143517205Y-107609744D01*
X143403937Y-107440226D01*
X143259774Y-107296063D01*
X143090256Y-107182795D01*
X142901898Y-107104774D01*
X142701939Y-107065000D01*
X142498061Y-107065000D01*
X142298102Y-107104774D01*
X142109744Y-107182795D01*
X141940226Y-107296063D01*
X141871289Y-107365000D01*
X136701922Y-107365000D01*
X136799853Y-107128574D01*
X136855000Y-106851335D01*
X136855000Y-106568665D01*
X136799853Y-106291426D01*
X136691680Y-106030273D01*
X136534637Y-105795241D01*
X136334759Y-105595363D01*
X136102241Y-105440000D01*
X136334759Y-105284637D01*
X136534637Y-105084759D01*
X136691680Y-104849727D01*
X136799853Y-104588574D01*
X136855000Y-104311335D01*
X136855000Y-104028665D01*
X136799853Y-103751426D01*
X136691680Y-103490273D01*
X136534637Y-103255241D01*
X136334759Y-103055363D01*
X136102241Y-102900000D01*
X136334759Y-102744637D01*
X136534637Y-102544759D01*
X136691680Y-102309727D01*
X136799853Y-102048574D01*
X136855000Y-101771335D01*
X136855000Y-101488665D01*
X136799853Y-101211426D01*
X136691680Y-100950273D01*
X136534637Y-100715241D01*
X136334759Y-100515363D01*
X136102241Y-100360000D01*
X136334759Y-100204637D01*
X136504396Y-100035000D01*
X147671289Y-100035000D01*
X147740226Y-100103937D01*
X147909744Y-100217205D01*
X148098102Y-100295226D01*
X148298061Y-100335000D01*
X148501939Y-100335000D01*
X148701898Y-100295226D01*
X148890256Y-100217205D01*
X149059774Y-100103937D01*
X149203937Y-99959774D01*
X149317205Y-99790256D01*
X149395226Y-99601898D01*
X149435000Y-99401939D01*
X149435000Y-99198061D01*
X149395226Y-98998102D01*
X149317205Y-98809744D01*
X149203937Y-98640226D01*
X149059774Y-98496063D01*
X148890256Y-98382795D01*
X148701898Y-98304774D01*
X148501939Y-98265000D01*
X148298061Y-98265000D01*
X148098102Y-98304774D01*
X147909744Y-98382795D01*
X147740226Y-98496063D01*
X147671289Y-98565000D01*
X136755770Y-98565000D01*
X136691680Y-98410273D01*
X136534637Y-98175241D01*
X136334759Y-97975363D01*
X136102241Y-97820000D01*
X136334759Y-97664637D01*
X136534637Y-97464759D01*
X136691680Y-97229727D01*
X136799853Y-96968574D01*
X136855000Y-96691335D01*
X136855000Y-96408665D01*
X136799853Y-96131426D01*
X136691680Y-95870273D01*
X136534637Y-95635241D01*
X136334759Y-95435363D01*
X136102241Y-95280000D01*
X136334759Y-95124637D01*
X136534637Y-94924759D01*
X136691680Y-94689727D01*
X136799853Y-94428574D01*
X136855000Y-94151335D01*
X136855000Y-93868665D01*
X136799853Y-93591426D01*
X136776481Y-93535000D01*
X150071576Y-93535000D01*
X150104774Y-93701898D01*
X150182795Y-93890256D01*
X150296063Y-94059774D01*
X150440226Y-94203937D01*
X150609744Y-94317205D01*
X150798102Y-94395226D01*
X150998061Y-94435000D01*
X151201939Y-94435000D01*
X151401898Y-94395226D01*
X151590256Y-94317205D01*
X151759774Y-94203937D01*
X151903937Y-94059774D01*
X152017205Y-93890256D01*
X152095226Y-93701898D01*
X152135000Y-93501939D01*
X152135000Y-93298061D01*
X152095226Y-93098102D01*
X152017205Y-92909744D01*
X151903937Y-92740226D01*
X151759774Y-92596063D01*
X151590256Y-92482795D01*
X151401898Y-92404774D01*
X151201939Y-92365000D01*
X151104446Y-92365000D01*
X151045258Y-92305812D01*
X151022238Y-92277762D01*
X150910320Y-92185913D01*
X150782633Y-92117663D01*
X150644085Y-92075635D01*
X150536105Y-92065000D01*
X150500000Y-92061444D01*
X150463895Y-92065000D01*
X136725997Y-92065000D01*
X136777571Y-91956004D01*
X136846300Y-91681816D01*
X136860217Y-91399488D01*
X136818787Y-91119870D01*
X136752674Y-90935000D01*
X152595554Y-90935000D01*
X152865000Y-91204446D01*
X152865000Y-91301939D01*
X152904774Y-91501898D01*
X152982795Y-91690256D01*
X153096063Y-91859774D01*
X153240226Y-92003937D01*
X153409744Y-92117205D01*
X153598102Y-92195226D01*
X153798061Y-92235000D01*
X154001939Y-92235000D01*
X154201898Y-92195226D01*
X154390256Y-92117205D01*
X154559774Y-92003937D01*
X154703937Y-91859774D01*
X154817205Y-91690256D01*
X154895226Y-91501898D01*
X154935000Y-91301939D01*
X154935000Y-91098061D01*
X154895226Y-90898102D01*
X154817205Y-90709744D01*
X154703937Y-90540226D01*
X154559774Y-90396063D01*
X154390256Y-90282795D01*
X154201898Y-90204774D01*
X154001939Y-90165000D01*
X153904446Y-90165000D01*
X153445258Y-89705812D01*
X153422238Y-89677762D01*
X153310320Y-89585913D01*
X153182633Y-89517663D01*
X153044085Y-89475635D01*
X152936105Y-89465000D01*
X152900000Y-89461444D01*
X152863895Y-89465000D01*
X136751628Y-89465000D01*
X136799853Y-89348574D01*
X136855000Y-89071335D01*
X136855000Y-88788665D01*
X136799853Y-88511426D01*
X136768196Y-88435000D01*
X154871576Y-88435000D01*
X154904774Y-88601898D01*
X154982795Y-88790256D01*
X155096063Y-88959774D01*
X155240226Y-89103937D01*
X155409744Y-89217205D01*
X155598102Y-89295226D01*
X155798061Y-89335000D01*
X156001939Y-89335000D01*
X156201898Y-89295226D01*
X156390256Y-89217205D01*
X156559774Y-89103937D01*
X156703937Y-88959774D01*
X156817205Y-88790256D01*
X156895226Y-88601898D01*
X156935000Y-88401939D01*
X156935000Y-88198061D01*
X156895226Y-87998102D01*
X156817205Y-87809744D01*
X156703937Y-87640226D01*
X156559774Y-87496063D01*
X156390256Y-87382795D01*
X156201898Y-87304774D01*
X156001939Y-87265000D01*
X155904446Y-87265000D01*
X155845258Y-87205812D01*
X155822238Y-87177762D01*
X155710320Y-87085913D01*
X155582633Y-87017663D01*
X155444085Y-86975635D01*
X155336105Y-86965000D01*
X155300000Y-86961444D01*
X155263895Y-86965000D01*
X136735059Y-86965000D01*
X136799853Y-86808574D01*
X136855000Y-86531335D01*
X136855000Y-86248665D01*
X136799853Y-85971426D01*
X136691680Y-85710273D01*
X136534637Y-85475241D01*
X136334759Y-85275363D01*
X136102241Y-85120000D01*
X136334759Y-84964637D01*
X136534637Y-84764759D01*
X136691680Y-84529727D01*
X136799853Y-84268574D01*
X136855000Y-83991335D01*
X136855000Y-83708665D01*
X136799853Y-83431426D01*
X136691680Y-83170273D01*
X136654749Y-83115001D01*
X160175555Y-83115001D01*
X160765000Y-83704447D01*
X160765000Y-83801939D01*
X160804774Y-84001898D01*
X160882795Y-84190256D01*
X160996063Y-84359774D01*
X161140226Y-84503937D01*
X161309744Y-84617205D01*
X161498102Y-84695226D01*
X161698061Y-84735000D01*
X161901939Y-84735000D01*
X162101898Y-84695226D01*
X162290256Y-84617205D01*
X162459774Y-84503937D01*
X162603937Y-84359774D01*
X162717205Y-84190256D01*
X162795226Y-84001898D01*
X162835000Y-83801939D01*
X162835000Y-83598061D01*
X162795226Y-83398102D01*
X162717205Y-83209744D01*
X162603937Y-83040226D01*
X162459774Y-82896063D01*
X162290256Y-82782795D01*
X162101898Y-82704774D01*
X161901939Y-82665000D01*
X161804447Y-82665000D01*
X161025259Y-81885813D01*
X161002239Y-81857763D01*
X160890321Y-81765914D01*
X160762634Y-81697664D01*
X160624086Y-81655636D01*
X160516106Y-81645001D01*
X160480001Y-81641445D01*
X160443896Y-81645001D01*
X136816477Y-81645001D01*
X136855000Y-81451335D01*
X136855000Y-81168665D01*
X136799853Y-80891426D01*
X136735059Y-80735000D01*
X162295554Y-80735000D01*
X163265000Y-81704447D01*
X163265000Y-81801939D01*
X163304774Y-82001898D01*
X163382795Y-82190256D01*
X163496063Y-82359774D01*
X163640226Y-82503937D01*
X163809744Y-82617205D01*
X163998102Y-82695226D01*
X164198061Y-82735000D01*
X164401939Y-82735000D01*
X164601898Y-82695226D01*
X164790256Y-82617205D01*
X164959774Y-82503937D01*
X165103937Y-82359774D01*
X165217205Y-82190256D01*
X165295226Y-82001898D01*
X165335000Y-81801939D01*
X165335000Y-81598061D01*
X165295226Y-81398102D01*
X165217205Y-81209744D01*
X165103937Y-81040226D01*
X164959774Y-80896063D01*
X164790256Y-80782795D01*
X164601898Y-80704774D01*
X164401939Y-80665000D01*
X164304447Y-80665000D01*
X163145258Y-79505812D01*
X163122238Y-79477762D01*
X163010320Y-79385913D01*
X162882633Y-79317663D01*
X162744085Y-79275635D01*
X162636105Y-79265000D01*
X162600000Y-79261444D01*
X162563895Y-79265000D01*
X136768196Y-79265000D01*
X136799853Y-79188574D01*
X136855000Y-78911335D01*
X136855000Y-78628665D01*
X136799853Y-78351426D01*
X136691680Y-78090273D01*
X136534637Y-77855241D01*
X136334759Y-77655363D01*
X136102241Y-77500000D01*
X136334759Y-77344637D01*
X136534637Y-77144759D01*
X136691680Y-76909727D01*
X136799853Y-76648574D01*
X136855000Y-76371335D01*
X136855000Y-76088665D01*
X136799853Y-75811426D01*
X136691680Y-75550273D01*
X136534637Y-75315241D01*
X136334759Y-75115363D01*
X136102241Y-74960000D01*
X136334759Y-74804637D01*
X136534637Y-74604759D01*
X136691680Y-74369727D01*
X136799853Y-74108574D01*
X136855000Y-73831335D01*
X136855000Y-73548665D01*
X136799853Y-73271426D01*
X136691680Y-73010273D01*
X136534637Y-72775241D01*
X136334759Y-72575363D01*
X136102241Y-72420000D01*
X136334759Y-72264637D01*
X136534637Y-72064759D01*
X136691680Y-71829727D01*
X136799853Y-71568574D01*
X136855000Y-71291335D01*
X136855000Y-71008665D01*
X136799853Y-70731426D01*
X136751867Y-70615578D01*
X136840226Y-70703937D01*
X137009744Y-70817205D01*
X137198102Y-70895226D01*
X137398061Y-70935000D01*
X137601939Y-70935000D01*
X137801898Y-70895226D01*
X137942732Y-70836890D01*
X190858524Y-70836890D01*
X190903175Y-70984099D01*
X191028359Y-71246920D01*
X191202412Y-71480269D01*
X191418645Y-71675178D01*
X191668748Y-71824157D01*
X191943109Y-71921481D01*
X192173000Y-71800814D01*
X192173000Y-70607000D01*
X192427000Y-70607000D01*
X192427000Y-71800814D01*
X192656891Y-71921481D01*
X192931252Y-71824157D01*
X193181355Y-71675178D01*
X193397588Y-71480269D01*
X193571641Y-71246920D01*
X193696825Y-70984099D01*
X193741476Y-70836890D01*
X193620155Y-70607000D01*
X192427000Y-70607000D01*
X192173000Y-70607000D01*
X190979845Y-70607000D01*
X190858524Y-70836890D01*
X137942732Y-70836890D01*
X137990256Y-70817205D01*
X138159774Y-70703937D01*
X138303937Y-70559774D01*
X138417205Y-70390256D01*
X138495226Y-70201898D01*
X138535000Y-70001939D01*
X138535000Y-69798061D01*
X138495226Y-69598102D01*
X138417205Y-69409744D01*
X138303937Y-69240226D01*
X138159774Y-69096063D01*
X137990256Y-68982795D01*
X137801898Y-68904774D01*
X137601939Y-68865000D01*
X137398061Y-68865000D01*
X137198102Y-68904774D01*
X137009744Y-68982795D01*
X136886715Y-69065000D01*
X136784765Y-69065000D01*
X136799853Y-69028574D01*
X136855000Y-68751335D01*
X136855000Y-68468665D01*
X136799853Y-68191426D01*
X136691680Y-67930273D01*
X136534637Y-67695241D01*
X136334759Y-67495363D01*
X136102241Y-67340000D01*
X136334759Y-67184637D01*
X136534637Y-66984759D01*
X136691680Y-66749727D01*
X136799853Y-66488574D01*
X136855000Y-66211335D01*
X136855000Y-65928665D01*
X136799853Y-65651426D01*
X136691680Y-65390273D01*
X136534637Y-65155241D01*
X136334759Y-64955363D01*
X136099727Y-64798320D01*
X135838574Y-64690147D01*
X135561335Y-64635000D01*
X135278665Y-64635000D01*
X135001426Y-64690147D01*
X134740273Y-64798320D01*
X134505241Y-64955363D01*
X134305363Y-65155241D01*
X134148320Y-65390273D01*
X134040147Y-65651426D01*
X133985000Y-65928665D01*
X133985000Y-66211335D01*
X134040147Y-66488574D01*
X134148320Y-66749727D01*
X134305363Y-66984759D01*
X134505241Y-67184637D01*
X134737759Y-67340000D01*
X134505241Y-67495363D01*
X134305363Y-67695241D01*
X134148320Y-67930273D01*
X134040147Y-68191426D01*
X133985000Y-68468665D01*
X133985000Y-68751335D01*
X134040147Y-69028574D01*
X134055235Y-69065000D01*
X124136094Y-69065000D01*
X124099999Y-69061445D01*
X124063904Y-69065000D01*
X124063895Y-69065000D01*
X123955915Y-69075635D01*
X123817367Y-69117663D01*
X123689680Y-69185913D01*
X123577762Y-69277762D01*
X123554746Y-69305807D01*
X121615000Y-71245554D01*
X121615000Y-71008665D01*
X121559853Y-70731426D01*
X121451680Y-70470273D01*
X121294637Y-70235241D01*
X121094759Y-70035363D01*
X120862241Y-69880000D01*
X121094759Y-69724637D01*
X121294637Y-69524759D01*
X121451680Y-69289727D01*
X121559853Y-69028574D01*
X121615000Y-68751335D01*
X121615000Y-68468665D01*
X121559853Y-68191426D01*
X121451680Y-67930273D01*
X121294637Y-67695241D01*
X121096039Y-67496643D01*
X121104482Y-67495812D01*
X121224180Y-67459502D01*
X121334494Y-67400537D01*
X121431185Y-67321185D01*
X121510537Y-67224494D01*
X121569502Y-67114180D01*
X121605812Y-66994482D01*
X121618072Y-66870000D01*
X121615000Y-66355750D01*
X121456250Y-66197000D01*
X120307000Y-66197000D01*
X120307000Y-66217000D01*
X120053000Y-66217000D01*
X120053000Y-66197000D01*
X118903750Y-66197000D01*
X118745000Y-66355750D01*
X118741928Y-66870000D01*
X115260000Y-66870000D01*
X115260000Y-65270000D01*
X118741928Y-65270000D01*
X118745000Y-65784250D01*
X118903750Y-65943000D01*
X120053000Y-65943000D01*
X120053000Y-64793750D01*
X120307000Y-64793750D01*
X120307000Y-65943000D01*
X121456250Y-65943000D01*
X121615000Y-65784250D01*
X121618072Y-65270000D01*
X121605812Y-65145518D01*
X121569502Y-65025820D01*
X121510537Y-64915506D01*
X121431185Y-64818815D01*
X121334494Y-64739463D01*
X121224180Y-64680498D01*
X121104482Y-64644188D01*
X120980000Y-64631928D01*
X120465750Y-64635000D01*
X120307000Y-64793750D01*
X120053000Y-64793750D01*
X119894250Y-64635000D01*
X119380000Y-64631928D01*
X119255518Y-64644188D01*
X119135820Y-64680498D01*
X119025506Y-64739463D01*
X118928815Y-64818815D01*
X118849463Y-64915506D01*
X118790498Y-65025820D01*
X118754188Y-65145518D01*
X118741928Y-65270000D01*
X115260000Y-65270000D01*
X115260000Y-63779872D01*
X139665000Y-63779872D01*
X139665000Y-64220128D01*
X139750890Y-64651925D01*
X139919369Y-65058669D01*
X140163962Y-65424729D01*
X140475271Y-65736038D01*
X140841331Y-65980631D01*
X141248075Y-66149110D01*
X141679872Y-66235000D01*
X142120128Y-66235000D01*
X142551925Y-66149110D01*
X142958669Y-65980631D01*
X143324729Y-65736038D01*
X143636038Y-65424729D01*
X143880631Y-65058669D01*
X144049110Y-64651925D01*
X144069384Y-64550000D01*
X190811928Y-64550000D01*
X190811928Y-66250000D01*
X190824188Y-66374482D01*
X190860498Y-66494180D01*
X190919463Y-66604494D01*
X190998815Y-66701185D01*
X191095506Y-66780537D01*
X191205820Y-66839502D01*
X191278380Y-66861513D01*
X191146525Y-66993368D01*
X190984010Y-67236589D01*
X190872068Y-67506842D01*
X190815000Y-67793740D01*
X190815000Y-68086260D01*
X190872068Y-68373158D01*
X190984010Y-68643411D01*
X191146525Y-68886632D01*
X191353368Y-69093475D01*
X191535534Y-69215195D01*
X191418645Y-69284822D01*
X191202412Y-69479731D01*
X191028359Y-69713080D01*
X190903175Y-69975901D01*
X190858524Y-70123110D01*
X190979845Y-70353000D01*
X192173000Y-70353000D01*
X192173000Y-70333000D01*
X192427000Y-70333000D01*
X192427000Y-70353000D01*
X193620155Y-70353000D01*
X193741476Y-70123110D01*
X193696825Y-69975901D01*
X193571641Y-69713080D01*
X193397588Y-69479731D01*
X193181355Y-69284822D01*
X193064466Y-69215195D01*
X193246632Y-69093475D01*
X193453475Y-68886632D01*
X193615990Y-68643411D01*
X193727932Y-68373158D01*
X193785000Y-68086260D01*
X193785000Y-67793740D01*
X193727932Y-67506842D01*
X193615990Y-67236589D01*
X193453475Y-66993368D01*
X193321620Y-66861513D01*
X193394180Y-66839502D01*
X193504494Y-66780537D01*
X193601185Y-66701185D01*
X193680537Y-66604494D01*
X193739502Y-66494180D01*
X193775812Y-66374482D01*
X193788072Y-66250000D01*
X193788072Y-64550000D01*
X193775812Y-64425518D01*
X193739502Y-64305820D01*
X193680537Y-64195506D01*
X193601185Y-64098815D01*
X193504494Y-64019463D01*
X193394180Y-63960498D01*
X193274482Y-63924188D01*
X193150000Y-63911928D01*
X191450000Y-63911928D01*
X191325518Y-63924188D01*
X191205820Y-63960498D01*
X191095506Y-64019463D01*
X190998815Y-64098815D01*
X190919463Y-64195506D01*
X190860498Y-64305820D01*
X190824188Y-64425518D01*
X190811928Y-64550000D01*
X144069384Y-64550000D01*
X144135000Y-64220128D01*
X144135000Y-63779872D01*
X144049110Y-63348075D01*
X143880631Y-62941331D01*
X143636038Y-62575271D01*
X143324729Y-62263962D01*
X142958669Y-62019369D01*
X142551925Y-61850890D01*
X142120128Y-61765000D01*
X141679872Y-61765000D01*
X141248075Y-61850890D01*
X140841331Y-62019369D01*
X140475271Y-62263962D01*
X140163962Y-62575271D01*
X139919369Y-62941331D01*
X139750890Y-63348075D01*
X139665000Y-63779872D01*
X115260000Y-63779872D01*
X115260000Y-56579872D01*
X115965000Y-56579872D01*
X115965000Y-57020128D01*
X116050890Y-57451925D01*
X116219369Y-57858669D01*
X116463962Y-58224729D01*
X116775271Y-58536038D01*
X117141331Y-58780631D01*
X117548075Y-58949110D01*
X117979872Y-59035000D01*
X118420128Y-59035000D01*
X118851925Y-58949110D01*
X119258669Y-58780631D01*
X119624729Y-58536038D01*
X119936038Y-58224729D01*
X120180631Y-57858669D01*
X120349110Y-57451925D01*
X120435000Y-57020128D01*
X120435000Y-56579872D01*
X139665000Y-56579872D01*
X139665000Y-57020128D01*
X139750890Y-57451925D01*
X139919369Y-57858669D01*
X140163962Y-58224729D01*
X140475271Y-58536038D01*
X140841331Y-58780631D01*
X141248075Y-58949110D01*
X141679872Y-59035000D01*
X142120128Y-59035000D01*
X142551925Y-58949110D01*
X142958669Y-58780631D01*
X143324729Y-58536038D01*
X143636038Y-58224729D01*
X143880631Y-57858669D01*
X144049110Y-57451925D01*
X144135000Y-57020128D01*
X144135000Y-56579872D01*
X199265000Y-56579872D01*
X199265000Y-57020128D01*
X199350890Y-57451925D01*
X199519369Y-57858669D01*
X199763962Y-58224729D01*
X200075271Y-58536038D01*
X200441331Y-58780631D01*
X200848075Y-58949110D01*
X201279872Y-59035000D01*
X201720128Y-59035000D01*
X202151925Y-58949110D01*
X202558669Y-58780631D01*
X202924729Y-58536038D01*
X203236038Y-58224729D01*
X203480631Y-57858669D01*
X203649110Y-57451925D01*
X203735000Y-57020128D01*
X203735000Y-56579872D01*
X203649110Y-56148075D01*
X203480631Y-55741331D01*
X203236038Y-55375271D01*
X202924729Y-55063962D01*
X202558669Y-54819369D01*
X202151925Y-54650890D01*
X201720128Y-54565000D01*
X201279872Y-54565000D01*
X200848075Y-54650890D01*
X200441331Y-54819369D01*
X200075271Y-55063962D01*
X199763962Y-55375271D01*
X199519369Y-55741331D01*
X199350890Y-56148075D01*
X199265000Y-56579872D01*
X144135000Y-56579872D01*
X144049110Y-56148075D01*
X143880631Y-55741331D01*
X143636038Y-55375271D01*
X143324729Y-55063962D01*
X142958669Y-54819369D01*
X142551925Y-54650890D01*
X142120128Y-54565000D01*
X141679872Y-54565000D01*
X141248075Y-54650890D01*
X140841331Y-54819369D01*
X140475271Y-55063962D01*
X140163962Y-55375271D01*
X139919369Y-55741331D01*
X139750890Y-56148075D01*
X139665000Y-56579872D01*
X120435000Y-56579872D01*
X120349110Y-56148075D01*
X120180631Y-55741331D01*
X119936038Y-55375271D01*
X119624729Y-55063962D01*
X119258669Y-54819369D01*
X118851925Y-54650890D01*
X118420128Y-54565000D01*
X117979872Y-54565000D01*
X117548075Y-54650890D01*
X117141331Y-54819369D01*
X116775271Y-55063962D01*
X116463962Y-55375271D01*
X116219369Y-55741331D01*
X116050890Y-56148075D01*
X115965000Y-56579872D01*
X115260000Y-56579872D01*
X115260000Y-55432279D01*
X115292434Y-55101495D01*
X115379125Y-54814359D01*
X115519938Y-54549528D01*
X115709507Y-54317094D01*
X115940615Y-54125905D01*
X116204451Y-53983250D01*
X116490977Y-53894555D01*
X116819748Y-53860000D01*
X202867721Y-53860000D01*
X203198505Y-53892434D01*
G36*
X135613748Y-91455858D02*
G01*
X135599605Y-91470000D01*
X135613748Y-91484143D01*
X135434143Y-91663748D01*
X135420000Y-91649605D01*
X135405858Y-91663748D01*
X135226253Y-91484143D01*
X135240395Y-91470000D01*
X135226253Y-91455858D01*
X135405858Y-91276253D01*
X135420000Y-91290395D01*
X135434143Y-91276253D01*
X135613748Y-91455858D01*
G37*
X135613748Y-91455858D02*
X135599605Y-91470000D01*
X135613748Y-91484143D01*
X135434143Y-91663748D01*
X135420000Y-91649605D01*
X135405858Y-91663748D01*
X135226253Y-91484143D01*
X135240395Y-91470000D01*
X135226253Y-91455858D01*
X135405858Y-91276253D01*
X135420000Y-91290395D01*
X135434143Y-91276253D01*
X135613748Y-91455858D01*
M02*
