G04 #@! TF.GenerationSoftware,KiCad,Pcbnew,(5.1.5)-3*
G04 #@! TF.CreationDate,2020-05-26T01:54:40-08:00*
G04 #@! TF.ProjectId,board,626f6172-642e-46b6-9963-61645f706362,rev?*
G04 #@! TF.SameCoordinates,Original*
G04 #@! TF.FileFunction,Legend,Top*
G04 #@! TF.FilePolarity,Positive*
%FSLAX46Y46*%
G04 Gerber Fmt 4.6, Leading zero omitted, Abs format (unit mm)*
G04 Created by KiCad (PCBNEW (5.1.5)-3) date 2020-05-26 01:54:40*
%MOMM*%
%LPD*%
G04 APERTURE LIST*
%ADD10C,0.120000*%
%ADD11C,0.150000*%
%ADD12C,0.100000*%
G04 APERTURE END LIST*
D10*
X118910000Y-115600000D02*
X139600000Y-136300000D01*
D11*
X155802380Y-43382380D02*
X155992857Y-43382380D01*
X156088095Y-43334761D01*
X156135714Y-43287142D01*
X156230952Y-43144285D01*
X156278571Y-42953809D01*
X156278571Y-42572857D01*
X156230952Y-42477619D01*
X156183333Y-42430000D01*
X156088095Y-42382380D01*
X155897619Y-42382380D01*
X155802380Y-42430000D01*
X155754761Y-42477619D01*
X155707142Y-42572857D01*
X155707142Y-42810952D01*
X155754761Y-42906190D01*
X155802380Y-42953809D01*
X155897619Y-43001428D01*
X156088095Y-43001428D01*
X156183333Y-42953809D01*
X156230952Y-42906190D01*
X156278571Y-42810952D01*
X156897619Y-42382380D02*
X156992857Y-42382380D01*
X157088095Y-42430000D01*
X157135714Y-42477619D01*
X157183333Y-42572857D01*
X157230952Y-42763333D01*
X157230952Y-43001428D01*
X157183333Y-43191904D01*
X157135714Y-43287142D01*
X157088095Y-43334761D01*
X156992857Y-43382380D01*
X156897619Y-43382380D01*
X156802380Y-43334761D01*
X156754761Y-43287142D01*
X156707142Y-43191904D01*
X156659523Y-43001428D01*
X156659523Y-42763333D01*
X156707142Y-42572857D01*
X156754761Y-42477619D01*
X156802380Y-42430000D01*
X156897619Y-42382380D01*
X157659523Y-43287142D02*
X157707142Y-43334761D01*
X157659523Y-43382380D01*
X157611904Y-43334761D01*
X157659523Y-43287142D01*
X157659523Y-43382380D01*
X158611904Y-42382380D02*
X158135714Y-42382380D01*
X158088095Y-42858571D01*
X158135714Y-42810952D01*
X158230952Y-42763333D01*
X158469047Y-42763333D01*
X158564285Y-42810952D01*
X158611904Y-42858571D01*
X158659523Y-42953809D01*
X158659523Y-43191904D01*
X158611904Y-43287142D01*
X158564285Y-43334761D01*
X158469047Y-43382380D01*
X158230952Y-43382380D01*
X158135714Y-43334761D01*
X158088095Y-43287142D01*
X159278571Y-42382380D02*
X159373809Y-42382380D01*
X159469047Y-42430000D01*
X159516666Y-42477619D01*
X159564285Y-42572857D01*
X159611904Y-42763333D01*
X159611904Y-43001428D01*
X159564285Y-43191904D01*
X159516666Y-43287142D01*
X159469047Y-43334761D01*
X159373809Y-43382380D01*
X159278571Y-43382380D01*
X159183333Y-43334761D01*
X159135714Y-43287142D01*
X159088095Y-43191904D01*
X159040476Y-43001428D01*
X159040476Y-42763333D01*
X159088095Y-42572857D01*
X159135714Y-42477619D01*
X159183333Y-42430000D01*
X159278571Y-42382380D01*
X160230952Y-42382380D02*
X160326190Y-42382380D01*
X160421428Y-42430000D01*
X160469047Y-42477619D01*
X160516666Y-42572857D01*
X160564285Y-42763333D01*
X160564285Y-43001428D01*
X160516666Y-43191904D01*
X160469047Y-43287142D01*
X160421428Y-43334761D01*
X160326190Y-43382380D01*
X160230952Y-43382380D01*
X160135714Y-43334761D01*
X160088095Y-43287142D01*
X160040476Y-43191904D01*
X159992857Y-43001428D01*
X159992857Y-42763333D01*
X160040476Y-42572857D01*
X160088095Y-42477619D01*
X160135714Y-42430000D01*
X160230952Y-42382380D01*
X161754761Y-43382380D02*
X161754761Y-42715714D01*
X161754761Y-42810952D02*
X161802380Y-42763333D01*
X161897619Y-42715714D01*
X162040476Y-42715714D01*
X162135714Y-42763333D01*
X162183333Y-42858571D01*
X162183333Y-43382380D01*
X162183333Y-42858571D02*
X162230952Y-42763333D01*
X162326190Y-42715714D01*
X162469047Y-42715714D01*
X162564285Y-42763333D01*
X162611904Y-42858571D01*
X162611904Y-43382380D01*
X163088095Y-43382380D02*
X163088095Y-42715714D01*
X163088095Y-42810952D02*
X163135714Y-42763333D01*
X163230952Y-42715714D01*
X163373809Y-42715714D01*
X163469047Y-42763333D01*
X163516666Y-42858571D01*
X163516666Y-43382380D01*
X163516666Y-42858571D02*
X163564285Y-42763333D01*
X163659523Y-42715714D01*
X163802380Y-42715714D01*
X163897619Y-42763333D01*
X163945238Y-42858571D01*
X163945238Y-43382380D01*
D10*
X114600000Y-44200000D02*
X205100000Y-44200000D01*
X114600000Y-58000000D02*
X114600000Y-43613579D01*
X205100000Y-58000000D02*
X205100000Y-43613579D01*
X205100000Y-44200000D02*
X203973496Y-44786421D01*
X205100000Y-44200000D02*
X203973496Y-43613579D01*
X114600000Y-44200000D02*
X115726504Y-44786421D01*
X114600000Y-44200000D02*
X115726504Y-43613579D01*
D11*
X29910952Y-100652380D02*
X29863333Y-100747619D01*
X29815714Y-100795238D01*
X29720476Y-100842857D01*
X29672857Y-100842857D01*
X29577619Y-100795238D01*
X29530000Y-100747619D01*
X29482380Y-100652380D01*
X29482380Y-100461904D01*
X29530000Y-100366666D01*
X29577619Y-100319047D01*
X29672857Y-100271428D01*
X29720476Y-100271428D01*
X29815714Y-100319047D01*
X29863333Y-100366666D01*
X29910952Y-100461904D01*
X29910952Y-100652380D01*
X29958571Y-100747619D01*
X30006190Y-100795238D01*
X30101428Y-100842857D01*
X30291904Y-100842857D01*
X30387142Y-100795238D01*
X30434761Y-100747619D01*
X30482380Y-100652380D01*
X30482380Y-100461904D01*
X30434761Y-100366666D01*
X30387142Y-100319047D01*
X30291904Y-100271428D01*
X30101428Y-100271428D01*
X30006190Y-100319047D01*
X29958571Y-100366666D01*
X29910952Y-100461904D01*
X29482380Y-99938095D02*
X29482380Y-99271428D01*
X30482380Y-99700000D01*
X30387142Y-98890476D02*
X30434761Y-98842857D01*
X30482380Y-98890476D01*
X30434761Y-98938095D01*
X30387142Y-98890476D01*
X30482380Y-98890476D01*
X29482380Y-98223809D02*
X29482380Y-98128571D01*
X29530000Y-98033333D01*
X29577619Y-97985714D01*
X29672857Y-97938095D01*
X29863333Y-97890476D01*
X30101428Y-97890476D01*
X30291904Y-97938095D01*
X30387142Y-97985714D01*
X30434761Y-98033333D01*
X30482380Y-98128571D01*
X30482380Y-98223809D01*
X30434761Y-98319047D01*
X30387142Y-98366666D01*
X30291904Y-98414285D01*
X30101428Y-98461904D01*
X29863333Y-98461904D01*
X29672857Y-98414285D01*
X29577619Y-98366666D01*
X29530000Y-98319047D01*
X29482380Y-98223809D01*
X29482380Y-97271428D02*
X29482380Y-97176190D01*
X29530000Y-97080952D01*
X29577619Y-97033333D01*
X29672857Y-96985714D01*
X29863333Y-96938095D01*
X30101428Y-96938095D01*
X30291904Y-96985714D01*
X30387142Y-97033333D01*
X30434761Y-97080952D01*
X30482380Y-97176190D01*
X30482380Y-97271428D01*
X30434761Y-97366666D01*
X30387142Y-97414285D01*
X30291904Y-97461904D01*
X30101428Y-97509523D01*
X29863333Y-97509523D01*
X29672857Y-97461904D01*
X29577619Y-97414285D01*
X29530000Y-97366666D01*
X29482380Y-97271428D01*
X29482380Y-96319047D02*
X29482380Y-96223809D01*
X29530000Y-96128571D01*
X29577619Y-96080952D01*
X29672857Y-96033333D01*
X29863333Y-95985714D01*
X30101428Y-95985714D01*
X30291904Y-96033333D01*
X30387142Y-96080952D01*
X30434761Y-96128571D01*
X30482380Y-96223809D01*
X30482380Y-96319047D01*
X30434761Y-96414285D01*
X30387142Y-96461904D01*
X30291904Y-96509523D01*
X30101428Y-96557142D01*
X29863333Y-96557142D01*
X29672857Y-96509523D01*
X29577619Y-96461904D01*
X29530000Y-96414285D01*
X29482380Y-96319047D01*
X30482380Y-94795238D02*
X29815714Y-94795238D01*
X29910952Y-94795238D02*
X29863333Y-94747619D01*
X29815714Y-94652380D01*
X29815714Y-94509523D01*
X29863333Y-94414285D01*
X29958571Y-94366666D01*
X30482380Y-94366666D01*
X29958571Y-94366666D02*
X29863333Y-94319047D01*
X29815714Y-94223809D01*
X29815714Y-94080952D01*
X29863333Y-93985714D01*
X29958571Y-93938095D01*
X30482380Y-93938095D01*
X30482380Y-93461904D02*
X29815714Y-93461904D01*
X29910952Y-93461904D02*
X29863333Y-93414285D01*
X29815714Y-93319047D01*
X29815714Y-93176190D01*
X29863333Y-93080952D01*
X29958571Y-93033333D01*
X30482380Y-93033333D01*
X29958571Y-93033333D02*
X29863333Y-92985714D01*
X29815714Y-92890476D01*
X29815714Y-92747619D01*
X29863333Y-92652380D01*
X29958571Y-92604761D01*
X30482380Y-92604761D01*
D10*
X31300000Y-140200000D02*
X31300000Y-53200000D01*
X184700000Y-140200000D02*
X30713579Y-140200000D01*
X184700000Y-53200000D02*
X30713579Y-53200000D01*
X31300000Y-53200000D02*
X31886421Y-54326504D01*
X31300000Y-53200000D02*
X30713579Y-54326504D01*
X31300000Y-140200000D02*
X31886421Y-139073496D01*
X31300000Y-140200000D02*
X30713579Y-139073496D01*
D12*
X196814285Y-131539285D02*
X196385714Y-131539285D01*
X196600000Y-131539285D02*
X196600000Y-130789285D01*
X196528571Y-130896428D01*
X196457142Y-130967857D01*
X196385714Y-131003571D01*
X195292857Y-101889285D02*
X195757142Y-101889285D01*
X195507142Y-102175000D01*
X195614285Y-102175000D01*
X195685714Y-102210714D01*
X195721428Y-102246428D01*
X195757142Y-102317857D01*
X195757142Y-102496428D01*
X195721428Y-102567857D01*
X195685714Y-102603571D01*
X195614285Y-102639285D01*
X195400000Y-102639285D01*
X195328571Y-102603571D01*
X195292857Y-102567857D01*
X196221428Y-101889285D02*
X196292857Y-101889285D01*
X196364285Y-101925000D01*
X196400000Y-101960714D01*
X196435714Y-102032142D01*
X196471428Y-102175000D01*
X196471428Y-102353571D01*
X196435714Y-102496428D01*
X196400000Y-102567857D01*
X196364285Y-102603571D01*
X196292857Y-102639285D01*
X196221428Y-102639285D01*
X196150000Y-102603571D01*
X196114285Y-102567857D01*
X196078571Y-102496428D01*
X196042857Y-102353571D01*
X196042857Y-102175000D01*
X196078571Y-102032142D01*
X196114285Y-101960714D01*
X196150000Y-101925000D01*
X196221428Y-101889285D01*
X194857142Y-65089285D02*
X194500000Y-65089285D01*
X194464285Y-65446428D01*
X194500000Y-65410714D01*
X194571428Y-65375000D01*
X194750000Y-65375000D01*
X194821428Y-65410714D01*
X194857142Y-65446428D01*
X194892857Y-65517857D01*
X194892857Y-65696428D01*
X194857142Y-65767857D01*
X194821428Y-65803571D01*
X194750000Y-65839285D01*
X194571428Y-65839285D01*
X194500000Y-65803571D01*
X194464285Y-65767857D01*
X195107142Y-65089285D02*
X195357142Y-65839285D01*
X195607142Y-65089285D01*
X194828571Y-70225000D02*
X194757142Y-70189285D01*
X194650000Y-70189285D01*
X194542857Y-70225000D01*
X194471428Y-70296428D01*
X194435714Y-70367857D01*
X194400000Y-70510714D01*
X194400000Y-70617857D01*
X194435714Y-70760714D01*
X194471428Y-70832142D01*
X194542857Y-70903571D01*
X194650000Y-70939285D01*
X194721428Y-70939285D01*
X194828571Y-70903571D01*
X194864285Y-70867857D01*
X194864285Y-70617857D01*
X194721428Y-70617857D01*
X195185714Y-70939285D02*
X195185714Y-70189285D01*
X195614285Y-70939285D01*
X195614285Y-70189285D01*
X195971428Y-70939285D02*
X195971428Y-70189285D01*
X196150000Y-70189285D01*
X196257142Y-70225000D01*
X196328571Y-70296428D01*
X196364285Y-70367857D01*
X196400000Y-70510714D01*
X196400000Y-70617857D01*
X196364285Y-70760714D01*
X196328571Y-70832142D01*
X196257142Y-70903571D01*
X196150000Y-70939285D01*
X195971428Y-70939285D01*
X194375000Y-68339285D02*
X194375000Y-67589285D01*
X194553571Y-67589285D01*
X194660714Y-67625000D01*
X194732142Y-67696428D01*
X194767857Y-67767857D01*
X194803571Y-67910714D01*
X194803571Y-68017857D01*
X194767857Y-68160714D01*
X194732142Y-68232142D01*
X194660714Y-68303571D01*
X194553571Y-68339285D01*
X194375000Y-68339285D01*
X195089285Y-68125000D02*
X195446428Y-68125000D01*
X195017857Y-68339285D02*
X195267857Y-67589285D01*
X195517857Y-68339285D01*
X195660714Y-67589285D02*
X196089285Y-67589285D01*
X195875000Y-68339285D02*
X195875000Y-67589285D01*
X196303571Y-68125000D02*
X196660714Y-68125000D01*
X196232142Y-68339285D02*
X196482142Y-67589285D01*
X196732142Y-68339285D01*
D11*
X191609523Y-73652380D02*
X191276190Y-73176190D01*
X191038095Y-73652380D02*
X191038095Y-72652380D01*
X191419047Y-72652380D01*
X191514285Y-72700000D01*
X191561904Y-72747619D01*
X191609523Y-72842857D01*
X191609523Y-72985714D01*
X191561904Y-73080952D01*
X191514285Y-73128571D01*
X191419047Y-73176190D01*
X191038095Y-73176190D01*
X192561904Y-72700000D02*
X192466666Y-72652380D01*
X192323809Y-72652380D01*
X192180952Y-72700000D01*
X192085714Y-72795238D01*
X192038095Y-72890476D01*
X191990476Y-73080952D01*
X191990476Y-73223809D01*
X192038095Y-73414285D01*
X192085714Y-73509523D01*
X192180952Y-73604761D01*
X192323809Y-73652380D01*
X192419047Y-73652380D01*
X192561904Y-73604761D01*
X192609523Y-73557142D01*
X192609523Y-73223809D01*
X192419047Y-73223809D01*
X193371428Y-73128571D02*
X193514285Y-73176190D01*
X193561904Y-73223809D01*
X193609523Y-73319047D01*
X193609523Y-73461904D01*
X193561904Y-73557142D01*
X193514285Y-73604761D01*
X193419047Y-73652380D01*
X193038095Y-73652380D01*
X193038095Y-72652380D01*
X193371428Y-72652380D01*
X193466666Y-72700000D01*
X193514285Y-72747619D01*
X193561904Y-72842857D01*
X193561904Y-72938095D01*
X193514285Y-73033333D01*
X193466666Y-73080952D01*
X193371428Y-73128571D01*
X193038095Y-73128571D01*
D12*
X128457142Y-124989285D02*
X128100000Y-124989285D01*
X128064285Y-125346428D01*
X128100000Y-125310714D01*
X128171428Y-125275000D01*
X128350000Y-125275000D01*
X128421428Y-125310714D01*
X128457142Y-125346428D01*
X128492857Y-125417857D01*
X128492857Y-125596428D01*
X128457142Y-125667857D01*
X128421428Y-125703571D01*
X128350000Y-125739285D01*
X128171428Y-125739285D01*
X128100000Y-125703571D01*
X128064285Y-125667857D01*
X128707142Y-124989285D02*
X128957142Y-125739285D01*
X129207142Y-124989285D01*
X135175000Y-125739285D02*
X135175000Y-124989285D01*
X135353571Y-124989285D01*
X135460714Y-125025000D01*
X135532142Y-125096428D01*
X135567857Y-125167857D01*
X135603571Y-125310714D01*
X135603571Y-125417857D01*
X135567857Y-125560714D01*
X135532142Y-125632142D01*
X135460714Y-125703571D01*
X135353571Y-125739285D01*
X135175000Y-125739285D01*
X135889285Y-125525000D02*
X136246428Y-125525000D01*
X135817857Y-125739285D02*
X136067857Y-124989285D01*
X136317857Y-125739285D01*
X136460714Y-124989285D02*
X136889285Y-124989285D01*
X136675000Y-125739285D02*
X136675000Y-124989285D01*
X137103571Y-125525000D02*
X137460714Y-125525000D01*
X137032142Y-125739285D02*
X137282142Y-124989285D01*
X137532142Y-125739285D01*
X133153571Y-125667857D02*
X133117857Y-125703571D01*
X133010714Y-125739285D01*
X132939285Y-125739285D01*
X132832142Y-125703571D01*
X132760714Y-125632142D01*
X132725000Y-125560714D01*
X132689285Y-125417857D01*
X132689285Y-125310714D01*
X132725000Y-125167857D01*
X132760714Y-125096428D01*
X132832142Y-125025000D01*
X132939285Y-124989285D01*
X133010714Y-124989285D01*
X133117857Y-125025000D01*
X133153571Y-125060714D01*
X133832142Y-125739285D02*
X133475000Y-125739285D01*
X133475000Y-124989285D01*
X134082142Y-125739285D02*
X134082142Y-124989285D01*
X134510714Y-125739285D02*
X134189285Y-125310714D01*
X134510714Y-124989285D02*
X134082142Y-125417857D01*
X130528571Y-125025000D02*
X130457142Y-124989285D01*
X130350000Y-124989285D01*
X130242857Y-125025000D01*
X130171428Y-125096428D01*
X130135714Y-125167857D01*
X130100000Y-125310714D01*
X130100000Y-125417857D01*
X130135714Y-125560714D01*
X130171428Y-125632142D01*
X130242857Y-125703571D01*
X130350000Y-125739285D01*
X130421428Y-125739285D01*
X130528571Y-125703571D01*
X130564285Y-125667857D01*
X130564285Y-125417857D01*
X130421428Y-125417857D01*
X130885714Y-125739285D02*
X130885714Y-124989285D01*
X131314285Y-125739285D01*
X131314285Y-124989285D01*
X131671428Y-125739285D02*
X131671428Y-124989285D01*
X131850000Y-124989285D01*
X131957142Y-125025000D01*
X132028571Y-125096428D01*
X132064285Y-125167857D01*
X132100000Y-125310714D01*
X132100000Y-125417857D01*
X132064285Y-125560714D01*
X132028571Y-125632142D01*
X131957142Y-125703571D01*
X131850000Y-125739285D01*
X131671428Y-125739285D01*
D11*
X123990000Y-72420000D02*
X131610000Y-72420000D01*
X131610000Y-63530000D02*
X123990000Y-63530000D01*
X131610000Y-72420000D02*
X131610000Y-63530000D01*
X123990000Y-72420000D02*
X123990000Y-63530000D01*
X122720000Y-76230000D02*
X122720000Y-80040000D01*
X122720000Y-80040000D02*
X123990000Y-80040000D01*
X123990000Y-80040000D02*
X125260000Y-80040000D01*
X125260000Y-80040000D02*
X125260000Y-76230000D01*
X125260000Y-76230000D02*
X122720000Y-76230000D01*
X125260000Y-113060000D02*
X125260000Y-109250000D01*
X125260000Y-109250000D02*
X130340000Y-109250000D01*
X130340000Y-109250000D02*
X130340000Y-113060000D01*
X130340000Y-113060000D02*
X125260000Y-113060000D01*
X121450000Y-90200000D02*
X127800000Y-83850000D01*
X127800000Y-83850000D02*
X134150000Y-90200000D01*
X134150000Y-90200000D02*
X127800000Y-96550000D01*
X127800000Y-96550000D02*
X121450000Y-90200000D01*
X136690000Y-64800000D02*
X136690000Y-115600000D01*
X136690000Y-115600000D02*
X118910000Y-115600000D01*
X118910000Y-115600000D02*
X118910000Y-64800000D01*
X118910000Y-64800000D02*
X136690000Y-64800000D01*
D10*
X190970000Y-71810000D02*
X193630000Y-71810000D01*
X190970000Y-66670000D02*
X190970000Y-71810000D01*
X193630000Y-66670000D02*
X193630000Y-71810000D01*
X190970000Y-66670000D02*
X193630000Y-66670000D01*
X190970000Y-65400000D02*
X190970000Y-64070000D01*
X190970000Y-64070000D02*
X192300000Y-64070000D01*
X145990000Y-131502064D02*
X145990000Y-130297936D01*
X147810000Y-131502064D02*
X147810000Y-130297936D01*
X171402064Y-137690000D02*
X170197936Y-137690000D01*
X171402064Y-139510000D02*
X170197936Y-139510000D01*
X155150000Y-133870000D02*
X155150000Y-136530000D01*
X162830000Y-133870000D02*
X155150000Y-133870000D01*
X162830000Y-136530000D02*
X155150000Y-136530000D01*
X162830000Y-133870000D02*
X162830000Y-136530000D01*
X164100000Y-133870000D02*
X165430000Y-133870000D01*
X165430000Y-133870000D02*
X165430000Y-135200000D01*
X197570000Y-131700000D02*
X197570000Y-101700000D01*
X199630000Y-131700000D02*
X199630000Y-101700000D01*
X199630000Y-131700000D02*
X202620000Y-131700000D01*
X199630000Y-101700000D02*
X202620000Y-101700000D01*
X202620000Y-131700000D02*
X202620000Y-135560000D01*
X202620000Y-101700000D02*
X202620000Y-97840000D01*
X202620000Y-135560000D02*
X199460000Y-135560000D01*
X202620000Y-97840000D02*
X199460000Y-97840000D01*
X199460000Y-135560000D02*
X199460000Y-131700000D01*
X199460000Y-97840000D02*
X199460000Y-101700000D01*
X199460000Y-131700000D02*
X197570000Y-131700000D01*
X199460000Y-101700000D02*
X197570000Y-101700000D01*
X132400000Y-121465000D02*
X128340000Y-121465000D01*
X128340000Y-121465000D02*
X128340000Y-123735000D01*
X128340000Y-123735000D02*
X132400000Y-123735000D01*
X134390000Y-121689564D02*
X134390000Y-120485436D01*
X136210000Y-121689564D02*
X136210000Y-120485436D01*
D11*
X117092380Y-95009523D02*
X117092380Y-94438095D01*
X118092380Y-94723809D02*
X117092380Y-94723809D01*
X118044761Y-93723809D02*
X118092380Y-93819047D01*
X118092380Y-94009523D01*
X118044761Y-94104761D01*
X117949523Y-94152380D01*
X117568571Y-94152380D01*
X117473333Y-94104761D01*
X117425714Y-94009523D01*
X117425714Y-93819047D01*
X117473333Y-93723809D01*
X117568571Y-93676190D01*
X117663809Y-93676190D01*
X117759047Y-94152380D01*
X118044761Y-92866666D02*
X118092380Y-92961904D01*
X118092380Y-93152380D01*
X118044761Y-93247619D01*
X117949523Y-93295238D01*
X117568571Y-93295238D01*
X117473333Y-93247619D01*
X117425714Y-93152380D01*
X117425714Y-92961904D01*
X117473333Y-92866666D01*
X117568571Y-92819047D01*
X117663809Y-92819047D01*
X117759047Y-93295238D01*
X117425714Y-92390476D02*
X118092380Y-92390476D01*
X117520952Y-92390476D02*
X117473333Y-92342857D01*
X117425714Y-92247619D01*
X117425714Y-92104761D01*
X117473333Y-92009523D01*
X117568571Y-91961904D01*
X118092380Y-91961904D01*
X118044761Y-91533333D02*
X118092380Y-91438095D01*
X118092380Y-91247619D01*
X118044761Y-91152380D01*
X117949523Y-91104761D01*
X117901904Y-91104761D01*
X117806666Y-91152380D01*
X117759047Y-91247619D01*
X117759047Y-91390476D01*
X117711428Y-91485714D01*
X117616190Y-91533333D01*
X117568571Y-91533333D01*
X117473333Y-91485714D01*
X117425714Y-91390476D01*
X117425714Y-91247619D01*
X117473333Y-91152380D01*
X117425714Y-90771428D02*
X118092380Y-90533333D01*
X117425714Y-90295238D02*
X118092380Y-90533333D01*
X118330476Y-90628571D01*
X118378095Y-90676190D01*
X118425714Y-90771428D01*
X117711428Y-89914285D02*
X117711428Y-89152380D01*
X118092380Y-89533333D02*
X117330476Y-89533333D01*
X117711428Y-88676190D02*
X117711428Y-87914285D01*
X118092380Y-88295238D02*
X117330476Y-88295238D01*
X117187619Y-87485714D02*
X117140000Y-87438095D01*
X117092380Y-87342857D01*
X117092380Y-87104761D01*
X117140000Y-87009523D01*
X117187619Y-86961904D01*
X117282857Y-86914285D01*
X117378095Y-86914285D01*
X117520952Y-86961904D01*
X118092380Y-87533333D01*
X118092380Y-86914285D01*
X117997142Y-86485714D02*
X118044761Y-86438095D01*
X118092380Y-86485714D01*
X118044761Y-86533333D01*
X117997142Y-86485714D01*
X118092380Y-86485714D01*
X117092380Y-85819047D02*
X117092380Y-85723809D01*
X117140000Y-85628571D01*
X117187619Y-85580952D01*
X117282857Y-85533333D01*
X117473333Y-85485714D01*
X117711428Y-85485714D01*
X117901904Y-85533333D01*
X117997142Y-85580952D01*
X118044761Y-85628571D01*
X118092380Y-85723809D01*
X118092380Y-85819047D01*
X118044761Y-85914285D01*
X117997142Y-85961904D01*
X117901904Y-86009523D01*
X117711428Y-86057142D01*
X117473333Y-86057142D01*
X117282857Y-86009523D01*
X117187619Y-85961904D01*
X117140000Y-85914285D01*
X117092380Y-85819047D01*
D12*
X146775000Y-128339285D02*
X146525000Y-127982142D01*
X146346428Y-128339285D02*
X146346428Y-127589285D01*
X146632142Y-127589285D01*
X146703571Y-127625000D01*
X146739285Y-127660714D01*
X146775000Y-127732142D01*
X146775000Y-127839285D01*
X146739285Y-127910714D01*
X146703571Y-127946428D01*
X146632142Y-127982142D01*
X146346428Y-127982142D01*
X147489285Y-128339285D02*
X147060714Y-128339285D01*
X147275000Y-128339285D02*
X147275000Y-127589285D01*
X147203571Y-127696428D01*
X147132142Y-127767857D01*
X147060714Y-127803571D01*
X174039285Y-138825000D02*
X173682142Y-139075000D01*
X174039285Y-139253571D02*
X173289285Y-139253571D01*
X173289285Y-138967857D01*
X173325000Y-138896428D01*
X173360714Y-138860714D01*
X173432142Y-138825000D01*
X173539285Y-138825000D01*
X173610714Y-138860714D01*
X173646428Y-138896428D01*
X173682142Y-138967857D01*
X173682142Y-139253571D01*
X173360714Y-138539285D02*
X173325000Y-138503571D01*
X173289285Y-138432142D01*
X173289285Y-138253571D01*
X173325000Y-138182142D01*
X173360714Y-138146428D01*
X173432142Y-138110714D01*
X173503571Y-138110714D01*
X173610714Y-138146428D01*
X174039285Y-138575000D01*
X174039285Y-138110714D01*
D11*
X165882380Y-135533333D02*
X166596666Y-135533333D01*
X166739523Y-135580952D01*
X166834761Y-135676190D01*
X166882380Y-135819047D01*
X166882380Y-135914285D01*
X166882380Y-134533333D02*
X166882380Y-135104761D01*
X166882380Y-134819047D02*
X165882380Y-134819047D01*
X166025238Y-134914285D01*
X166120476Y-135009523D01*
X166168095Y-135104761D01*
X156338095Y-129952380D02*
X156909523Y-129952380D01*
X156623809Y-130952380D02*
X156623809Y-129952380D01*
X157242857Y-130952380D02*
X157242857Y-130285714D01*
X157242857Y-130476190D02*
X157290476Y-130380952D01*
X157338095Y-130333333D01*
X157433333Y-130285714D01*
X157528571Y-130285714D01*
X158290476Y-130952380D02*
X158290476Y-130428571D01*
X158242857Y-130333333D01*
X158147619Y-130285714D01*
X157957142Y-130285714D01*
X157861904Y-130333333D01*
X158290476Y-130904761D02*
X158195238Y-130952380D01*
X157957142Y-130952380D01*
X157861904Y-130904761D01*
X157814285Y-130809523D01*
X157814285Y-130714285D01*
X157861904Y-130619047D01*
X157957142Y-130571428D01*
X158195238Y-130571428D01*
X158290476Y-130523809D01*
X159195238Y-130904761D02*
X159100000Y-130952380D01*
X158909523Y-130952380D01*
X158814285Y-130904761D01*
X158766666Y-130857142D01*
X158719047Y-130761904D01*
X158719047Y-130476190D01*
X158766666Y-130380952D01*
X158814285Y-130333333D01*
X158909523Y-130285714D01*
X159100000Y-130285714D01*
X159195238Y-130333333D01*
X159623809Y-130952380D02*
X159623809Y-129952380D01*
X159719047Y-130571428D02*
X160004761Y-130952380D01*
X160004761Y-130285714D02*
X159623809Y-130666666D01*
X160433333Y-130285714D02*
X160433333Y-131285714D01*
X160433333Y-130333333D02*
X160528571Y-130285714D01*
X160719047Y-130285714D01*
X160814285Y-130333333D01*
X160861904Y-130380952D01*
X160909523Y-130476190D01*
X160909523Y-130761904D01*
X160861904Y-130857142D01*
X160814285Y-130904761D01*
X160719047Y-130952380D01*
X160528571Y-130952380D01*
X160433333Y-130904761D01*
X161480952Y-130952380D02*
X161385714Y-130904761D01*
X161338095Y-130857142D01*
X161290476Y-130761904D01*
X161290476Y-130476190D01*
X161338095Y-130380952D01*
X161385714Y-130333333D01*
X161480952Y-130285714D01*
X161623809Y-130285714D01*
X161719047Y-130333333D01*
X161766666Y-130380952D01*
X161814285Y-130476190D01*
X161814285Y-130761904D01*
X161766666Y-130857142D01*
X161719047Y-130904761D01*
X161623809Y-130952380D01*
X161480952Y-130952380D01*
X162242857Y-130952380D02*
X162242857Y-130285714D01*
X162242857Y-129952380D02*
X162195238Y-130000000D01*
X162242857Y-130047619D01*
X162290476Y-130000000D01*
X162242857Y-129952380D01*
X162242857Y-130047619D01*
X162719047Y-130285714D02*
X162719047Y-130952380D01*
X162719047Y-130380952D02*
X162766666Y-130333333D01*
X162861904Y-130285714D01*
X163004761Y-130285714D01*
X163100000Y-130333333D01*
X163147619Y-130428571D01*
X163147619Y-130952380D01*
X163480952Y-130285714D02*
X163861904Y-130285714D01*
X163623809Y-129952380D02*
X163623809Y-130809523D01*
X163671428Y-130904761D01*
X163766666Y-130952380D01*
X163861904Y-130952380D01*
X201202380Y-120819047D02*
X201202380Y-120200000D01*
X201583333Y-120533333D01*
X201583333Y-120390476D01*
X201630952Y-120295238D01*
X201678571Y-120247619D01*
X201773809Y-120200000D01*
X202011904Y-120200000D01*
X202107142Y-120247619D01*
X202154761Y-120295238D01*
X202202380Y-120390476D01*
X202202380Y-120676190D01*
X202154761Y-120771428D01*
X202107142Y-120819047D01*
X201202380Y-119580952D02*
X201202380Y-119485714D01*
X201250000Y-119390476D01*
X201297619Y-119342857D01*
X201392857Y-119295238D01*
X201583333Y-119247619D01*
X201821428Y-119247619D01*
X202011904Y-119295238D01*
X202107142Y-119342857D01*
X202154761Y-119390476D01*
X202202380Y-119485714D01*
X202202380Y-119580952D01*
X202154761Y-119676190D01*
X202107142Y-119723809D01*
X202011904Y-119771428D01*
X201821428Y-119819047D01*
X201583333Y-119819047D01*
X201392857Y-119771428D01*
X201297619Y-119723809D01*
X201250000Y-119676190D01*
X201202380Y-119580952D01*
X202202380Y-118057142D02*
X201202380Y-118057142D01*
X201202380Y-117676190D01*
X201250000Y-117580952D01*
X201297619Y-117533333D01*
X201392857Y-117485714D01*
X201535714Y-117485714D01*
X201630952Y-117533333D01*
X201678571Y-117580952D01*
X201726190Y-117676190D01*
X201726190Y-118057142D01*
X202202380Y-117057142D02*
X201535714Y-117057142D01*
X201202380Y-117057142D02*
X201250000Y-117104761D01*
X201297619Y-117057142D01*
X201250000Y-117009523D01*
X201202380Y-117057142D01*
X201297619Y-117057142D01*
X201535714Y-116580952D02*
X202202380Y-116580952D01*
X201630952Y-116580952D02*
X201583333Y-116533333D01*
X201535714Y-116438095D01*
X201535714Y-116295238D01*
X201583333Y-116200000D01*
X201678571Y-116152380D01*
X202202380Y-116152380D01*
X201678571Y-114580952D02*
X201678571Y-114914285D01*
X202202380Y-114914285D02*
X201202380Y-114914285D01*
X201202380Y-114438095D01*
X201678571Y-113723809D02*
X201678571Y-114057142D01*
X202202380Y-114057142D02*
X201202380Y-114057142D01*
X201202380Y-113580952D01*
X202107142Y-112628571D02*
X202154761Y-112676190D01*
X202202380Y-112819047D01*
X202202380Y-112914285D01*
X202154761Y-113057142D01*
X202059523Y-113152380D01*
X201964285Y-113200000D01*
X201773809Y-113247619D01*
X201630952Y-113247619D01*
X201440476Y-113200000D01*
X201345238Y-113152380D01*
X201250000Y-113057142D01*
X201202380Y-112914285D01*
X201202380Y-112819047D01*
X201250000Y-112676190D01*
X201297619Y-112628571D01*
X130061904Y-121232380D02*
X130061904Y-120232380D01*
X130300000Y-120232380D01*
X130442857Y-120280000D01*
X130538095Y-120375238D01*
X130585714Y-120470476D01*
X130633333Y-120660952D01*
X130633333Y-120803809D01*
X130585714Y-120994285D01*
X130538095Y-121089523D01*
X130442857Y-121184761D01*
X130300000Y-121232380D01*
X130061904Y-121232380D01*
X131585714Y-121232380D02*
X131014285Y-121232380D01*
X131300000Y-121232380D02*
X131300000Y-120232380D01*
X131204761Y-120375238D01*
X131109523Y-120470476D01*
X131014285Y-120518095D01*
X135133333Y-118352380D02*
X134800000Y-117876190D01*
X134561904Y-118352380D02*
X134561904Y-117352380D01*
X134942857Y-117352380D01*
X135038095Y-117400000D01*
X135085714Y-117447619D01*
X135133333Y-117542857D01*
X135133333Y-117685714D01*
X135085714Y-117780952D01*
X135038095Y-117828571D01*
X134942857Y-117876190D01*
X134561904Y-117876190D01*
X135466666Y-117352380D02*
X136085714Y-117352380D01*
X135752380Y-117733333D01*
X135895238Y-117733333D01*
X135990476Y-117780952D01*
X136038095Y-117828571D01*
X136085714Y-117923809D01*
X136085714Y-118161904D01*
X136038095Y-118257142D01*
X135990476Y-118304761D01*
X135895238Y-118352380D01*
X135609523Y-118352380D01*
X135514285Y-118304761D01*
X135466666Y-118257142D01*
M02*
