G04 #@! TF.GenerationSoftware,KiCad,Pcbnew,(5.1.5)-3*
G04 #@! TF.CreationDate,2020-05-26T01:54:40-08:00*
G04 #@! TF.ProjectId,board,626f6172-642e-46b6-9963-61645f706362,rev?*
G04 #@! TF.SameCoordinates,Original*
G04 #@! TF.FileFunction,Copper,L1,Top*
G04 #@! TF.FilePolarity,Positive*
%FSLAX46Y46*%
G04 Gerber Fmt 4.6, Leading zero omitted, Abs format (unit mm)*
G04 Created by KiCad (PCBNEW (5.1.5)-3) date 2020-05-26 01:54:40*
%MOMM*%
%LPD*%
G04 APERTURE LIST*
%ADD10C,1.600000*%
%ADD11R,1.600000X1.600000*%
%ADD12R,1.700000X1.700000*%
%ADD13O,1.700000X1.700000*%
%ADD14C,0.100000*%
%ADD15R,1.700000X0.600000*%
%ADD16R,2.800000X2.500000*%
%ADD17C,0.800000*%
%ADD18C,2.000000*%
%ADD19C,0.400000*%
%ADD20C,0.200000*%
%ADD21C,0.254000*%
G04 APERTURE END LIST*
D10*
X120180000Y-86390000D03*
X120180000Y-88930000D03*
X120180000Y-91470000D03*
X120180000Y-83850000D03*
X120180000Y-81310000D03*
X120180000Y-78770000D03*
X120180000Y-76230000D03*
X120180000Y-73690000D03*
X120180000Y-71150000D03*
X120180000Y-68610000D03*
D11*
X120180000Y-66070000D03*
D10*
X120180000Y-94010000D03*
X120180000Y-96550000D03*
X120180000Y-99090000D03*
X120180000Y-101630000D03*
X120180000Y-104170000D03*
X120180000Y-106710000D03*
X120180000Y-109250000D03*
X120180000Y-111790000D03*
X120180000Y-114330000D03*
X125260000Y-114330000D03*
X127800000Y-114330000D03*
X130340000Y-114330000D03*
X135420000Y-114330000D03*
X135420000Y-111790000D03*
X135420000Y-109250000D03*
X135420000Y-106710000D03*
X135420000Y-104170000D03*
X135420000Y-101630000D03*
X135420000Y-99090000D03*
X135420000Y-96550000D03*
X135420000Y-94010000D03*
X135420000Y-91470000D03*
X135420000Y-88930000D03*
X135420000Y-86390000D03*
X135420000Y-83850000D03*
X135420000Y-81310000D03*
X135420000Y-78770000D03*
X135420000Y-76230000D03*
X135420000Y-73690000D03*
X135420000Y-71150000D03*
X135420000Y-68610000D03*
X135420000Y-66070000D03*
X130340000Y-99090000D03*
X130340000Y-101630000D03*
X130340000Y-104170000D03*
X130340000Y-106710000D03*
X127800000Y-99090000D03*
X127800000Y-101630000D03*
X127800000Y-104170000D03*
X127800000Y-106710000D03*
X125260000Y-106710000D03*
D12*
X192300000Y-65400000D03*
D13*
X192300000Y-67940000D03*
X192300000Y-70480000D03*
G04 #@! TA.AperFunction,SMDPad,CuDef*
D14*
G36*
X147549504Y-131676204D02*
G01*
X147573773Y-131679804D01*
X147597571Y-131685765D01*
X147620671Y-131694030D01*
X147642849Y-131704520D01*
X147663893Y-131717133D01*
X147683598Y-131731747D01*
X147701777Y-131748223D01*
X147718253Y-131766402D01*
X147732867Y-131786107D01*
X147745480Y-131807151D01*
X147755970Y-131829329D01*
X147764235Y-131852429D01*
X147770196Y-131876227D01*
X147773796Y-131900496D01*
X147775000Y-131925000D01*
X147775000Y-132850000D01*
X147773796Y-132874504D01*
X147770196Y-132898773D01*
X147764235Y-132922571D01*
X147755970Y-132945671D01*
X147745480Y-132967849D01*
X147732867Y-132988893D01*
X147718253Y-133008598D01*
X147701777Y-133026777D01*
X147683598Y-133043253D01*
X147663893Y-133057867D01*
X147642849Y-133070480D01*
X147620671Y-133080970D01*
X147597571Y-133089235D01*
X147573773Y-133095196D01*
X147549504Y-133098796D01*
X147525000Y-133100000D01*
X146275000Y-133100000D01*
X146250496Y-133098796D01*
X146226227Y-133095196D01*
X146202429Y-133089235D01*
X146179329Y-133080970D01*
X146157151Y-133070480D01*
X146136107Y-133057867D01*
X146116402Y-133043253D01*
X146098223Y-133026777D01*
X146081747Y-133008598D01*
X146067133Y-132988893D01*
X146054520Y-132967849D01*
X146044030Y-132945671D01*
X146035765Y-132922571D01*
X146029804Y-132898773D01*
X146026204Y-132874504D01*
X146025000Y-132850000D01*
X146025000Y-131925000D01*
X146026204Y-131900496D01*
X146029804Y-131876227D01*
X146035765Y-131852429D01*
X146044030Y-131829329D01*
X146054520Y-131807151D01*
X146067133Y-131786107D01*
X146081747Y-131766402D01*
X146098223Y-131748223D01*
X146116402Y-131731747D01*
X146136107Y-131717133D01*
X146157151Y-131704520D01*
X146179329Y-131694030D01*
X146202429Y-131685765D01*
X146226227Y-131679804D01*
X146250496Y-131676204D01*
X146275000Y-131675000D01*
X147525000Y-131675000D01*
X147549504Y-131676204D01*
G37*
G04 #@! TD.AperFunction*
G04 #@! TA.AperFunction,SMDPad,CuDef*
G36*
X147549504Y-128701204D02*
G01*
X147573773Y-128704804D01*
X147597571Y-128710765D01*
X147620671Y-128719030D01*
X147642849Y-128729520D01*
X147663893Y-128742133D01*
X147683598Y-128756747D01*
X147701777Y-128773223D01*
X147718253Y-128791402D01*
X147732867Y-128811107D01*
X147745480Y-128832151D01*
X147755970Y-128854329D01*
X147764235Y-128877429D01*
X147770196Y-128901227D01*
X147773796Y-128925496D01*
X147775000Y-128950000D01*
X147775000Y-129875000D01*
X147773796Y-129899504D01*
X147770196Y-129923773D01*
X147764235Y-129947571D01*
X147755970Y-129970671D01*
X147745480Y-129992849D01*
X147732867Y-130013893D01*
X147718253Y-130033598D01*
X147701777Y-130051777D01*
X147683598Y-130068253D01*
X147663893Y-130082867D01*
X147642849Y-130095480D01*
X147620671Y-130105970D01*
X147597571Y-130114235D01*
X147573773Y-130120196D01*
X147549504Y-130123796D01*
X147525000Y-130125000D01*
X146275000Y-130125000D01*
X146250496Y-130123796D01*
X146226227Y-130120196D01*
X146202429Y-130114235D01*
X146179329Y-130105970D01*
X146157151Y-130095480D01*
X146136107Y-130082867D01*
X146116402Y-130068253D01*
X146098223Y-130051777D01*
X146081747Y-130033598D01*
X146067133Y-130013893D01*
X146054520Y-129992849D01*
X146044030Y-129970671D01*
X146035765Y-129947571D01*
X146029804Y-129923773D01*
X146026204Y-129899504D01*
X146025000Y-129875000D01*
X146025000Y-128950000D01*
X146026204Y-128925496D01*
X146029804Y-128901227D01*
X146035765Y-128877429D01*
X146044030Y-128854329D01*
X146054520Y-128832151D01*
X146067133Y-128811107D01*
X146081747Y-128791402D01*
X146098223Y-128773223D01*
X146116402Y-128756747D01*
X146136107Y-128742133D01*
X146157151Y-128729520D01*
X146179329Y-128719030D01*
X146202429Y-128710765D01*
X146226227Y-128704804D01*
X146250496Y-128701204D01*
X146275000Y-128700000D01*
X147525000Y-128700000D01*
X147549504Y-128701204D01*
G37*
G04 #@! TD.AperFunction*
G04 #@! TA.AperFunction,SMDPad,CuDef*
G36*
X169799504Y-137726204D02*
G01*
X169823773Y-137729804D01*
X169847571Y-137735765D01*
X169870671Y-137744030D01*
X169892849Y-137754520D01*
X169913893Y-137767133D01*
X169933598Y-137781747D01*
X169951777Y-137798223D01*
X169968253Y-137816402D01*
X169982867Y-137836107D01*
X169995480Y-137857151D01*
X170005970Y-137879329D01*
X170014235Y-137902429D01*
X170020196Y-137926227D01*
X170023796Y-137950496D01*
X170025000Y-137975000D01*
X170025000Y-139225000D01*
X170023796Y-139249504D01*
X170020196Y-139273773D01*
X170014235Y-139297571D01*
X170005970Y-139320671D01*
X169995480Y-139342849D01*
X169982867Y-139363893D01*
X169968253Y-139383598D01*
X169951777Y-139401777D01*
X169933598Y-139418253D01*
X169913893Y-139432867D01*
X169892849Y-139445480D01*
X169870671Y-139455970D01*
X169847571Y-139464235D01*
X169823773Y-139470196D01*
X169799504Y-139473796D01*
X169775000Y-139475000D01*
X168850000Y-139475000D01*
X168825496Y-139473796D01*
X168801227Y-139470196D01*
X168777429Y-139464235D01*
X168754329Y-139455970D01*
X168732151Y-139445480D01*
X168711107Y-139432867D01*
X168691402Y-139418253D01*
X168673223Y-139401777D01*
X168656747Y-139383598D01*
X168642133Y-139363893D01*
X168629520Y-139342849D01*
X168619030Y-139320671D01*
X168610765Y-139297571D01*
X168604804Y-139273773D01*
X168601204Y-139249504D01*
X168600000Y-139225000D01*
X168600000Y-137975000D01*
X168601204Y-137950496D01*
X168604804Y-137926227D01*
X168610765Y-137902429D01*
X168619030Y-137879329D01*
X168629520Y-137857151D01*
X168642133Y-137836107D01*
X168656747Y-137816402D01*
X168673223Y-137798223D01*
X168691402Y-137781747D01*
X168711107Y-137767133D01*
X168732151Y-137754520D01*
X168754329Y-137744030D01*
X168777429Y-137735765D01*
X168801227Y-137729804D01*
X168825496Y-137726204D01*
X168850000Y-137725000D01*
X169775000Y-137725000D01*
X169799504Y-137726204D01*
G37*
G04 #@! TD.AperFunction*
G04 #@! TA.AperFunction,SMDPad,CuDef*
G36*
X172774504Y-137726204D02*
G01*
X172798773Y-137729804D01*
X172822571Y-137735765D01*
X172845671Y-137744030D01*
X172867849Y-137754520D01*
X172888893Y-137767133D01*
X172908598Y-137781747D01*
X172926777Y-137798223D01*
X172943253Y-137816402D01*
X172957867Y-137836107D01*
X172970480Y-137857151D01*
X172980970Y-137879329D01*
X172989235Y-137902429D01*
X172995196Y-137926227D01*
X172998796Y-137950496D01*
X173000000Y-137975000D01*
X173000000Y-139225000D01*
X172998796Y-139249504D01*
X172995196Y-139273773D01*
X172989235Y-139297571D01*
X172980970Y-139320671D01*
X172970480Y-139342849D01*
X172957867Y-139363893D01*
X172943253Y-139383598D01*
X172926777Y-139401777D01*
X172908598Y-139418253D01*
X172888893Y-139432867D01*
X172867849Y-139445480D01*
X172845671Y-139455970D01*
X172822571Y-139464235D01*
X172798773Y-139470196D01*
X172774504Y-139473796D01*
X172750000Y-139475000D01*
X171825000Y-139475000D01*
X171800496Y-139473796D01*
X171776227Y-139470196D01*
X171752429Y-139464235D01*
X171729329Y-139455970D01*
X171707151Y-139445480D01*
X171686107Y-139432867D01*
X171666402Y-139418253D01*
X171648223Y-139401777D01*
X171631747Y-139383598D01*
X171617133Y-139363893D01*
X171604520Y-139342849D01*
X171594030Y-139320671D01*
X171585765Y-139297571D01*
X171579804Y-139273773D01*
X171576204Y-139249504D01*
X171575000Y-139225000D01*
X171575000Y-137975000D01*
X171576204Y-137950496D01*
X171579804Y-137926227D01*
X171585765Y-137902429D01*
X171594030Y-137879329D01*
X171604520Y-137857151D01*
X171617133Y-137836107D01*
X171631747Y-137816402D01*
X171648223Y-137798223D01*
X171666402Y-137781747D01*
X171686107Y-137767133D01*
X171707151Y-137754520D01*
X171729329Y-137744030D01*
X171752429Y-137735765D01*
X171776227Y-137729804D01*
X171800496Y-137726204D01*
X171825000Y-137725000D01*
X172750000Y-137725000D01*
X172774504Y-137726204D01*
G37*
G04 #@! TD.AperFunction*
D12*
X164100000Y-135200000D03*
D13*
X161560000Y-135200000D03*
X159020000Y-135200000D03*
X156480000Y-135200000D03*
D15*
X198600000Y-131200000D03*
X198600000Y-130200000D03*
X198600000Y-129200000D03*
X198600000Y-128200000D03*
X198600000Y-127200000D03*
X198600000Y-126200000D03*
X198600000Y-125200000D03*
X198600000Y-124200000D03*
X198600000Y-123200000D03*
X198600000Y-122200000D03*
X198600000Y-121200000D03*
X198600000Y-120200000D03*
X198600000Y-119200000D03*
X198600000Y-118200000D03*
X198600000Y-117200000D03*
X198600000Y-116200000D03*
X198600000Y-115200000D03*
X198600000Y-114200000D03*
X198600000Y-113200000D03*
X198600000Y-112200000D03*
X198600000Y-111200000D03*
X198600000Y-110200000D03*
X198600000Y-109200000D03*
X198600000Y-108200000D03*
X198600000Y-107200000D03*
X198600000Y-106200000D03*
X198600000Y-105200000D03*
X198600000Y-104200000D03*
X198600000Y-103200000D03*
X198600000Y-102200000D03*
D16*
X201100000Y-133950000D03*
X201100000Y-99450000D03*
G04 #@! TA.AperFunction,SMDPad,CuDef*
D14*
G36*
X129799504Y-121726204D02*
G01*
X129823773Y-121729804D01*
X129847571Y-121735765D01*
X129870671Y-121744030D01*
X129892849Y-121754520D01*
X129913893Y-121767133D01*
X129933598Y-121781747D01*
X129951777Y-121798223D01*
X129968253Y-121816402D01*
X129982867Y-121836107D01*
X129995480Y-121857151D01*
X130005970Y-121879329D01*
X130014235Y-121902429D01*
X130020196Y-121926227D01*
X130023796Y-121950496D01*
X130025000Y-121975000D01*
X130025000Y-123225000D01*
X130023796Y-123249504D01*
X130020196Y-123273773D01*
X130014235Y-123297571D01*
X130005970Y-123320671D01*
X129995480Y-123342849D01*
X129982867Y-123363893D01*
X129968253Y-123383598D01*
X129951777Y-123401777D01*
X129933598Y-123418253D01*
X129913893Y-123432867D01*
X129892849Y-123445480D01*
X129870671Y-123455970D01*
X129847571Y-123464235D01*
X129823773Y-123470196D01*
X129799504Y-123473796D01*
X129775000Y-123475000D01*
X128850000Y-123475000D01*
X128825496Y-123473796D01*
X128801227Y-123470196D01*
X128777429Y-123464235D01*
X128754329Y-123455970D01*
X128732151Y-123445480D01*
X128711107Y-123432867D01*
X128691402Y-123418253D01*
X128673223Y-123401777D01*
X128656747Y-123383598D01*
X128642133Y-123363893D01*
X128629520Y-123342849D01*
X128619030Y-123320671D01*
X128610765Y-123297571D01*
X128604804Y-123273773D01*
X128601204Y-123249504D01*
X128600000Y-123225000D01*
X128600000Y-121975000D01*
X128601204Y-121950496D01*
X128604804Y-121926227D01*
X128610765Y-121902429D01*
X128619030Y-121879329D01*
X128629520Y-121857151D01*
X128642133Y-121836107D01*
X128656747Y-121816402D01*
X128673223Y-121798223D01*
X128691402Y-121781747D01*
X128711107Y-121767133D01*
X128732151Y-121754520D01*
X128754329Y-121744030D01*
X128777429Y-121735765D01*
X128801227Y-121729804D01*
X128825496Y-121726204D01*
X128850000Y-121725000D01*
X129775000Y-121725000D01*
X129799504Y-121726204D01*
G37*
G04 #@! TD.AperFunction*
G04 #@! TA.AperFunction,SMDPad,CuDef*
G36*
X132774504Y-121726204D02*
G01*
X132798773Y-121729804D01*
X132822571Y-121735765D01*
X132845671Y-121744030D01*
X132867849Y-121754520D01*
X132888893Y-121767133D01*
X132908598Y-121781747D01*
X132926777Y-121798223D01*
X132943253Y-121816402D01*
X132957867Y-121836107D01*
X132970480Y-121857151D01*
X132980970Y-121879329D01*
X132989235Y-121902429D01*
X132995196Y-121926227D01*
X132998796Y-121950496D01*
X133000000Y-121975000D01*
X133000000Y-123225000D01*
X132998796Y-123249504D01*
X132995196Y-123273773D01*
X132989235Y-123297571D01*
X132980970Y-123320671D01*
X132970480Y-123342849D01*
X132957867Y-123363893D01*
X132943253Y-123383598D01*
X132926777Y-123401777D01*
X132908598Y-123418253D01*
X132888893Y-123432867D01*
X132867849Y-123445480D01*
X132845671Y-123455970D01*
X132822571Y-123464235D01*
X132798773Y-123470196D01*
X132774504Y-123473796D01*
X132750000Y-123475000D01*
X131825000Y-123475000D01*
X131800496Y-123473796D01*
X131776227Y-123470196D01*
X131752429Y-123464235D01*
X131729329Y-123455970D01*
X131707151Y-123445480D01*
X131686107Y-123432867D01*
X131666402Y-123418253D01*
X131648223Y-123401777D01*
X131631747Y-123383598D01*
X131617133Y-123363893D01*
X131604520Y-123342849D01*
X131594030Y-123320671D01*
X131585765Y-123297571D01*
X131579804Y-123273773D01*
X131576204Y-123249504D01*
X131575000Y-123225000D01*
X131575000Y-121975000D01*
X131576204Y-121950496D01*
X131579804Y-121926227D01*
X131585765Y-121902429D01*
X131594030Y-121879329D01*
X131604520Y-121857151D01*
X131617133Y-121836107D01*
X131631747Y-121816402D01*
X131648223Y-121798223D01*
X131666402Y-121781747D01*
X131686107Y-121767133D01*
X131707151Y-121754520D01*
X131729329Y-121744030D01*
X131752429Y-121735765D01*
X131776227Y-121729804D01*
X131800496Y-121726204D01*
X131825000Y-121725000D01*
X132750000Y-121725000D01*
X132774504Y-121726204D01*
G37*
G04 #@! TD.AperFunction*
G04 #@! TA.AperFunction,SMDPad,CuDef*
G36*
X135949504Y-121863704D02*
G01*
X135973773Y-121867304D01*
X135997571Y-121873265D01*
X136020671Y-121881530D01*
X136042849Y-121892020D01*
X136063893Y-121904633D01*
X136083598Y-121919247D01*
X136101777Y-121935723D01*
X136118253Y-121953902D01*
X136132867Y-121973607D01*
X136145480Y-121994651D01*
X136155970Y-122016829D01*
X136164235Y-122039929D01*
X136170196Y-122063727D01*
X136173796Y-122087996D01*
X136175000Y-122112500D01*
X136175000Y-123037500D01*
X136173796Y-123062004D01*
X136170196Y-123086273D01*
X136164235Y-123110071D01*
X136155970Y-123133171D01*
X136145480Y-123155349D01*
X136132867Y-123176393D01*
X136118253Y-123196098D01*
X136101777Y-123214277D01*
X136083598Y-123230753D01*
X136063893Y-123245367D01*
X136042849Y-123257980D01*
X136020671Y-123268470D01*
X135997571Y-123276735D01*
X135973773Y-123282696D01*
X135949504Y-123286296D01*
X135925000Y-123287500D01*
X134675000Y-123287500D01*
X134650496Y-123286296D01*
X134626227Y-123282696D01*
X134602429Y-123276735D01*
X134579329Y-123268470D01*
X134557151Y-123257980D01*
X134536107Y-123245367D01*
X134516402Y-123230753D01*
X134498223Y-123214277D01*
X134481747Y-123196098D01*
X134467133Y-123176393D01*
X134454520Y-123155349D01*
X134444030Y-123133171D01*
X134435765Y-123110071D01*
X134429804Y-123086273D01*
X134426204Y-123062004D01*
X134425000Y-123037500D01*
X134425000Y-122112500D01*
X134426204Y-122087996D01*
X134429804Y-122063727D01*
X134435765Y-122039929D01*
X134444030Y-122016829D01*
X134454520Y-121994651D01*
X134467133Y-121973607D01*
X134481747Y-121953902D01*
X134498223Y-121935723D01*
X134516402Y-121919247D01*
X134536107Y-121904633D01*
X134557151Y-121892020D01*
X134579329Y-121881530D01*
X134602429Y-121873265D01*
X134626227Y-121867304D01*
X134650496Y-121863704D01*
X134675000Y-121862500D01*
X135925000Y-121862500D01*
X135949504Y-121863704D01*
G37*
G04 #@! TD.AperFunction*
G04 #@! TA.AperFunction,SMDPad,CuDef*
G36*
X135949504Y-118888704D02*
G01*
X135973773Y-118892304D01*
X135997571Y-118898265D01*
X136020671Y-118906530D01*
X136042849Y-118917020D01*
X136063893Y-118929633D01*
X136083598Y-118944247D01*
X136101777Y-118960723D01*
X136118253Y-118978902D01*
X136132867Y-118998607D01*
X136145480Y-119019651D01*
X136155970Y-119041829D01*
X136164235Y-119064929D01*
X136170196Y-119088727D01*
X136173796Y-119112996D01*
X136175000Y-119137500D01*
X136175000Y-120062500D01*
X136173796Y-120087004D01*
X136170196Y-120111273D01*
X136164235Y-120135071D01*
X136155970Y-120158171D01*
X136145480Y-120180349D01*
X136132867Y-120201393D01*
X136118253Y-120221098D01*
X136101777Y-120239277D01*
X136083598Y-120255753D01*
X136063893Y-120270367D01*
X136042849Y-120282980D01*
X136020671Y-120293470D01*
X135997571Y-120301735D01*
X135973773Y-120307696D01*
X135949504Y-120311296D01*
X135925000Y-120312500D01*
X134675000Y-120312500D01*
X134650496Y-120311296D01*
X134626227Y-120307696D01*
X134602429Y-120301735D01*
X134579329Y-120293470D01*
X134557151Y-120282980D01*
X134536107Y-120270367D01*
X134516402Y-120255753D01*
X134498223Y-120239277D01*
X134481747Y-120221098D01*
X134467133Y-120201393D01*
X134454520Y-120180349D01*
X134444030Y-120158171D01*
X134435765Y-120135071D01*
X134429804Y-120111273D01*
X134426204Y-120087004D01*
X134425000Y-120062500D01*
X134425000Y-119137500D01*
X134426204Y-119112996D01*
X134429804Y-119088727D01*
X134435765Y-119064929D01*
X134444030Y-119041829D01*
X134454520Y-119019651D01*
X134467133Y-118998607D01*
X134481747Y-118978902D01*
X134498223Y-118960723D01*
X134516402Y-118944247D01*
X134536107Y-118929633D01*
X134557151Y-118917020D01*
X134579329Y-118906530D01*
X134602429Y-118898265D01*
X134626227Y-118892304D01*
X134650496Y-118888704D01*
X134675000Y-118887500D01*
X135925000Y-118887500D01*
X135949504Y-118888704D01*
G37*
G04 #@! TD.AperFunction*
D17*
X38800000Y-75200000D03*
D18*
X125000000Y-119300000D03*
X128300000Y-119300000D03*
X131000000Y-119200000D03*
X133800000Y-127500000D03*
X136500000Y-127400000D03*
X139000000Y-127300000D03*
D17*
X137500000Y-69900000D03*
X148400000Y-99300000D03*
X143500000Y-109600000D03*
X164300000Y-81700000D03*
X155900000Y-88300000D03*
X151100000Y-93400000D03*
X161800000Y-83700000D03*
X153900000Y-91200000D03*
X142600000Y-108100000D03*
X135300000Y-119600000D03*
X132300000Y-109600000D03*
D19*
X191630000Y-66070000D02*
X192300000Y-65400000D01*
X136219999Y-66869999D02*
X162269999Y-66869999D01*
X135420000Y-66070000D02*
X136219999Y-66869999D01*
X162269999Y-66869999D02*
X162300000Y-66900000D01*
X162300000Y-66900000D02*
X187800000Y-66900000D01*
X189300000Y-65400000D02*
X192300000Y-65400000D01*
X187800000Y-66900000D02*
X189300000Y-65400000D01*
X164100000Y-133950000D02*
X162550000Y-132400000D01*
X164100000Y-135200000D02*
X164100000Y-133950000D01*
X146900000Y-130125000D02*
X146900000Y-129412500D01*
X149175000Y-132400000D02*
X146900000Y-130125000D01*
X162550000Y-132400000D02*
X149175000Y-132400000D01*
X137200000Y-116400000D02*
X127330000Y-116400000D01*
X146900000Y-129412500D02*
X146900000Y-126100000D01*
X127330000Y-116400000D02*
X125260000Y-114330000D01*
X146900000Y-126100000D02*
X137200000Y-116400000D01*
X165350000Y-135200000D02*
X166650000Y-136500000D01*
X164100000Y-135200000D02*
X165350000Y-135200000D01*
X172287500Y-137725000D02*
X172287500Y-138600000D01*
X171062500Y-136500000D02*
X172287500Y-137725000D01*
X166650000Y-136500000D02*
X171062500Y-136500000D01*
D20*
X157620000Y-133800000D02*
X159020000Y-135200000D01*
X117200000Y-115600000D02*
X135400000Y-133800000D01*
X120180000Y-83850000D02*
X117200000Y-86830000D01*
X117200000Y-86830000D02*
X117200000Y-115600000D01*
X146900000Y-133100000D02*
X146900000Y-132387500D01*
X148900000Y-133800000D02*
X147600000Y-133800000D01*
X147600000Y-133800000D02*
X146900000Y-133100000D01*
X148900000Y-133800000D02*
X157620000Y-133800000D01*
X135400000Y-133800000D02*
X148900000Y-133800000D01*
X115900000Y-80510000D02*
X120180000Y-76230000D01*
X115900000Y-116000000D02*
X115900000Y-80510000D01*
X156480000Y-135200000D02*
X135100000Y-135200000D01*
X135100000Y-135200000D02*
X115900000Y-116000000D01*
X157329999Y-136049999D02*
X157349999Y-136049999D01*
X156480000Y-135200000D02*
X157329999Y-136049999D01*
X159880000Y-138600000D02*
X156480000Y-135200000D01*
X169312500Y-138600000D02*
X159880000Y-138600000D01*
X139460000Y-67940000D02*
X192300000Y-67940000D01*
X137500000Y-69900000D02*
X139460000Y-67940000D01*
X172800000Y-92000000D02*
X157030000Y-76230000D01*
X172800000Y-102000000D02*
X172800000Y-92000000D01*
X157030000Y-76230000D02*
X135420000Y-76230000D01*
X198600000Y-105200000D02*
X176000000Y-105200000D01*
X176000000Y-105200000D02*
X172800000Y-102000000D01*
X169800000Y-103500000D02*
X169800000Y-93900000D01*
X198600000Y-107200000D02*
X173500000Y-107200000D01*
X154670000Y-78770000D02*
X135420000Y-78770000D01*
X169800000Y-93900000D02*
X154670000Y-78770000D01*
X173500000Y-107200000D02*
X169800000Y-103500000D01*
X198600000Y-109200000D02*
X170600000Y-109200000D01*
X170600000Y-109200000D02*
X166600000Y-105200000D01*
X166600000Y-105200000D02*
X166600000Y-96500000D01*
X151410000Y-81310000D02*
X135420000Y-81310000D01*
X166600000Y-96500000D02*
X151410000Y-81310000D01*
X198600000Y-111200000D02*
X168100000Y-111200000D01*
X168100000Y-111200000D02*
X163700000Y-106800000D01*
X163700000Y-106800000D02*
X163700000Y-98500000D01*
X149050000Y-83850000D02*
X135420000Y-83850000D01*
X163700000Y-98500000D02*
X149050000Y-83850000D01*
X198600000Y-113200000D02*
X166200000Y-113200000D01*
X166200000Y-113200000D02*
X161300000Y-108300000D01*
X161300000Y-108300000D02*
X161300000Y-101400000D01*
X146290000Y-86390000D02*
X135420000Y-86390000D01*
X161300000Y-101400000D02*
X146290000Y-86390000D01*
X198600000Y-115200000D02*
X165100000Y-115200000D01*
X165100000Y-115200000D02*
X159100000Y-109200000D01*
X159100000Y-109200000D02*
X159100000Y-103500000D01*
X144530000Y-88930000D02*
X135420000Y-88930000D01*
X159100000Y-103500000D02*
X144530000Y-88930000D01*
X198600000Y-117200000D02*
X197550000Y-117200000D01*
X197550000Y-117200000D02*
X163400000Y-117200000D01*
X163400000Y-117200000D02*
X156600000Y-110400000D01*
X156600000Y-110400000D02*
X156600000Y-107500000D01*
X156600000Y-107500000D02*
X148400000Y-99300000D01*
X199650000Y-119200000D02*
X200400000Y-118450000D01*
X198600000Y-119200000D02*
X199650000Y-119200000D01*
X200400000Y-118450000D02*
X200400000Y-102000000D01*
X200400000Y-102000000D02*
X199700000Y-101300000D01*
X199700000Y-101300000D02*
X180300000Y-101300000D01*
X180300000Y-101300000D02*
X177800000Y-98800000D01*
X177800000Y-98800000D02*
X177800000Y-88300000D01*
X160650000Y-71150000D02*
X135420000Y-71150000D01*
X177800000Y-88300000D02*
X160650000Y-71150000D01*
X198600000Y-121200000D02*
X160500000Y-121200000D01*
X160500000Y-121200000D02*
X152000000Y-112700000D01*
X152000000Y-112700000D02*
X152000000Y-110100000D01*
X143530000Y-101630000D02*
X135420000Y-101630000D01*
X152000000Y-110100000D02*
X143530000Y-101630000D01*
X142070000Y-104170000D02*
X135420000Y-104170000D01*
X149900000Y-112000000D02*
X142070000Y-104170000D01*
X149900000Y-114200000D02*
X149900000Y-112000000D01*
X198600000Y-123200000D02*
X158900000Y-123200000D01*
X158900000Y-123200000D02*
X149900000Y-114200000D01*
X198600000Y-125200000D02*
X197550000Y-125200000D01*
X197550000Y-125200000D02*
X157300000Y-125200000D01*
X157300000Y-125200000D02*
X147600000Y-115500000D01*
X147600000Y-115500000D02*
X147600000Y-113700000D01*
X147600000Y-113700000D02*
X143500000Y-109600000D01*
X137110000Y-106710000D02*
X135420000Y-106710000D01*
X145500000Y-115100000D02*
X137110000Y-106710000D01*
X198600000Y-127200000D02*
X155500000Y-127200000D01*
X145500000Y-117200000D02*
X145500000Y-115100000D01*
X155500000Y-127200000D02*
X145500000Y-117200000D01*
X138490000Y-111790000D02*
X135420000Y-111790000D01*
X142500000Y-115800000D02*
X138490000Y-111790000D01*
X198600000Y-129200000D02*
X154300000Y-129200000D01*
X142500000Y-117400000D02*
X142500000Y-115800000D01*
X154300000Y-129200000D02*
X142500000Y-117400000D01*
X137830000Y-114330000D02*
X135420000Y-114330000D01*
X140500000Y-117000000D02*
X137830000Y-114330000D01*
X140500000Y-118100000D02*
X140500000Y-117000000D01*
X198600000Y-131200000D02*
X153600000Y-131200000D01*
X153600000Y-131200000D02*
X140500000Y-118100000D01*
X198600000Y-118200000D02*
X162800000Y-118200000D01*
X162800000Y-118200000D02*
X155400000Y-110800000D01*
X155400000Y-110800000D02*
X155400000Y-108300000D01*
X155400000Y-108300000D02*
X144800000Y-97700000D01*
X121570000Y-97700000D02*
X120180000Y-99090000D01*
X144800000Y-97700000D02*
X121570000Y-97700000D01*
X198600000Y-104200000D02*
X197550000Y-104200000D01*
X197550000Y-104200000D02*
X177200000Y-104200000D01*
X177200000Y-104200000D02*
X174300000Y-101300000D01*
X174300000Y-101300000D02*
X174300000Y-91700000D01*
X174300000Y-91700000D02*
X164300000Y-81700000D01*
X198600000Y-120200000D02*
X161100000Y-120200000D01*
X161100000Y-120200000D02*
X152800000Y-111900000D01*
X152800000Y-111900000D02*
X152800000Y-109400000D01*
X152800000Y-109400000D02*
X143800000Y-100400000D01*
X143800000Y-100400000D02*
X121410000Y-100400000D01*
X121410000Y-100400000D02*
X120180000Y-101630000D01*
X121450000Y-102900000D02*
X120180000Y-104170000D01*
X159400000Y-122200000D02*
X150900000Y-113700000D01*
X143100000Y-102900000D02*
X121450000Y-102900000D01*
X198600000Y-122200000D02*
X159400000Y-122200000D01*
X150900000Y-113700000D02*
X150900000Y-110700000D01*
X150900000Y-110700000D02*
X143100000Y-102900000D01*
X198600000Y-110200000D02*
X197550000Y-110200000D01*
X197550000Y-110200000D02*
X169500000Y-110200000D01*
X169500000Y-110200000D02*
X165200000Y-105900000D01*
X165200000Y-105900000D02*
X165200000Y-97600000D01*
X165200000Y-97600000D02*
X155900000Y-88300000D01*
X198600000Y-108200000D02*
X172500000Y-108200000D01*
X172500000Y-108200000D02*
X168200000Y-103900000D01*
X168200000Y-103900000D02*
X168200000Y-94900000D01*
X168200000Y-94900000D02*
X153400000Y-80100000D01*
X153400000Y-80100000D02*
X126300000Y-80100000D01*
X126300000Y-80100000D02*
X122700000Y-76500000D01*
X122700000Y-73670000D02*
X120180000Y-71150000D01*
X122700000Y-76500000D02*
X122700000Y-73670000D01*
X121390000Y-113000000D02*
X120180000Y-111790000D01*
X198600000Y-130200000D02*
X153900000Y-130200000D01*
X141600000Y-117900000D02*
X141600000Y-116100000D01*
X141600000Y-116100000D02*
X138500000Y-113000000D01*
X153900000Y-130200000D02*
X141600000Y-117900000D01*
X138500000Y-113000000D02*
X121390000Y-113000000D01*
X198600000Y-114200000D02*
X165300000Y-114200000D01*
X165300000Y-114200000D02*
X160200000Y-109100000D01*
X160200000Y-109100000D02*
X160200000Y-102500000D01*
X160200000Y-102500000D02*
X151100000Y-93400000D01*
X118000000Y-111400000D02*
X118000000Y-113600000D01*
X118730000Y-114330000D02*
X120180000Y-114330000D01*
X118900000Y-110500000D02*
X118000000Y-111400000D01*
X154900000Y-128200000D02*
X144200000Y-117500000D01*
X198600000Y-128200000D02*
X154900000Y-128200000D01*
X144200000Y-115700000D02*
X139000000Y-110500000D01*
X118000000Y-113600000D02*
X118730000Y-114330000D01*
X144200000Y-117500000D02*
X144200000Y-115700000D01*
X139000000Y-110500000D02*
X118900000Y-110500000D01*
X198600000Y-106200000D02*
X175200000Y-106200000D01*
X175200000Y-106200000D02*
X171500000Y-102500000D01*
X171500000Y-102500000D02*
X171500000Y-93400000D01*
X171500000Y-93400000D02*
X161800000Y-83700000D01*
X198600000Y-112200000D02*
X197550000Y-112200000D01*
X197550000Y-112200000D02*
X167000000Y-112200000D01*
X167000000Y-112200000D02*
X162500000Y-107700000D01*
X162500000Y-107700000D02*
X162500000Y-99800000D01*
X162500000Y-99800000D02*
X153900000Y-91200000D01*
X156700000Y-126200000D02*
X146700000Y-116200000D01*
X146700000Y-116200000D02*
X146700000Y-114300000D01*
X123930000Y-105500000D02*
X120180000Y-109250000D01*
X137900000Y-105500000D02*
X123930000Y-105500000D01*
X198600000Y-126200000D02*
X156700000Y-126200000D01*
X146700000Y-114300000D02*
X137900000Y-105500000D01*
X121530000Y-95200000D02*
X120180000Y-96550000D01*
X164000000Y-116200000D02*
X157800000Y-110000000D01*
X146800000Y-95200000D02*
X121530000Y-95200000D01*
X198600000Y-116200000D02*
X164000000Y-116200000D01*
X157800000Y-110000000D02*
X157800000Y-106200000D01*
X157800000Y-106200000D02*
X146800000Y-95200000D01*
X198600000Y-124200000D02*
X197550000Y-124200000D01*
X197550000Y-124200000D02*
X158300000Y-124200000D01*
X158300000Y-124200000D02*
X148800000Y-114700000D01*
X148800000Y-114700000D02*
X148800000Y-113000000D01*
X148800000Y-113000000D02*
X143900000Y-108100000D01*
X143900000Y-108100000D02*
X142600000Y-108100000D01*
X198600000Y-102200000D02*
X179300000Y-102200000D01*
X179300000Y-102200000D02*
X176700000Y-99600000D01*
X176700000Y-99600000D02*
X176700000Y-88700000D01*
X161690000Y-73690000D02*
X135420000Y-73690000D01*
X176700000Y-88700000D02*
X161690000Y-73690000D01*
X123500000Y-73100000D02*
X123500000Y-69900000D01*
X125300000Y-74900000D02*
X123500000Y-73100000D01*
X178200000Y-103200000D02*
X175700000Y-100700000D01*
X122210000Y-68610000D02*
X120180000Y-68610000D01*
X198600000Y-103200000D02*
X178200000Y-103200000D01*
X175700000Y-100700000D02*
X175700000Y-90500000D01*
X175700000Y-90500000D02*
X160100000Y-74900000D01*
X123500000Y-69900000D02*
X122210000Y-68610000D01*
X160100000Y-74900000D02*
X125300000Y-74900000D01*
X132312500Y-122575000D02*
X132287500Y-122600000D01*
X135300000Y-122575000D02*
X132312500Y-122575000D01*
X132300000Y-108670000D02*
X130340000Y-106710000D01*
X132300000Y-109600000D02*
X132300000Y-108670000D01*
D21*
G36*
X203198505Y-53892434D02*
G01*
X203485641Y-53979125D01*
X203750472Y-54119938D01*
X203982906Y-54309507D01*
X204174095Y-54540615D01*
X204316750Y-54804451D01*
X204405445Y-55090977D01*
X204440000Y-55419748D01*
X204440001Y-137967711D01*
X204407566Y-138298505D01*
X204320875Y-138585641D01*
X204180060Y-138850475D01*
X203990494Y-139082906D01*
X203759384Y-139274096D01*
X203495550Y-139416750D01*
X203209023Y-139505445D01*
X202880252Y-139540000D01*
X173578010Y-139540000D01*
X173621008Y-139398254D01*
X173638072Y-139225000D01*
X173638072Y-137975000D01*
X173621008Y-137801746D01*
X173570472Y-137635150D01*
X173488405Y-137481614D01*
X173377962Y-137347038D01*
X173243386Y-137236595D01*
X173089850Y-137154528D01*
X172923254Y-137103992D01*
X172839069Y-137095701D01*
X172123240Y-136379872D01*
X188965000Y-136379872D01*
X188965000Y-136820128D01*
X189050890Y-137251925D01*
X189219369Y-137658669D01*
X189463962Y-138024729D01*
X189775271Y-138336038D01*
X190141331Y-138580631D01*
X190548075Y-138749110D01*
X190979872Y-138835000D01*
X191420128Y-138835000D01*
X191851925Y-138749110D01*
X192258669Y-138580631D01*
X192624729Y-138336038D01*
X192936038Y-138024729D01*
X193180631Y-137658669D01*
X193349110Y-137251925D01*
X193435000Y-136820128D01*
X193435000Y-136379872D01*
X193349110Y-135948075D01*
X193180631Y-135541331D01*
X192936038Y-135175271D01*
X192624729Y-134863962D01*
X192258669Y-134619369D01*
X191851925Y-134450890D01*
X191420128Y-134365000D01*
X190979872Y-134365000D01*
X190548075Y-134450890D01*
X190141331Y-134619369D01*
X189775271Y-134863962D01*
X189463962Y-135175271D01*
X189219369Y-135541331D01*
X189050890Y-135948075D01*
X188965000Y-136379872D01*
X172123240Y-136379872D01*
X171681945Y-135938578D01*
X171655791Y-135906709D01*
X171528646Y-135802364D01*
X171383587Y-135724828D01*
X171226189Y-135677082D01*
X171103519Y-135665000D01*
X171103518Y-135665000D01*
X171062500Y-135660960D01*
X171021482Y-135665000D01*
X166995869Y-135665000D01*
X165969446Y-134638578D01*
X165943291Y-134606709D01*
X165816146Y-134502364D01*
X165671087Y-134424828D01*
X165588072Y-134399646D01*
X165588072Y-134350000D01*
X165575812Y-134225518D01*
X165539502Y-134105820D01*
X165480537Y-133995506D01*
X165401185Y-133898815D01*
X165304494Y-133819463D01*
X165194180Y-133760498D01*
X165074482Y-133724188D01*
X164950000Y-133711928D01*
X164900354Y-133711928D01*
X164875172Y-133628913D01*
X164797636Y-133483854D01*
X164720350Y-133389681D01*
X164693291Y-133356709D01*
X164661426Y-133330559D01*
X163265867Y-131935000D01*
X197285532Y-131935000D01*
X197298815Y-131951185D01*
X197395506Y-132030537D01*
X197505820Y-132089502D01*
X197625518Y-132125812D01*
X197750000Y-132138072D01*
X199404233Y-132138072D01*
X199345506Y-132169463D01*
X199248815Y-132248815D01*
X199169463Y-132345506D01*
X199110498Y-132455820D01*
X199074188Y-132575518D01*
X199061928Y-132700000D01*
X199061928Y-135200000D01*
X199074188Y-135324482D01*
X199110498Y-135444180D01*
X199169463Y-135554494D01*
X199248815Y-135651185D01*
X199345506Y-135730537D01*
X199455820Y-135789502D01*
X199575518Y-135825812D01*
X199700000Y-135838072D01*
X202500000Y-135838072D01*
X202624482Y-135825812D01*
X202744180Y-135789502D01*
X202854494Y-135730537D01*
X202951185Y-135651185D01*
X203030537Y-135554494D01*
X203089502Y-135444180D01*
X203125812Y-135324482D01*
X203138072Y-135200000D01*
X203138072Y-132700000D01*
X203125812Y-132575518D01*
X203089502Y-132455820D01*
X203030537Y-132345506D01*
X202951185Y-132248815D01*
X202854494Y-132169463D01*
X202744180Y-132110498D01*
X202624482Y-132074188D01*
X202500000Y-132061928D01*
X199745767Y-132061928D01*
X199804494Y-132030537D01*
X199901185Y-131951185D01*
X199980537Y-131854494D01*
X200039502Y-131744180D01*
X200075812Y-131624482D01*
X200088072Y-131500000D01*
X200088072Y-130900000D01*
X200075812Y-130775518D01*
X200052904Y-130700000D01*
X200075812Y-130624482D01*
X200088072Y-130500000D01*
X200088072Y-129900000D01*
X200075812Y-129775518D01*
X200052904Y-129700000D01*
X200075812Y-129624482D01*
X200088072Y-129500000D01*
X200088072Y-128900000D01*
X200075812Y-128775518D01*
X200052904Y-128700000D01*
X200075812Y-128624482D01*
X200088072Y-128500000D01*
X200088072Y-127900000D01*
X200075812Y-127775518D01*
X200052904Y-127700000D01*
X200075812Y-127624482D01*
X200088072Y-127500000D01*
X200088072Y-126900000D01*
X200075812Y-126775518D01*
X200052904Y-126700000D01*
X200075812Y-126624482D01*
X200088072Y-126500000D01*
X200088072Y-125900000D01*
X200075812Y-125775518D01*
X200052904Y-125700000D01*
X200075812Y-125624482D01*
X200088072Y-125500000D01*
X200088072Y-124900000D01*
X200075812Y-124775518D01*
X200052904Y-124700000D01*
X200075812Y-124624482D01*
X200088072Y-124500000D01*
X200088072Y-123900000D01*
X200075812Y-123775518D01*
X200052904Y-123700000D01*
X200075812Y-123624482D01*
X200088072Y-123500000D01*
X200088072Y-122900000D01*
X200075812Y-122775518D01*
X200052904Y-122700000D01*
X200075812Y-122624482D01*
X200088072Y-122500000D01*
X200088072Y-121900000D01*
X200075812Y-121775518D01*
X200052904Y-121700000D01*
X200075812Y-121624482D01*
X200088072Y-121500000D01*
X200088072Y-120900000D01*
X200075812Y-120775518D01*
X200052904Y-120700000D01*
X200075812Y-120624482D01*
X200088072Y-120500000D01*
X200088072Y-119900000D01*
X200078168Y-119799439D01*
X200172238Y-119722238D01*
X200195258Y-119694188D01*
X200894197Y-118995250D01*
X200922237Y-118972238D01*
X200945250Y-118944197D01*
X200945253Y-118944194D01*
X201014086Y-118860321D01*
X201014087Y-118860320D01*
X201082337Y-118732633D01*
X201119440Y-118610320D01*
X201124365Y-118594086D01*
X201125765Y-118579868D01*
X201135000Y-118486105D01*
X201135000Y-118486098D01*
X201138555Y-118450001D01*
X201135000Y-118413904D01*
X201135000Y-102036094D01*
X201138555Y-101999999D01*
X201135000Y-101963904D01*
X201135000Y-101963895D01*
X201124365Y-101855915D01*
X201082337Y-101717367D01*
X201014087Y-101589680D01*
X200922238Y-101477762D01*
X200894193Y-101454746D01*
X200777519Y-101338072D01*
X202500000Y-101338072D01*
X202624482Y-101325812D01*
X202744180Y-101289502D01*
X202854494Y-101230537D01*
X202951185Y-101151185D01*
X203030537Y-101054494D01*
X203089502Y-100944180D01*
X203125812Y-100824482D01*
X203138072Y-100700000D01*
X203138072Y-98200000D01*
X203125812Y-98075518D01*
X203089502Y-97955820D01*
X203030537Y-97845506D01*
X202951185Y-97748815D01*
X202854494Y-97669463D01*
X202744180Y-97610498D01*
X202624482Y-97574188D01*
X202500000Y-97561928D01*
X199700000Y-97561928D01*
X199575518Y-97574188D01*
X199455820Y-97610498D01*
X199345506Y-97669463D01*
X199248815Y-97748815D01*
X199169463Y-97845506D01*
X199110498Y-97955820D01*
X199074188Y-98075518D01*
X199061928Y-98200000D01*
X199061928Y-100565000D01*
X180604447Y-100565000D01*
X178535000Y-98495554D01*
X178535000Y-88336105D01*
X178538556Y-88300000D01*
X178524365Y-88155915D01*
X178482337Y-88017366D01*
X178414087Y-87889680D01*
X178345253Y-87805806D01*
X178322238Y-87777762D01*
X178294193Y-87754746D01*
X161376337Y-70836890D01*
X190858524Y-70836890D01*
X190903175Y-70984099D01*
X191028359Y-71246920D01*
X191202412Y-71480269D01*
X191418645Y-71675178D01*
X191668748Y-71824157D01*
X191943109Y-71921481D01*
X192173000Y-71800814D01*
X192173000Y-70607000D01*
X192427000Y-70607000D01*
X192427000Y-71800814D01*
X192656891Y-71921481D01*
X192931252Y-71824157D01*
X193181355Y-71675178D01*
X193397588Y-71480269D01*
X193571641Y-71246920D01*
X193696825Y-70984099D01*
X193741476Y-70836890D01*
X193620155Y-70607000D01*
X192427000Y-70607000D01*
X192173000Y-70607000D01*
X190979845Y-70607000D01*
X190858524Y-70836890D01*
X161376337Y-70836890D01*
X161195259Y-70655813D01*
X161172238Y-70627762D01*
X161060320Y-70535913D01*
X160932633Y-70467663D01*
X160794085Y-70425635D01*
X160686105Y-70415000D01*
X160650000Y-70411444D01*
X160613895Y-70415000D01*
X138400672Y-70415000D01*
X138417205Y-70390256D01*
X138495226Y-70201898D01*
X138535000Y-70001939D01*
X138535000Y-69904446D01*
X139764447Y-68675000D01*
X191005117Y-68675000D01*
X191146525Y-68886632D01*
X191353368Y-69093475D01*
X191535534Y-69215195D01*
X191418645Y-69284822D01*
X191202412Y-69479731D01*
X191028359Y-69713080D01*
X190903175Y-69975901D01*
X190858524Y-70123110D01*
X190979845Y-70353000D01*
X192173000Y-70353000D01*
X192173000Y-70333000D01*
X192427000Y-70333000D01*
X192427000Y-70353000D01*
X193620155Y-70353000D01*
X193741476Y-70123110D01*
X193696825Y-69975901D01*
X193571641Y-69713080D01*
X193397588Y-69479731D01*
X193181355Y-69284822D01*
X193064466Y-69215195D01*
X193246632Y-69093475D01*
X193453475Y-68886632D01*
X193615990Y-68643411D01*
X193727932Y-68373158D01*
X193785000Y-68086260D01*
X193785000Y-67793740D01*
X193727932Y-67506842D01*
X193615990Y-67236589D01*
X193453475Y-66993368D01*
X193321620Y-66861513D01*
X193394180Y-66839502D01*
X193504494Y-66780537D01*
X193601185Y-66701185D01*
X193680537Y-66604494D01*
X193739502Y-66494180D01*
X193775812Y-66374482D01*
X193788072Y-66250000D01*
X193788072Y-64550000D01*
X193775812Y-64425518D01*
X193739502Y-64305820D01*
X193680537Y-64195506D01*
X193601185Y-64098815D01*
X193504494Y-64019463D01*
X193394180Y-63960498D01*
X193274482Y-63924188D01*
X193150000Y-63911928D01*
X191450000Y-63911928D01*
X191325518Y-63924188D01*
X191205820Y-63960498D01*
X191095506Y-64019463D01*
X190998815Y-64098815D01*
X190919463Y-64195506D01*
X190860498Y-64305820D01*
X190824188Y-64425518D01*
X190811928Y-64550000D01*
X190811928Y-64565000D01*
X189341007Y-64565000D01*
X189299999Y-64560961D01*
X189258991Y-64565000D01*
X189258981Y-64565000D01*
X189136311Y-64577082D01*
X188978913Y-64624828D01*
X188833854Y-64702364D01*
X188706709Y-64806709D01*
X188680559Y-64838574D01*
X187454133Y-66065000D01*
X162492759Y-66065000D01*
X162433688Y-66047081D01*
X162311018Y-66034999D01*
X162311017Y-66034999D01*
X162269999Y-66030959D01*
X162228981Y-66034999D01*
X142827413Y-66034999D01*
X142958669Y-65980631D01*
X143324729Y-65736038D01*
X143636038Y-65424729D01*
X143880631Y-65058669D01*
X144049110Y-64651925D01*
X144135000Y-64220128D01*
X144135000Y-63779872D01*
X144049110Y-63348075D01*
X143880631Y-62941331D01*
X143636038Y-62575271D01*
X143324729Y-62263962D01*
X142958669Y-62019369D01*
X142551925Y-61850890D01*
X142120128Y-61765000D01*
X141679872Y-61765000D01*
X141248075Y-61850890D01*
X140841331Y-62019369D01*
X140475271Y-62263962D01*
X140163962Y-62575271D01*
X139919369Y-62941331D01*
X139750890Y-63348075D01*
X139665000Y-63779872D01*
X139665000Y-64220128D01*
X139750890Y-64651925D01*
X139919369Y-65058669D01*
X140163962Y-65424729D01*
X140475271Y-65736038D01*
X140841331Y-65980631D01*
X140972587Y-66034999D01*
X136855000Y-66034999D01*
X136855000Y-65928665D01*
X136799853Y-65651426D01*
X136691680Y-65390273D01*
X136534637Y-65155241D01*
X136334759Y-64955363D01*
X136099727Y-64798320D01*
X135838574Y-64690147D01*
X135561335Y-64635000D01*
X135278665Y-64635000D01*
X135001426Y-64690147D01*
X134740273Y-64798320D01*
X134505241Y-64955363D01*
X134305363Y-65155241D01*
X134148320Y-65390273D01*
X134040147Y-65651426D01*
X133985000Y-65928665D01*
X133985000Y-66211335D01*
X134040147Y-66488574D01*
X134148320Y-66749727D01*
X134305363Y-66984759D01*
X134505241Y-67184637D01*
X134737759Y-67340000D01*
X134505241Y-67495363D01*
X134305363Y-67695241D01*
X134148320Y-67930273D01*
X134040147Y-68191426D01*
X133985000Y-68468665D01*
X133985000Y-68751335D01*
X134040147Y-69028574D01*
X134148320Y-69289727D01*
X134305363Y-69524759D01*
X134505241Y-69724637D01*
X134737759Y-69880000D01*
X134505241Y-70035363D01*
X134305363Y-70235241D01*
X134148320Y-70470273D01*
X134040147Y-70731426D01*
X133985000Y-71008665D01*
X133985000Y-71291335D01*
X134040147Y-71568574D01*
X134148320Y-71829727D01*
X134305363Y-72064759D01*
X134505241Y-72264637D01*
X134737759Y-72420000D01*
X134505241Y-72575363D01*
X134305363Y-72775241D01*
X134148320Y-73010273D01*
X134040147Y-73271426D01*
X133985000Y-73548665D01*
X133985000Y-73831335D01*
X134040147Y-74108574D01*
X134063519Y-74165000D01*
X125604447Y-74165000D01*
X124235000Y-72795554D01*
X124235000Y-69936094D01*
X124238555Y-69899999D01*
X124235000Y-69863904D01*
X124235000Y-69863895D01*
X124224365Y-69755915D01*
X124182337Y-69617367D01*
X124114087Y-69489680D01*
X124022238Y-69377762D01*
X123994193Y-69354746D01*
X122755258Y-68115812D01*
X122732238Y-68087762D01*
X122620320Y-67995913D01*
X122492633Y-67927663D01*
X122354085Y-67885635D01*
X122246105Y-67875000D01*
X122210000Y-67871444D01*
X122173895Y-67875000D01*
X121414748Y-67875000D01*
X121294637Y-67695241D01*
X121096039Y-67496643D01*
X121104482Y-67495812D01*
X121224180Y-67459502D01*
X121334494Y-67400537D01*
X121431185Y-67321185D01*
X121510537Y-67224494D01*
X121569502Y-67114180D01*
X121605812Y-66994482D01*
X121618072Y-66870000D01*
X121615000Y-66355750D01*
X121456250Y-66197000D01*
X120307000Y-66197000D01*
X120307000Y-66217000D01*
X120053000Y-66217000D01*
X120053000Y-66197000D01*
X118903750Y-66197000D01*
X118745000Y-66355750D01*
X118741928Y-66870000D01*
X118754188Y-66994482D01*
X118790498Y-67114180D01*
X118849463Y-67224494D01*
X118928815Y-67321185D01*
X119025506Y-67400537D01*
X119135820Y-67459502D01*
X119255518Y-67495812D01*
X119263961Y-67496643D01*
X119065363Y-67695241D01*
X118908320Y-67930273D01*
X118800147Y-68191426D01*
X118745000Y-68468665D01*
X118745000Y-68751335D01*
X118800147Y-69028574D01*
X118908320Y-69289727D01*
X119065363Y-69524759D01*
X119265241Y-69724637D01*
X119497759Y-69880000D01*
X119265241Y-70035363D01*
X119065363Y-70235241D01*
X118908320Y-70470273D01*
X118800147Y-70731426D01*
X118745000Y-71008665D01*
X118745000Y-71291335D01*
X118800147Y-71568574D01*
X118908320Y-71829727D01*
X119065363Y-72064759D01*
X119265241Y-72264637D01*
X119497759Y-72420000D01*
X119265241Y-72575363D01*
X119065363Y-72775241D01*
X118908320Y-73010273D01*
X118800147Y-73271426D01*
X118745000Y-73548665D01*
X118745000Y-73831335D01*
X118800147Y-74108574D01*
X118908320Y-74369727D01*
X119065363Y-74604759D01*
X119265241Y-74804637D01*
X119497759Y-74960000D01*
X119265241Y-75115363D01*
X119065363Y-75315241D01*
X118908320Y-75550273D01*
X118800147Y-75811426D01*
X118745000Y-76088665D01*
X118745000Y-76371335D01*
X118787178Y-76583375D01*
X115405808Y-79964746D01*
X115377763Y-79987762D01*
X115285914Y-80099680D01*
X115260000Y-80148162D01*
X115260000Y-65270000D01*
X118741928Y-65270000D01*
X118745000Y-65784250D01*
X118903750Y-65943000D01*
X120053000Y-65943000D01*
X120053000Y-64793750D01*
X120307000Y-64793750D01*
X120307000Y-65943000D01*
X121456250Y-65943000D01*
X121615000Y-65784250D01*
X121618072Y-65270000D01*
X121605812Y-65145518D01*
X121569502Y-65025820D01*
X121510537Y-64915506D01*
X121431185Y-64818815D01*
X121334494Y-64739463D01*
X121224180Y-64680498D01*
X121104482Y-64644188D01*
X120980000Y-64631928D01*
X120465750Y-64635000D01*
X120307000Y-64793750D01*
X120053000Y-64793750D01*
X119894250Y-64635000D01*
X119380000Y-64631928D01*
X119255518Y-64644188D01*
X119135820Y-64680498D01*
X119025506Y-64739463D01*
X118928815Y-64818815D01*
X118849463Y-64915506D01*
X118790498Y-65025820D01*
X118754188Y-65145518D01*
X118741928Y-65270000D01*
X115260000Y-65270000D01*
X115260000Y-56579872D01*
X115965000Y-56579872D01*
X115965000Y-57020128D01*
X116050890Y-57451925D01*
X116219369Y-57858669D01*
X116463962Y-58224729D01*
X116775271Y-58536038D01*
X117141331Y-58780631D01*
X117548075Y-58949110D01*
X117979872Y-59035000D01*
X118420128Y-59035000D01*
X118851925Y-58949110D01*
X119258669Y-58780631D01*
X119624729Y-58536038D01*
X119936038Y-58224729D01*
X120180631Y-57858669D01*
X120349110Y-57451925D01*
X120435000Y-57020128D01*
X120435000Y-56579872D01*
X139665000Y-56579872D01*
X139665000Y-57020128D01*
X139750890Y-57451925D01*
X139919369Y-57858669D01*
X140163962Y-58224729D01*
X140475271Y-58536038D01*
X140841331Y-58780631D01*
X141248075Y-58949110D01*
X141679872Y-59035000D01*
X142120128Y-59035000D01*
X142551925Y-58949110D01*
X142958669Y-58780631D01*
X143324729Y-58536038D01*
X143636038Y-58224729D01*
X143880631Y-57858669D01*
X144049110Y-57451925D01*
X144135000Y-57020128D01*
X144135000Y-56579872D01*
X199265000Y-56579872D01*
X199265000Y-57020128D01*
X199350890Y-57451925D01*
X199519369Y-57858669D01*
X199763962Y-58224729D01*
X200075271Y-58536038D01*
X200441331Y-58780631D01*
X200848075Y-58949110D01*
X201279872Y-59035000D01*
X201720128Y-59035000D01*
X202151925Y-58949110D01*
X202558669Y-58780631D01*
X202924729Y-58536038D01*
X203236038Y-58224729D01*
X203480631Y-57858669D01*
X203649110Y-57451925D01*
X203735000Y-57020128D01*
X203735000Y-56579872D01*
X203649110Y-56148075D01*
X203480631Y-55741331D01*
X203236038Y-55375271D01*
X202924729Y-55063962D01*
X202558669Y-54819369D01*
X202151925Y-54650890D01*
X201720128Y-54565000D01*
X201279872Y-54565000D01*
X200848075Y-54650890D01*
X200441331Y-54819369D01*
X200075271Y-55063962D01*
X199763962Y-55375271D01*
X199519369Y-55741331D01*
X199350890Y-56148075D01*
X199265000Y-56579872D01*
X144135000Y-56579872D01*
X144049110Y-56148075D01*
X143880631Y-55741331D01*
X143636038Y-55375271D01*
X143324729Y-55063962D01*
X142958669Y-54819369D01*
X142551925Y-54650890D01*
X142120128Y-54565000D01*
X141679872Y-54565000D01*
X141248075Y-54650890D01*
X140841331Y-54819369D01*
X140475271Y-55063962D01*
X140163962Y-55375271D01*
X139919369Y-55741331D01*
X139750890Y-56148075D01*
X139665000Y-56579872D01*
X120435000Y-56579872D01*
X120349110Y-56148075D01*
X120180631Y-55741331D01*
X119936038Y-55375271D01*
X119624729Y-55063962D01*
X119258669Y-54819369D01*
X118851925Y-54650890D01*
X118420128Y-54565000D01*
X117979872Y-54565000D01*
X117548075Y-54650890D01*
X117141331Y-54819369D01*
X116775271Y-55063962D01*
X116463962Y-55375271D01*
X116219369Y-55741331D01*
X116050890Y-56148075D01*
X115965000Y-56579872D01*
X115260000Y-56579872D01*
X115260000Y-55432279D01*
X115292434Y-55101495D01*
X115379125Y-54814359D01*
X115519938Y-54549528D01*
X115709507Y-54317094D01*
X115940615Y-54125905D01*
X116204451Y-53983250D01*
X116490977Y-53894555D01*
X116819748Y-53860000D01*
X202867721Y-53860000D01*
X203198505Y-53892434D01*
G37*
X203198505Y-53892434D02*
X203485641Y-53979125D01*
X203750472Y-54119938D01*
X203982906Y-54309507D01*
X204174095Y-54540615D01*
X204316750Y-54804451D01*
X204405445Y-55090977D01*
X204440000Y-55419748D01*
X204440001Y-137967711D01*
X204407566Y-138298505D01*
X204320875Y-138585641D01*
X204180060Y-138850475D01*
X203990494Y-139082906D01*
X203759384Y-139274096D01*
X203495550Y-139416750D01*
X203209023Y-139505445D01*
X202880252Y-139540000D01*
X173578010Y-139540000D01*
X173621008Y-139398254D01*
X173638072Y-139225000D01*
X173638072Y-137975000D01*
X173621008Y-137801746D01*
X173570472Y-137635150D01*
X173488405Y-137481614D01*
X173377962Y-137347038D01*
X173243386Y-137236595D01*
X173089850Y-137154528D01*
X172923254Y-137103992D01*
X172839069Y-137095701D01*
X172123240Y-136379872D01*
X188965000Y-136379872D01*
X188965000Y-136820128D01*
X189050890Y-137251925D01*
X189219369Y-137658669D01*
X189463962Y-138024729D01*
X189775271Y-138336038D01*
X190141331Y-138580631D01*
X190548075Y-138749110D01*
X190979872Y-138835000D01*
X191420128Y-138835000D01*
X191851925Y-138749110D01*
X192258669Y-138580631D01*
X192624729Y-138336038D01*
X192936038Y-138024729D01*
X193180631Y-137658669D01*
X193349110Y-137251925D01*
X193435000Y-136820128D01*
X193435000Y-136379872D01*
X193349110Y-135948075D01*
X193180631Y-135541331D01*
X192936038Y-135175271D01*
X192624729Y-134863962D01*
X192258669Y-134619369D01*
X191851925Y-134450890D01*
X191420128Y-134365000D01*
X190979872Y-134365000D01*
X190548075Y-134450890D01*
X190141331Y-134619369D01*
X189775271Y-134863962D01*
X189463962Y-135175271D01*
X189219369Y-135541331D01*
X189050890Y-135948075D01*
X188965000Y-136379872D01*
X172123240Y-136379872D01*
X171681945Y-135938578D01*
X171655791Y-135906709D01*
X171528646Y-135802364D01*
X171383587Y-135724828D01*
X171226189Y-135677082D01*
X171103519Y-135665000D01*
X171103518Y-135665000D01*
X171062500Y-135660960D01*
X171021482Y-135665000D01*
X166995869Y-135665000D01*
X165969446Y-134638578D01*
X165943291Y-134606709D01*
X165816146Y-134502364D01*
X165671087Y-134424828D01*
X165588072Y-134399646D01*
X165588072Y-134350000D01*
X165575812Y-134225518D01*
X165539502Y-134105820D01*
X165480537Y-133995506D01*
X165401185Y-133898815D01*
X165304494Y-133819463D01*
X165194180Y-133760498D01*
X165074482Y-133724188D01*
X164950000Y-133711928D01*
X164900354Y-133711928D01*
X164875172Y-133628913D01*
X164797636Y-133483854D01*
X164720350Y-133389681D01*
X164693291Y-133356709D01*
X164661426Y-133330559D01*
X163265867Y-131935000D01*
X197285532Y-131935000D01*
X197298815Y-131951185D01*
X197395506Y-132030537D01*
X197505820Y-132089502D01*
X197625518Y-132125812D01*
X197750000Y-132138072D01*
X199404233Y-132138072D01*
X199345506Y-132169463D01*
X199248815Y-132248815D01*
X199169463Y-132345506D01*
X199110498Y-132455820D01*
X199074188Y-132575518D01*
X199061928Y-132700000D01*
X199061928Y-135200000D01*
X199074188Y-135324482D01*
X199110498Y-135444180D01*
X199169463Y-135554494D01*
X199248815Y-135651185D01*
X199345506Y-135730537D01*
X199455820Y-135789502D01*
X199575518Y-135825812D01*
X199700000Y-135838072D01*
X202500000Y-135838072D01*
X202624482Y-135825812D01*
X202744180Y-135789502D01*
X202854494Y-135730537D01*
X202951185Y-135651185D01*
X203030537Y-135554494D01*
X203089502Y-135444180D01*
X203125812Y-135324482D01*
X203138072Y-135200000D01*
X203138072Y-132700000D01*
X203125812Y-132575518D01*
X203089502Y-132455820D01*
X203030537Y-132345506D01*
X202951185Y-132248815D01*
X202854494Y-132169463D01*
X202744180Y-132110498D01*
X202624482Y-132074188D01*
X202500000Y-132061928D01*
X199745767Y-132061928D01*
X199804494Y-132030537D01*
X199901185Y-131951185D01*
X199980537Y-131854494D01*
X200039502Y-131744180D01*
X200075812Y-131624482D01*
X200088072Y-131500000D01*
X200088072Y-130900000D01*
X200075812Y-130775518D01*
X200052904Y-130700000D01*
X200075812Y-130624482D01*
X200088072Y-130500000D01*
X200088072Y-129900000D01*
X200075812Y-129775518D01*
X200052904Y-129700000D01*
X200075812Y-129624482D01*
X200088072Y-129500000D01*
X200088072Y-128900000D01*
X200075812Y-128775518D01*
X200052904Y-128700000D01*
X200075812Y-128624482D01*
X200088072Y-128500000D01*
X200088072Y-127900000D01*
X200075812Y-127775518D01*
X200052904Y-127700000D01*
X200075812Y-127624482D01*
X200088072Y-127500000D01*
X200088072Y-126900000D01*
X200075812Y-126775518D01*
X200052904Y-126700000D01*
X200075812Y-126624482D01*
X200088072Y-126500000D01*
X200088072Y-125900000D01*
X200075812Y-125775518D01*
X200052904Y-125700000D01*
X200075812Y-125624482D01*
X200088072Y-125500000D01*
X200088072Y-124900000D01*
X200075812Y-124775518D01*
X200052904Y-124700000D01*
X200075812Y-124624482D01*
X200088072Y-124500000D01*
X200088072Y-123900000D01*
X200075812Y-123775518D01*
X200052904Y-123700000D01*
X200075812Y-123624482D01*
X200088072Y-123500000D01*
X200088072Y-122900000D01*
X200075812Y-122775518D01*
X200052904Y-122700000D01*
X200075812Y-122624482D01*
X200088072Y-122500000D01*
X200088072Y-121900000D01*
X200075812Y-121775518D01*
X200052904Y-121700000D01*
X200075812Y-121624482D01*
X200088072Y-121500000D01*
X200088072Y-120900000D01*
X200075812Y-120775518D01*
X200052904Y-120700000D01*
X200075812Y-120624482D01*
X200088072Y-120500000D01*
X200088072Y-119900000D01*
X200078168Y-119799439D01*
X200172238Y-119722238D01*
X200195258Y-119694188D01*
X200894197Y-118995250D01*
X200922237Y-118972238D01*
X200945250Y-118944197D01*
X200945253Y-118944194D01*
X201014086Y-118860321D01*
X201014087Y-118860320D01*
X201082337Y-118732633D01*
X201119440Y-118610320D01*
X201124365Y-118594086D01*
X201125765Y-118579868D01*
X201135000Y-118486105D01*
X201135000Y-118486098D01*
X201138555Y-118450001D01*
X201135000Y-118413904D01*
X201135000Y-102036094D01*
X201138555Y-101999999D01*
X201135000Y-101963904D01*
X201135000Y-101963895D01*
X201124365Y-101855915D01*
X201082337Y-101717367D01*
X201014087Y-101589680D01*
X200922238Y-101477762D01*
X200894193Y-101454746D01*
X200777519Y-101338072D01*
X202500000Y-101338072D01*
X202624482Y-101325812D01*
X202744180Y-101289502D01*
X202854494Y-101230537D01*
X202951185Y-101151185D01*
X203030537Y-101054494D01*
X203089502Y-100944180D01*
X203125812Y-100824482D01*
X203138072Y-100700000D01*
X203138072Y-98200000D01*
X203125812Y-98075518D01*
X203089502Y-97955820D01*
X203030537Y-97845506D01*
X202951185Y-97748815D01*
X202854494Y-97669463D01*
X202744180Y-97610498D01*
X202624482Y-97574188D01*
X202500000Y-97561928D01*
X199700000Y-97561928D01*
X199575518Y-97574188D01*
X199455820Y-97610498D01*
X199345506Y-97669463D01*
X199248815Y-97748815D01*
X199169463Y-97845506D01*
X199110498Y-97955820D01*
X199074188Y-98075518D01*
X199061928Y-98200000D01*
X199061928Y-100565000D01*
X180604447Y-100565000D01*
X178535000Y-98495554D01*
X178535000Y-88336105D01*
X178538556Y-88300000D01*
X178524365Y-88155915D01*
X178482337Y-88017366D01*
X178414087Y-87889680D01*
X178345253Y-87805806D01*
X178322238Y-87777762D01*
X178294193Y-87754746D01*
X161376337Y-70836890D01*
X190858524Y-70836890D01*
X190903175Y-70984099D01*
X191028359Y-71246920D01*
X191202412Y-71480269D01*
X191418645Y-71675178D01*
X191668748Y-71824157D01*
X191943109Y-71921481D01*
X192173000Y-71800814D01*
X192173000Y-70607000D01*
X192427000Y-70607000D01*
X192427000Y-71800814D01*
X192656891Y-71921481D01*
X192931252Y-71824157D01*
X193181355Y-71675178D01*
X193397588Y-71480269D01*
X193571641Y-71246920D01*
X193696825Y-70984099D01*
X193741476Y-70836890D01*
X193620155Y-70607000D01*
X192427000Y-70607000D01*
X192173000Y-70607000D01*
X190979845Y-70607000D01*
X190858524Y-70836890D01*
X161376337Y-70836890D01*
X161195259Y-70655813D01*
X161172238Y-70627762D01*
X161060320Y-70535913D01*
X160932633Y-70467663D01*
X160794085Y-70425635D01*
X160686105Y-70415000D01*
X160650000Y-70411444D01*
X160613895Y-70415000D01*
X138400672Y-70415000D01*
X138417205Y-70390256D01*
X138495226Y-70201898D01*
X138535000Y-70001939D01*
X138535000Y-69904446D01*
X139764447Y-68675000D01*
X191005117Y-68675000D01*
X191146525Y-68886632D01*
X191353368Y-69093475D01*
X191535534Y-69215195D01*
X191418645Y-69284822D01*
X191202412Y-69479731D01*
X191028359Y-69713080D01*
X190903175Y-69975901D01*
X190858524Y-70123110D01*
X190979845Y-70353000D01*
X192173000Y-70353000D01*
X192173000Y-70333000D01*
X192427000Y-70333000D01*
X192427000Y-70353000D01*
X193620155Y-70353000D01*
X193741476Y-70123110D01*
X193696825Y-69975901D01*
X193571641Y-69713080D01*
X193397588Y-69479731D01*
X193181355Y-69284822D01*
X193064466Y-69215195D01*
X193246632Y-69093475D01*
X193453475Y-68886632D01*
X193615990Y-68643411D01*
X193727932Y-68373158D01*
X193785000Y-68086260D01*
X193785000Y-67793740D01*
X193727932Y-67506842D01*
X193615990Y-67236589D01*
X193453475Y-66993368D01*
X193321620Y-66861513D01*
X193394180Y-66839502D01*
X193504494Y-66780537D01*
X193601185Y-66701185D01*
X193680537Y-66604494D01*
X193739502Y-66494180D01*
X193775812Y-66374482D01*
X193788072Y-66250000D01*
X193788072Y-64550000D01*
X193775812Y-64425518D01*
X193739502Y-64305820D01*
X193680537Y-64195506D01*
X193601185Y-64098815D01*
X193504494Y-64019463D01*
X193394180Y-63960498D01*
X193274482Y-63924188D01*
X193150000Y-63911928D01*
X191450000Y-63911928D01*
X191325518Y-63924188D01*
X191205820Y-63960498D01*
X191095506Y-64019463D01*
X190998815Y-64098815D01*
X190919463Y-64195506D01*
X190860498Y-64305820D01*
X190824188Y-64425518D01*
X190811928Y-64550000D01*
X190811928Y-64565000D01*
X189341007Y-64565000D01*
X189299999Y-64560961D01*
X189258991Y-64565000D01*
X189258981Y-64565000D01*
X189136311Y-64577082D01*
X188978913Y-64624828D01*
X188833854Y-64702364D01*
X188706709Y-64806709D01*
X188680559Y-64838574D01*
X187454133Y-66065000D01*
X162492759Y-66065000D01*
X162433688Y-66047081D01*
X162311018Y-66034999D01*
X162311017Y-66034999D01*
X162269999Y-66030959D01*
X162228981Y-66034999D01*
X142827413Y-66034999D01*
X142958669Y-65980631D01*
X143324729Y-65736038D01*
X143636038Y-65424729D01*
X143880631Y-65058669D01*
X144049110Y-64651925D01*
X144135000Y-64220128D01*
X144135000Y-63779872D01*
X144049110Y-63348075D01*
X143880631Y-62941331D01*
X143636038Y-62575271D01*
X143324729Y-62263962D01*
X142958669Y-62019369D01*
X142551925Y-61850890D01*
X142120128Y-61765000D01*
X141679872Y-61765000D01*
X141248075Y-61850890D01*
X140841331Y-62019369D01*
X140475271Y-62263962D01*
X140163962Y-62575271D01*
X139919369Y-62941331D01*
X139750890Y-63348075D01*
X139665000Y-63779872D01*
X139665000Y-64220128D01*
X139750890Y-64651925D01*
X139919369Y-65058669D01*
X140163962Y-65424729D01*
X140475271Y-65736038D01*
X140841331Y-65980631D01*
X140972587Y-66034999D01*
X136855000Y-66034999D01*
X136855000Y-65928665D01*
X136799853Y-65651426D01*
X136691680Y-65390273D01*
X136534637Y-65155241D01*
X136334759Y-64955363D01*
X136099727Y-64798320D01*
X135838574Y-64690147D01*
X135561335Y-64635000D01*
X135278665Y-64635000D01*
X135001426Y-64690147D01*
X134740273Y-64798320D01*
X134505241Y-64955363D01*
X134305363Y-65155241D01*
X134148320Y-65390273D01*
X134040147Y-65651426D01*
X133985000Y-65928665D01*
X133985000Y-66211335D01*
X134040147Y-66488574D01*
X134148320Y-66749727D01*
X134305363Y-66984759D01*
X134505241Y-67184637D01*
X134737759Y-67340000D01*
X134505241Y-67495363D01*
X134305363Y-67695241D01*
X134148320Y-67930273D01*
X134040147Y-68191426D01*
X133985000Y-68468665D01*
X133985000Y-68751335D01*
X134040147Y-69028574D01*
X134148320Y-69289727D01*
X134305363Y-69524759D01*
X134505241Y-69724637D01*
X134737759Y-69880000D01*
X134505241Y-70035363D01*
X134305363Y-70235241D01*
X134148320Y-70470273D01*
X134040147Y-70731426D01*
X133985000Y-71008665D01*
X133985000Y-71291335D01*
X134040147Y-71568574D01*
X134148320Y-71829727D01*
X134305363Y-72064759D01*
X134505241Y-72264637D01*
X134737759Y-72420000D01*
X134505241Y-72575363D01*
X134305363Y-72775241D01*
X134148320Y-73010273D01*
X134040147Y-73271426D01*
X133985000Y-73548665D01*
X133985000Y-73831335D01*
X134040147Y-74108574D01*
X134063519Y-74165000D01*
X125604447Y-74165000D01*
X124235000Y-72795554D01*
X124235000Y-69936094D01*
X124238555Y-69899999D01*
X124235000Y-69863904D01*
X124235000Y-69863895D01*
X124224365Y-69755915D01*
X124182337Y-69617367D01*
X124114087Y-69489680D01*
X124022238Y-69377762D01*
X123994193Y-69354746D01*
X122755258Y-68115812D01*
X122732238Y-68087762D01*
X122620320Y-67995913D01*
X122492633Y-67927663D01*
X122354085Y-67885635D01*
X122246105Y-67875000D01*
X122210000Y-67871444D01*
X122173895Y-67875000D01*
X121414748Y-67875000D01*
X121294637Y-67695241D01*
X121096039Y-67496643D01*
X121104482Y-67495812D01*
X121224180Y-67459502D01*
X121334494Y-67400537D01*
X121431185Y-67321185D01*
X121510537Y-67224494D01*
X121569502Y-67114180D01*
X121605812Y-66994482D01*
X121618072Y-66870000D01*
X121615000Y-66355750D01*
X121456250Y-66197000D01*
X120307000Y-66197000D01*
X120307000Y-66217000D01*
X120053000Y-66217000D01*
X120053000Y-66197000D01*
X118903750Y-66197000D01*
X118745000Y-66355750D01*
X118741928Y-66870000D01*
X118754188Y-66994482D01*
X118790498Y-67114180D01*
X118849463Y-67224494D01*
X118928815Y-67321185D01*
X119025506Y-67400537D01*
X119135820Y-67459502D01*
X119255518Y-67495812D01*
X119263961Y-67496643D01*
X119065363Y-67695241D01*
X118908320Y-67930273D01*
X118800147Y-68191426D01*
X118745000Y-68468665D01*
X118745000Y-68751335D01*
X118800147Y-69028574D01*
X118908320Y-69289727D01*
X119065363Y-69524759D01*
X119265241Y-69724637D01*
X119497759Y-69880000D01*
X119265241Y-70035363D01*
X119065363Y-70235241D01*
X118908320Y-70470273D01*
X118800147Y-70731426D01*
X118745000Y-71008665D01*
X118745000Y-71291335D01*
X118800147Y-71568574D01*
X118908320Y-71829727D01*
X119065363Y-72064759D01*
X119265241Y-72264637D01*
X119497759Y-72420000D01*
X119265241Y-72575363D01*
X119065363Y-72775241D01*
X118908320Y-73010273D01*
X118800147Y-73271426D01*
X118745000Y-73548665D01*
X118745000Y-73831335D01*
X118800147Y-74108574D01*
X118908320Y-74369727D01*
X119065363Y-74604759D01*
X119265241Y-74804637D01*
X119497759Y-74960000D01*
X119265241Y-75115363D01*
X119065363Y-75315241D01*
X118908320Y-75550273D01*
X118800147Y-75811426D01*
X118745000Y-76088665D01*
X118745000Y-76371335D01*
X118787178Y-76583375D01*
X115405808Y-79964746D01*
X115377763Y-79987762D01*
X115285914Y-80099680D01*
X115260000Y-80148162D01*
X115260000Y-65270000D01*
X118741928Y-65270000D01*
X118745000Y-65784250D01*
X118903750Y-65943000D01*
X120053000Y-65943000D01*
X120053000Y-64793750D01*
X120307000Y-64793750D01*
X120307000Y-65943000D01*
X121456250Y-65943000D01*
X121615000Y-65784250D01*
X121618072Y-65270000D01*
X121605812Y-65145518D01*
X121569502Y-65025820D01*
X121510537Y-64915506D01*
X121431185Y-64818815D01*
X121334494Y-64739463D01*
X121224180Y-64680498D01*
X121104482Y-64644188D01*
X120980000Y-64631928D01*
X120465750Y-64635000D01*
X120307000Y-64793750D01*
X120053000Y-64793750D01*
X119894250Y-64635000D01*
X119380000Y-64631928D01*
X119255518Y-64644188D01*
X119135820Y-64680498D01*
X119025506Y-64739463D01*
X118928815Y-64818815D01*
X118849463Y-64915506D01*
X118790498Y-65025820D01*
X118754188Y-65145518D01*
X118741928Y-65270000D01*
X115260000Y-65270000D01*
X115260000Y-56579872D01*
X115965000Y-56579872D01*
X115965000Y-57020128D01*
X116050890Y-57451925D01*
X116219369Y-57858669D01*
X116463962Y-58224729D01*
X116775271Y-58536038D01*
X117141331Y-58780631D01*
X117548075Y-58949110D01*
X117979872Y-59035000D01*
X118420128Y-59035000D01*
X118851925Y-58949110D01*
X119258669Y-58780631D01*
X119624729Y-58536038D01*
X119936038Y-58224729D01*
X120180631Y-57858669D01*
X120349110Y-57451925D01*
X120435000Y-57020128D01*
X120435000Y-56579872D01*
X139665000Y-56579872D01*
X139665000Y-57020128D01*
X139750890Y-57451925D01*
X139919369Y-57858669D01*
X140163962Y-58224729D01*
X140475271Y-58536038D01*
X140841331Y-58780631D01*
X141248075Y-58949110D01*
X141679872Y-59035000D01*
X142120128Y-59035000D01*
X142551925Y-58949110D01*
X142958669Y-58780631D01*
X143324729Y-58536038D01*
X143636038Y-58224729D01*
X143880631Y-57858669D01*
X144049110Y-57451925D01*
X144135000Y-57020128D01*
X144135000Y-56579872D01*
X199265000Y-56579872D01*
X199265000Y-57020128D01*
X199350890Y-57451925D01*
X199519369Y-57858669D01*
X199763962Y-58224729D01*
X200075271Y-58536038D01*
X200441331Y-58780631D01*
X200848075Y-58949110D01*
X201279872Y-59035000D01*
X201720128Y-59035000D01*
X202151925Y-58949110D01*
X202558669Y-58780631D01*
X202924729Y-58536038D01*
X203236038Y-58224729D01*
X203480631Y-57858669D01*
X203649110Y-57451925D01*
X203735000Y-57020128D01*
X203735000Y-56579872D01*
X203649110Y-56148075D01*
X203480631Y-55741331D01*
X203236038Y-55375271D01*
X202924729Y-55063962D01*
X202558669Y-54819369D01*
X202151925Y-54650890D01*
X201720128Y-54565000D01*
X201279872Y-54565000D01*
X200848075Y-54650890D01*
X200441331Y-54819369D01*
X200075271Y-55063962D01*
X199763962Y-55375271D01*
X199519369Y-55741331D01*
X199350890Y-56148075D01*
X199265000Y-56579872D01*
X144135000Y-56579872D01*
X144049110Y-56148075D01*
X143880631Y-55741331D01*
X143636038Y-55375271D01*
X143324729Y-55063962D01*
X142958669Y-54819369D01*
X142551925Y-54650890D01*
X142120128Y-54565000D01*
X141679872Y-54565000D01*
X141248075Y-54650890D01*
X140841331Y-54819369D01*
X140475271Y-55063962D01*
X140163962Y-55375271D01*
X139919369Y-55741331D01*
X139750890Y-56148075D01*
X139665000Y-56579872D01*
X120435000Y-56579872D01*
X120349110Y-56148075D01*
X120180631Y-55741331D01*
X119936038Y-55375271D01*
X119624729Y-55063962D01*
X119258669Y-54819369D01*
X118851925Y-54650890D01*
X118420128Y-54565000D01*
X117979872Y-54565000D01*
X117548075Y-54650890D01*
X117141331Y-54819369D01*
X116775271Y-55063962D01*
X116463962Y-55375271D01*
X116219369Y-55741331D01*
X116050890Y-56148075D01*
X115965000Y-56579872D01*
X115260000Y-56579872D01*
X115260000Y-55432279D01*
X115292434Y-55101495D01*
X115379125Y-54814359D01*
X115519938Y-54549528D01*
X115709507Y-54317094D01*
X115940615Y-54125905D01*
X116204451Y-53983250D01*
X116490977Y-53894555D01*
X116819748Y-53860000D01*
X202867721Y-53860000D01*
X203198505Y-53892434D01*
G36*
X162836786Y-133867653D02*
G01*
X162798815Y-133898815D01*
X162719463Y-133995506D01*
X162660498Y-134105820D01*
X162636034Y-134186466D01*
X162560269Y-134102412D01*
X162326920Y-133928359D01*
X162064099Y-133803175D01*
X161916890Y-133758524D01*
X161687000Y-133879845D01*
X161687000Y-135073000D01*
X161707000Y-135073000D01*
X161707000Y-135327000D01*
X161687000Y-135327000D01*
X161687000Y-136520155D01*
X161916890Y-136641476D01*
X162064099Y-136596825D01*
X162326920Y-136471641D01*
X162560269Y-136297588D01*
X162636034Y-136213534D01*
X162660498Y-136294180D01*
X162719463Y-136404494D01*
X162798815Y-136501185D01*
X162895506Y-136580537D01*
X163005820Y-136639502D01*
X163125518Y-136675812D01*
X163250000Y-136688072D01*
X164950000Y-136688072D01*
X165074482Y-136675812D01*
X165194180Y-136639502D01*
X165304494Y-136580537D01*
X165401185Y-136501185D01*
X165432346Y-136463215D01*
X166030563Y-137061432D01*
X166056709Y-137093291D01*
X166088568Y-137119437D01*
X166088570Y-137119439D01*
X166142344Y-137163570D01*
X166183854Y-137197636D01*
X166328913Y-137275172D01*
X166486311Y-137322918D01*
X166608981Y-137335000D01*
X166608982Y-137335000D01*
X166650000Y-137339040D01*
X166691018Y-137335000D01*
X168236706Y-137335000D01*
X168222038Y-137347038D01*
X168111595Y-137481614D01*
X168029528Y-137635150D01*
X167978992Y-137801746D01*
X167972762Y-137865000D01*
X160184447Y-137865000D01*
X159004447Y-136685000D01*
X159166260Y-136685000D01*
X159453158Y-136627932D01*
X159723411Y-136515990D01*
X159966632Y-136353475D01*
X160173475Y-136146632D01*
X160295195Y-135964466D01*
X160364822Y-136081355D01*
X160559731Y-136297588D01*
X160793080Y-136471641D01*
X161055901Y-136596825D01*
X161203110Y-136641476D01*
X161433000Y-136520155D01*
X161433000Y-135327000D01*
X161413000Y-135327000D01*
X161413000Y-135073000D01*
X161433000Y-135073000D01*
X161433000Y-133879845D01*
X161203110Y-133758524D01*
X161055901Y-133803175D01*
X160793080Y-133928359D01*
X160559731Y-134102412D01*
X160364822Y-134318645D01*
X160295195Y-134435534D01*
X160173475Y-134253368D01*
X159966632Y-134046525D01*
X159723411Y-133884010D01*
X159453158Y-133772068D01*
X159166260Y-133715000D01*
X158873740Y-133715000D01*
X158624103Y-133764656D01*
X158165258Y-133305812D01*
X158142238Y-133277762D01*
X158090133Y-133235000D01*
X162204133Y-133235000D01*
X162836786Y-133867653D01*
G37*
X162836786Y-133867653D02*
X162798815Y-133898815D01*
X162719463Y-133995506D01*
X162660498Y-134105820D01*
X162636034Y-134186466D01*
X162560269Y-134102412D01*
X162326920Y-133928359D01*
X162064099Y-133803175D01*
X161916890Y-133758524D01*
X161687000Y-133879845D01*
X161687000Y-135073000D01*
X161707000Y-135073000D01*
X161707000Y-135327000D01*
X161687000Y-135327000D01*
X161687000Y-136520155D01*
X161916890Y-136641476D01*
X162064099Y-136596825D01*
X162326920Y-136471641D01*
X162560269Y-136297588D01*
X162636034Y-136213534D01*
X162660498Y-136294180D01*
X162719463Y-136404494D01*
X162798815Y-136501185D01*
X162895506Y-136580537D01*
X163005820Y-136639502D01*
X163125518Y-136675812D01*
X163250000Y-136688072D01*
X164950000Y-136688072D01*
X165074482Y-136675812D01*
X165194180Y-136639502D01*
X165304494Y-136580537D01*
X165401185Y-136501185D01*
X165432346Y-136463215D01*
X166030563Y-137061432D01*
X166056709Y-137093291D01*
X166088568Y-137119437D01*
X166088570Y-137119439D01*
X166142344Y-137163570D01*
X166183854Y-137197636D01*
X166328913Y-137275172D01*
X166486311Y-137322918D01*
X166608981Y-137335000D01*
X166608982Y-137335000D01*
X166650000Y-137339040D01*
X166691018Y-137335000D01*
X168236706Y-137335000D01*
X168222038Y-137347038D01*
X168111595Y-137481614D01*
X168029528Y-137635150D01*
X167978992Y-137801746D01*
X167972762Y-137865000D01*
X160184447Y-137865000D01*
X159004447Y-136685000D01*
X159166260Y-136685000D01*
X159453158Y-136627932D01*
X159723411Y-136515990D01*
X159966632Y-136353475D01*
X160173475Y-136146632D01*
X160295195Y-135964466D01*
X160364822Y-136081355D01*
X160559731Y-136297588D01*
X160793080Y-136471641D01*
X161055901Y-136596825D01*
X161203110Y-136641476D01*
X161433000Y-136520155D01*
X161433000Y-135327000D01*
X161413000Y-135327000D01*
X161413000Y-135073000D01*
X161433000Y-135073000D01*
X161433000Y-133879845D01*
X161203110Y-133758524D01*
X161055901Y-133803175D01*
X160793080Y-133928359D01*
X160559731Y-134102412D01*
X160364822Y-134318645D01*
X160295195Y-134435534D01*
X160173475Y-134253368D01*
X159966632Y-134046525D01*
X159723411Y-133884010D01*
X159453158Y-133772068D01*
X159166260Y-133715000D01*
X158873740Y-133715000D01*
X158624103Y-133764656D01*
X158165258Y-133305812D01*
X158142238Y-133277762D01*
X158090133Y-133235000D01*
X162204133Y-133235000D01*
X162836786Y-133867653D01*
G36*
X123880147Y-113911426D02*
G01*
X123825000Y-114188665D01*
X123825000Y-114471335D01*
X123880147Y-114748574D01*
X123988320Y-115009727D01*
X124145363Y-115244759D01*
X124345241Y-115444637D01*
X124580273Y-115601680D01*
X124841426Y-115709853D01*
X125118665Y-115765000D01*
X125401335Y-115765000D01*
X125495418Y-115746285D01*
X126710559Y-116961427D01*
X126736709Y-116993291D01*
X126813017Y-117055915D01*
X126863854Y-117097636D01*
X127008913Y-117175172D01*
X127166311Y-117222918D01*
X127329999Y-117239040D01*
X127371018Y-117235000D01*
X136854133Y-117235000D01*
X146065001Y-126445870D01*
X146065000Y-128090139D01*
X145935150Y-128129528D01*
X145781614Y-128211595D01*
X145647038Y-128322038D01*
X145536595Y-128456614D01*
X145454528Y-128610150D01*
X145403992Y-128776746D01*
X145386928Y-128950000D01*
X145386928Y-129875000D01*
X145403992Y-130048254D01*
X145454528Y-130214850D01*
X145536595Y-130368386D01*
X145647038Y-130502962D01*
X145781614Y-130613405D01*
X145935150Y-130695472D01*
X146101746Y-130746008D01*
X146275000Y-130763072D01*
X146357205Y-130763072D01*
X146631061Y-131036928D01*
X146275000Y-131036928D01*
X146101746Y-131053992D01*
X145935150Y-131104528D01*
X145781614Y-131186595D01*
X145647038Y-131297038D01*
X145536595Y-131431614D01*
X145454528Y-131585150D01*
X145403992Y-131751746D01*
X145386928Y-131925000D01*
X145386928Y-132850000D01*
X145403992Y-133023254D01*
X145416655Y-133065000D01*
X135704447Y-133065000D01*
X126114447Y-123475000D01*
X127961928Y-123475000D01*
X127974188Y-123599482D01*
X128010498Y-123719180D01*
X128069463Y-123829494D01*
X128148815Y-123926185D01*
X128245506Y-124005537D01*
X128355820Y-124064502D01*
X128475518Y-124100812D01*
X128600000Y-124113072D01*
X129026750Y-124110000D01*
X129185500Y-123951250D01*
X129185500Y-122727000D01*
X129439500Y-122727000D01*
X129439500Y-123951250D01*
X129598250Y-124110000D01*
X130025000Y-124113072D01*
X130149482Y-124100812D01*
X130269180Y-124064502D01*
X130379494Y-124005537D01*
X130476185Y-123926185D01*
X130555537Y-123829494D01*
X130614502Y-123719180D01*
X130650812Y-123599482D01*
X130663072Y-123475000D01*
X130660000Y-122885750D01*
X130501250Y-122727000D01*
X129439500Y-122727000D01*
X129185500Y-122727000D01*
X128123750Y-122727000D01*
X127965000Y-122885750D01*
X127961928Y-123475000D01*
X126114447Y-123475000D01*
X124364447Y-121725000D01*
X127961928Y-121725000D01*
X127965000Y-122314250D01*
X128123750Y-122473000D01*
X129185500Y-122473000D01*
X129185500Y-121248750D01*
X129439500Y-121248750D01*
X129439500Y-122473000D01*
X130501250Y-122473000D01*
X130660000Y-122314250D01*
X130661768Y-121975000D01*
X130936928Y-121975000D01*
X130936928Y-123225000D01*
X130953992Y-123398254D01*
X131004528Y-123564850D01*
X131086595Y-123718386D01*
X131197038Y-123852962D01*
X131331614Y-123963405D01*
X131485150Y-124045472D01*
X131651746Y-124096008D01*
X131825000Y-124113072D01*
X132750000Y-124113072D01*
X132923254Y-124096008D01*
X133089850Y-124045472D01*
X133243386Y-123963405D01*
X133377962Y-123852962D01*
X133488405Y-123718386D01*
X133570472Y-123564850D01*
X133621008Y-123398254D01*
X133629700Y-123310000D01*
X133834098Y-123310000D01*
X133854528Y-123377350D01*
X133936595Y-123530886D01*
X134047038Y-123665462D01*
X134181614Y-123775905D01*
X134335150Y-123857972D01*
X134501746Y-123908508D01*
X134675000Y-123925572D01*
X135925000Y-123925572D01*
X136098254Y-123908508D01*
X136264850Y-123857972D01*
X136418386Y-123775905D01*
X136552962Y-123665462D01*
X136663405Y-123530886D01*
X136745472Y-123377350D01*
X136796008Y-123210754D01*
X136813072Y-123037500D01*
X136813072Y-122112500D01*
X136796008Y-121939246D01*
X136745472Y-121772650D01*
X136663405Y-121619114D01*
X136552962Y-121484538D01*
X136418386Y-121374095D01*
X136264850Y-121292028D01*
X136098254Y-121241492D01*
X135925000Y-121224428D01*
X134675000Y-121224428D01*
X134501746Y-121241492D01*
X134335150Y-121292028D01*
X134181614Y-121374095D01*
X134047038Y-121484538D01*
X133936595Y-121619114D01*
X133854528Y-121772650D01*
X133834098Y-121840000D01*
X133624776Y-121840000D01*
X133621008Y-121801746D01*
X133570472Y-121635150D01*
X133488405Y-121481614D01*
X133377962Y-121347038D01*
X133243386Y-121236595D01*
X133089850Y-121154528D01*
X132923254Y-121103992D01*
X132750000Y-121086928D01*
X131825000Y-121086928D01*
X131651746Y-121103992D01*
X131485150Y-121154528D01*
X131331614Y-121236595D01*
X131197038Y-121347038D01*
X131086595Y-121481614D01*
X131004528Y-121635150D01*
X130953992Y-121801746D01*
X130936928Y-121975000D01*
X130661768Y-121975000D01*
X130663072Y-121725000D01*
X130650812Y-121600518D01*
X130614502Y-121480820D01*
X130555537Y-121370506D01*
X130476185Y-121273815D01*
X130379494Y-121194463D01*
X130269180Y-121135498D01*
X130149482Y-121099188D01*
X130025000Y-121086928D01*
X129598250Y-121090000D01*
X129439500Y-121248750D01*
X129185500Y-121248750D01*
X129026750Y-121090000D01*
X128600000Y-121086928D01*
X128475518Y-121099188D01*
X128355820Y-121135498D01*
X128245506Y-121194463D01*
X128148815Y-121273815D01*
X128069463Y-121370506D01*
X128010498Y-121480820D01*
X127974188Y-121600518D01*
X127961928Y-121725000D01*
X124364447Y-121725000D01*
X121776947Y-119137500D01*
X133786928Y-119137500D01*
X133786928Y-120062500D01*
X133803992Y-120235754D01*
X133854528Y-120402350D01*
X133936595Y-120555886D01*
X134047038Y-120690462D01*
X134181614Y-120800905D01*
X134335150Y-120882972D01*
X134501746Y-120933508D01*
X134675000Y-120950572D01*
X135925000Y-120950572D01*
X136098254Y-120933508D01*
X136264850Y-120882972D01*
X136418386Y-120800905D01*
X136552962Y-120690462D01*
X136663405Y-120555886D01*
X136745472Y-120402350D01*
X136796008Y-120235754D01*
X136813072Y-120062500D01*
X136813072Y-119137500D01*
X136796008Y-118964246D01*
X136745472Y-118797650D01*
X136663405Y-118644114D01*
X136552962Y-118509538D01*
X136418386Y-118399095D01*
X136264850Y-118317028D01*
X136098254Y-118266492D01*
X135925000Y-118249428D01*
X134675000Y-118249428D01*
X134501746Y-118266492D01*
X134335150Y-118317028D01*
X134181614Y-118399095D01*
X134047038Y-118509538D01*
X133936595Y-118644114D01*
X133854528Y-118797650D01*
X133803992Y-118964246D01*
X133786928Y-119137500D01*
X121776947Y-119137500D01*
X117935000Y-115295554D01*
X117935000Y-114574447D01*
X118184746Y-114824193D01*
X118207762Y-114852238D01*
X118319680Y-114944087D01*
X118447367Y-115012337D01*
X118585915Y-115054365D01*
X118730000Y-115068556D01*
X118766105Y-115065000D01*
X118945252Y-115065000D01*
X119065363Y-115244759D01*
X119265241Y-115444637D01*
X119500273Y-115601680D01*
X119761426Y-115709853D01*
X120038665Y-115765000D01*
X120321335Y-115765000D01*
X120598574Y-115709853D01*
X120859727Y-115601680D01*
X121094759Y-115444637D01*
X121294637Y-115244759D01*
X121451680Y-115009727D01*
X121559853Y-114748574D01*
X121615000Y-114471335D01*
X121615000Y-114188665D01*
X121559853Y-113911426D01*
X121486775Y-113735000D01*
X123953225Y-113735000D01*
X123880147Y-113911426D01*
G37*
X123880147Y-113911426D02*
X123825000Y-114188665D01*
X123825000Y-114471335D01*
X123880147Y-114748574D01*
X123988320Y-115009727D01*
X124145363Y-115244759D01*
X124345241Y-115444637D01*
X124580273Y-115601680D01*
X124841426Y-115709853D01*
X125118665Y-115765000D01*
X125401335Y-115765000D01*
X125495418Y-115746285D01*
X126710559Y-116961427D01*
X126736709Y-116993291D01*
X126813017Y-117055915D01*
X126863854Y-117097636D01*
X127008913Y-117175172D01*
X127166311Y-117222918D01*
X127329999Y-117239040D01*
X127371018Y-117235000D01*
X136854133Y-117235000D01*
X146065001Y-126445870D01*
X146065000Y-128090139D01*
X145935150Y-128129528D01*
X145781614Y-128211595D01*
X145647038Y-128322038D01*
X145536595Y-128456614D01*
X145454528Y-128610150D01*
X145403992Y-128776746D01*
X145386928Y-128950000D01*
X145386928Y-129875000D01*
X145403992Y-130048254D01*
X145454528Y-130214850D01*
X145536595Y-130368386D01*
X145647038Y-130502962D01*
X145781614Y-130613405D01*
X145935150Y-130695472D01*
X146101746Y-130746008D01*
X146275000Y-130763072D01*
X146357205Y-130763072D01*
X146631061Y-131036928D01*
X146275000Y-131036928D01*
X146101746Y-131053992D01*
X145935150Y-131104528D01*
X145781614Y-131186595D01*
X145647038Y-131297038D01*
X145536595Y-131431614D01*
X145454528Y-131585150D01*
X145403992Y-131751746D01*
X145386928Y-131925000D01*
X145386928Y-132850000D01*
X145403992Y-133023254D01*
X145416655Y-133065000D01*
X135704447Y-133065000D01*
X126114447Y-123475000D01*
X127961928Y-123475000D01*
X127974188Y-123599482D01*
X128010498Y-123719180D01*
X128069463Y-123829494D01*
X128148815Y-123926185D01*
X128245506Y-124005537D01*
X128355820Y-124064502D01*
X128475518Y-124100812D01*
X128600000Y-124113072D01*
X129026750Y-124110000D01*
X129185500Y-123951250D01*
X129185500Y-122727000D01*
X129439500Y-122727000D01*
X129439500Y-123951250D01*
X129598250Y-124110000D01*
X130025000Y-124113072D01*
X130149482Y-124100812D01*
X130269180Y-124064502D01*
X130379494Y-124005537D01*
X130476185Y-123926185D01*
X130555537Y-123829494D01*
X130614502Y-123719180D01*
X130650812Y-123599482D01*
X130663072Y-123475000D01*
X130660000Y-122885750D01*
X130501250Y-122727000D01*
X129439500Y-122727000D01*
X129185500Y-122727000D01*
X128123750Y-122727000D01*
X127965000Y-122885750D01*
X127961928Y-123475000D01*
X126114447Y-123475000D01*
X124364447Y-121725000D01*
X127961928Y-121725000D01*
X127965000Y-122314250D01*
X128123750Y-122473000D01*
X129185500Y-122473000D01*
X129185500Y-121248750D01*
X129439500Y-121248750D01*
X129439500Y-122473000D01*
X130501250Y-122473000D01*
X130660000Y-122314250D01*
X130661768Y-121975000D01*
X130936928Y-121975000D01*
X130936928Y-123225000D01*
X130953992Y-123398254D01*
X131004528Y-123564850D01*
X131086595Y-123718386D01*
X131197038Y-123852962D01*
X131331614Y-123963405D01*
X131485150Y-124045472D01*
X131651746Y-124096008D01*
X131825000Y-124113072D01*
X132750000Y-124113072D01*
X132923254Y-124096008D01*
X133089850Y-124045472D01*
X133243386Y-123963405D01*
X133377962Y-123852962D01*
X133488405Y-123718386D01*
X133570472Y-123564850D01*
X133621008Y-123398254D01*
X133629700Y-123310000D01*
X133834098Y-123310000D01*
X133854528Y-123377350D01*
X133936595Y-123530886D01*
X134047038Y-123665462D01*
X134181614Y-123775905D01*
X134335150Y-123857972D01*
X134501746Y-123908508D01*
X134675000Y-123925572D01*
X135925000Y-123925572D01*
X136098254Y-123908508D01*
X136264850Y-123857972D01*
X136418386Y-123775905D01*
X136552962Y-123665462D01*
X136663405Y-123530886D01*
X136745472Y-123377350D01*
X136796008Y-123210754D01*
X136813072Y-123037500D01*
X136813072Y-122112500D01*
X136796008Y-121939246D01*
X136745472Y-121772650D01*
X136663405Y-121619114D01*
X136552962Y-121484538D01*
X136418386Y-121374095D01*
X136264850Y-121292028D01*
X136098254Y-121241492D01*
X135925000Y-121224428D01*
X134675000Y-121224428D01*
X134501746Y-121241492D01*
X134335150Y-121292028D01*
X134181614Y-121374095D01*
X134047038Y-121484538D01*
X133936595Y-121619114D01*
X133854528Y-121772650D01*
X133834098Y-121840000D01*
X133624776Y-121840000D01*
X133621008Y-121801746D01*
X133570472Y-121635150D01*
X133488405Y-121481614D01*
X133377962Y-121347038D01*
X133243386Y-121236595D01*
X133089850Y-121154528D01*
X132923254Y-121103992D01*
X132750000Y-121086928D01*
X131825000Y-121086928D01*
X131651746Y-121103992D01*
X131485150Y-121154528D01*
X131331614Y-121236595D01*
X131197038Y-121347038D01*
X131086595Y-121481614D01*
X131004528Y-121635150D01*
X130953992Y-121801746D01*
X130936928Y-121975000D01*
X130661768Y-121975000D01*
X130663072Y-121725000D01*
X130650812Y-121600518D01*
X130614502Y-121480820D01*
X130555537Y-121370506D01*
X130476185Y-121273815D01*
X130379494Y-121194463D01*
X130269180Y-121135498D01*
X130149482Y-121099188D01*
X130025000Y-121086928D01*
X129598250Y-121090000D01*
X129439500Y-121248750D01*
X129185500Y-121248750D01*
X129026750Y-121090000D01*
X128600000Y-121086928D01*
X128475518Y-121099188D01*
X128355820Y-121135498D01*
X128245506Y-121194463D01*
X128148815Y-121273815D01*
X128069463Y-121370506D01*
X128010498Y-121480820D01*
X127974188Y-121600518D01*
X127961928Y-121725000D01*
X124364447Y-121725000D01*
X121776947Y-119137500D01*
X133786928Y-119137500D01*
X133786928Y-120062500D01*
X133803992Y-120235754D01*
X133854528Y-120402350D01*
X133936595Y-120555886D01*
X134047038Y-120690462D01*
X134181614Y-120800905D01*
X134335150Y-120882972D01*
X134501746Y-120933508D01*
X134675000Y-120950572D01*
X135925000Y-120950572D01*
X136098254Y-120933508D01*
X136264850Y-120882972D01*
X136418386Y-120800905D01*
X136552962Y-120690462D01*
X136663405Y-120555886D01*
X136745472Y-120402350D01*
X136796008Y-120235754D01*
X136813072Y-120062500D01*
X136813072Y-119137500D01*
X136796008Y-118964246D01*
X136745472Y-118797650D01*
X136663405Y-118644114D01*
X136552962Y-118509538D01*
X136418386Y-118399095D01*
X136264850Y-118317028D01*
X136098254Y-118266492D01*
X135925000Y-118249428D01*
X134675000Y-118249428D01*
X134501746Y-118266492D01*
X134335150Y-118317028D01*
X134181614Y-118399095D01*
X134047038Y-118509538D01*
X133936595Y-118644114D01*
X133854528Y-118797650D01*
X133803992Y-118964246D01*
X133786928Y-119137500D01*
X121776947Y-119137500D01*
X117935000Y-115295554D01*
X117935000Y-114574447D01*
X118184746Y-114824193D01*
X118207762Y-114852238D01*
X118319680Y-114944087D01*
X118447367Y-115012337D01*
X118585915Y-115054365D01*
X118730000Y-115068556D01*
X118766105Y-115065000D01*
X118945252Y-115065000D01*
X119065363Y-115244759D01*
X119265241Y-115444637D01*
X119500273Y-115601680D01*
X119761426Y-115709853D01*
X120038665Y-115765000D01*
X120321335Y-115765000D01*
X120598574Y-115709853D01*
X120859727Y-115601680D01*
X121094759Y-115444637D01*
X121294637Y-115244759D01*
X121451680Y-115009727D01*
X121559853Y-114748574D01*
X121615000Y-114471335D01*
X121615000Y-114188665D01*
X121559853Y-113911426D01*
X121486775Y-113735000D01*
X123953225Y-113735000D01*
X123880147Y-113911426D01*
G36*
X127993748Y-114315858D02*
G01*
X127979605Y-114330000D01*
X128792702Y-115143097D01*
X129036671Y-115071514D01*
X129067194Y-115007008D01*
X129068320Y-115009727D01*
X129225363Y-115244759D01*
X129425241Y-115444637D01*
X129605377Y-115565000D01*
X128542004Y-115565000D01*
X128613097Y-115322702D01*
X127800000Y-114509605D01*
X127785858Y-114523748D01*
X127606253Y-114344143D01*
X127620395Y-114330000D01*
X127606253Y-114315858D01*
X127785858Y-114136253D01*
X127800000Y-114150395D01*
X127814143Y-114136253D01*
X127993748Y-114315858D01*
G37*
X127993748Y-114315858D02*
X127979605Y-114330000D01*
X128792702Y-115143097D01*
X129036671Y-115071514D01*
X129067194Y-115007008D01*
X129068320Y-115009727D01*
X129225363Y-115244759D01*
X129425241Y-115444637D01*
X129605377Y-115565000D01*
X128542004Y-115565000D01*
X128613097Y-115322702D01*
X127800000Y-114509605D01*
X127785858Y-114523748D01*
X127606253Y-114344143D01*
X127620395Y-114330000D01*
X127606253Y-114315858D01*
X127785858Y-114136253D01*
X127800000Y-114150395D01*
X127814143Y-114136253D01*
X127993748Y-114315858D01*
G36*
X121965001Y-73974448D02*
G01*
X121965000Y-76463895D01*
X121961444Y-76500000D01*
X121965000Y-76536104D01*
X121975635Y-76644084D01*
X122017663Y-76782632D01*
X122085913Y-76910319D01*
X122177762Y-77022237D01*
X122205808Y-77045254D01*
X125754746Y-80594193D01*
X125777762Y-80622238D01*
X125889680Y-80714087D01*
X126017367Y-80782337D01*
X126155915Y-80824365D01*
X126300000Y-80838556D01*
X126336105Y-80835000D01*
X134063519Y-80835000D01*
X134040147Y-80891426D01*
X133985000Y-81168665D01*
X133985000Y-81451335D01*
X134040147Y-81728574D01*
X134148320Y-81989727D01*
X134305363Y-82224759D01*
X134505241Y-82424637D01*
X134737759Y-82580000D01*
X134505241Y-82735363D01*
X134305363Y-82935241D01*
X134148320Y-83170273D01*
X134040147Y-83431426D01*
X133985000Y-83708665D01*
X133985000Y-83991335D01*
X134040147Y-84268574D01*
X134148320Y-84529727D01*
X134305363Y-84764759D01*
X134505241Y-84964637D01*
X134737759Y-85120000D01*
X134505241Y-85275363D01*
X134305363Y-85475241D01*
X134148320Y-85710273D01*
X134040147Y-85971426D01*
X133985000Y-86248665D01*
X133985000Y-86531335D01*
X134040147Y-86808574D01*
X134148320Y-87069727D01*
X134305363Y-87304759D01*
X134505241Y-87504637D01*
X134737759Y-87660000D01*
X134505241Y-87815363D01*
X134305363Y-88015241D01*
X134148320Y-88250273D01*
X134040147Y-88511426D01*
X133985000Y-88788665D01*
X133985000Y-89071335D01*
X134040147Y-89348574D01*
X134148320Y-89609727D01*
X134305363Y-89844759D01*
X134505241Y-90044637D01*
X134739128Y-90200915D01*
X134678486Y-90233329D01*
X134606903Y-90477298D01*
X135420000Y-91290395D01*
X136233097Y-90477298D01*
X136161514Y-90233329D01*
X136097008Y-90202806D01*
X136099727Y-90201680D01*
X136334759Y-90044637D01*
X136534637Y-89844759D01*
X136654748Y-89665000D01*
X144225554Y-89665000D01*
X158365001Y-103804448D01*
X158365001Y-105729868D01*
X158322238Y-105677762D01*
X158294193Y-105654746D01*
X147345259Y-94705813D01*
X147322238Y-94677762D01*
X147210320Y-94585913D01*
X147082633Y-94517663D01*
X146944085Y-94475635D01*
X146836105Y-94465000D01*
X146800000Y-94461444D01*
X146763895Y-94465000D01*
X136784765Y-94465000D01*
X136799853Y-94428574D01*
X136855000Y-94151335D01*
X136855000Y-93868665D01*
X136799853Y-93591426D01*
X136691680Y-93330273D01*
X136534637Y-93095241D01*
X136334759Y-92895363D01*
X136100872Y-92739085D01*
X136161514Y-92706671D01*
X136233097Y-92462702D01*
X135420000Y-91649605D01*
X134606903Y-92462702D01*
X134678486Y-92706671D01*
X134742992Y-92737194D01*
X134740273Y-92738320D01*
X134505241Y-92895363D01*
X134305363Y-93095241D01*
X134148320Y-93330273D01*
X134040147Y-93591426D01*
X133985000Y-93868665D01*
X133985000Y-94151335D01*
X134040147Y-94428574D01*
X134055235Y-94465000D01*
X121566094Y-94465000D01*
X121545601Y-94462982D01*
X121559853Y-94428574D01*
X121615000Y-94151335D01*
X121615000Y-93868665D01*
X121559853Y-93591426D01*
X121451680Y-93330273D01*
X121294637Y-93095241D01*
X121094759Y-92895363D01*
X120862241Y-92740000D01*
X121094759Y-92584637D01*
X121294637Y-92384759D01*
X121451680Y-92149727D01*
X121559853Y-91888574D01*
X121615000Y-91611335D01*
X121615000Y-91540512D01*
X133979783Y-91540512D01*
X134021213Y-91820130D01*
X134116397Y-92086292D01*
X134183329Y-92211514D01*
X134427298Y-92283097D01*
X135240395Y-91470000D01*
X135599605Y-91470000D01*
X136412702Y-92283097D01*
X136656671Y-92211514D01*
X136777571Y-91956004D01*
X136846300Y-91681816D01*
X136860217Y-91399488D01*
X136818787Y-91119870D01*
X136723603Y-90853708D01*
X136656671Y-90728486D01*
X136412702Y-90656903D01*
X135599605Y-91470000D01*
X135240395Y-91470000D01*
X134427298Y-90656903D01*
X134183329Y-90728486D01*
X134062429Y-90983996D01*
X133993700Y-91258184D01*
X133979783Y-91540512D01*
X121615000Y-91540512D01*
X121615000Y-91328665D01*
X121559853Y-91051426D01*
X121451680Y-90790273D01*
X121294637Y-90555241D01*
X121094759Y-90355363D01*
X120862241Y-90200000D01*
X121094759Y-90044637D01*
X121294637Y-89844759D01*
X121451680Y-89609727D01*
X121559853Y-89348574D01*
X121615000Y-89071335D01*
X121615000Y-88788665D01*
X121559853Y-88511426D01*
X121451680Y-88250273D01*
X121294637Y-88015241D01*
X121094759Y-87815363D01*
X120862241Y-87660000D01*
X121094759Y-87504637D01*
X121294637Y-87304759D01*
X121451680Y-87069727D01*
X121559853Y-86808574D01*
X121615000Y-86531335D01*
X121615000Y-86248665D01*
X121559853Y-85971426D01*
X121451680Y-85710273D01*
X121294637Y-85475241D01*
X121094759Y-85275363D01*
X120862241Y-85120000D01*
X121094759Y-84964637D01*
X121294637Y-84764759D01*
X121451680Y-84529727D01*
X121559853Y-84268574D01*
X121615000Y-83991335D01*
X121615000Y-83708665D01*
X121559853Y-83431426D01*
X121451680Y-83170273D01*
X121294637Y-82935241D01*
X121094759Y-82735363D01*
X120862241Y-82580000D01*
X121094759Y-82424637D01*
X121294637Y-82224759D01*
X121451680Y-81989727D01*
X121559853Y-81728574D01*
X121615000Y-81451335D01*
X121615000Y-81168665D01*
X121559853Y-80891426D01*
X121451680Y-80630273D01*
X121294637Y-80395241D01*
X121094759Y-80195363D01*
X120862241Y-80040000D01*
X121094759Y-79884637D01*
X121294637Y-79684759D01*
X121451680Y-79449727D01*
X121559853Y-79188574D01*
X121615000Y-78911335D01*
X121615000Y-78628665D01*
X121559853Y-78351426D01*
X121451680Y-78090273D01*
X121294637Y-77855241D01*
X121094759Y-77655363D01*
X120862241Y-77500000D01*
X121094759Y-77344637D01*
X121294637Y-77144759D01*
X121451680Y-76909727D01*
X121559853Y-76648574D01*
X121615000Y-76371335D01*
X121615000Y-76088665D01*
X121559853Y-75811426D01*
X121451680Y-75550273D01*
X121294637Y-75315241D01*
X121094759Y-75115363D01*
X120862241Y-74960000D01*
X121094759Y-74804637D01*
X121294637Y-74604759D01*
X121451680Y-74369727D01*
X121559853Y-74108574D01*
X121615000Y-73831335D01*
X121615000Y-73624447D01*
X121965001Y-73974448D01*
G37*
X121965001Y-73974448D02*
X121965000Y-76463895D01*
X121961444Y-76500000D01*
X121965000Y-76536104D01*
X121975635Y-76644084D01*
X122017663Y-76782632D01*
X122085913Y-76910319D01*
X122177762Y-77022237D01*
X122205808Y-77045254D01*
X125754746Y-80594193D01*
X125777762Y-80622238D01*
X125889680Y-80714087D01*
X126017367Y-80782337D01*
X126155915Y-80824365D01*
X126300000Y-80838556D01*
X126336105Y-80835000D01*
X134063519Y-80835000D01*
X134040147Y-80891426D01*
X133985000Y-81168665D01*
X133985000Y-81451335D01*
X134040147Y-81728574D01*
X134148320Y-81989727D01*
X134305363Y-82224759D01*
X134505241Y-82424637D01*
X134737759Y-82580000D01*
X134505241Y-82735363D01*
X134305363Y-82935241D01*
X134148320Y-83170273D01*
X134040147Y-83431426D01*
X133985000Y-83708665D01*
X133985000Y-83991335D01*
X134040147Y-84268574D01*
X134148320Y-84529727D01*
X134305363Y-84764759D01*
X134505241Y-84964637D01*
X134737759Y-85120000D01*
X134505241Y-85275363D01*
X134305363Y-85475241D01*
X134148320Y-85710273D01*
X134040147Y-85971426D01*
X133985000Y-86248665D01*
X133985000Y-86531335D01*
X134040147Y-86808574D01*
X134148320Y-87069727D01*
X134305363Y-87304759D01*
X134505241Y-87504637D01*
X134737759Y-87660000D01*
X134505241Y-87815363D01*
X134305363Y-88015241D01*
X134148320Y-88250273D01*
X134040147Y-88511426D01*
X133985000Y-88788665D01*
X133985000Y-89071335D01*
X134040147Y-89348574D01*
X134148320Y-89609727D01*
X134305363Y-89844759D01*
X134505241Y-90044637D01*
X134739128Y-90200915D01*
X134678486Y-90233329D01*
X134606903Y-90477298D01*
X135420000Y-91290395D01*
X136233097Y-90477298D01*
X136161514Y-90233329D01*
X136097008Y-90202806D01*
X136099727Y-90201680D01*
X136334759Y-90044637D01*
X136534637Y-89844759D01*
X136654748Y-89665000D01*
X144225554Y-89665000D01*
X158365001Y-103804448D01*
X158365001Y-105729868D01*
X158322238Y-105677762D01*
X158294193Y-105654746D01*
X147345259Y-94705813D01*
X147322238Y-94677762D01*
X147210320Y-94585913D01*
X147082633Y-94517663D01*
X146944085Y-94475635D01*
X146836105Y-94465000D01*
X146800000Y-94461444D01*
X146763895Y-94465000D01*
X136784765Y-94465000D01*
X136799853Y-94428574D01*
X136855000Y-94151335D01*
X136855000Y-93868665D01*
X136799853Y-93591426D01*
X136691680Y-93330273D01*
X136534637Y-93095241D01*
X136334759Y-92895363D01*
X136100872Y-92739085D01*
X136161514Y-92706671D01*
X136233097Y-92462702D01*
X135420000Y-91649605D01*
X134606903Y-92462702D01*
X134678486Y-92706671D01*
X134742992Y-92737194D01*
X134740273Y-92738320D01*
X134505241Y-92895363D01*
X134305363Y-93095241D01*
X134148320Y-93330273D01*
X134040147Y-93591426D01*
X133985000Y-93868665D01*
X133985000Y-94151335D01*
X134040147Y-94428574D01*
X134055235Y-94465000D01*
X121566094Y-94465000D01*
X121545601Y-94462982D01*
X121559853Y-94428574D01*
X121615000Y-94151335D01*
X121615000Y-93868665D01*
X121559853Y-93591426D01*
X121451680Y-93330273D01*
X121294637Y-93095241D01*
X121094759Y-92895363D01*
X120862241Y-92740000D01*
X121094759Y-92584637D01*
X121294637Y-92384759D01*
X121451680Y-92149727D01*
X121559853Y-91888574D01*
X121615000Y-91611335D01*
X121615000Y-91540512D01*
X133979783Y-91540512D01*
X134021213Y-91820130D01*
X134116397Y-92086292D01*
X134183329Y-92211514D01*
X134427298Y-92283097D01*
X135240395Y-91470000D01*
X135599605Y-91470000D01*
X136412702Y-92283097D01*
X136656671Y-92211514D01*
X136777571Y-91956004D01*
X136846300Y-91681816D01*
X136860217Y-91399488D01*
X136818787Y-91119870D01*
X136723603Y-90853708D01*
X136656671Y-90728486D01*
X136412702Y-90656903D01*
X135599605Y-91470000D01*
X135240395Y-91470000D01*
X134427298Y-90656903D01*
X134183329Y-90728486D01*
X134062429Y-90983996D01*
X133993700Y-91258184D01*
X133979783Y-91540512D01*
X121615000Y-91540512D01*
X121615000Y-91328665D01*
X121559853Y-91051426D01*
X121451680Y-90790273D01*
X121294637Y-90555241D01*
X121094759Y-90355363D01*
X120862241Y-90200000D01*
X121094759Y-90044637D01*
X121294637Y-89844759D01*
X121451680Y-89609727D01*
X121559853Y-89348574D01*
X121615000Y-89071335D01*
X121615000Y-88788665D01*
X121559853Y-88511426D01*
X121451680Y-88250273D01*
X121294637Y-88015241D01*
X121094759Y-87815363D01*
X120862241Y-87660000D01*
X121094759Y-87504637D01*
X121294637Y-87304759D01*
X121451680Y-87069727D01*
X121559853Y-86808574D01*
X121615000Y-86531335D01*
X121615000Y-86248665D01*
X121559853Y-85971426D01*
X121451680Y-85710273D01*
X121294637Y-85475241D01*
X121094759Y-85275363D01*
X120862241Y-85120000D01*
X121094759Y-84964637D01*
X121294637Y-84764759D01*
X121451680Y-84529727D01*
X121559853Y-84268574D01*
X121615000Y-83991335D01*
X121615000Y-83708665D01*
X121559853Y-83431426D01*
X121451680Y-83170273D01*
X121294637Y-82935241D01*
X121094759Y-82735363D01*
X120862241Y-82580000D01*
X121094759Y-82424637D01*
X121294637Y-82224759D01*
X121451680Y-81989727D01*
X121559853Y-81728574D01*
X121615000Y-81451335D01*
X121615000Y-81168665D01*
X121559853Y-80891426D01*
X121451680Y-80630273D01*
X121294637Y-80395241D01*
X121094759Y-80195363D01*
X120862241Y-80040000D01*
X121094759Y-79884637D01*
X121294637Y-79684759D01*
X121451680Y-79449727D01*
X121559853Y-79188574D01*
X121615000Y-78911335D01*
X121615000Y-78628665D01*
X121559853Y-78351426D01*
X121451680Y-78090273D01*
X121294637Y-77855241D01*
X121094759Y-77655363D01*
X120862241Y-77500000D01*
X121094759Y-77344637D01*
X121294637Y-77144759D01*
X121451680Y-76909727D01*
X121559853Y-76648574D01*
X121615000Y-76371335D01*
X121615000Y-76088665D01*
X121559853Y-75811426D01*
X121451680Y-75550273D01*
X121294637Y-75315241D01*
X121094759Y-75115363D01*
X120862241Y-74960000D01*
X121094759Y-74804637D01*
X121294637Y-74604759D01*
X121451680Y-74369727D01*
X121559853Y-74108574D01*
X121615000Y-73831335D01*
X121615000Y-73624447D01*
X121965001Y-73974448D01*
M02*
