G04 #@! TF.GenerationSoftware,KiCad,Pcbnew,(5.1.5)-3*
G04 #@! TF.CreationDate,2020-05-26T01:54:40-08:00*
G04 #@! TF.ProjectId,board,626f6172-642e-46b6-9963-61645f706362,rev?*
G04 #@! TF.SameCoordinates,Original*
G04 #@! TF.FileFunction,Paste,Top*
G04 #@! TF.FilePolarity,Positive*
%FSLAX46Y46*%
G04 Gerber Fmt 4.6, Leading zero omitted, Abs format (unit mm)*
G04 Created by KiCad (PCBNEW (5.1.5)-3) date 2020-05-26 01:54:40*
%MOMM*%
%LPD*%
G04 APERTURE LIST*
%ADD10C,0.100000*%
%ADD11R,1.700000X0.600000*%
%ADD12R,2.800000X2.500000*%
G04 APERTURE END LIST*
D10*
G36*
X147549504Y-131676204D02*
G01*
X147573773Y-131679804D01*
X147597571Y-131685765D01*
X147620671Y-131694030D01*
X147642849Y-131704520D01*
X147663893Y-131717133D01*
X147683598Y-131731747D01*
X147701777Y-131748223D01*
X147718253Y-131766402D01*
X147732867Y-131786107D01*
X147745480Y-131807151D01*
X147755970Y-131829329D01*
X147764235Y-131852429D01*
X147770196Y-131876227D01*
X147773796Y-131900496D01*
X147775000Y-131925000D01*
X147775000Y-132850000D01*
X147773796Y-132874504D01*
X147770196Y-132898773D01*
X147764235Y-132922571D01*
X147755970Y-132945671D01*
X147745480Y-132967849D01*
X147732867Y-132988893D01*
X147718253Y-133008598D01*
X147701777Y-133026777D01*
X147683598Y-133043253D01*
X147663893Y-133057867D01*
X147642849Y-133070480D01*
X147620671Y-133080970D01*
X147597571Y-133089235D01*
X147573773Y-133095196D01*
X147549504Y-133098796D01*
X147525000Y-133100000D01*
X146275000Y-133100000D01*
X146250496Y-133098796D01*
X146226227Y-133095196D01*
X146202429Y-133089235D01*
X146179329Y-133080970D01*
X146157151Y-133070480D01*
X146136107Y-133057867D01*
X146116402Y-133043253D01*
X146098223Y-133026777D01*
X146081747Y-133008598D01*
X146067133Y-132988893D01*
X146054520Y-132967849D01*
X146044030Y-132945671D01*
X146035765Y-132922571D01*
X146029804Y-132898773D01*
X146026204Y-132874504D01*
X146025000Y-132850000D01*
X146025000Y-131925000D01*
X146026204Y-131900496D01*
X146029804Y-131876227D01*
X146035765Y-131852429D01*
X146044030Y-131829329D01*
X146054520Y-131807151D01*
X146067133Y-131786107D01*
X146081747Y-131766402D01*
X146098223Y-131748223D01*
X146116402Y-131731747D01*
X146136107Y-131717133D01*
X146157151Y-131704520D01*
X146179329Y-131694030D01*
X146202429Y-131685765D01*
X146226227Y-131679804D01*
X146250496Y-131676204D01*
X146275000Y-131675000D01*
X147525000Y-131675000D01*
X147549504Y-131676204D01*
G37*
G36*
X147549504Y-128701204D02*
G01*
X147573773Y-128704804D01*
X147597571Y-128710765D01*
X147620671Y-128719030D01*
X147642849Y-128729520D01*
X147663893Y-128742133D01*
X147683598Y-128756747D01*
X147701777Y-128773223D01*
X147718253Y-128791402D01*
X147732867Y-128811107D01*
X147745480Y-128832151D01*
X147755970Y-128854329D01*
X147764235Y-128877429D01*
X147770196Y-128901227D01*
X147773796Y-128925496D01*
X147775000Y-128950000D01*
X147775000Y-129875000D01*
X147773796Y-129899504D01*
X147770196Y-129923773D01*
X147764235Y-129947571D01*
X147755970Y-129970671D01*
X147745480Y-129992849D01*
X147732867Y-130013893D01*
X147718253Y-130033598D01*
X147701777Y-130051777D01*
X147683598Y-130068253D01*
X147663893Y-130082867D01*
X147642849Y-130095480D01*
X147620671Y-130105970D01*
X147597571Y-130114235D01*
X147573773Y-130120196D01*
X147549504Y-130123796D01*
X147525000Y-130125000D01*
X146275000Y-130125000D01*
X146250496Y-130123796D01*
X146226227Y-130120196D01*
X146202429Y-130114235D01*
X146179329Y-130105970D01*
X146157151Y-130095480D01*
X146136107Y-130082867D01*
X146116402Y-130068253D01*
X146098223Y-130051777D01*
X146081747Y-130033598D01*
X146067133Y-130013893D01*
X146054520Y-129992849D01*
X146044030Y-129970671D01*
X146035765Y-129947571D01*
X146029804Y-129923773D01*
X146026204Y-129899504D01*
X146025000Y-129875000D01*
X146025000Y-128950000D01*
X146026204Y-128925496D01*
X146029804Y-128901227D01*
X146035765Y-128877429D01*
X146044030Y-128854329D01*
X146054520Y-128832151D01*
X146067133Y-128811107D01*
X146081747Y-128791402D01*
X146098223Y-128773223D01*
X146116402Y-128756747D01*
X146136107Y-128742133D01*
X146157151Y-128729520D01*
X146179329Y-128719030D01*
X146202429Y-128710765D01*
X146226227Y-128704804D01*
X146250496Y-128701204D01*
X146275000Y-128700000D01*
X147525000Y-128700000D01*
X147549504Y-128701204D01*
G37*
G36*
X169799504Y-137726204D02*
G01*
X169823773Y-137729804D01*
X169847571Y-137735765D01*
X169870671Y-137744030D01*
X169892849Y-137754520D01*
X169913893Y-137767133D01*
X169933598Y-137781747D01*
X169951777Y-137798223D01*
X169968253Y-137816402D01*
X169982867Y-137836107D01*
X169995480Y-137857151D01*
X170005970Y-137879329D01*
X170014235Y-137902429D01*
X170020196Y-137926227D01*
X170023796Y-137950496D01*
X170025000Y-137975000D01*
X170025000Y-139225000D01*
X170023796Y-139249504D01*
X170020196Y-139273773D01*
X170014235Y-139297571D01*
X170005970Y-139320671D01*
X169995480Y-139342849D01*
X169982867Y-139363893D01*
X169968253Y-139383598D01*
X169951777Y-139401777D01*
X169933598Y-139418253D01*
X169913893Y-139432867D01*
X169892849Y-139445480D01*
X169870671Y-139455970D01*
X169847571Y-139464235D01*
X169823773Y-139470196D01*
X169799504Y-139473796D01*
X169775000Y-139475000D01*
X168850000Y-139475000D01*
X168825496Y-139473796D01*
X168801227Y-139470196D01*
X168777429Y-139464235D01*
X168754329Y-139455970D01*
X168732151Y-139445480D01*
X168711107Y-139432867D01*
X168691402Y-139418253D01*
X168673223Y-139401777D01*
X168656747Y-139383598D01*
X168642133Y-139363893D01*
X168629520Y-139342849D01*
X168619030Y-139320671D01*
X168610765Y-139297571D01*
X168604804Y-139273773D01*
X168601204Y-139249504D01*
X168600000Y-139225000D01*
X168600000Y-137975000D01*
X168601204Y-137950496D01*
X168604804Y-137926227D01*
X168610765Y-137902429D01*
X168619030Y-137879329D01*
X168629520Y-137857151D01*
X168642133Y-137836107D01*
X168656747Y-137816402D01*
X168673223Y-137798223D01*
X168691402Y-137781747D01*
X168711107Y-137767133D01*
X168732151Y-137754520D01*
X168754329Y-137744030D01*
X168777429Y-137735765D01*
X168801227Y-137729804D01*
X168825496Y-137726204D01*
X168850000Y-137725000D01*
X169775000Y-137725000D01*
X169799504Y-137726204D01*
G37*
G36*
X172774504Y-137726204D02*
G01*
X172798773Y-137729804D01*
X172822571Y-137735765D01*
X172845671Y-137744030D01*
X172867849Y-137754520D01*
X172888893Y-137767133D01*
X172908598Y-137781747D01*
X172926777Y-137798223D01*
X172943253Y-137816402D01*
X172957867Y-137836107D01*
X172970480Y-137857151D01*
X172980970Y-137879329D01*
X172989235Y-137902429D01*
X172995196Y-137926227D01*
X172998796Y-137950496D01*
X173000000Y-137975000D01*
X173000000Y-139225000D01*
X172998796Y-139249504D01*
X172995196Y-139273773D01*
X172989235Y-139297571D01*
X172980970Y-139320671D01*
X172970480Y-139342849D01*
X172957867Y-139363893D01*
X172943253Y-139383598D01*
X172926777Y-139401777D01*
X172908598Y-139418253D01*
X172888893Y-139432867D01*
X172867849Y-139445480D01*
X172845671Y-139455970D01*
X172822571Y-139464235D01*
X172798773Y-139470196D01*
X172774504Y-139473796D01*
X172750000Y-139475000D01*
X171825000Y-139475000D01*
X171800496Y-139473796D01*
X171776227Y-139470196D01*
X171752429Y-139464235D01*
X171729329Y-139455970D01*
X171707151Y-139445480D01*
X171686107Y-139432867D01*
X171666402Y-139418253D01*
X171648223Y-139401777D01*
X171631747Y-139383598D01*
X171617133Y-139363893D01*
X171604520Y-139342849D01*
X171594030Y-139320671D01*
X171585765Y-139297571D01*
X171579804Y-139273773D01*
X171576204Y-139249504D01*
X171575000Y-139225000D01*
X171575000Y-137975000D01*
X171576204Y-137950496D01*
X171579804Y-137926227D01*
X171585765Y-137902429D01*
X171594030Y-137879329D01*
X171604520Y-137857151D01*
X171617133Y-137836107D01*
X171631747Y-137816402D01*
X171648223Y-137798223D01*
X171666402Y-137781747D01*
X171686107Y-137767133D01*
X171707151Y-137754520D01*
X171729329Y-137744030D01*
X171752429Y-137735765D01*
X171776227Y-137729804D01*
X171800496Y-137726204D01*
X171825000Y-137725000D01*
X172750000Y-137725000D01*
X172774504Y-137726204D01*
G37*
D11*
X198600000Y-131200000D03*
X198600000Y-130200000D03*
X198600000Y-129200000D03*
X198600000Y-128200000D03*
X198600000Y-127200000D03*
X198600000Y-126200000D03*
X198600000Y-125200000D03*
X198600000Y-124200000D03*
X198600000Y-123200000D03*
X198600000Y-122200000D03*
X198600000Y-121200000D03*
X198600000Y-120200000D03*
X198600000Y-119200000D03*
X198600000Y-118200000D03*
X198600000Y-117200000D03*
X198600000Y-116200000D03*
X198600000Y-115200000D03*
X198600000Y-114200000D03*
X198600000Y-113200000D03*
X198600000Y-112200000D03*
X198600000Y-111200000D03*
X198600000Y-110200000D03*
X198600000Y-109200000D03*
X198600000Y-108200000D03*
X198600000Y-107200000D03*
X198600000Y-106200000D03*
X198600000Y-105200000D03*
X198600000Y-104200000D03*
X198600000Y-103200000D03*
X198600000Y-102200000D03*
D12*
X201100000Y-133950000D03*
X201100000Y-99450000D03*
D10*
G36*
X129799504Y-121726204D02*
G01*
X129823773Y-121729804D01*
X129847571Y-121735765D01*
X129870671Y-121744030D01*
X129892849Y-121754520D01*
X129913893Y-121767133D01*
X129933598Y-121781747D01*
X129951777Y-121798223D01*
X129968253Y-121816402D01*
X129982867Y-121836107D01*
X129995480Y-121857151D01*
X130005970Y-121879329D01*
X130014235Y-121902429D01*
X130020196Y-121926227D01*
X130023796Y-121950496D01*
X130025000Y-121975000D01*
X130025000Y-123225000D01*
X130023796Y-123249504D01*
X130020196Y-123273773D01*
X130014235Y-123297571D01*
X130005970Y-123320671D01*
X129995480Y-123342849D01*
X129982867Y-123363893D01*
X129968253Y-123383598D01*
X129951777Y-123401777D01*
X129933598Y-123418253D01*
X129913893Y-123432867D01*
X129892849Y-123445480D01*
X129870671Y-123455970D01*
X129847571Y-123464235D01*
X129823773Y-123470196D01*
X129799504Y-123473796D01*
X129775000Y-123475000D01*
X128850000Y-123475000D01*
X128825496Y-123473796D01*
X128801227Y-123470196D01*
X128777429Y-123464235D01*
X128754329Y-123455970D01*
X128732151Y-123445480D01*
X128711107Y-123432867D01*
X128691402Y-123418253D01*
X128673223Y-123401777D01*
X128656747Y-123383598D01*
X128642133Y-123363893D01*
X128629520Y-123342849D01*
X128619030Y-123320671D01*
X128610765Y-123297571D01*
X128604804Y-123273773D01*
X128601204Y-123249504D01*
X128600000Y-123225000D01*
X128600000Y-121975000D01*
X128601204Y-121950496D01*
X128604804Y-121926227D01*
X128610765Y-121902429D01*
X128619030Y-121879329D01*
X128629520Y-121857151D01*
X128642133Y-121836107D01*
X128656747Y-121816402D01*
X128673223Y-121798223D01*
X128691402Y-121781747D01*
X128711107Y-121767133D01*
X128732151Y-121754520D01*
X128754329Y-121744030D01*
X128777429Y-121735765D01*
X128801227Y-121729804D01*
X128825496Y-121726204D01*
X128850000Y-121725000D01*
X129775000Y-121725000D01*
X129799504Y-121726204D01*
G37*
G36*
X132774504Y-121726204D02*
G01*
X132798773Y-121729804D01*
X132822571Y-121735765D01*
X132845671Y-121744030D01*
X132867849Y-121754520D01*
X132888893Y-121767133D01*
X132908598Y-121781747D01*
X132926777Y-121798223D01*
X132943253Y-121816402D01*
X132957867Y-121836107D01*
X132970480Y-121857151D01*
X132980970Y-121879329D01*
X132989235Y-121902429D01*
X132995196Y-121926227D01*
X132998796Y-121950496D01*
X133000000Y-121975000D01*
X133000000Y-123225000D01*
X132998796Y-123249504D01*
X132995196Y-123273773D01*
X132989235Y-123297571D01*
X132980970Y-123320671D01*
X132970480Y-123342849D01*
X132957867Y-123363893D01*
X132943253Y-123383598D01*
X132926777Y-123401777D01*
X132908598Y-123418253D01*
X132888893Y-123432867D01*
X132867849Y-123445480D01*
X132845671Y-123455970D01*
X132822571Y-123464235D01*
X132798773Y-123470196D01*
X132774504Y-123473796D01*
X132750000Y-123475000D01*
X131825000Y-123475000D01*
X131800496Y-123473796D01*
X131776227Y-123470196D01*
X131752429Y-123464235D01*
X131729329Y-123455970D01*
X131707151Y-123445480D01*
X131686107Y-123432867D01*
X131666402Y-123418253D01*
X131648223Y-123401777D01*
X131631747Y-123383598D01*
X131617133Y-123363893D01*
X131604520Y-123342849D01*
X131594030Y-123320671D01*
X131585765Y-123297571D01*
X131579804Y-123273773D01*
X131576204Y-123249504D01*
X131575000Y-123225000D01*
X131575000Y-121975000D01*
X131576204Y-121950496D01*
X131579804Y-121926227D01*
X131585765Y-121902429D01*
X131594030Y-121879329D01*
X131604520Y-121857151D01*
X131617133Y-121836107D01*
X131631747Y-121816402D01*
X131648223Y-121798223D01*
X131666402Y-121781747D01*
X131686107Y-121767133D01*
X131707151Y-121754520D01*
X131729329Y-121744030D01*
X131752429Y-121735765D01*
X131776227Y-121729804D01*
X131800496Y-121726204D01*
X131825000Y-121725000D01*
X132750000Y-121725000D01*
X132774504Y-121726204D01*
G37*
G36*
X135949504Y-121863704D02*
G01*
X135973773Y-121867304D01*
X135997571Y-121873265D01*
X136020671Y-121881530D01*
X136042849Y-121892020D01*
X136063893Y-121904633D01*
X136083598Y-121919247D01*
X136101777Y-121935723D01*
X136118253Y-121953902D01*
X136132867Y-121973607D01*
X136145480Y-121994651D01*
X136155970Y-122016829D01*
X136164235Y-122039929D01*
X136170196Y-122063727D01*
X136173796Y-122087996D01*
X136175000Y-122112500D01*
X136175000Y-123037500D01*
X136173796Y-123062004D01*
X136170196Y-123086273D01*
X136164235Y-123110071D01*
X136155970Y-123133171D01*
X136145480Y-123155349D01*
X136132867Y-123176393D01*
X136118253Y-123196098D01*
X136101777Y-123214277D01*
X136083598Y-123230753D01*
X136063893Y-123245367D01*
X136042849Y-123257980D01*
X136020671Y-123268470D01*
X135997571Y-123276735D01*
X135973773Y-123282696D01*
X135949504Y-123286296D01*
X135925000Y-123287500D01*
X134675000Y-123287500D01*
X134650496Y-123286296D01*
X134626227Y-123282696D01*
X134602429Y-123276735D01*
X134579329Y-123268470D01*
X134557151Y-123257980D01*
X134536107Y-123245367D01*
X134516402Y-123230753D01*
X134498223Y-123214277D01*
X134481747Y-123196098D01*
X134467133Y-123176393D01*
X134454520Y-123155349D01*
X134444030Y-123133171D01*
X134435765Y-123110071D01*
X134429804Y-123086273D01*
X134426204Y-123062004D01*
X134425000Y-123037500D01*
X134425000Y-122112500D01*
X134426204Y-122087996D01*
X134429804Y-122063727D01*
X134435765Y-122039929D01*
X134444030Y-122016829D01*
X134454520Y-121994651D01*
X134467133Y-121973607D01*
X134481747Y-121953902D01*
X134498223Y-121935723D01*
X134516402Y-121919247D01*
X134536107Y-121904633D01*
X134557151Y-121892020D01*
X134579329Y-121881530D01*
X134602429Y-121873265D01*
X134626227Y-121867304D01*
X134650496Y-121863704D01*
X134675000Y-121862500D01*
X135925000Y-121862500D01*
X135949504Y-121863704D01*
G37*
G36*
X135949504Y-118888704D02*
G01*
X135973773Y-118892304D01*
X135997571Y-118898265D01*
X136020671Y-118906530D01*
X136042849Y-118917020D01*
X136063893Y-118929633D01*
X136083598Y-118944247D01*
X136101777Y-118960723D01*
X136118253Y-118978902D01*
X136132867Y-118998607D01*
X136145480Y-119019651D01*
X136155970Y-119041829D01*
X136164235Y-119064929D01*
X136170196Y-119088727D01*
X136173796Y-119112996D01*
X136175000Y-119137500D01*
X136175000Y-120062500D01*
X136173796Y-120087004D01*
X136170196Y-120111273D01*
X136164235Y-120135071D01*
X136155970Y-120158171D01*
X136145480Y-120180349D01*
X136132867Y-120201393D01*
X136118253Y-120221098D01*
X136101777Y-120239277D01*
X136083598Y-120255753D01*
X136063893Y-120270367D01*
X136042849Y-120282980D01*
X136020671Y-120293470D01*
X135997571Y-120301735D01*
X135973773Y-120307696D01*
X135949504Y-120311296D01*
X135925000Y-120312500D01*
X134675000Y-120312500D01*
X134650496Y-120311296D01*
X134626227Y-120307696D01*
X134602429Y-120301735D01*
X134579329Y-120293470D01*
X134557151Y-120282980D01*
X134536107Y-120270367D01*
X134516402Y-120255753D01*
X134498223Y-120239277D01*
X134481747Y-120221098D01*
X134467133Y-120201393D01*
X134454520Y-120180349D01*
X134444030Y-120158171D01*
X134435765Y-120135071D01*
X134429804Y-120111273D01*
X134426204Y-120087004D01*
X134425000Y-120062500D01*
X134425000Y-119137500D01*
X134426204Y-119112996D01*
X134429804Y-119088727D01*
X134435765Y-119064929D01*
X134444030Y-119041829D01*
X134454520Y-119019651D01*
X134467133Y-118998607D01*
X134481747Y-118978902D01*
X134498223Y-118960723D01*
X134516402Y-118944247D01*
X134536107Y-118929633D01*
X134557151Y-118917020D01*
X134579329Y-118906530D01*
X134602429Y-118898265D01*
X134626227Y-118892304D01*
X134650496Y-118888704D01*
X134675000Y-118887500D01*
X135925000Y-118887500D01*
X135949504Y-118888704D01*
G37*
M02*
