G04 #@! TF.GenerationSoftware,KiCad,Pcbnew,(5.0.0-3-g5ebb6b6)*
G04 #@! TF.CreationDate,2019-09-06T00:58:35-07:00*
G04 #@! TF.ProjectId,keyboard,6B6579626F6172642E6B696361645F70,rev?*
G04 #@! TF.SameCoordinates,Original*
G04 #@! TF.FileFunction,Legend,Top*
G04 #@! TF.FilePolarity,Positive*
%FSLAX46Y46*%
G04 Gerber Fmt 4.6, Leading zero omitted, Abs format (unit mm)*
G04 Created by KiCad (PCBNEW (5.0.0-3-g5ebb6b6)) date Friday, September 06, 2019 at 12:58:35 AM*
%MOMM*%
%LPD*%
G01*
G04 APERTURE LIST*
%ADD10C,0.300000*%
%ADD11C,0.200000*%
%ADD12C,0.120000*%
%ADD13C,0.150000*%
G04 APERTURE END LIST*
D10*
X193318857Y-111827571D02*
X194176000Y-111827571D01*
X193747428Y-113327571D02*
X193747428Y-111827571D01*
X195247428Y-113256142D02*
X195104571Y-113327571D01*
X194818857Y-113327571D01*
X194676000Y-113256142D01*
X194604571Y-113113285D01*
X194604571Y-112541857D01*
X194676000Y-112399000D01*
X194818857Y-112327571D01*
X195104571Y-112327571D01*
X195247428Y-112399000D01*
X195318857Y-112541857D01*
X195318857Y-112684714D01*
X194604571Y-112827571D01*
X196533142Y-113256142D02*
X196390285Y-113327571D01*
X196104571Y-113327571D01*
X195961714Y-113256142D01*
X195890285Y-113113285D01*
X195890285Y-112541857D01*
X195961714Y-112399000D01*
X196104571Y-112327571D01*
X196390285Y-112327571D01*
X196533142Y-112399000D01*
X196604571Y-112541857D01*
X196604571Y-112684714D01*
X195890285Y-112827571D01*
X197247428Y-112327571D02*
X197247428Y-113327571D01*
X197247428Y-112470428D02*
X197318857Y-112399000D01*
X197461714Y-112327571D01*
X197676000Y-112327571D01*
X197818857Y-112399000D01*
X197890285Y-112541857D01*
X197890285Y-113327571D01*
X198533142Y-113256142D02*
X198676000Y-113327571D01*
X198961714Y-113327571D01*
X199104571Y-113256142D01*
X199176000Y-113113285D01*
X199176000Y-113041857D01*
X199104571Y-112899000D01*
X198961714Y-112827571D01*
X198747428Y-112827571D01*
X198604571Y-112756142D01*
X198533142Y-112613285D01*
X198533142Y-112541857D01*
X198604571Y-112399000D01*
X198747428Y-112327571D01*
X198961714Y-112327571D01*
X199104571Y-112399000D01*
X199676000Y-112327571D02*
X200033142Y-113327571D01*
X200390285Y-112327571D02*
X200033142Y-113327571D01*
X199890285Y-113684714D01*
X199818857Y-113756142D01*
X199676000Y-113827571D01*
X202104571Y-112756142D02*
X203247428Y-112756142D01*
X202676000Y-113327571D02*
X202676000Y-112184714D01*
X203961714Y-112756142D02*
X205104571Y-112756142D01*
X204533142Y-113327571D02*
X204533142Y-112184714D01*
X206890285Y-111970428D02*
X206961714Y-111899000D01*
X207104571Y-111827571D01*
X207461714Y-111827571D01*
X207604571Y-111899000D01*
X207676000Y-111970428D01*
X207747428Y-112113285D01*
X207747428Y-112256142D01*
X207676000Y-112470428D01*
X206818857Y-113327571D01*
X207747428Y-113327571D01*
X208390285Y-113184714D02*
X208461714Y-113256142D01*
X208390285Y-113327571D01*
X208318857Y-113256142D01*
X208390285Y-113184714D01*
X208390285Y-113327571D01*
X209390285Y-111827571D02*
X209533142Y-111827571D01*
X209676000Y-111899000D01*
X209747428Y-111970428D01*
X209818857Y-112113285D01*
X209890285Y-112399000D01*
X209890285Y-112756142D01*
X209818857Y-113041857D01*
X209747428Y-113184714D01*
X209676000Y-113256142D01*
X209533142Y-113327571D01*
X209390285Y-113327571D01*
X209247428Y-113256142D01*
X209176000Y-113184714D01*
X209104571Y-113041857D01*
X209033142Y-112756142D01*
X209033142Y-112399000D01*
X209104571Y-112113285D01*
X209176000Y-111970428D01*
X209247428Y-111899000D01*
X209390285Y-111827571D01*
D11*
X231076619Y-60521523D02*
X231136142Y-60462000D01*
X231255190Y-60402476D01*
X231552809Y-60402476D01*
X231671857Y-60462000D01*
X231731380Y-60521523D01*
X231790904Y-60640571D01*
X231790904Y-60759619D01*
X231731380Y-60938190D01*
X231017095Y-61652476D01*
X231790904Y-61652476D01*
X232505190Y-60938190D02*
X232386142Y-60878666D01*
X232326619Y-60819142D01*
X232267095Y-60700095D01*
X232267095Y-60640571D01*
X232326619Y-60521523D01*
X232386142Y-60462000D01*
X232505190Y-60402476D01*
X232743285Y-60402476D01*
X232862333Y-60462000D01*
X232921857Y-60521523D01*
X232981380Y-60640571D01*
X232981380Y-60700095D01*
X232921857Y-60819142D01*
X232862333Y-60878666D01*
X232743285Y-60938190D01*
X232505190Y-60938190D01*
X232386142Y-60997714D01*
X232326619Y-61057238D01*
X232267095Y-61176285D01*
X232267095Y-61414380D01*
X232326619Y-61533428D01*
X232386142Y-61592952D01*
X232505190Y-61652476D01*
X232743285Y-61652476D01*
X232862333Y-61592952D01*
X232921857Y-61533428D01*
X232981380Y-61414380D01*
X232981380Y-61176285D01*
X232921857Y-61057238D01*
X232862333Y-60997714D01*
X232743285Y-60938190D01*
X231076619Y-63061523D02*
X231136142Y-63002000D01*
X231255190Y-62942476D01*
X231552809Y-62942476D01*
X231671857Y-63002000D01*
X231731380Y-63061523D01*
X231790904Y-63180571D01*
X231790904Y-63299619D01*
X231731380Y-63478190D01*
X231017095Y-64192476D01*
X231790904Y-64192476D01*
X232862333Y-62942476D02*
X232624238Y-62942476D01*
X232505190Y-63002000D01*
X232445666Y-63061523D01*
X232326619Y-63240095D01*
X232267095Y-63478190D01*
X232267095Y-63954380D01*
X232326619Y-64073428D01*
X232386142Y-64132952D01*
X232505190Y-64192476D01*
X232743285Y-64192476D01*
X232862333Y-64132952D01*
X232921857Y-64073428D01*
X232981380Y-63954380D01*
X232981380Y-63656761D01*
X232921857Y-63537714D01*
X232862333Y-63478190D01*
X232743285Y-63418666D01*
X232505190Y-63418666D01*
X232386142Y-63478190D01*
X232326619Y-63537714D01*
X232267095Y-63656761D01*
X231076619Y-65601523D02*
X231136142Y-65542000D01*
X231255190Y-65482476D01*
X231552809Y-65482476D01*
X231671857Y-65542000D01*
X231731380Y-65601523D01*
X231790904Y-65720571D01*
X231790904Y-65839619D01*
X231731380Y-66018190D01*
X231017095Y-66732476D01*
X231790904Y-66732476D01*
X232862333Y-65899142D02*
X232862333Y-66732476D01*
X232564714Y-65422952D02*
X232267095Y-66315809D01*
X233040904Y-66315809D01*
X231076619Y-68141523D02*
X231136142Y-68082000D01*
X231255190Y-68022476D01*
X231552809Y-68022476D01*
X231671857Y-68082000D01*
X231731380Y-68141523D01*
X231790904Y-68260571D01*
X231790904Y-68379619D01*
X231731380Y-68558190D01*
X231017095Y-69272476D01*
X231790904Y-69272476D01*
X232267095Y-68141523D02*
X232326619Y-68082000D01*
X232445666Y-68022476D01*
X232743285Y-68022476D01*
X232862333Y-68082000D01*
X232921857Y-68141523D01*
X232981380Y-68260571D01*
X232981380Y-68379619D01*
X232921857Y-68558190D01*
X232207571Y-69272476D01*
X232981380Y-69272476D01*
X230949619Y-70681523D02*
X231009142Y-70622000D01*
X231128190Y-70562476D01*
X231425809Y-70562476D01*
X231544857Y-70622000D01*
X231604380Y-70681523D01*
X231663904Y-70800571D01*
X231663904Y-70919619D01*
X231604380Y-71098190D01*
X230890095Y-71812476D01*
X231663904Y-71812476D01*
X232437714Y-70562476D02*
X232556761Y-70562476D01*
X232675809Y-70622000D01*
X232735333Y-70681523D01*
X232794857Y-70800571D01*
X232854380Y-71038666D01*
X232854380Y-71336285D01*
X232794857Y-71574380D01*
X232735333Y-71693428D01*
X232675809Y-71752952D01*
X232556761Y-71812476D01*
X232437714Y-71812476D01*
X232318666Y-71752952D01*
X232259142Y-71693428D01*
X232199619Y-71574380D01*
X232140095Y-71336285D01*
X232140095Y-71038666D01*
X232199619Y-70800571D01*
X232259142Y-70681523D01*
X232318666Y-70622000D01*
X232437714Y-70562476D01*
X231663904Y-74352476D02*
X230949619Y-74352476D01*
X231306761Y-74352476D02*
X231306761Y-73102476D01*
X231187714Y-73281047D01*
X231068666Y-73400095D01*
X230949619Y-73459619D01*
X232378190Y-73638190D02*
X232259142Y-73578666D01*
X232199619Y-73519142D01*
X232140095Y-73400095D01*
X232140095Y-73340571D01*
X232199619Y-73221523D01*
X232259142Y-73162000D01*
X232378190Y-73102476D01*
X232616285Y-73102476D01*
X232735333Y-73162000D01*
X232794857Y-73221523D01*
X232854380Y-73340571D01*
X232854380Y-73400095D01*
X232794857Y-73519142D01*
X232735333Y-73578666D01*
X232616285Y-73638190D01*
X232378190Y-73638190D01*
X232259142Y-73697714D01*
X232199619Y-73757238D01*
X232140095Y-73876285D01*
X232140095Y-74114380D01*
X232199619Y-74233428D01*
X232259142Y-74292952D01*
X232378190Y-74352476D01*
X232616285Y-74352476D01*
X232735333Y-74292952D01*
X232794857Y-74233428D01*
X232854380Y-74114380D01*
X232854380Y-73876285D01*
X232794857Y-73757238D01*
X232735333Y-73697714D01*
X232616285Y-73638190D01*
X231663904Y-76892476D02*
X230949619Y-76892476D01*
X231306761Y-76892476D02*
X231306761Y-75642476D01*
X231187714Y-75821047D01*
X231068666Y-75940095D01*
X230949619Y-75999619D01*
X232735333Y-75642476D02*
X232497238Y-75642476D01*
X232378190Y-75702000D01*
X232318666Y-75761523D01*
X232199619Y-75940095D01*
X232140095Y-76178190D01*
X232140095Y-76654380D01*
X232199619Y-76773428D01*
X232259142Y-76832952D01*
X232378190Y-76892476D01*
X232616285Y-76892476D01*
X232735333Y-76832952D01*
X232794857Y-76773428D01*
X232854380Y-76654380D01*
X232854380Y-76356761D01*
X232794857Y-76237714D01*
X232735333Y-76178190D01*
X232616285Y-76118666D01*
X232378190Y-76118666D01*
X232259142Y-76178190D01*
X232199619Y-76237714D01*
X232140095Y-76356761D01*
X231663904Y-79432476D02*
X230949619Y-79432476D01*
X231306761Y-79432476D02*
X231306761Y-78182476D01*
X231187714Y-78361047D01*
X231068666Y-78480095D01*
X230949619Y-78539619D01*
X232735333Y-78599142D02*
X232735333Y-79432476D01*
X232437714Y-78122952D02*
X232140095Y-79015809D01*
X232913904Y-79015809D01*
X231663904Y-81972476D02*
X230949619Y-81972476D01*
X231306761Y-81972476D02*
X231306761Y-80722476D01*
X231187714Y-80901047D01*
X231068666Y-81020095D01*
X230949619Y-81079619D01*
X232140095Y-80841523D02*
X232199619Y-80782000D01*
X232318666Y-80722476D01*
X232616285Y-80722476D01*
X232735333Y-80782000D01*
X232794857Y-80841523D01*
X232854380Y-80960571D01*
X232854380Y-81079619D01*
X232794857Y-81258190D01*
X232080571Y-81972476D01*
X232854380Y-81972476D01*
X231663904Y-84639476D02*
X230949619Y-84639476D01*
X231306761Y-84639476D02*
X231306761Y-83389476D01*
X231187714Y-83568047D01*
X231068666Y-83687095D01*
X230949619Y-83746619D01*
X232437714Y-83389476D02*
X232556761Y-83389476D01*
X232675809Y-83449000D01*
X232735333Y-83508523D01*
X232794857Y-83627571D01*
X232854380Y-83865666D01*
X232854380Y-84163285D01*
X232794857Y-84401380D01*
X232735333Y-84520428D01*
X232675809Y-84579952D01*
X232556761Y-84639476D01*
X232437714Y-84639476D01*
X232318666Y-84579952D01*
X232259142Y-84520428D01*
X232199619Y-84401380D01*
X232140095Y-84163285D01*
X232140095Y-83865666D01*
X232199619Y-83627571D01*
X232259142Y-83508523D01*
X232318666Y-83449000D01*
X232437714Y-83389476D01*
X231782952Y-86465190D02*
X231663904Y-86405666D01*
X231604380Y-86346142D01*
X231544857Y-86227095D01*
X231544857Y-86167571D01*
X231604380Y-86048523D01*
X231663904Y-85989000D01*
X231782952Y-85929476D01*
X232021047Y-85929476D01*
X232140095Y-85989000D01*
X232199619Y-86048523D01*
X232259142Y-86167571D01*
X232259142Y-86227095D01*
X232199619Y-86346142D01*
X232140095Y-86405666D01*
X232021047Y-86465190D01*
X231782952Y-86465190D01*
X231663904Y-86524714D01*
X231604380Y-86584238D01*
X231544857Y-86703285D01*
X231544857Y-86941380D01*
X231604380Y-87060428D01*
X231663904Y-87119952D01*
X231782952Y-87179476D01*
X232021047Y-87179476D01*
X232140095Y-87119952D01*
X232199619Y-87060428D01*
X232259142Y-86941380D01*
X232259142Y-86703285D01*
X232199619Y-86584238D01*
X232140095Y-86524714D01*
X232021047Y-86465190D01*
X232140095Y-88342476D02*
X231902000Y-88342476D01*
X231782952Y-88402000D01*
X231723428Y-88461523D01*
X231604380Y-88640095D01*
X231544857Y-88878190D01*
X231544857Y-89354380D01*
X231604380Y-89473428D01*
X231663904Y-89532952D01*
X231782952Y-89592476D01*
X232021047Y-89592476D01*
X232140095Y-89532952D01*
X232199619Y-89473428D01*
X232259142Y-89354380D01*
X232259142Y-89056761D01*
X232199619Y-88937714D01*
X232140095Y-88878190D01*
X232021047Y-88818666D01*
X231782952Y-88818666D01*
X231663904Y-88878190D01*
X231604380Y-88937714D01*
X231544857Y-89056761D01*
X232140095Y-91299142D02*
X232140095Y-92132476D01*
X231842476Y-90822952D02*
X231544857Y-91715809D01*
X232318666Y-91715809D01*
X231544857Y-93541523D02*
X231604380Y-93482000D01*
X231723428Y-93422476D01*
X232021047Y-93422476D01*
X232140095Y-93482000D01*
X232199619Y-93541523D01*
X232259142Y-93660571D01*
X232259142Y-93779619D01*
X232199619Y-93958190D01*
X231485333Y-94672476D01*
X232259142Y-94672476D01*
X243181142Y-95942476D02*
X242466857Y-95942476D01*
X242824000Y-95942476D02*
X242824000Y-94692476D01*
X242704952Y-94871047D01*
X242585904Y-94990095D01*
X242466857Y-95049619D01*
X242407333Y-92152476D02*
X243181142Y-92152476D01*
X242764476Y-92628666D01*
X242943047Y-92628666D01*
X243062095Y-92688190D01*
X243121619Y-92747714D01*
X243181142Y-92866761D01*
X243181142Y-93164380D01*
X243121619Y-93283428D01*
X243062095Y-93342952D01*
X242943047Y-93402476D01*
X242585904Y-93402476D01*
X242466857Y-93342952D01*
X242407333Y-93283428D01*
X243121619Y-89739476D02*
X242526380Y-89739476D01*
X242466857Y-90334714D01*
X242526380Y-90275190D01*
X242645428Y-90215666D01*
X242943047Y-90215666D01*
X243062095Y-90275190D01*
X243121619Y-90334714D01*
X243181142Y-90453761D01*
X243181142Y-90751380D01*
X243121619Y-90870428D01*
X243062095Y-90929952D01*
X242943047Y-90989476D01*
X242645428Y-90989476D01*
X242526380Y-90929952D01*
X242466857Y-90870428D01*
X242407333Y-87072476D02*
X243240666Y-87072476D01*
X242704952Y-88322476D01*
X242585904Y-85909476D02*
X242824000Y-85909476D01*
X242943047Y-85849952D01*
X243002571Y-85790428D01*
X243121619Y-85611857D01*
X243181142Y-85373761D01*
X243181142Y-84897571D01*
X243121619Y-84778523D01*
X243062095Y-84719000D01*
X242943047Y-84659476D01*
X242704952Y-84659476D01*
X242585904Y-84719000D01*
X242526380Y-84778523D01*
X242466857Y-84897571D01*
X242466857Y-85195190D01*
X242526380Y-85314238D01*
X242585904Y-85373761D01*
X242704952Y-85433285D01*
X242943047Y-85433285D01*
X243062095Y-85373761D01*
X243121619Y-85314238D01*
X243181142Y-85195190D01*
X242585904Y-83242476D02*
X241871619Y-83242476D01*
X242228761Y-83242476D02*
X242228761Y-81992476D01*
X242109714Y-82171047D01*
X241990666Y-82290095D01*
X241871619Y-82349619D01*
X243776380Y-83242476D02*
X243062095Y-83242476D01*
X243419238Y-83242476D02*
X243419238Y-81992476D01*
X243300190Y-82171047D01*
X243181142Y-82290095D01*
X243062095Y-82349619D01*
X242585904Y-80829476D02*
X241871619Y-80829476D01*
X242228761Y-80829476D02*
X242228761Y-79579476D01*
X242109714Y-79758047D01*
X241990666Y-79877095D01*
X241871619Y-79936619D01*
X243002571Y-79579476D02*
X243776380Y-79579476D01*
X243359714Y-80055666D01*
X243538285Y-80055666D01*
X243657333Y-80115190D01*
X243716857Y-80174714D01*
X243776380Y-80293761D01*
X243776380Y-80591380D01*
X243716857Y-80710428D01*
X243657333Y-80769952D01*
X243538285Y-80829476D01*
X243181142Y-80829476D01*
X243062095Y-80769952D01*
X243002571Y-80710428D01*
X242585904Y-78289476D02*
X241871619Y-78289476D01*
X242228761Y-78289476D02*
X242228761Y-77039476D01*
X242109714Y-77218047D01*
X241990666Y-77337095D01*
X241871619Y-77396619D01*
X243716857Y-77039476D02*
X243121619Y-77039476D01*
X243062095Y-77634714D01*
X243121619Y-77575190D01*
X243240666Y-77515666D01*
X243538285Y-77515666D01*
X243657333Y-77575190D01*
X243716857Y-77634714D01*
X243776380Y-77753761D01*
X243776380Y-78051380D01*
X243716857Y-78170428D01*
X243657333Y-78229952D01*
X243538285Y-78289476D01*
X243240666Y-78289476D01*
X243121619Y-78229952D01*
X243062095Y-78170428D01*
X242585904Y-75622476D02*
X241871619Y-75622476D01*
X242228761Y-75622476D02*
X242228761Y-74372476D01*
X242109714Y-74551047D01*
X241990666Y-74670095D01*
X241871619Y-74729619D01*
X243002571Y-74372476D02*
X243835904Y-74372476D01*
X243300190Y-75622476D01*
X242585904Y-73082476D02*
X241871619Y-73082476D01*
X242228761Y-73082476D02*
X242228761Y-71832476D01*
X242109714Y-72011047D01*
X241990666Y-72130095D01*
X241871619Y-72189619D01*
X243181142Y-73082476D02*
X243419238Y-73082476D01*
X243538285Y-73022952D01*
X243597809Y-72963428D01*
X243716857Y-72784857D01*
X243776380Y-72546761D01*
X243776380Y-72070571D01*
X243716857Y-71951523D01*
X243657333Y-71892000D01*
X243538285Y-71832476D01*
X243300190Y-71832476D01*
X243181142Y-71892000D01*
X243121619Y-71951523D01*
X243062095Y-72070571D01*
X243062095Y-72368190D01*
X243121619Y-72487238D01*
X243181142Y-72546761D01*
X243300190Y-72606285D01*
X243538285Y-72606285D01*
X243657333Y-72546761D01*
X243716857Y-72487238D01*
X243776380Y-72368190D01*
X241871619Y-69538523D02*
X241931142Y-69479000D01*
X242050190Y-69419476D01*
X242347809Y-69419476D01*
X242466857Y-69479000D01*
X242526380Y-69538523D01*
X242585904Y-69657571D01*
X242585904Y-69776619D01*
X242526380Y-69955190D01*
X241812095Y-70669476D01*
X242585904Y-70669476D01*
X243776380Y-70669476D02*
X243062095Y-70669476D01*
X243419238Y-70669476D02*
X243419238Y-69419476D01*
X243300190Y-69598047D01*
X243181142Y-69717095D01*
X243062095Y-69776619D01*
X241871619Y-66871523D02*
X241931142Y-66812000D01*
X242050190Y-66752476D01*
X242347809Y-66752476D01*
X242466857Y-66812000D01*
X242526380Y-66871523D01*
X242585904Y-66990571D01*
X242585904Y-67109619D01*
X242526380Y-67288190D01*
X241812095Y-68002476D01*
X242585904Y-68002476D01*
X243002571Y-66752476D02*
X243776380Y-66752476D01*
X243359714Y-67228666D01*
X243538285Y-67228666D01*
X243657333Y-67288190D01*
X243716857Y-67347714D01*
X243776380Y-67466761D01*
X243776380Y-67764380D01*
X243716857Y-67883428D01*
X243657333Y-67942952D01*
X243538285Y-68002476D01*
X243181142Y-68002476D01*
X243062095Y-67942952D01*
X243002571Y-67883428D01*
X241744619Y-64331523D02*
X241804142Y-64272000D01*
X241923190Y-64212476D01*
X242220809Y-64212476D01*
X242339857Y-64272000D01*
X242399380Y-64331523D01*
X242458904Y-64450571D01*
X242458904Y-64569619D01*
X242399380Y-64748190D01*
X241685095Y-65462476D01*
X242458904Y-65462476D01*
X243589857Y-64212476D02*
X242994619Y-64212476D01*
X242935095Y-64807714D01*
X242994619Y-64748190D01*
X243113666Y-64688666D01*
X243411285Y-64688666D01*
X243530333Y-64748190D01*
X243589857Y-64807714D01*
X243649380Y-64926761D01*
X243649380Y-65224380D01*
X243589857Y-65343428D01*
X243530333Y-65402952D01*
X243411285Y-65462476D01*
X243113666Y-65462476D01*
X242994619Y-65402952D01*
X242935095Y-65343428D01*
X252523666Y-84034380D02*
X253142714Y-84034380D01*
X252809380Y-84415333D01*
X252952238Y-84415333D01*
X253047476Y-84462952D01*
X253095095Y-84510571D01*
X253142714Y-84605809D01*
X253142714Y-84843904D01*
X253095095Y-84939142D01*
X253047476Y-84986761D01*
X252952238Y-85034380D01*
X252666523Y-85034380D01*
X252571285Y-84986761D01*
X252523666Y-84939142D01*
X253095095Y-82002380D02*
X252618904Y-82002380D01*
X252571285Y-82478571D01*
X252618904Y-82430952D01*
X252714142Y-82383333D01*
X252952238Y-82383333D01*
X253047476Y-82430952D01*
X253095095Y-82478571D01*
X253142714Y-82573809D01*
X253142714Y-82811904D01*
X253095095Y-82907142D01*
X253047476Y-82954761D01*
X252952238Y-83002380D01*
X252714142Y-83002380D01*
X252618904Y-82954761D01*
X252571285Y-82907142D01*
X252523666Y-80097380D02*
X253190333Y-80097380D01*
X252761761Y-81097380D01*
X252539523Y-79065380D02*
X252730000Y-79065380D01*
X252825238Y-79017761D01*
X252872857Y-78970142D01*
X252968095Y-78827285D01*
X253015714Y-78636809D01*
X253015714Y-78255857D01*
X252968095Y-78160619D01*
X252920476Y-78113000D01*
X252825238Y-78065380D01*
X252634761Y-78065380D01*
X252539523Y-78113000D01*
X252491904Y-78160619D01*
X252444285Y-78255857D01*
X252444285Y-78493952D01*
X252491904Y-78589190D01*
X252539523Y-78636809D01*
X252634761Y-78684428D01*
X252825238Y-78684428D01*
X252920476Y-78636809D01*
X252968095Y-78589190D01*
X253015714Y-78493952D01*
X252920523Y-77033380D02*
X252349095Y-77033380D01*
X252634809Y-77033380D02*
X252634809Y-76033380D01*
X252539571Y-76176238D01*
X252444333Y-76271476D01*
X252349095Y-76319095D01*
X253872904Y-77033380D02*
X253301476Y-77033380D01*
X253587190Y-77033380D02*
X253587190Y-76033380D01*
X253491952Y-76176238D01*
X253396714Y-76271476D01*
X253301476Y-76319095D01*
X252920523Y-75001380D02*
X252349095Y-75001380D01*
X252634809Y-75001380D02*
X252634809Y-74001380D01*
X252539571Y-74144238D01*
X252444333Y-74239476D01*
X252349095Y-74287095D01*
X253253857Y-74001380D02*
X253872904Y-74001380D01*
X253539571Y-74382333D01*
X253682428Y-74382333D01*
X253777666Y-74429952D01*
X253825285Y-74477571D01*
X253872904Y-74572809D01*
X253872904Y-74810904D01*
X253825285Y-74906142D01*
X253777666Y-74953761D01*
X253682428Y-75001380D01*
X253396714Y-75001380D01*
X253301476Y-74953761D01*
X253253857Y-74906142D01*
X253047523Y-73096380D02*
X252476095Y-73096380D01*
X252761809Y-73096380D02*
X252761809Y-72096380D01*
X252666571Y-72239238D01*
X252571333Y-72334476D01*
X252476095Y-72382095D01*
X253952285Y-72096380D02*
X253476095Y-72096380D01*
X253428476Y-72572571D01*
X253476095Y-72524952D01*
X253571333Y-72477333D01*
X253809428Y-72477333D01*
X253904666Y-72524952D01*
X253952285Y-72572571D01*
X253999904Y-72667809D01*
X253999904Y-72905904D01*
X253952285Y-73001142D01*
X253904666Y-73048761D01*
X253809428Y-73096380D01*
X253571333Y-73096380D01*
X253476095Y-73048761D01*
X253428476Y-73001142D01*
X252920523Y-71064380D02*
X252349095Y-71064380D01*
X252634809Y-71064380D02*
X252634809Y-70064380D01*
X252539571Y-70207238D01*
X252444333Y-70302476D01*
X252349095Y-70350095D01*
X253253857Y-70064380D02*
X253920523Y-70064380D01*
X253491952Y-71064380D01*
X252920523Y-69032380D02*
X252349095Y-69032380D01*
X252634809Y-69032380D02*
X252634809Y-68032380D01*
X252539571Y-68175238D01*
X252444333Y-68270476D01*
X252349095Y-68318095D01*
X253396714Y-69032380D02*
X253587190Y-69032380D01*
X253682428Y-68984761D01*
X253730047Y-68937142D01*
X253825285Y-68794285D01*
X253872904Y-68603809D01*
X253872904Y-68222857D01*
X253825285Y-68127619D01*
X253777666Y-68080000D01*
X253682428Y-68032380D01*
X253491952Y-68032380D01*
X253396714Y-68080000D01*
X253349095Y-68127619D01*
X253301476Y-68222857D01*
X253301476Y-68460952D01*
X253349095Y-68556190D01*
X253396714Y-68603809D01*
X253491952Y-68651428D01*
X253682428Y-68651428D01*
X253777666Y-68603809D01*
X253825285Y-68556190D01*
X253872904Y-68460952D01*
X252349095Y-66095619D02*
X252396714Y-66048000D01*
X252491952Y-66000380D01*
X252730047Y-66000380D01*
X252825285Y-66048000D01*
X252872904Y-66095619D01*
X252920523Y-66190857D01*
X252920523Y-66286095D01*
X252872904Y-66428952D01*
X252301476Y-67000380D01*
X252920523Y-67000380D01*
X253872904Y-67000380D02*
X253301476Y-67000380D01*
X253587190Y-67000380D02*
X253587190Y-66000380D01*
X253491952Y-66143238D01*
X253396714Y-66238476D01*
X253301476Y-66286095D01*
X252222095Y-64190619D02*
X252269714Y-64143000D01*
X252364952Y-64095380D01*
X252603047Y-64095380D01*
X252698285Y-64143000D01*
X252745904Y-64190619D01*
X252793523Y-64285857D01*
X252793523Y-64381095D01*
X252745904Y-64523952D01*
X252174476Y-65095380D01*
X252793523Y-65095380D01*
X253126857Y-64095380D02*
X253745904Y-64095380D01*
X253412571Y-64476333D01*
X253555428Y-64476333D01*
X253650666Y-64523952D01*
X253698285Y-64571571D01*
X253745904Y-64666809D01*
X253745904Y-64904904D01*
X253698285Y-65000142D01*
X253650666Y-65047761D01*
X253555428Y-65095380D01*
X253269714Y-65095380D01*
X253174476Y-65047761D01*
X253126857Y-65000142D01*
X252222095Y-62158619D02*
X252269714Y-62111000D01*
X252364952Y-62063380D01*
X252603047Y-62063380D01*
X252698285Y-62111000D01*
X252745904Y-62158619D01*
X252793523Y-62253857D01*
X252793523Y-62349095D01*
X252745904Y-62491952D01*
X252174476Y-63063380D01*
X252793523Y-63063380D01*
X253698285Y-62063380D02*
X253222095Y-62063380D01*
X253174476Y-62539571D01*
X253222095Y-62491952D01*
X253317333Y-62444333D01*
X253555428Y-62444333D01*
X253650666Y-62491952D01*
X253698285Y-62539571D01*
X253745904Y-62634809D01*
X253745904Y-62872904D01*
X253698285Y-62968142D01*
X253650666Y-63015761D01*
X253555428Y-63063380D01*
X253317333Y-63063380D01*
X253222095Y-63015761D01*
X253174476Y-62968142D01*
X252222095Y-60126619D02*
X252269714Y-60079000D01*
X252364952Y-60031380D01*
X252603047Y-60031380D01*
X252698285Y-60079000D01*
X252745904Y-60126619D01*
X252793523Y-60221857D01*
X252793523Y-60317095D01*
X252745904Y-60459952D01*
X252174476Y-61031380D01*
X252793523Y-61031380D01*
X253126857Y-60031380D02*
X253793523Y-60031380D01*
X253364952Y-61031380D01*
X244602095Y-59110619D02*
X244649714Y-59063000D01*
X244744952Y-59015380D01*
X244983047Y-59015380D01*
X245078285Y-59063000D01*
X245125904Y-59110619D01*
X245173523Y-59205857D01*
X245173523Y-59301095D01*
X245125904Y-59443952D01*
X244554476Y-60015380D01*
X245173523Y-60015380D01*
X245744952Y-59443952D02*
X245649714Y-59396333D01*
X245602095Y-59348714D01*
X245554476Y-59253476D01*
X245554476Y-59205857D01*
X245602095Y-59110619D01*
X245649714Y-59063000D01*
X245744952Y-59015380D01*
X245935428Y-59015380D01*
X246030666Y-59063000D01*
X246078285Y-59110619D01*
X246125904Y-59205857D01*
X246125904Y-59253476D01*
X246078285Y-59348714D01*
X246030666Y-59396333D01*
X245935428Y-59443952D01*
X245744952Y-59443952D01*
X245649714Y-59491571D01*
X245602095Y-59539190D01*
X245554476Y-59634428D01*
X245554476Y-59824904D01*
X245602095Y-59920142D01*
X245649714Y-59967761D01*
X245744952Y-60015380D01*
X245935428Y-60015380D01*
X246030666Y-59967761D01*
X246078285Y-59920142D01*
X246125904Y-59824904D01*
X246125904Y-59634428D01*
X246078285Y-59539190D01*
X246030666Y-59491571D01*
X245935428Y-59443952D01*
X244602095Y-61142619D02*
X244649714Y-61095000D01*
X244744952Y-61047380D01*
X244983047Y-61047380D01*
X245078285Y-61095000D01*
X245125904Y-61142619D01*
X245173523Y-61237857D01*
X245173523Y-61333095D01*
X245125904Y-61475952D01*
X244554476Y-62047380D01*
X245173523Y-62047380D01*
X246030666Y-61047380D02*
X245840190Y-61047380D01*
X245744952Y-61095000D01*
X245697333Y-61142619D01*
X245602095Y-61285476D01*
X245554476Y-61475952D01*
X245554476Y-61856904D01*
X245602095Y-61952142D01*
X245649714Y-61999761D01*
X245744952Y-62047380D01*
X245935428Y-62047380D01*
X246030666Y-61999761D01*
X246078285Y-61952142D01*
X246125904Y-61856904D01*
X246125904Y-61618809D01*
X246078285Y-61523571D01*
X246030666Y-61475952D01*
X245935428Y-61428333D01*
X245744952Y-61428333D01*
X245649714Y-61475952D01*
X245602095Y-61523571D01*
X245554476Y-61618809D01*
X244602095Y-63174619D02*
X244649714Y-63127000D01*
X244744952Y-63079380D01*
X244983047Y-63079380D01*
X245078285Y-63127000D01*
X245125904Y-63174619D01*
X245173523Y-63269857D01*
X245173523Y-63365095D01*
X245125904Y-63507952D01*
X244554476Y-64079380D01*
X245173523Y-64079380D01*
X246030666Y-63412714D02*
X246030666Y-64079380D01*
X245792571Y-63031761D02*
X245554476Y-63746047D01*
X246173523Y-63746047D01*
X244602095Y-65206619D02*
X244649714Y-65159000D01*
X244744952Y-65111380D01*
X244983047Y-65111380D01*
X245078285Y-65159000D01*
X245125904Y-65206619D01*
X245173523Y-65301857D01*
X245173523Y-65397095D01*
X245125904Y-65539952D01*
X244554476Y-66111380D01*
X245173523Y-66111380D01*
X245554476Y-65206619D02*
X245602095Y-65159000D01*
X245697333Y-65111380D01*
X245935428Y-65111380D01*
X246030666Y-65159000D01*
X246078285Y-65206619D01*
X246125904Y-65301857D01*
X246125904Y-65397095D01*
X246078285Y-65539952D01*
X245506857Y-66111380D01*
X246125904Y-66111380D01*
X244602095Y-67111619D02*
X244649714Y-67064000D01*
X244744952Y-67016380D01*
X244983047Y-67016380D01*
X245078285Y-67064000D01*
X245125904Y-67111619D01*
X245173523Y-67206857D01*
X245173523Y-67302095D01*
X245125904Y-67444952D01*
X244554476Y-68016380D01*
X245173523Y-68016380D01*
X245792571Y-67016380D02*
X245887809Y-67016380D01*
X245983047Y-67064000D01*
X246030666Y-67111619D01*
X246078285Y-67206857D01*
X246125904Y-67397333D01*
X246125904Y-67635428D01*
X246078285Y-67825904D01*
X246030666Y-67921142D01*
X245983047Y-67968761D01*
X245887809Y-68016380D01*
X245792571Y-68016380D01*
X245697333Y-67968761D01*
X245649714Y-67921142D01*
X245602095Y-67825904D01*
X245554476Y-67635428D01*
X245554476Y-67397333D01*
X245602095Y-67206857D01*
X245649714Y-67111619D01*
X245697333Y-67064000D01*
X245792571Y-67016380D01*
X245046523Y-70048380D02*
X244475095Y-70048380D01*
X244760809Y-70048380D02*
X244760809Y-69048380D01*
X244665571Y-69191238D01*
X244570333Y-69286476D01*
X244475095Y-69334095D01*
X245617952Y-69476952D02*
X245522714Y-69429333D01*
X245475095Y-69381714D01*
X245427476Y-69286476D01*
X245427476Y-69238857D01*
X245475095Y-69143619D01*
X245522714Y-69096000D01*
X245617952Y-69048380D01*
X245808428Y-69048380D01*
X245903666Y-69096000D01*
X245951285Y-69143619D01*
X245998904Y-69238857D01*
X245998904Y-69286476D01*
X245951285Y-69381714D01*
X245903666Y-69429333D01*
X245808428Y-69476952D01*
X245617952Y-69476952D01*
X245522714Y-69524571D01*
X245475095Y-69572190D01*
X245427476Y-69667428D01*
X245427476Y-69857904D01*
X245475095Y-69953142D01*
X245522714Y-70000761D01*
X245617952Y-70048380D01*
X245808428Y-70048380D01*
X245903666Y-70000761D01*
X245951285Y-69953142D01*
X245998904Y-69857904D01*
X245998904Y-69667428D01*
X245951285Y-69572190D01*
X245903666Y-69524571D01*
X245808428Y-69476952D01*
X245046523Y-72207380D02*
X244475095Y-72207380D01*
X244760809Y-72207380D02*
X244760809Y-71207380D01*
X244665571Y-71350238D01*
X244570333Y-71445476D01*
X244475095Y-71493095D01*
X245903666Y-71207380D02*
X245713190Y-71207380D01*
X245617952Y-71255000D01*
X245570333Y-71302619D01*
X245475095Y-71445476D01*
X245427476Y-71635952D01*
X245427476Y-72016904D01*
X245475095Y-72112142D01*
X245522714Y-72159761D01*
X245617952Y-72207380D01*
X245808428Y-72207380D01*
X245903666Y-72159761D01*
X245951285Y-72112142D01*
X245998904Y-72016904D01*
X245998904Y-71778809D01*
X245951285Y-71683571D01*
X245903666Y-71635952D01*
X245808428Y-71588333D01*
X245617952Y-71588333D01*
X245522714Y-71635952D01*
X245475095Y-71683571D01*
X245427476Y-71778809D01*
X245046523Y-74112380D02*
X244475095Y-74112380D01*
X244760809Y-74112380D02*
X244760809Y-73112380D01*
X244665571Y-73255238D01*
X244570333Y-73350476D01*
X244475095Y-73398095D01*
X245903666Y-73445714D02*
X245903666Y-74112380D01*
X245665571Y-73064761D02*
X245427476Y-73779047D01*
X246046523Y-73779047D01*
X245173523Y-76144380D02*
X244602095Y-76144380D01*
X244887809Y-76144380D02*
X244887809Y-75144380D01*
X244792571Y-75287238D01*
X244697333Y-75382476D01*
X244602095Y-75430095D01*
X245554476Y-75239619D02*
X245602095Y-75192000D01*
X245697333Y-75144380D01*
X245935428Y-75144380D01*
X246030666Y-75192000D01*
X246078285Y-75239619D01*
X246125904Y-75334857D01*
X246125904Y-75430095D01*
X246078285Y-75572952D01*
X245506857Y-76144380D01*
X246125904Y-76144380D01*
X245173523Y-78176380D02*
X244602095Y-78176380D01*
X244887809Y-78176380D02*
X244887809Y-77176380D01*
X244792571Y-77319238D01*
X244697333Y-77414476D01*
X244602095Y-77462095D01*
X245792571Y-77176380D02*
X245887809Y-77176380D01*
X245983047Y-77224000D01*
X246030666Y-77271619D01*
X246078285Y-77366857D01*
X246125904Y-77557333D01*
X246125904Y-77795428D01*
X246078285Y-77985904D01*
X246030666Y-78081142D01*
X245983047Y-78128761D01*
X245887809Y-78176380D01*
X245792571Y-78176380D01*
X245697333Y-78128761D01*
X245649714Y-78081142D01*
X245602095Y-77985904D01*
X245554476Y-77795428D01*
X245554476Y-77557333D01*
X245602095Y-77366857D01*
X245649714Y-77271619D01*
X245697333Y-77224000D01*
X245792571Y-77176380D01*
X245522761Y-79509952D02*
X245427523Y-79462333D01*
X245379904Y-79414714D01*
X245332285Y-79319476D01*
X245332285Y-79271857D01*
X245379904Y-79176619D01*
X245427523Y-79129000D01*
X245522761Y-79081380D01*
X245713238Y-79081380D01*
X245808476Y-79129000D01*
X245856095Y-79176619D01*
X245903714Y-79271857D01*
X245903714Y-79319476D01*
X245856095Y-79414714D01*
X245808476Y-79462333D01*
X245713238Y-79509952D01*
X245522761Y-79509952D01*
X245427523Y-79557571D01*
X245379904Y-79605190D01*
X245332285Y-79700428D01*
X245332285Y-79890904D01*
X245379904Y-79986142D01*
X245427523Y-80033761D01*
X245522761Y-80081380D01*
X245713238Y-80081380D01*
X245808476Y-80033761D01*
X245856095Y-79986142D01*
X245903714Y-79890904D01*
X245903714Y-79700428D01*
X245856095Y-79605190D01*
X245808476Y-79557571D01*
X245713238Y-79509952D01*
X245935476Y-81113380D02*
X245745000Y-81113380D01*
X245649761Y-81161000D01*
X245602142Y-81208619D01*
X245506904Y-81351476D01*
X245459285Y-81541952D01*
X245459285Y-81922904D01*
X245506904Y-82018142D01*
X245554523Y-82065761D01*
X245649761Y-82113380D01*
X245840238Y-82113380D01*
X245935476Y-82065761D01*
X245983095Y-82018142D01*
X246030714Y-81922904D01*
X246030714Y-81684809D01*
X245983095Y-81589571D01*
X245935476Y-81541952D01*
X245840238Y-81494333D01*
X245649761Y-81494333D01*
X245554523Y-81541952D01*
X245506904Y-81589571D01*
X245459285Y-81684809D01*
X245935476Y-83478714D02*
X245935476Y-84145380D01*
X245697380Y-83097761D02*
X245459285Y-83812047D01*
X246078333Y-83812047D01*
X245586285Y-85018619D02*
X245633904Y-84971000D01*
X245729142Y-84923380D01*
X245967238Y-84923380D01*
X246062476Y-84971000D01*
X246110095Y-85018619D01*
X246157714Y-85113857D01*
X246157714Y-85209095D01*
X246110095Y-85351952D01*
X245538666Y-85923380D01*
X246157714Y-85923380D01*
X253142714Y-87193380D02*
X252571285Y-87193380D01*
X252857000Y-87193380D02*
X252857000Y-86193380D01*
X252761761Y-86336238D01*
X252666523Y-86431476D01*
X252571285Y-86479095D01*
D10*
X236609000Y-137354571D02*
X237609000Y-137354571D01*
X236966142Y-138854571D01*
X239934714Y-137354571D02*
X239649000Y-137354571D01*
X239506142Y-137426000D01*
X239434714Y-137497428D01*
X239291857Y-137711714D01*
X239220428Y-137997428D01*
X239220428Y-138568857D01*
X239291857Y-138711714D01*
X239363285Y-138783142D01*
X239506142Y-138854571D01*
X239791857Y-138854571D01*
X239934714Y-138783142D01*
X240006142Y-138711714D01*
X240077571Y-138568857D01*
X240077571Y-138211714D01*
X240006142Y-138068857D01*
X239934714Y-137997428D01*
X239791857Y-137926000D01*
X239506142Y-137926000D01*
X239363285Y-137997428D01*
X239291857Y-138068857D01*
X239220428Y-138211714D01*
X242546142Y-137227571D02*
X241831857Y-137227571D01*
X241760428Y-137941857D01*
X241831857Y-137870428D01*
X241974714Y-137799000D01*
X242331857Y-137799000D01*
X242474714Y-137870428D01*
X242546142Y-137941857D01*
X242617571Y-138084714D01*
X242617571Y-138441857D01*
X242546142Y-138584714D01*
X242474714Y-138656142D01*
X242331857Y-138727571D01*
X241974714Y-138727571D01*
X241831857Y-138656142D01*
X241760428Y-138584714D01*
X245014714Y-137727571D02*
X245014714Y-138727571D01*
X244657571Y-137156142D02*
X244300428Y-138227571D01*
X245229000Y-138227571D01*
X246769000Y-137100571D02*
X247697571Y-137100571D01*
X247197571Y-137672000D01*
X247411857Y-137672000D01*
X247554714Y-137743428D01*
X247626142Y-137814857D01*
X247697571Y-137957714D01*
X247697571Y-138314857D01*
X247626142Y-138457714D01*
X247554714Y-138529142D01*
X247411857Y-138600571D01*
X246983285Y-138600571D01*
X246840428Y-138529142D01*
X246769000Y-138457714D01*
X249380428Y-137243428D02*
X249451857Y-137172000D01*
X249594714Y-137100571D01*
X249951857Y-137100571D01*
X250094714Y-137172000D01*
X250166142Y-137243428D01*
X250237571Y-137386285D01*
X250237571Y-137529142D01*
X250166142Y-137743428D01*
X249309000Y-138600571D01*
X250237571Y-138600571D01*
X236736000Y-118939571D02*
X237736000Y-118939571D01*
X237093142Y-120439571D01*
X239934714Y-118939571D02*
X239649000Y-118939571D01*
X239506142Y-119011000D01*
X239434714Y-119082428D01*
X239291857Y-119296714D01*
X239220428Y-119582428D01*
X239220428Y-120153857D01*
X239291857Y-120296714D01*
X239363285Y-120368142D01*
X239506142Y-120439571D01*
X239791857Y-120439571D01*
X239934714Y-120368142D01*
X240006142Y-120296714D01*
X240077571Y-120153857D01*
X240077571Y-119796714D01*
X240006142Y-119653857D01*
X239934714Y-119582428D01*
X239791857Y-119511000D01*
X239506142Y-119511000D01*
X239363285Y-119582428D01*
X239291857Y-119653857D01*
X239220428Y-119796714D01*
X242673142Y-118939571D02*
X241958857Y-118939571D01*
X241887428Y-119653857D01*
X241958857Y-119582428D01*
X242101714Y-119511000D01*
X242458857Y-119511000D01*
X242601714Y-119582428D01*
X242673142Y-119653857D01*
X242744571Y-119796714D01*
X242744571Y-120153857D01*
X242673142Y-120296714D01*
X242601714Y-120368142D01*
X242458857Y-120439571D01*
X242101714Y-120439571D01*
X241958857Y-120368142D01*
X241887428Y-120296714D01*
X245014714Y-119439571D02*
X245014714Y-120439571D01*
X244657571Y-118868142D02*
X244300428Y-119939571D01*
X245229000Y-119939571D01*
X246896000Y-118939571D02*
X247824571Y-118939571D01*
X247324571Y-119511000D01*
X247538857Y-119511000D01*
X247681714Y-119582428D01*
X247753142Y-119653857D01*
X247824571Y-119796714D01*
X247824571Y-120153857D01*
X247753142Y-120296714D01*
X247681714Y-120368142D01*
X247538857Y-120439571D01*
X247110285Y-120439571D01*
X246967428Y-120368142D01*
X246896000Y-120296714D01*
X249380428Y-118955428D02*
X249451857Y-118884000D01*
X249594714Y-118812571D01*
X249951857Y-118812571D01*
X250094714Y-118884000D01*
X250166142Y-118955428D01*
X250237571Y-119098285D01*
X250237571Y-119241142D01*
X250166142Y-119455428D01*
X249309000Y-120312571D01*
X250237571Y-120312571D01*
X199703428Y-121634285D02*
X199703428Y-120920000D01*
X198989142Y-120848571D01*
X199060571Y-120920000D01*
X199132000Y-121062857D01*
X199132000Y-121420000D01*
X199060571Y-121562857D01*
X198989142Y-121634285D01*
X198846285Y-121705714D01*
X198489142Y-121705714D01*
X198346285Y-121634285D01*
X198274857Y-121562857D01*
X198203428Y-121420000D01*
X198203428Y-121062857D01*
X198274857Y-120920000D01*
X198346285Y-120848571D01*
X199703428Y-122134285D02*
X198203428Y-122634285D01*
X199703428Y-123134285D01*
X202172000Y-121031142D02*
X202243428Y-120888285D01*
X202243428Y-120674000D01*
X202172000Y-120459714D01*
X202029142Y-120316857D01*
X201886285Y-120245428D01*
X201600571Y-120174000D01*
X201386285Y-120174000D01*
X201100571Y-120245428D01*
X200957714Y-120316857D01*
X200814857Y-120459714D01*
X200743428Y-120674000D01*
X200743428Y-120816857D01*
X200814857Y-121031142D01*
X200886285Y-121102571D01*
X201386285Y-121102571D01*
X201386285Y-120816857D01*
X200743428Y-121745428D02*
X202243428Y-121745428D01*
X200743428Y-122602571D01*
X202243428Y-122602571D01*
X200743428Y-123316857D02*
X202243428Y-123316857D01*
X202243428Y-123674000D01*
X202172000Y-123888285D01*
X202029142Y-124031142D01*
X201886285Y-124102571D01*
X201600571Y-124174000D01*
X201386285Y-124174000D01*
X201100571Y-124102571D01*
X200957714Y-124031142D01*
X200814857Y-123888285D01*
X200743428Y-123674000D01*
X200743428Y-123316857D01*
X203283428Y-121352571D02*
X203997714Y-120852571D01*
X203283428Y-120495428D02*
X204783428Y-120495428D01*
X204783428Y-121066857D01*
X204712000Y-121209714D01*
X204640571Y-121281142D01*
X204497714Y-121352571D01*
X204283428Y-121352571D01*
X204140571Y-121281142D01*
X204069142Y-121209714D01*
X203997714Y-121066857D01*
X203997714Y-120495428D01*
X203354857Y-121924000D02*
X203283428Y-122138285D01*
X203283428Y-122495428D01*
X203354857Y-122638285D01*
X203426285Y-122709714D01*
X203569142Y-122781142D01*
X203712000Y-122781142D01*
X203854857Y-122709714D01*
X203926285Y-122638285D01*
X203997714Y-122495428D01*
X204069142Y-122209714D01*
X204140571Y-122066857D01*
X204212000Y-121995428D01*
X204354857Y-121924000D01*
X204497714Y-121924000D01*
X204640571Y-121995428D01*
X204712000Y-122066857D01*
X204783428Y-122209714D01*
X204783428Y-122566857D01*
X204712000Y-122781142D01*
X204783428Y-123209714D02*
X204783428Y-124066857D01*
X203283428Y-123638285D02*
X204783428Y-123638285D01*
X179332142Y-116836000D02*
X180046428Y-116836000D01*
X179189285Y-117264571D02*
X179689285Y-115764571D01*
X180189285Y-117264571D01*
X181403571Y-117264571D02*
X180689285Y-117264571D01*
X180689285Y-115764571D01*
X181903571Y-116478857D02*
X182403571Y-116478857D01*
X182617857Y-117264571D02*
X181903571Y-117264571D01*
X181903571Y-115764571D01*
X182617857Y-115764571D01*
X184559000Y-131996571D02*
X184559000Y-130496571D01*
X185130428Y-130496571D01*
X185273285Y-130568000D01*
X185344714Y-130639428D01*
X185416142Y-130782285D01*
X185416142Y-130996571D01*
X185344714Y-131139428D01*
X185273285Y-131210857D01*
X185130428Y-131282285D01*
X184559000Y-131282285D01*
X185987571Y-131568000D02*
X186701857Y-131568000D01*
X185844714Y-131996571D02*
X186344714Y-130496571D01*
X186844714Y-131996571D01*
X187201857Y-130496571D02*
X188201857Y-130496571D01*
X187559000Y-131996571D01*
X184432000Y-129329571D02*
X184432000Y-127829571D01*
X185003428Y-127829571D01*
X185146285Y-127901000D01*
X185217714Y-127972428D01*
X185289142Y-128115285D01*
X185289142Y-128329571D01*
X185217714Y-128472428D01*
X185146285Y-128543857D01*
X185003428Y-128615285D01*
X184432000Y-128615285D01*
X185860571Y-128901000D02*
X186574857Y-128901000D01*
X185717714Y-129329571D02*
X186217714Y-127829571D01*
X186717714Y-129329571D01*
X187860571Y-127829571D02*
X187574857Y-127829571D01*
X187432000Y-127901000D01*
X187360571Y-127972428D01*
X187217714Y-128186714D01*
X187146285Y-128472428D01*
X187146285Y-129043857D01*
X187217714Y-129186714D01*
X187289142Y-129258142D01*
X187432000Y-129329571D01*
X187717714Y-129329571D01*
X187860571Y-129258142D01*
X187932000Y-129186714D01*
X188003428Y-129043857D01*
X188003428Y-128686714D01*
X187932000Y-128543857D01*
X187860571Y-128472428D01*
X187717714Y-128401000D01*
X187432000Y-128401000D01*
X187289142Y-128472428D01*
X187217714Y-128543857D01*
X187146285Y-128686714D01*
X184432000Y-126916571D02*
X184432000Y-125416571D01*
X185003428Y-125416571D01*
X185146285Y-125488000D01*
X185217714Y-125559428D01*
X185289142Y-125702285D01*
X185289142Y-125916571D01*
X185217714Y-126059428D01*
X185146285Y-126130857D01*
X185003428Y-126202285D01*
X184432000Y-126202285D01*
X185860571Y-126488000D02*
X186574857Y-126488000D01*
X185717714Y-126916571D02*
X186217714Y-125416571D01*
X186717714Y-126916571D01*
X187932000Y-125416571D02*
X187217714Y-125416571D01*
X187146285Y-126130857D01*
X187217714Y-126059428D01*
X187360571Y-125988000D01*
X187717714Y-125988000D01*
X187860571Y-126059428D01*
X187932000Y-126130857D01*
X188003428Y-126273714D01*
X188003428Y-126630857D01*
X187932000Y-126773714D01*
X187860571Y-126845142D01*
X187717714Y-126916571D01*
X187360571Y-126916571D01*
X187217714Y-126845142D01*
X187146285Y-126773714D01*
X184559000Y-124249571D02*
X184559000Y-122749571D01*
X185130428Y-122749571D01*
X185273285Y-122821000D01*
X185344714Y-122892428D01*
X185416142Y-123035285D01*
X185416142Y-123249571D01*
X185344714Y-123392428D01*
X185273285Y-123463857D01*
X185130428Y-123535285D01*
X184559000Y-123535285D01*
X185987571Y-123821000D02*
X186701857Y-123821000D01*
X185844714Y-124249571D02*
X186344714Y-122749571D01*
X186844714Y-124249571D01*
X187987571Y-123249571D02*
X187987571Y-124249571D01*
X187630428Y-122678142D02*
X187273285Y-123749571D01*
X188201857Y-123749571D01*
X218595000Y-132123571D02*
X218595000Y-130623571D01*
X219166428Y-130623571D01*
X219309285Y-130695000D01*
X219380714Y-130766428D01*
X219452142Y-130909285D01*
X219452142Y-131123571D01*
X219380714Y-131266428D01*
X219309285Y-131337857D01*
X219166428Y-131409285D01*
X218595000Y-131409285D01*
X220023571Y-131695000D02*
X220737857Y-131695000D01*
X219880714Y-132123571D02*
X220380714Y-130623571D01*
X220880714Y-132123571D01*
X221237857Y-130623571D02*
X222166428Y-130623571D01*
X221666428Y-131195000D01*
X221880714Y-131195000D01*
X222023571Y-131266428D01*
X222095000Y-131337857D01*
X222166428Y-131480714D01*
X222166428Y-131837857D01*
X222095000Y-131980714D01*
X222023571Y-132052142D01*
X221880714Y-132123571D01*
X221452142Y-132123571D01*
X221309285Y-132052142D01*
X221237857Y-131980714D01*
X218595000Y-129583571D02*
X218595000Y-128083571D01*
X219166428Y-128083571D01*
X219309285Y-128155000D01*
X219380714Y-128226428D01*
X219452142Y-128369285D01*
X219452142Y-128583571D01*
X219380714Y-128726428D01*
X219309285Y-128797857D01*
X219166428Y-128869285D01*
X218595000Y-128869285D01*
X220023571Y-129155000D02*
X220737857Y-129155000D01*
X219880714Y-129583571D02*
X220380714Y-128083571D01*
X220880714Y-129583571D01*
X221309285Y-128226428D02*
X221380714Y-128155000D01*
X221523571Y-128083571D01*
X221880714Y-128083571D01*
X222023571Y-128155000D01*
X222095000Y-128226428D01*
X222166428Y-128369285D01*
X222166428Y-128512142D01*
X222095000Y-128726428D01*
X221237857Y-129583571D01*
X222166428Y-129583571D01*
X218722000Y-127170571D02*
X218722000Y-125670571D01*
X219293428Y-125670571D01*
X219436285Y-125742000D01*
X219507714Y-125813428D01*
X219579142Y-125956285D01*
X219579142Y-126170571D01*
X219507714Y-126313428D01*
X219436285Y-126384857D01*
X219293428Y-126456285D01*
X218722000Y-126456285D01*
X220150571Y-126742000D02*
X220864857Y-126742000D01*
X220007714Y-127170571D02*
X220507714Y-125670571D01*
X221007714Y-127170571D01*
X222293428Y-127170571D02*
X221436285Y-127170571D01*
X221864857Y-127170571D02*
X221864857Y-125670571D01*
X221722000Y-125884857D01*
X221579142Y-126027714D01*
X221436285Y-126099142D01*
X218849000Y-124630571D02*
X218849000Y-123130571D01*
X219420428Y-123130571D01*
X219563285Y-123202000D01*
X219634714Y-123273428D01*
X219706142Y-123416285D01*
X219706142Y-123630571D01*
X219634714Y-123773428D01*
X219563285Y-123844857D01*
X219420428Y-123916285D01*
X218849000Y-123916285D01*
X220277571Y-124202000D02*
X220991857Y-124202000D01*
X220134714Y-124630571D02*
X220634714Y-123130571D01*
X221134714Y-124630571D01*
X221920428Y-123130571D02*
X222063285Y-123130571D01*
X222206142Y-123202000D01*
X222277571Y-123273428D01*
X222349000Y-123416285D01*
X222420428Y-123702000D01*
X222420428Y-124059142D01*
X222349000Y-124344857D01*
X222277571Y-124487714D01*
X222206142Y-124559142D01*
X222063285Y-124630571D01*
X221920428Y-124630571D01*
X221777571Y-124559142D01*
X221706142Y-124487714D01*
X221634714Y-124344857D01*
X221563285Y-124059142D01*
X221563285Y-123702000D01*
X221634714Y-123416285D01*
X221706142Y-123273428D01*
X221777571Y-123202000D01*
X221920428Y-123130571D01*
X222893000Y-105683857D02*
X222393000Y-105683857D01*
X222393000Y-106469571D02*
X222393000Y-104969571D01*
X223107285Y-104969571D01*
X224321571Y-104969571D02*
X224035857Y-104969571D01*
X223893000Y-105041000D01*
X223821571Y-105112428D01*
X223678714Y-105326714D01*
X223607285Y-105612428D01*
X223607285Y-106183857D01*
X223678714Y-106326714D01*
X223750142Y-106398142D01*
X223893000Y-106469571D01*
X224178714Y-106469571D01*
X224321571Y-106398142D01*
X224393000Y-106326714D01*
X224464428Y-106183857D01*
X224464428Y-105826714D01*
X224393000Y-105683857D01*
X224321571Y-105612428D01*
X224178714Y-105541000D01*
X223893000Y-105541000D01*
X223750142Y-105612428D01*
X223678714Y-105683857D01*
X223607285Y-105826714D01*
X222893000Y-103016857D02*
X222393000Y-103016857D01*
X222393000Y-103802571D02*
X222393000Y-102302571D01*
X223107285Y-102302571D01*
X224393000Y-102302571D02*
X223678714Y-102302571D01*
X223607285Y-103016857D01*
X223678714Y-102945428D01*
X223821571Y-102874000D01*
X224178714Y-102874000D01*
X224321571Y-102945428D01*
X224393000Y-103016857D01*
X224464428Y-103159714D01*
X224464428Y-103516857D01*
X224393000Y-103659714D01*
X224321571Y-103731142D01*
X224178714Y-103802571D01*
X223821571Y-103802571D01*
X223678714Y-103731142D01*
X223607285Y-103659714D01*
X222893000Y-100476857D02*
X222393000Y-100476857D01*
X222393000Y-101262571D02*
X222393000Y-99762571D01*
X223107285Y-99762571D01*
X224321571Y-100262571D02*
X224321571Y-101262571D01*
X223964428Y-99691142D02*
X223607285Y-100762571D01*
X224535857Y-100762571D01*
X223020000Y-95269857D02*
X222520000Y-95269857D01*
X222520000Y-96055571D02*
X222520000Y-94555571D01*
X223234285Y-94555571D01*
X223734285Y-94698428D02*
X223805714Y-94627000D01*
X223948571Y-94555571D01*
X224305714Y-94555571D01*
X224448571Y-94627000D01*
X224520000Y-94698428D01*
X224591428Y-94841285D01*
X224591428Y-94984142D01*
X224520000Y-95198428D01*
X223662857Y-96055571D01*
X224591428Y-96055571D01*
X223020000Y-92856857D02*
X222520000Y-92856857D01*
X222520000Y-93642571D02*
X222520000Y-92142571D01*
X223234285Y-92142571D01*
X224591428Y-93642571D02*
X223734285Y-93642571D01*
X224162857Y-93642571D02*
X224162857Y-92142571D01*
X224020000Y-92356857D01*
X223877142Y-92499714D01*
X223734285Y-92571142D01*
X223020000Y-90316857D02*
X222520000Y-90316857D01*
X222520000Y-91102571D02*
X222520000Y-89602571D01*
X223234285Y-89602571D01*
X224091428Y-89602571D02*
X224234285Y-89602571D01*
X224377142Y-89674000D01*
X224448571Y-89745428D01*
X224520000Y-89888285D01*
X224591428Y-90174000D01*
X224591428Y-90531142D01*
X224520000Y-90816857D01*
X224448571Y-90959714D01*
X224377142Y-91031142D01*
X224234285Y-91102571D01*
X224091428Y-91102571D01*
X223948571Y-91031142D01*
X223877142Y-90959714D01*
X223805714Y-90816857D01*
X223734285Y-90531142D01*
X223734285Y-90174000D01*
X223805714Y-89888285D01*
X223877142Y-89745428D01*
X223948571Y-89674000D01*
X224091428Y-89602571D01*
X222107428Y-88007000D02*
X222821714Y-88007000D01*
X221964571Y-88435571D02*
X222464571Y-86935571D01*
X222964571Y-88435571D01*
X224321714Y-88435571D02*
X223821714Y-87721285D01*
X223464571Y-88435571D02*
X223464571Y-86935571D01*
X224036000Y-86935571D01*
X224178857Y-87007000D01*
X224250285Y-87078428D01*
X224321714Y-87221285D01*
X224321714Y-87435571D01*
X224250285Y-87578428D01*
X224178857Y-87649857D01*
X224036000Y-87721285D01*
X223464571Y-87721285D01*
X224964571Y-87649857D02*
X225464571Y-87649857D01*
X225678857Y-88435571D02*
X224964571Y-88435571D01*
X224964571Y-86935571D01*
X225678857Y-86935571D01*
X226821714Y-87649857D02*
X226321714Y-87649857D01*
X226321714Y-88435571D02*
X226321714Y-86935571D01*
X227036000Y-86935571D01*
X222738285Y-82696857D02*
X223238285Y-82696857D01*
X223452571Y-83482571D02*
X222738285Y-83482571D01*
X222738285Y-81982571D01*
X223452571Y-81982571D01*
X224738285Y-81982571D02*
X224452571Y-81982571D01*
X224309714Y-82054000D01*
X224238285Y-82125428D01*
X224095428Y-82339714D01*
X224024000Y-82625428D01*
X224024000Y-83196857D01*
X224095428Y-83339714D01*
X224166857Y-83411142D01*
X224309714Y-83482571D01*
X224595428Y-83482571D01*
X224738285Y-83411142D01*
X224809714Y-83339714D01*
X224881142Y-83196857D01*
X224881142Y-82839714D01*
X224809714Y-82696857D01*
X224738285Y-82625428D01*
X224595428Y-82554000D01*
X224309714Y-82554000D01*
X224166857Y-82625428D01*
X224095428Y-82696857D01*
X224024000Y-82839714D01*
X222611285Y-80156857D02*
X223111285Y-80156857D01*
X223325571Y-80942571D02*
X222611285Y-80942571D01*
X222611285Y-79442571D01*
X223325571Y-79442571D01*
X223825571Y-79442571D02*
X224825571Y-79442571D01*
X224182714Y-80942571D01*
X223039857Y-77489857D02*
X223254142Y-77561285D01*
X223325571Y-77632714D01*
X223397000Y-77775571D01*
X223397000Y-77989857D01*
X223325571Y-78132714D01*
X223254142Y-78204142D01*
X223111285Y-78275571D01*
X222539857Y-78275571D01*
X222539857Y-76775571D01*
X223039857Y-76775571D01*
X223182714Y-76847000D01*
X223254142Y-76918428D01*
X223325571Y-77061285D01*
X223325571Y-77204142D01*
X223254142Y-77347000D01*
X223182714Y-77418428D01*
X223039857Y-77489857D01*
X222539857Y-77489857D01*
X224325571Y-76775571D02*
X224468428Y-76775571D01*
X224611285Y-76847000D01*
X224682714Y-76918428D01*
X224754142Y-77061285D01*
X224825571Y-77347000D01*
X224825571Y-77704142D01*
X224754142Y-77989857D01*
X224682714Y-78132714D01*
X224611285Y-78204142D01*
X224468428Y-78275571D01*
X224325571Y-78275571D01*
X224182714Y-78204142D01*
X224111285Y-78132714D01*
X224039857Y-77989857D01*
X223968428Y-77704142D01*
X223968428Y-77347000D01*
X224039857Y-77061285D01*
X224111285Y-76918428D01*
X224182714Y-76847000D01*
X224325571Y-76775571D01*
X223039857Y-75076857D02*
X223254142Y-75148285D01*
X223325571Y-75219714D01*
X223397000Y-75362571D01*
X223397000Y-75576857D01*
X223325571Y-75719714D01*
X223254142Y-75791142D01*
X223111285Y-75862571D01*
X222539857Y-75862571D01*
X222539857Y-74362571D01*
X223039857Y-74362571D01*
X223182714Y-74434000D01*
X223254142Y-74505428D01*
X223325571Y-74648285D01*
X223325571Y-74791142D01*
X223254142Y-74934000D01*
X223182714Y-75005428D01*
X223039857Y-75076857D01*
X222539857Y-75076857D01*
X224825571Y-75862571D02*
X223968428Y-75862571D01*
X224397000Y-75862571D02*
X224397000Y-74362571D01*
X224254142Y-74576857D01*
X224111285Y-74719714D01*
X223968428Y-74791142D01*
X222912857Y-69996857D02*
X223127142Y-70068285D01*
X223198571Y-70139714D01*
X223270000Y-70282571D01*
X223270000Y-70496857D01*
X223198571Y-70639714D01*
X223127142Y-70711142D01*
X222984285Y-70782571D01*
X222412857Y-70782571D01*
X222412857Y-69282571D01*
X222912857Y-69282571D01*
X223055714Y-69354000D01*
X223127142Y-69425428D01*
X223198571Y-69568285D01*
X223198571Y-69711142D01*
X223127142Y-69854000D01*
X223055714Y-69925428D01*
X222912857Y-69996857D01*
X222412857Y-69996857D01*
X223770000Y-69282571D02*
X224698571Y-69282571D01*
X224198571Y-69854000D01*
X224412857Y-69854000D01*
X224555714Y-69925428D01*
X224627142Y-69996857D01*
X224698571Y-70139714D01*
X224698571Y-70496857D01*
X224627142Y-70639714D01*
X224555714Y-70711142D01*
X224412857Y-70782571D01*
X223984285Y-70782571D01*
X223841428Y-70711142D01*
X223770000Y-70639714D01*
X222785857Y-67456857D02*
X223000142Y-67528285D01*
X223071571Y-67599714D01*
X223143000Y-67742571D01*
X223143000Y-67956857D01*
X223071571Y-68099714D01*
X223000142Y-68171142D01*
X222857285Y-68242571D01*
X222285857Y-68242571D01*
X222285857Y-66742571D01*
X222785857Y-66742571D01*
X222928714Y-66814000D01*
X223000142Y-66885428D01*
X223071571Y-67028285D01*
X223071571Y-67171142D01*
X223000142Y-67314000D01*
X222928714Y-67385428D01*
X222785857Y-67456857D01*
X222285857Y-67456857D01*
X224428714Y-67242571D02*
X224428714Y-68242571D01*
X224071571Y-66671142D02*
X223714428Y-67742571D01*
X224643000Y-67742571D01*
X222785857Y-64916857D02*
X223000142Y-64988285D01*
X223071571Y-65059714D01*
X223143000Y-65202571D01*
X223143000Y-65416857D01*
X223071571Y-65559714D01*
X223000142Y-65631142D01*
X222857285Y-65702571D01*
X222285857Y-65702571D01*
X222285857Y-64202571D01*
X222785857Y-64202571D01*
X222928714Y-64274000D01*
X223000142Y-64345428D01*
X223071571Y-64488285D01*
X223071571Y-64631142D01*
X223000142Y-64774000D01*
X222928714Y-64845428D01*
X222785857Y-64916857D01*
X222285857Y-64916857D01*
X224500142Y-64202571D02*
X223785857Y-64202571D01*
X223714428Y-64916857D01*
X223785857Y-64845428D01*
X223928714Y-64774000D01*
X224285857Y-64774000D01*
X224428714Y-64845428D01*
X224500142Y-64916857D01*
X224571571Y-65059714D01*
X224571571Y-65416857D01*
X224500142Y-65559714D01*
X224428714Y-65631142D01*
X224285857Y-65702571D01*
X223928714Y-65702571D01*
X223785857Y-65631142D01*
X223714428Y-65559714D01*
X222785857Y-62376857D02*
X223000142Y-62448285D01*
X223071571Y-62519714D01*
X223143000Y-62662571D01*
X223143000Y-62876857D01*
X223071571Y-63019714D01*
X223000142Y-63091142D01*
X222857285Y-63162571D01*
X222285857Y-63162571D01*
X222285857Y-61662571D01*
X222785857Y-61662571D01*
X222928714Y-61734000D01*
X223000142Y-61805428D01*
X223071571Y-61948285D01*
X223071571Y-62091142D01*
X223000142Y-62234000D01*
X222928714Y-62305428D01*
X222785857Y-62376857D01*
X222285857Y-62376857D01*
X224428714Y-61662571D02*
X224143000Y-61662571D01*
X224000142Y-61734000D01*
X223928714Y-61805428D01*
X223785857Y-62019714D01*
X223714428Y-62305428D01*
X223714428Y-62876857D01*
X223785857Y-63019714D01*
X223857285Y-63091142D01*
X224000142Y-63162571D01*
X224285857Y-63162571D01*
X224428714Y-63091142D01*
X224500142Y-63019714D01*
X224571571Y-62876857D01*
X224571571Y-62519714D01*
X224500142Y-62376857D01*
X224428714Y-62305428D01*
X224285857Y-62234000D01*
X224000142Y-62234000D01*
X223857285Y-62305428D01*
X223785857Y-62376857D01*
X223714428Y-62519714D01*
X180875857Y-62376857D02*
X181090142Y-62448285D01*
X181161571Y-62519714D01*
X181233000Y-62662571D01*
X181233000Y-62876857D01*
X181161571Y-63019714D01*
X181090142Y-63091142D01*
X180947285Y-63162571D01*
X180375857Y-63162571D01*
X180375857Y-61662571D01*
X180875857Y-61662571D01*
X181018714Y-61734000D01*
X181090142Y-61805428D01*
X181161571Y-61948285D01*
X181161571Y-62091142D01*
X181090142Y-62234000D01*
X181018714Y-62305428D01*
X180875857Y-62376857D01*
X180375857Y-62376857D01*
X181733000Y-61662571D02*
X182733000Y-61662571D01*
X182090142Y-63162571D01*
X180375857Y-65702571D02*
X180375857Y-64202571D01*
X180733000Y-64202571D01*
X180947285Y-64274000D01*
X181090142Y-64416857D01*
X181161571Y-64559714D01*
X181233000Y-64845428D01*
X181233000Y-65059714D01*
X181161571Y-65345428D01*
X181090142Y-65488285D01*
X180947285Y-65631142D01*
X180733000Y-65702571D01*
X180375857Y-65702571D01*
X182161571Y-64202571D02*
X182304428Y-64202571D01*
X182447285Y-64274000D01*
X182518714Y-64345428D01*
X182590142Y-64488285D01*
X182661571Y-64774000D01*
X182661571Y-65131142D01*
X182590142Y-65416857D01*
X182518714Y-65559714D01*
X182447285Y-65631142D01*
X182304428Y-65702571D01*
X182161571Y-65702571D01*
X182018714Y-65631142D01*
X181947285Y-65559714D01*
X181875857Y-65416857D01*
X181804428Y-65131142D01*
X181804428Y-64774000D01*
X181875857Y-64488285D01*
X181947285Y-64345428D01*
X182018714Y-64274000D01*
X182161571Y-64202571D01*
X180502857Y-68242571D02*
X180502857Y-66742571D01*
X180860000Y-66742571D01*
X181074285Y-66814000D01*
X181217142Y-66956857D01*
X181288571Y-67099714D01*
X181360000Y-67385428D01*
X181360000Y-67599714D01*
X181288571Y-67885428D01*
X181217142Y-68028285D01*
X181074285Y-68171142D01*
X180860000Y-68242571D01*
X180502857Y-68242571D01*
X182788571Y-68242571D02*
X181931428Y-68242571D01*
X182360000Y-68242571D02*
X182360000Y-66742571D01*
X182217142Y-66956857D01*
X182074285Y-67099714D01*
X181931428Y-67171142D01*
X180375857Y-70782571D02*
X180375857Y-69282571D01*
X180733000Y-69282571D01*
X180947285Y-69354000D01*
X181090142Y-69496857D01*
X181161571Y-69639714D01*
X181233000Y-69925428D01*
X181233000Y-70139714D01*
X181161571Y-70425428D01*
X181090142Y-70568285D01*
X180947285Y-70711142D01*
X180733000Y-70782571D01*
X180375857Y-70782571D01*
X181804428Y-69425428D02*
X181875857Y-69354000D01*
X182018714Y-69282571D01*
X182375857Y-69282571D01*
X182518714Y-69354000D01*
X182590142Y-69425428D01*
X182661571Y-69568285D01*
X182661571Y-69711142D01*
X182590142Y-69925428D01*
X181733000Y-70782571D01*
X182661571Y-70782571D01*
X180248857Y-75862571D02*
X180248857Y-74362571D01*
X180606000Y-74362571D01*
X180820285Y-74434000D01*
X180963142Y-74576857D01*
X181034571Y-74719714D01*
X181106000Y-75005428D01*
X181106000Y-75219714D01*
X181034571Y-75505428D01*
X180963142Y-75648285D01*
X180820285Y-75791142D01*
X180606000Y-75862571D01*
X180248857Y-75862571D01*
X182391714Y-74862571D02*
X182391714Y-75862571D01*
X182034571Y-74291142D02*
X181677428Y-75362571D01*
X182606000Y-75362571D01*
X180375857Y-78402571D02*
X180375857Y-76902571D01*
X180733000Y-76902571D01*
X180947285Y-76974000D01*
X181090142Y-77116857D01*
X181161571Y-77259714D01*
X181233000Y-77545428D01*
X181233000Y-77759714D01*
X181161571Y-78045428D01*
X181090142Y-78188285D01*
X180947285Y-78331142D01*
X180733000Y-78402571D01*
X180375857Y-78402571D01*
X182590142Y-76902571D02*
X181875857Y-76902571D01*
X181804428Y-77616857D01*
X181875857Y-77545428D01*
X182018714Y-77474000D01*
X182375857Y-77474000D01*
X182518714Y-77545428D01*
X182590142Y-77616857D01*
X182661571Y-77759714D01*
X182661571Y-78116857D01*
X182590142Y-78259714D01*
X182518714Y-78331142D01*
X182375857Y-78402571D01*
X182018714Y-78402571D01*
X181875857Y-78331142D01*
X181804428Y-78259714D01*
X180375857Y-80942571D02*
X180375857Y-79442571D01*
X180733000Y-79442571D01*
X180947285Y-79514000D01*
X181090142Y-79656857D01*
X181161571Y-79799714D01*
X181233000Y-80085428D01*
X181233000Y-80299714D01*
X181161571Y-80585428D01*
X181090142Y-80728285D01*
X180947285Y-80871142D01*
X180733000Y-80942571D01*
X180375857Y-80942571D01*
X182518714Y-79442571D02*
X182233000Y-79442571D01*
X182090142Y-79514000D01*
X182018714Y-79585428D01*
X181875857Y-79799714D01*
X181804428Y-80085428D01*
X181804428Y-80656857D01*
X181875857Y-80799714D01*
X181947285Y-80871142D01*
X182090142Y-80942571D01*
X182375857Y-80942571D01*
X182518714Y-80871142D01*
X182590142Y-80799714D01*
X182661571Y-80656857D01*
X182661571Y-80299714D01*
X182590142Y-80156857D01*
X182518714Y-80085428D01*
X182375857Y-80014000D01*
X182090142Y-80014000D01*
X181947285Y-80085428D01*
X181875857Y-80156857D01*
X181804428Y-80299714D01*
X180375857Y-83482571D02*
X180375857Y-81982571D01*
X180733000Y-81982571D01*
X180947285Y-82054000D01*
X181090142Y-82196857D01*
X181161571Y-82339714D01*
X181233000Y-82625428D01*
X181233000Y-82839714D01*
X181161571Y-83125428D01*
X181090142Y-83268285D01*
X180947285Y-83411142D01*
X180733000Y-83482571D01*
X180375857Y-83482571D01*
X181733000Y-81982571D02*
X182733000Y-81982571D01*
X182090142Y-83482571D01*
X180447285Y-87776857D02*
X180947285Y-87776857D01*
X181161571Y-88562571D02*
X180447285Y-88562571D01*
X180447285Y-87062571D01*
X181161571Y-87062571D01*
X182590142Y-88562571D02*
X181733000Y-88562571D01*
X182161571Y-88562571D02*
X182161571Y-87062571D01*
X182018714Y-87276857D01*
X181875857Y-87419714D01*
X181733000Y-87491142D01*
X181106000Y-90959714D02*
X181034571Y-91031142D01*
X180820285Y-91102571D01*
X180677428Y-91102571D01*
X180463142Y-91031142D01*
X180320285Y-90888285D01*
X180248857Y-90745428D01*
X180177428Y-90459714D01*
X180177428Y-90245428D01*
X180248857Y-89959714D01*
X180320285Y-89816857D01*
X180463142Y-89674000D01*
X180677428Y-89602571D01*
X180820285Y-89602571D01*
X181034571Y-89674000D01*
X181106000Y-89745428D01*
X182034571Y-89602571D02*
X182177428Y-89602571D01*
X182320285Y-89674000D01*
X182391714Y-89745428D01*
X182463142Y-89888285D01*
X182534571Y-90174000D01*
X182534571Y-90531142D01*
X182463142Y-90816857D01*
X182391714Y-90959714D01*
X182320285Y-91031142D01*
X182177428Y-91102571D01*
X182034571Y-91102571D01*
X181891714Y-91031142D01*
X181820285Y-90959714D01*
X181748857Y-90816857D01*
X181677428Y-90531142D01*
X181677428Y-90174000D01*
X181748857Y-89888285D01*
X181820285Y-89745428D01*
X181891714Y-89674000D01*
X182034571Y-89602571D01*
X181233000Y-93499714D02*
X181161571Y-93571142D01*
X180947285Y-93642571D01*
X180804428Y-93642571D01*
X180590142Y-93571142D01*
X180447285Y-93428285D01*
X180375857Y-93285428D01*
X180304428Y-92999714D01*
X180304428Y-92785428D01*
X180375857Y-92499714D01*
X180447285Y-92356857D01*
X180590142Y-92214000D01*
X180804428Y-92142571D01*
X180947285Y-92142571D01*
X181161571Y-92214000D01*
X181233000Y-92285428D01*
X182661571Y-93642571D02*
X181804428Y-93642571D01*
X182233000Y-93642571D02*
X182233000Y-92142571D01*
X182090142Y-92356857D01*
X181947285Y-92499714D01*
X181804428Y-92571142D01*
X181106000Y-96039714D02*
X181034571Y-96111142D01*
X180820285Y-96182571D01*
X180677428Y-96182571D01*
X180463142Y-96111142D01*
X180320285Y-95968285D01*
X180248857Y-95825428D01*
X180177428Y-95539714D01*
X180177428Y-95325428D01*
X180248857Y-95039714D01*
X180320285Y-94896857D01*
X180463142Y-94754000D01*
X180677428Y-94682571D01*
X180820285Y-94682571D01*
X181034571Y-94754000D01*
X181106000Y-94825428D01*
X181677428Y-94825428D02*
X181748857Y-94754000D01*
X181891714Y-94682571D01*
X182248857Y-94682571D01*
X182391714Y-94754000D01*
X182463142Y-94825428D01*
X182534571Y-94968285D01*
X182534571Y-95111142D01*
X182463142Y-95325428D01*
X181606000Y-96182571D01*
X182534571Y-96182571D01*
X180979000Y-101119714D02*
X180907571Y-101191142D01*
X180693285Y-101262571D01*
X180550428Y-101262571D01*
X180336142Y-101191142D01*
X180193285Y-101048285D01*
X180121857Y-100905428D01*
X180050428Y-100619714D01*
X180050428Y-100405428D01*
X180121857Y-100119714D01*
X180193285Y-99976857D01*
X180336142Y-99834000D01*
X180550428Y-99762571D01*
X180693285Y-99762571D01*
X180907571Y-99834000D01*
X180979000Y-99905428D01*
X182264714Y-100262571D02*
X182264714Y-101262571D01*
X181907571Y-99691142D02*
X181550428Y-100762571D01*
X182479000Y-100762571D01*
X181233000Y-103659714D02*
X181161571Y-103731142D01*
X180947285Y-103802571D01*
X180804428Y-103802571D01*
X180590142Y-103731142D01*
X180447285Y-103588285D01*
X180375857Y-103445428D01*
X180304428Y-103159714D01*
X180304428Y-102945428D01*
X180375857Y-102659714D01*
X180447285Y-102516857D01*
X180590142Y-102374000D01*
X180804428Y-102302571D01*
X180947285Y-102302571D01*
X181161571Y-102374000D01*
X181233000Y-102445428D01*
X182590142Y-102302571D02*
X181875857Y-102302571D01*
X181804428Y-103016857D01*
X181875857Y-102945428D01*
X182018714Y-102874000D01*
X182375857Y-102874000D01*
X182518714Y-102945428D01*
X182590142Y-103016857D01*
X182661571Y-103159714D01*
X182661571Y-103516857D01*
X182590142Y-103659714D01*
X182518714Y-103731142D01*
X182375857Y-103802571D01*
X182018714Y-103802571D01*
X181875857Y-103731142D01*
X181804428Y-103659714D01*
X181106000Y-106199714D02*
X181034571Y-106271142D01*
X180820285Y-106342571D01*
X180677428Y-106342571D01*
X180463142Y-106271142D01*
X180320285Y-106128285D01*
X180248857Y-105985428D01*
X180177428Y-105699714D01*
X180177428Y-105485428D01*
X180248857Y-105199714D01*
X180320285Y-105056857D01*
X180463142Y-104914000D01*
X180677428Y-104842571D01*
X180820285Y-104842571D01*
X181034571Y-104914000D01*
X181106000Y-104985428D01*
X182391714Y-104842571D02*
X182106000Y-104842571D01*
X181963142Y-104914000D01*
X181891714Y-104985428D01*
X181748857Y-105199714D01*
X181677428Y-105485428D01*
X181677428Y-106056857D01*
X181748857Y-106199714D01*
X181820285Y-106271142D01*
X181963142Y-106342571D01*
X182248857Y-106342571D01*
X182391714Y-106271142D01*
X182463142Y-106199714D01*
X182534571Y-106056857D01*
X182534571Y-105699714D01*
X182463142Y-105556857D01*
X182391714Y-105485428D01*
X182248857Y-105414000D01*
X181963142Y-105414000D01*
X181820285Y-105485428D01*
X181748857Y-105556857D01*
X181677428Y-105699714D01*
X181233000Y-108739714D02*
X181161571Y-108811142D01*
X180947285Y-108882571D01*
X180804428Y-108882571D01*
X180590142Y-108811142D01*
X180447285Y-108668285D01*
X180375857Y-108525428D01*
X180304428Y-108239714D01*
X180304428Y-108025428D01*
X180375857Y-107739714D01*
X180447285Y-107596857D01*
X180590142Y-107454000D01*
X180804428Y-107382571D01*
X180947285Y-107382571D01*
X181161571Y-107454000D01*
X181233000Y-107525428D01*
X181733000Y-107382571D02*
X182733000Y-107382571D01*
X182090142Y-108882571D01*
X180979000Y-98579714D02*
X180907571Y-98651142D01*
X180693285Y-98722571D01*
X180550428Y-98722571D01*
X180336142Y-98651142D01*
X180193285Y-98508285D01*
X180121857Y-98365428D01*
X180050428Y-98079714D01*
X180050428Y-97865428D01*
X180121857Y-97579714D01*
X180193285Y-97436857D01*
X180336142Y-97294000D01*
X180550428Y-97222571D01*
X180693285Y-97222571D01*
X180907571Y-97294000D01*
X180979000Y-97365428D01*
X181479000Y-97222571D02*
X182407571Y-97222571D01*
X181907571Y-97794000D01*
X182121857Y-97794000D01*
X182264714Y-97865428D01*
X182336142Y-97936857D01*
X182407571Y-98079714D01*
X182407571Y-98436857D01*
X182336142Y-98579714D01*
X182264714Y-98651142D01*
X182121857Y-98722571D01*
X181693285Y-98722571D01*
X181550428Y-98651142D01*
X181479000Y-98579714D01*
X180320285Y-85236857D02*
X180820285Y-85236857D01*
X181034571Y-86022571D02*
X180320285Y-86022571D01*
X180320285Y-84522571D01*
X181034571Y-84522571D01*
X181963142Y-84522571D02*
X182106000Y-84522571D01*
X182248857Y-84594000D01*
X182320285Y-84665428D01*
X182391714Y-84808285D01*
X182463142Y-85094000D01*
X182463142Y-85451142D01*
X182391714Y-85736857D01*
X182320285Y-85879714D01*
X182248857Y-85951142D01*
X182106000Y-86022571D01*
X181963142Y-86022571D01*
X181820285Y-85951142D01*
X181748857Y-85879714D01*
X181677428Y-85736857D01*
X181606000Y-85451142D01*
X181606000Y-85094000D01*
X181677428Y-84808285D01*
X181748857Y-84665428D01*
X181820285Y-84594000D01*
X181963142Y-84522571D01*
X180375857Y-73322571D02*
X180375857Y-71822571D01*
X180733000Y-71822571D01*
X180947285Y-71894000D01*
X181090142Y-72036857D01*
X181161571Y-72179714D01*
X181233000Y-72465428D01*
X181233000Y-72679714D01*
X181161571Y-72965428D01*
X181090142Y-73108285D01*
X180947285Y-73251142D01*
X180733000Y-73322571D01*
X180375857Y-73322571D01*
X181733000Y-71822571D02*
X182661571Y-71822571D01*
X182161571Y-72394000D01*
X182375857Y-72394000D01*
X182518714Y-72465428D01*
X182590142Y-72536857D01*
X182661571Y-72679714D01*
X182661571Y-73036857D01*
X182590142Y-73179714D01*
X182518714Y-73251142D01*
X182375857Y-73322571D01*
X181947285Y-73322571D01*
X181804428Y-73251142D01*
X181733000Y-73179714D01*
X179578142Y-59194000D02*
X179435285Y-59122571D01*
X179221000Y-59122571D01*
X179006714Y-59194000D01*
X178863857Y-59336857D01*
X178792428Y-59479714D01*
X178721000Y-59765428D01*
X178721000Y-59979714D01*
X178792428Y-60265428D01*
X178863857Y-60408285D01*
X179006714Y-60551142D01*
X179221000Y-60622571D01*
X179363857Y-60622571D01*
X179578142Y-60551142D01*
X179649571Y-60479714D01*
X179649571Y-59979714D01*
X179363857Y-59979714D01*
X180292428Y-60622571D02*
X180292428Y-59122571D01*
X181149571Y-60622571D01*
X181149571Y-59122571D01*
X181863857Y-60622571D02*
X181863857Y-59122571D01*
X182221000Y-59122571D01*
X182435285Y-59194000D01*
X182578142Y-59336857D01*
X182649571Y-59479714D01*
X182721000Y-59765428D01*
X182721000Y-59979714D01*
X182649571Y-60265428D01*
X182578142Y-60408285D01*
X182435285Y-60551142D01*
X182221000Y-60622571D01*
X181863857Y-60622571D01*
X222766000Y-108350857D02*
X222266000Y-108350857D01*
X222266000Y-109136571D02*
X222266000Y-107636571D01*
X222980285Y-107636571D01*
X223408857Y-107636571D02*
X224408857Y-107636571D01*
X223766000Y-109136571D01*
X223020000Y-97936857D02*
X222520000Y-97936857D01*
X222520000Y-98722571D02*
X222520000Y-97222571D01*
X223234285Y-97222571D01*
X223662857Y-97222571D02*
X224591428Y-97222571D01*
X224091428Y-97794000D01*
X224305714Y-97794000D01*
X224448571Y-97865428D01*
X224520000Y-97936857D01*
X224591428Y-98079714D01*
X224591428Y-98436857D01*
X224520000Y-98579714D01*
X224448571Y-98651142D01*
X224305714Y-98722571D01*
X223877142Y-98722571D01*
X223734285Y-98651142D01*
X223662857Y-98579714D01*
X222758142Y-84721000D02*
X222615285Y-84649571D01*
X222401000Y-84649571D01*
X222186714Y-84721000D01*
X222043857Y-84863857D01*
X221972428Y-85006714D01*
X221901000Y-85292428D01*
X221901000Y-85506714D01*
X221972428Y-85792428D01*
X222043857Y-85935285D01*
X222186714Y-86078142D01*
X222401000Y-86149571D01*
X222543857Y-86149571D01*
X222758142Y-86078142D01*
X222829571Y-86006714D01*
X222829571Y-85506714D01*
X222543857Y-85506714D01*
X223472428Y-86149571D02*
X223472428Y-84649571D01*
X224329571Y-86149571D01*
X224329571Y-84649571D01*
X225043857Y-86149571D02*
X225043857Y-84649571D01*
X225401000Y-84649571D01*
X225615285Y-84721000D01*
X225758142Y-84863857D01*
X225829571Y-85006714D01*
X225901000Y-85292428D01*
X225901000Y-85506714D01*
X225829571Y-85792428D01*
X225758142Y-85935285D01*
X225615285Y-86078142D01*
X225401000Y-86149571D01*
X225043857Y-86149571D01*
X222912857Y-72536857D02*
X223127142Y-72608285D01*
X223198571Y-72679714D01*
X223270000Y-72822571D01*
X223270000Y-73036857D01*
X223198571Y-73179714D01*
X223127142Y-73251142D01*
X222984285Y-73322571D01*
X222412857Y-73322571D01*
X222412857Y-71822571D01*
X222912857Y-71822571D01*
X223055714Y-71894000D01*
X223127142Y-71965428D01*
X223198571Y-72108285D01*
X223198571Y-72251142D01*
X223127142Y-72394000D01*
X223055714Y-72465428D01*
X222912857Y-72536857D01*
X222412857Y-72536857D01*
X223841428Y-71965428D02*
X223912857Y-71894000D01*
X224055714Y-71822571D01*
X224412857Y-71822571D01*
X224555714Y-71894000D01*
X224627142Y-71965428D01*
X224698571Y-72108285D01*
X224698571Y-72251142D01*
X224627142Y-72465428D01*
X223770000Y-73322571D01*
X224698571Y-73322571D01*
X222980285Y-59122571D02*
X222266000Y-59122571D01*
X222194571Y-59836857D01*
X222266000Y-59765428D01*
X222408857Y-59694000D01*
X222766000Y-59694000D01*
X222908857Y-59765428D01*
X222980285Y-59836857D01*
X223051714Y-59979714D01*
X223051714Y-60336857D01*
X222980285Y-60479714D01*
X222908857Y-60551142D01*
X222766000Y-60622571D01*
X222408857Y-60622571D01*
X222266000Y-60551142D01*
X222194571Y-60479714D01*
X223480285Y-59122571D02*
X223980285Y-60622571D01*
X224480285Y-59122571D01*
X188941428Y-146958857D02*
X189155714Y-147030285D01*
X189227142Y-147101714D01*
X189298571Y-147244571D01*
X189298571Y-147458857D01*
X189227142Y-147601714D01*
X189155714Y-147673142D01*
X189012857Y-147744571D01*
X188441428Y-147744571D01*
X188441428Y-146244571D01*
X188941428Y-146244571D01*
X189084285Y-146316000D01*
X189155714Y-146387428D01*
X189227142Y-146530285D01*
X189227142Y-146673142D01*
X189155714Y-146816000D01*
X189084285Y-146887428D01*
X188941428Y-146958857D01*
X188441428Y-146958857D01*
X190227142Y-147030285D02*
X190227142Y-147744571D01*
X189727142Y-146244571D02*
X190227142Y-147030285D01*
X190727142Y-146244571D01*
X191227142Y-147601714D02*
X191298571Y-147673142D01*
X191227142Y-147744571D01*
X191155714Y-147673142D01*
X191227142Y-147601714D01*
X191227142Y-147744571D01*
X191227142Y-146816000D02*
X191298571Y-146887428D01*
X191227142Y-146958857D01*
X191155714Y-146887428D01*
X191227142Y-146816000D01*
X191227142Y-146958857D01*
X193512857Y-146244571D02*
X193512857Y-147316000D01*
X193441428Y-147530285D01*
X193298571Y-147673142D01*
X193084285Y-147744571D01*
X192941428Y-147744571D01*
X194441428Y-147744571D02*
X194298571Y-147673142D01*
X194227142Y-147601714D01*
X194155714Y-147458857D01*
X194155714Y-147030285D01*
X194227142Y-146887428D01*
X194298571Y-146816000D01*
X194441428Y-146744571D01*
X194655714Y-146744571D01*
X194798571Y-146816000D01*
X194870000Y-146887428D01*
X194941428Y-147030285D01*
X194941428Y-147458857D01*
X194870000Y-147601714D01*
X194798571Y-147673142D01*
X194655714Y-147744571D01*
X194441428Y-147744571D01*
X195584285Y-146744571D02*
X195584285Y-147744571D01*
X195584285Y-146887428D02*
X195655714Y-146816000D01*
X195798571Y-146744571D01*
X196012857Y-146744571D01*
X196155714Y-146816000D01*
X196227142Y-146958857D01*
X196227142Y-147744571D01*
X197584285Y-147744571D02*
X197584285Y-146958857D01*
X197512857Y-146816000D01*
X197370000Y-146744571D01*
X197084285Y-146744571D01*
X196941428Y-146816000D01*
X197584285Y-147673142D02*
X197441428Y-147744571D01*
X197084285Y-147744571D01*
X196941428Y-147673142D01*
X196870000Y-147530285D01*
X196870000Y-147387428D01*
X196941428Y-147244571D01*
X197084285Y-147173142D01*
X197441428Y-147173142D01*
X197584285Y-147101714D01*
X198084285Y-146744571D02*
X198655714Y-146744571D01*
X198298571Y-146244571D02*
X198298571Y-147530285D01*
X198370000Y-147673142D01*
X198512857Y-147744571D01*
X198655714Y-147744571D01*
X199155714Y-147744571D02*
X199155714Y-146244571D01*
X199798571Y-147744571D02*
X199798571Y-146958857D01*
X199727142Y-146816000D01*
X199584285Y-146744571D01*
X199369999Y-146744571D01*
X199227142Y-146816000D01*
X199155714Y-146887428D01*
X201155714Y-147744571D02*
X201155714Y-146958857D01*
X201084285Y-146816000D01*
X200941428Y-146744571D01*
X200655714Y-146744571D01*
X200512857Y-146816000D01*
X201155714Y-147673142D02*
X201012857Y-147744571D01*
X200655714Y-147744571D01*
X200512857Y-147673142D01*
X200441428Y-147530285D01*
X200441428Y-147387428D01*
X200512857Y-147244571D01*
X200655714Y-147173142D01*
X201012857Y-147173142D01*
X201155714Y-147101714D01*
X201869999Y-146744571D02*
X201869999Y-147744571D01*
X201869999Y-146887428D02*
X201941428Y-146816000D01*
X202084285Y-146744571D01*
X202298571Y-146744571D01*
X202441428Y-146816000D01*
X202512857Y-146958857D01*
X202512857Y-147744571D01*
X205084285Y-147744571D02*
X204369999Y-147744571D01*
X204369999Y-146244571D01*
X205798571Y-147744571D02*
X205655714Y-147673142D01*
X205584285Y-147601714D01*
X205512857Y-147458857D01*
X205512857Y-147030285D01*
X205584285Y-146887428D01*
X205655714Y-146816000D01*
X205798571Y-146744571D01*
X206012857Y-146744571D01*
X206155714Y-146816000D01*
X206227142Y-146887428D01*
X206298571Y-147030285D01*
X206298571Y-147458857D01*
X206227142Y-147601714D01*
X206155714Y-147673142D01*
X206012857Y-147744571D01*
X205798571Y-147744571D01*
X206798571Y-146744571D02*
X207084285Y-147744571D01*
X207369999Y-147030285D01*
X207655714Y-147744571D01*
X207941428Y-146744571D01*
X188029571Y-143323571D02*
X188886714Y-143323571D01*
X188458142Y-144823571D02*
X188458142Y-143323571D01*
X189386714Y-144823571D02*
X189386714Y-143323571D01*
X189958142Y-143323571D01*
X190100999Y-143395000D01*
X190172428Y-143466428D01*
X190243857Y-143609285D01*
X190243857Y-143823571D01*
X190172428Y-143966428D01*
X190100999Y-144037857D01*
X189958142Y-144109285D01*
X189386714Y-144109285D01*
X190886714Y-144252142D02*
X192029571Y-144252142D01*
X192743857Y-144823571D02*
X192743857Y-143323571D01*
X193600999Y-144823571D02*
X192958142Y-143966428D01*
X193600999Y-143323571D02*
X192743857Y-144180714D01*
X194815285Y-144752142D02*
X194672428Y-144823571D01*
X194386714Y-144823571D01*
X194243857Y-144752142D01*
X194172428Y-144609285D01*
X194172428Y-144037857D01*
X194243857Y-143895000D01*
X194386714Y-143823571D01*
X194672428Y-143823571D01*
X194815285Y-143895000D01*
X194886714Y-144037857D01*
X194886714Y-144180714D01*
X194172428Y-144323571D01*
X195386714Y-143823571D02*
X195743857Y-144823571D01*
X196100999Y-143823571D02*
X195743857Y-144823571D01*
X195600999Y-145180714D01*
X195529571Y-145252142D01*
X195386714Y-145323571D01*
X196672428Y-144823571D02*
X196672428Y-143323571D01*
X196672428Y-143895000D02*
X196815285Y-143823571D01*
X197100999Y-143823571D01*
X197243857Y-143895000D01*
X197315285Y-143966428D01*
X197386714Y-144109285D01*
X197386714Y-144537857D01*
X197315285Y-144680714D01*
X197243857Y-144752142D01*
X197100999Y-144823571D01*
X196815285Y-144823571D01*
X196672428Y-144752142D01*
X198243857Y-144823571D02*
X198100999Y-144752142D01*
X198029571Y-144680714D01*
X197958142Y-144537857D01*
X197958142Y-144109285D01*
X198029571Y-143966428D01*
X198100999Y-143895000D01*
X198243857Y-143823571D01*
X198458142Y-143823571D01*
X198600999Y-143895000D01*
X198672428Y-143966428D01*
X198743857Y-144109285D01*
X198743857Y-144537857D01*
X198672428Y-144680714D01*
X198600999Y-144752142D01*
X198458142Y-144823571D01*
X198243857Y-144823571D01*
X200029571Y-144823571D02*
X200029571Y-144037857D01*
X199958142Y-143895000D01*
X199815285Y-143823571D01*
X199529571Y-143823571D01*
X199386714Y-143895000D01*
X200029571Y-144752142D02*
X199886714Y-144823571D01*
X199529571Y-144823571D01*
X199386714Y-144752142D01*
X199315285Y-144609285D01*
X199315285Y-144466428D01*
X199386714Y-144323571D01*
X199529571Y-144252142D01*
X199886714Y-144252142D01*
X200029571Y-144180714D01*
X200743857Y-144823571D02*
X200743857Y-143823571D01*
X200743857Y-144109285D02*
X200815285Y-143966428D01*
X200886714Y-143895000D01*
X201029571Y-143823571D01*
X201172428Y-143823571D01*
X202315285Y-144823571D02*
X202315285Y-143323571D01*
X202315285Y-144752142D02*
X202172428Y-144823571D01*
X201886714Y-144823571D01*
X201743857Y-144752142D01*
X201672428Y-144680714D01*
X201600999Y-144537857D01*
X201600999Y-144109285D01*
X201672428Y-143966428D01*
X201743857Y-143895000D01*
X201886714Y-143823571D01*
X202172428Y-143823571D01*
X202315285Y-143895000D01*
X203958142Y-143323571D02*
X204815285Y-143323571D01*
X204386714Y-144823571D02*
X204386714Y-143323571D01*
X205886714Y-144752142D02*
X205743857Y-144823571D01*
X205458142Y-144823571D01*
X205315285Y-144752142D01*
X205243857Y-144609285D01*
X205243857Y-144037857D01*
X205315285Y-143895000D01*
X205458142Y-143823571D01*
X205743857Y-143823571D01*
X205886714Y-143895000D01*
X205958142Y-144037857D01*
X205958142Y-144180714D01*
X205243857Y-144323571D01*
X206529571Y-144752142D02*
X206672428Y-144823571D01*
X206958142Y-144823571D01*
X207100999Y-144752142D01*
X207172428Y-144609285D01*
X207172428Y-144537857D01*
X207100999Y-144395000D01*
X206958142Y-144323571D01*
X206743857Y-144323571D01*
X206600999Y-144252142D01*
X206529571Y-144109285D01*
X206529571Y-144037857D01*
X206600999Y-143895000D01*
X206743857Y-143823571D01*
X206958142Y-143823571D01*
X207100999Y-143895000D01*
X207600999Y-143823571D02*
X208172428Y-143823571D01*
X207815285Y-143323571D02*
X207815285Y-144609285D01*
X207886714Y-144752142D01*
X208029571Y-144823571D01*
X208172428Y-144823571D01*
X210315285Y-144037857D02*
X210529571Y-144109285D01*
X210600999Y-144180714D01*
X210672428Y-144323571D01*
X210672428Y-144537857D01*
X210600999Y-144680714D01*
X210529571Y-144752142D01*
X210386714Y-144823571D01*
X209815285Y-144823571D01*
X209815285Y-143323571D01*
X210315285Y-143323571D01*
X210458142Y-143395000D01*
X210529571Y-143466428D01*
X210600999Y-143609285D01*
X210600999Y-143752142D01*
X210529571Y-143895000D01*
X210458142Y-143966428D01*
X210315285Y-144037857D01*
X209815285Y-144037857D01*
X211529571Y-144823571D02*
X211386714Y-144752142D01*
X211315285Y-144680714D01*
X211243857Y-144537857D01*
X211243857Y-144109285D01*
X211315285Y-143966428D01*
X211386714Y-143895000D01*
X211529571Y-143823571D01*
X211743857Y-143823571D01*
X211886714Y-143895000D01*
X211958142Y-143966428D01*
X212029571Y-144109285D01*
X212029571Y-144537857D01*
X211958142Y-144680714D01*
X211886714Y-144752142D01*
X211743857Y-144823571D01*
X211529571Y-144823571D01*
X213315285Y-144823571D02*
X213315285Y-144037857D01*
X213243857Y-143895000D01*
X213100999Y-143823571D01*
X212815285Y-143823571D01*
X212672428Y-143895000D01*
X213315285Y-144752142D02*
X213172428Y-144823571D01*
X212815285Y-144823571D01*
X212672428Y-144752142D01*
X212600999Y-144609285D01*
X212600999Y-144466428D01*
X212672428Y-144323571D01*
X212815285Y-144252142D01*
X213172428Y-144252142D01*
X213315285Y-144180714D01*
X214029571Y-144823571D02*
X214029571Y-143823571D01*
X214029571Y-144109285D02*
X214100999Y-143966428D01*
X214172428Y-143895000D01*
X214315285Y-143823571D01*
X214458142Y-143823571D01*
X215600999Y-144823571D02*
X215600999Y-143323571D01*
X215600999Y-144752142D02*
X215458142Y-144823571D01*
X215172428Y-144823571D01*
X215029571Y-144752142D01*
X214958142Y-144680714D01*
X214886714Y-144537857D01*
X214886714Y-144109285D01*
X214958142Y-143966428D01*
X215029571Y-143895000D01*
X215172428Y-143823571D01*
X215458142Y-143823571D01*
X215600999Y-143895000D01*
X217315285Y-143823571D02*
X217672428Y-144823571D01*
X218029571Y-143823571D01*
X219386714Y-144823571D02*
X218529571Y-144823571D01*
X218958142Y-144823571D02*
X218958142Y-143323571D01*
X218815285Y-143537857D01*
X218672428Y-143680714D01*
X218529571Y-143752142D01*
X220029571Y-144680714D02*
X220100999Y-144752142D01*
X220029571Y-144823571D01*
X219958142Y-144752142D01*
X220029571Y-144680714D01*
X220029571Y-144823571D01*
X221029571Y-143323571D02*
X221172428Y-143323571D01*
X221315285Y-143395000D01*
X221386714Y-143466428D01*
X221458142Y-143609285D01*
X221529571Y-143895000D01*
X221529571Y-144252142D01*
X221458142Y-144537857D01*
X221386714Y-144680714D01*
X221315285Y-144752142D01*
X221172428Y-144823571D01*
X221029571Y-144823571D01*
X220886714Y-144752142D01*
X220815285Y-144680714D01*
X220743857Y-144537857D01*
X220672428Y-144252142D01*
X220672428Y-143895000D01*
X220743857Y-143609285D01*
X220815285Y-143466428D01*
X220886714Y-143395000D01*
X221029571Y-143323571D01*
X232673285Y-140529571D02*
X233530428Y-140529571D01*
X233101857Y-142029571D02*
X233101857Y-140529571D01*
X234030428Y-142029571D02*
X234030428Y-141029571D01*
X234030428Y-141315285D02*
X234101857Y-141172428D01*
X234173285Y-141101000D01*
X234316142Y-141029571D01*
X234459000Y-141029571D01*
X235601857Y-142029571D02*
X235601857Y-141243857D01*
X235530428Y-141101000D01*
X235387571Y-141029571D01*
X235101857Y-141029571D01*
X234959000Y-141101000D01*
X235601857Y-141958142D02*
X235459000Y-142029571D01*
X235101857Y-142029571D01*
X234959000Y-141958142D01*
X234887571Y-141815285D01*
X234887571Y-141672428D01*
X234959000Y-141529571D01*
X235101857Y-141458142D01*
X235459000Y-141458142D01*
X235601857Y-141386714D01*
X236959000Y-141958142D02*
X236816142Y-142029571D01*
X236530428Y-142029571D01*
X236387571Y-141958142D01*
X236316142Y-141886714D01*
X236244714Y-141743857D01*
X236244714Y-141315285D01*
X236316142Y-141172428D01*
X236387571Y-141101000D01*
X236530428Y-141029571D01*
X236816142Y-141029571D01*
X236959000Y-141101000D01*
X237601857Y-142029571D02*
X237601857Y-140529571D01*
X237744714Y-141458142D02*
X238173285Y-142029571D01*
X238173285Y-141029571D02*
X237601857Y-141601000D01*
X239959000Y-142029571D02*
X239959000Y-140529571D01*
X240530428Y-140529571D01*
X240673285Y-140601000D01*
X240744714Y-140672428D01*
X240816142Y-140815285D01*
X240816142Y-141029571D01*
X240744714Y-141172428D01*
X240673285Y-141243857D01*
X240530428Y-141315285D01*
X239959000Y-141315285D01*
X241673285Y-142029571D02*
X241530428Y-141958142D01*
X241459000Y-141886714D01*
X241387571Y-141743857D01*
X241387571Y-141315285D01*
X241459000Y-141172428D01*
X241530428Y-141101000D01*
X241673285Y-141029571D01*
X241887571Y-141029571D01*
X242030428Y-141101000D01*
X242101857Y-141172428D01*
X242173285Y-141315285D01*
X242173285Y-141743857D01*
X242101857Y-141886714D01*
X242030428Y-141958142D01*
X241887571Y-142029571D01*
X241673285Y-142029571D01*
X242816142Y-142029571D02*
X242816142Y-141029571D01*
X242816142Y-140529571D02*
X242744714Y-140601000D01*
X242816142Y-140672428D01*
X242887571Y-140601000D01*
X242816142Y-140529571D01*
X242816142Y-140672428D01*
X243530428Y-141029571D02*
X243530428Y-142029571D01*
X243530428Y-141172428D02*
X243601857Y-141101000D01*
X243744714Y-141029571D01*
X243959000Y-141029571D01*
X244101857Y-141101000D01*
X244173285Y-141243857D01*
X244173285Y-142029571D01*
X244673285Y-141029571D02*
X245244714Y-141029571D01*
X244887571Y-140529571D02*
X244887571Y-141815285D01*
X244959000Y-141958142D01*
X245101857Y-142029571D01*
X245244714Y-142029571D01*
X246887571Y-142029571D02*
X246887571Y-140529571D01*
X247387571Y-141601000D01*
X247887571Y-140529571D01*
X247887571Y-142029571D01*
X248816142Y-142029571D02*
X248673285Y-141958142D01*
X248601857Y-141886714D01*
X248530428Y-141743857D01*
X248530428Y-141315285D01*
X248601857Y-141172428D01*
X248673285Y-141101000D01*
X248816142Y-141029571D01*
X249030428Y-141029571D01*
X249173285Y-141101000D01*
X249244714Y-141172428D01*
X249316142Y-141315285D01*
X249316142Y-141743857D01*
X249244714Y-141886714D01*
X249173285Y-141958142D01*
X249030428Y-142029571D01*
X248816142Y-142029571D01*
X250601857Y-142029571D02*
X250601857Y-140529571D01*
X250601857Y-141958142D02*
X250459000Y-142029571D01*
X250173285Y-142029571D01*
X250030428Y-141958142D01*
X249959000Y-141886714D01*
X249887571Y-141743857D01*
X249887571Y-141315285D01*
X249959000Y-141172428D01*
X250030428Y-141101000D01*
X250173285Y-141029571D01*
X250459000Y-141029571D01*
X250601857Y-141101000D01*
X251959000Y-141029571D02*
X251959000Y-142029571D01*
X251316142Y-141029571D02*
X251316142Y-141815285D01*
X251387571Y-141958142D01*
X251530428Y-142029571D01*
X251744714Y-142029571D01*
X251887571Y-141958142D01*
X251959000Y-141886714D01*
X252887571Y-142029571D02*
X252744714Y-141958142D01*
X252673285Y-141815285D01*
X252673285Y-140529571D01*
X254030428Y-141958142D02*
X253887571Y-142029571D01*
X253601857Y-142029571D01*
X253459000Y-141958142D01*
X253387571Y-141815285D01*
X253387571Y-141243857D01*
X253459000Y-141101000D01*
X253601857Y-141029571D01*
X253887571Y-141029571D01*
X254030428Y-141101000D01*
X254101857Y-141243857D01*
X254101857Y-141386714D01*
X253387571Y-141529571D01*
X231010571Y-99016428D02*
X231082000Y-98945000D01*
X231224857Y-98873571D01*
X231582000Y-98873571D01*
X231724857Y-98945000D01*
X231796285Y-99016428D01*
X231867714Y-99159285D01*
X231867714Y-99302142D01*
X231796285Y-99516428D01*
X230939142Y-100373571D01*
X231867714Y-100373571D01*
X232724857Y-99516428D02*
X232582000Y-99445000D01*
X232510571Y-99373571D01*
X232439142Y-99230714D01*
X232439142Y-99159285D01*
X232510571Y-99016428D01*
X232582000Y-98945000D01*
X232724857Y-98873571D01*
X233010571Y-98873571D01*
X233153428Y-98945000D01*
X233224857Y-99016428D01*
X233296285Y-99159285D01*
X233296285Y-99230714D01*
X233224857Y-99373571D01*
X233153428Y-99445000D01*
X233010571Y-99516428D01*
X232724857Y-99516428D01*
X232582000Y-99587857D01*
X232510571Y-99659285D01*
X232439142Y-99802142D01*
X232439142Y-100087857D01*
X232510571Y-100230714D01*
X232582000Y-100302142D01*
X232724857Y-100373571D01*
X233010571Y-100373571D01*
X233153428Y-100302142D01*
X233224857Y-100230714D01*
X233296285Y-100087857D01*
X233296285Y-99802142D01*
X233224857Y-99659285D01*
X233153428Y-99587857D01*
X233010571Y-99516428D01*
X235082000Y-100373571D02*
X235082000Y-98873571D01*
X235653428Y-98873571D01*
X235796285Y-98945000D01*
X235867714Y-99016428D01*
X235939142Y-99159285D01*
X235939142Y-99373571D01*
X235867714Y-99516428D01*
X235796285Y-99587857D01*
X235653428Y-99659285D01*
X235082000Y-99659285D01*
X236582000Y-100373571D02*
X236582000Y-99373571D01*
X236582000Y-98873571D02*
X236510571Y-98945000D01*
X236582000Y-99016428D01*
X236653428Y-98945000D01*
X236582000Y-98873571D01*
X236582000Y-99016428D01*
X237296285Y-99373571D02*
X237296285Y-100373571D01*
X237296285Y-99516428D02*
X237367714Y-99445000D01*
X237510571Y-99373571D01*
X237724857Y-99373571D01*
X237867714Y-99445000D01*
X237939142Y-99587857D01*
X237939142Y-100373571D01*
X240296285Y-99587857D02*
X239796285Y-99587857D01*
X239796285Y-100373571D02*
X239796285Y-98873571D01*
X240510571Y-98873571D01*
X241582000Y-99587857D02*
X241082000Y-99587857D01*
X241082000Y-100373571D02*
X241082000Y-98873571D01*
X241796285Y-98873571D01*
X243224857Y-100230714D02*
X243153428Y-100302142D01*
X242939142Y-100373571D01*
X242796285Y-100373571D01*
X242582000Y-100302142D01*
X242439142Y-100159285D01*
X242367714Y-100016428D01*
X242296285Y-99730714D01*
X242296285Y-99516428D01*
X242367714Y-99230714D01*
X242439142Y-99087857D01*
X242582000Y-98945000D01*
X242796285Y-98873571D01*
X242939142Y-98873571D01*
X243153428Y-98945000D01*
X243224857Y-99016428D01*
X245867714Y-100230714D02*
X245796285Y-100302142D01*
X245582000Y-100373571D01*
X245439142Y-100373571D01*
X245224857Y-100302142D01*
X245082000Y-100159285D01*
X245010571Y-100016428D01*
X244939142Y-99730714D01*
X244939142Y-99516428D01*
X245010571Y-99230714D01*
X245082000Y-99087857D01*
X245224857Y-98945000D01*
X245439142Y-98873571D01*
X245582000Y-98873571D01*
X245796285Y-98945000D01*
X245867714Y-99016428D01*
X246724857Y-100373571D02*
X246582000Y-100302142D01*
X246510571Y-100230714D01*
X246439142Y-100087857D01*
X246439142Y-99659285D01*
X246510571Y-99516428D01*
X246582000Y-99445000D01*
X246724857Y-99373571D01*
X246939142Y-99373571D01*
X247082000Y-99445000D01*
X247153428Y-99516428D01*
X247224857Y-99659285D01*
X247224857Y-100087857D01*
X247153428Y-100230714D01*
X247082000Y-100302142D01*
X246939142Y-100373571D01*
X246724857Y-100373571D01*
X247867714Y-99373571D02*
X247867714Y-100373571D01*
X247867714Y-99516428D02*
X247939142Y-99445000D01*
X248082000Y-99373571D01*
X248296285Y-99373571D01*
X248439142Y-99445000D01*
X248510571Y-99587857D01*
X248510571Y-100373571D01*
X249224857Y-99373571D02*
X249224857Y-100373571D01*
X249224857Y-99516428D02*
X249296285Y-99445000D01*
X249439142Y-99373571D01*
X249653428Y-99373571D01*
X249796285Y-99445000D01*
X249867714Y-99587857D01*
X249867714Y-100373571D01*
X251153428Y-100302142D02*
X251010571Y-100373571D01*
X250724857Y-100373571D01*
X250582000Y-100302142D01*
X250510571Y-100159285D01*
X250510571Y-99587857D01*
X250582000Y-99445000D01*
X250724857Y-99373571D01*
X251010571Y-99373571D01*
X251153428Y-99445000D01*
X251224857Y-99587857D01*
X251224857Y-99730714D01*
X250510571Y-99873571D01*
X252510571Y-100302142D02*
X252367714Y-100373571D01*
X252082000Y-100373571D01*
X251939142Y-100302142D01*
X251867714Y-100230714D01*
X251796285Y-100087857D01*
X251796285Y-99659285D01*
X251867714Y-99516428D01*
X251939142Y-99445000D01*
X252082000Y-99373571D01*
X252367714Y-99373571D01*
X252510571Y-99445000D01*
X252939142Y-99373571D02*
X253510571Y-99373571D01*
X253153428Y-98873571D02*
X253153428Y-100159285D01*
X253224857Y-100302142D01*
X253367714Y-100373571D01*
X253510571Y-100373571D01*
X254224857Y-100373571D02*
X254082000Y-100302142D01*
X254010571Y-100230714D01*
X253939142Y-100087857D01*
X253939142Y-99659285D01*
X254010571Y-99516428D01*
X254082000Y-99445000D01*
X254224857Y-99373571D01*
X254439142Y-99373571D01*
X254582000Y-99445000D01*
X254653428Y-99516428D01*
X254724857Y-99659285D01*
X254724857Y-100087857D01*
X254653428Y-100230714D01*
X254582000Y-100302142D01*
X254439142Y-100373571D01*
X254224857Y-100373571D01*
X255367714Y-100373571D02*
X255367714Y-99373571D01*
X255367714Y-99659285D02*
X255439142Y-99516428D01*
X255510571Y-99445000D01*
X255653428Y-99373571D01*
X255796285Y-99373571D01*
X234299142Y-138124428D02*
X234156285Y-138053000D01*
X234084857Y-137981571D01*
X234013428Y-137838714D01*
X234013428Y-137767285D01*
X234084857Y-137624428D01*
X234156285Y-137553000D01*
X234299142Y-137481571D01*
X234584857Y-137481571D01*
X234727714Y-137553000D01*
X234799142Y-137624428D01*
X234870571Y-137767285D01*
X234870571Y-137838714D01*
X234799142Y-137981571D01*
X234727714Y-138053000D01*
X234584857Y-138124428D01*
X234299142Y-138124428D01*
X234156285Y-138195857D01*
X234084857Y-138267285D01*
X234013428Y-138410142D01*
X234013428Y-138695857D01*
X234084857Y-138838714D01*
X234156285Y-138910142D01*
X234299142Y-138981571D01*
X234584857Y-138981571D01*
X234727714Y-138910142D01*
X234799142Y-138838714D01*
X234870571Y-138695857D01*
X234870571Y-138410142D01*
X234799142Y-138267285D01*
X234727714Y-138195857D01*
X234584857Y-138124428D01*
X234426142Y-119582428D02*
X234283285Y-119511000D01*
X234211857Y-119439571D01*
X234140428Y-119296714D01*
X234140428Y-119225285D01*
X234211857Y-119082428D01*
X234283285Y-119011000D01*
X234426142Y-118939571D01*
X234711857Y-118939571D01*
X234854714Y-119011000D01*
X234926142Y-119082428D01*
X234997571Y-119225285D01*
X234997571Y-119296714D01*
X234926142Y-119439571D01*
X234854714Y-119511000D01*
X234711857Y-119582428D01*
X234426142Y-119582428D01*
X234283285Y-119653857D01*
X234211857Y-119725285D01*
X234140428Y-119868142D01*
X234140428Y-120153857D01*
X234211857Y-120296714D01*
X234283285Y-120368142D01*
X234426142Y-120439571D01*
X234711857Y-120439571D01*
X234854714Y-120368142D01*
X234926142Y-120296714D01*
X234997571Y-120153857D01*
X234997571Y-119868142D01*
X234926142Y-119725285D01*
X234854714Y-119653857D01*
X234711857Y-119582428D01*
X252650571Y-138600571D02*
X251793428Y-138600571D01*
X252222000Y-138600571D02*
X252222000Y-137100571D01*
X252079142Y-137314857D01*
X251936285Y-137457714D01*
X251793428Y-137529142D01*
X252650571Y-120312571D02*
X251793428Y-120312571D01*
X252222000Y-120312571D02*
X252222000Y-118812571D01*
X252079142Y-119026857D01*
X251936285Y-119169714D01*
X251793428Y-119241142D01*
D11*
X241744619Y-61918523D02*
X241804142Y-61859000D01*
X241923190Y-61799476D01*
X242220809Y-61799476D01*
X242339857Y-61859000D01*
X242399380Y-61918523D01*
X242458904Y-62037571D01*
X242458904Y-62156619D01*
X242399380Y-62335190D01*
X241685095Y-63049476D01*
X242458904Y-63049476D01*
X242875571Y-61799476D02*
X243708904Y-61799476D01*
X243173190Y-63049476D01*
D12*
G04 #@! TO.C,J2*
X233239000Y-121479000D02*
X233239000Y-124139000D01*
X251079000Y-121479000D02*
X233239000Y-121479000D01*
X251079000Y-124139000D02*
X233239000Y-124139000D01*
X251079000Y-121479000D02*
X251079000Y-124139000D01*
X252349000Y-121479000D02*
X253679000Y-121479000D01*
X253679000Y-121479000D02*
X253679000Y-122809000D01*
G04 #@! TO.C,J1*
X251250000Y-87674000D02*
X250190000Y-87674000D01*
X251250000Y-86614000D02*
X251250000Y-87674000D01*
X251250000Y-85614000D02*
X249130000Y-85614000D01*
X249130000Y-85614000D02*
X249130000Y-59554000D01*
X251250000Y-85614000D02*
X251250000Y-59554000D01*
X251250000Y-59554000D02*
X249130000Y-59554000D01*
X247080000Y-84664000D02*
X247080000Y-58604000D01*
X249200000Y-84664000D02*
X247080000Y-84664000D01*
X249200000Y-84664000D02*
X249200000Y-58604000D01*
X249200000Y-85664000D02*
X249200000Y-86724000D01*
X249200000Y-58604000D02*
X247080000Y-58604000D01*
G04 #@! TO.C,J7*
X233493000Y-95437000D02*
X236153000Y-95437000D01*
X233493000Y-62357000D02*
X233493000Y-95437000D01*
X236153000Y-62357000D02*
X236153000Y-95437000D01*
X233493000Y-62357000D02*
X236153000Y-62357000D01*
X233493000Y-61087000D02*
X233493000Y-59757000D01*
X233493000Y-59757000D02*
X234823000Y-59757000D01*
X237843000Y-61057000D02*
X239173000Y-61057000D01*
X240503000Y-63657000D02*
X240503000Y-96737000D01*
X237843000Y-96737000D02*
X240503000Y-96737000D01*
X237843000Y-63657000D02*
X237843000Y-96737000D01*
X237843000Y-63657000D02*
X240503000Y-63657000D01*
X237843000Y-62387000D02*
X237843000Y-61057000D01*
G04 #@! TO.C,J8*
X233112000Y-133417000D02*
X233112000Y-136077000D01*
X250952000Y-133417000D02*
X233112000Y-133417000D01*
X250952000Y-136077000D02*
X233112000Y-136077000D01*
X250952000Y-133417000D02*
X250952000Y-136077000D01*
X252222000Y-133417000D02*
X253552000Y-133417000D01*
X253552000Y-133417000D02*
X253552000Y-134747000D01*
G04 #@! TO.C,J3*
X183582000Y-109534000D02*
X186242000Y-109534000D01*
X183582000Y-61214000D02*
X183582000Y-109534000D01*
X186242000Y-61214000D02*
X186242000Y-109534000D01*
X183582000Y-61214000D02*
X186242000Y-61214000D01*
X183582000Y-59944000D02*
X183582000Y-58614000D01*
X183582000Y-58614000D02*
X184912000Y-58614000D01*
G04 #@! TO.C,J4*
X221040000Y-109534000D02*
X219710000Y-109534000D01*
X221040000Y-108204000D02*
X221040000Y-109534000D01*
X221040000Y-106934000D02*
X218380000Y-106934000D01*
X218380000Y-106934000D02*
X218380000Y-58614000D01*
X221040000Y-106934000D02*
X221040000Y-58614000D01*
X221040000Y-58614000D02*
X218380000Y-58614000D01*
G04 #@! TO.C,J5*
X197679000Y-116780000D02*
X197679000Y-119440000D01*
X202819000Y-116780000D02*
X197679000Y-116780000D01*
X202819000Y-119440000D02*
X197679000Y-119440000D01*
X202819000Y-116780000D02*
X202819000Y-119440000D01*
X204089000Y-116780000D02*
X205419000Y-116780000D01*
X205419000Y-116780000D02*
X205419000Y-118110000D01*
G04 #@! TO.C,J6*
X189297000Y-132521000D02*
X191957000Y-132521000D01*
X189297000Y-124841000D02*
X189297000Y-132521000D01*
X191957000Y-124841000D02*
X191957000Y-132521000D01*
X189297000Y-124841000D02*
X191957000Y-124841000D01*
X189297000Y-123571000D02*
X189297000Y-122241000D01*
X189297000Y-122241000D02*
X190627000Y-122241000D01*
G04 #@! TO.C,J9*
X215078000Y-122622000D02*
X216408000Y-122622000D01*
X215078000Y-123952000D02*
X215078000Y-122622000D01*
X215078000Y-125222000D02*
X217738000Y-125222000D01*
X217738000Y-125222000D02*
X217738000Y-132902000D01*
X215078000Y-125222000D02*
X215078000Y-132902000D01*
X215078000Y-132902000D02*
X217738000Y-132902000D01*
D13*
G04 #@! TO.C,U1*
X197739000Y-66294000D02*
X205359000Y-66294000D01*
X205359000Y-57404000D02*
X197739000Y-57404000D01*
X205359000Y-66294000D02*
X205359000Y-57404000D01*
X197739000Y-66294000D02*
X197739000Y-57404000D01*
X196469000Y-70104000D02*
X196469000Y-73914000D01*
X196469000Y-73914000D02*
X197739000Y-73914000D01*
X197739000Y-73914000D02*
X199009000Y-73914000D01*
X199009000Y-73914000D02*
X199009000Y-70104000D01*
X199009000Y-70104000D02*
X196469000Y-70104000D01*
X199009000Y-106934000D02*
X199009000Y-103124000D01*
X199009000Y-103124000D02*
X204089000Y-103124000D01*
X204089000Y-103124000D02*
X204089000Y-106934000D01*
X204089000Y-106934000D02*
X199009000Y-106934000D01*
X195199000Y-84074000D02*
X201549000Y-77724000D01*
X201549000Y-77724000D02*
X207899000Y-84074000D01*
X207899000Y-84074000D02*
X201549000Y-90424000D01*
X201549000Y-90424000D02*
X195199000Y-84074000D01*
X210439000Y-58674000D02*
X210439000Y-109474000D01*
X210439000Y-109474000D02*
X192659000Y-109474000D01*
X192659000Y-109474000D02*
X192659000Y-58674000D01*
X192659000Y-58674000D02*
X210439000Y-58674000D01*
D12*
G04 #@! TO.C,J10*
X183582000Y-117916000D02*
X186242000Y-117916000D01*
X183582000Y-117856000D02*
X183582000Y-117916000D01*
X186242000Y-117856000D02*
X186242000Y-117916000D01*
X183582000Y-117856000D02*
X186242000Y-117856000D01*
X183582000Y-116586000D02*
X183582000Y-115256000D01*
X183582000Y-115256000D02*
X184912000Y-115256000D01*
G04 #@! TO.C,J2*
D13*
X254131380Y-123142333D02*
X254845666Y-123142333D01*
X254988523Y-123189952D01*
X255083761Y-123285190D01*
X255131380Y-123428047D01*
X255131380Y-123523285D01*
X254226619Y-122713761D02*
X254179000Y-122666142D01*
X254131380Y-122570904D01*
X254131380Y-122332809D01*
X254179000Y-122237571D01*
X254226619Y-122189952D01*
X254321857Y-122142333D01*
X254417095Y-122142333D01*
X254559952Y-122189952D01*
X255131380Y-122761380D01*
X255131380Y-122142333D01*
G04 #@! TO.C,J1*
X249856666Y-88126380D02*
X249856666Y-88840666D01*
X249809047Y-88983523D01*
X249713809Y-89078761D01*
X249570952Y-89126380D01*
X249475714Y-89126380D01*
X250856666Y-89126380D02*
X250285238Y-89126380D01*
X250570952Y-89126380D02*
X250570952Y-88126380D01*
X250475714Y-88269238D01*
X250380476Y-88364476D01*
X250285238Y-88412095D01*
G04 #@! TO.C,J7*
X234362666Y-96353380D02*
X234362666Y-97067666D01*
X234315047Y-97210523D01*
X234219809Y-97305761D01*
X234076952Y-97353380D01*
X233981714Y-97353380D01*
X234743619Y-96353380D02*
X235410285Y-96353380D01*
X234981714Y-97353380D01*
G04 #@! TO.C,J8*
X254004380Y-135080333D02*
X254718666Y-135080333D01*
X254861523Y-135127952D01*
X254956761Y-135223190D01*
X255004380Y-135366047D01*
X255004380Y-135461285D01*
X254432952Y-134461285D02*
X254385333Y-134556523D01*
X254337714Y-134604142D01*
X254242476Y-134651761D01*
X254194857Y-134651761D01*
X254099619Y-134604142D01*
X254052000Y-134556523D01*
X254004380Y-134461285D01*
X254004380Y-134270809D01*
X254052000Y-134175571D01*
X254099619Y-134127952D01*
X254194857Y-134080333D01*
X254242476Y-134080333D01*
X254337714Y-134127952D01*
X254385333Y-134175571D01*
X254432952Y-134270809D01*
X254432952Y-134461285D01*
X254480571Y-134556523D01*
X254528190Y-134604142D01*
X254623428Y-134651761D01*
X254813904Y-134651761D01*
X254909142Y-134604142D01*
X254956761Y-134556523D01*
X255004380Y-134461285D01*
X255004380Y-134270809D01*
X254956761Y-134175571D01*
X254909142Y-134127952D01*
X254813904Y-134080333D01*
X254623428Y-134080333D01*
X254528190Y-134127952D01*
X254480571Y-134175571D01*
X254432952Y-134270809D01*
G04 #@! TO.C,J3*
X184578666Y-109942380D02*
X184578666Y-110656666D01*
X184531047Y-110799523D01*
X184435809Y-110894761D01*
X184292952Y-110942380D01*
X184197714Y-110942380D01*
X184959619Y-109942380D02*
X185578666Y-109942380D01*
X185245333Y-110323333D01*
X185388190Y-110323333D01*
X185483428Y-110370952D01*
X185531047Y-110418571D01*
X185578666Y-110513809D01*
X185578666Y-110751904D01*
X185531047Y-110847142D01*
X185483428Y-110894761D01*
X185388190Y-110942380D01*
X185102476Y-110942380D01*
X185007238Y-110894761D01*
X184959619Y-110847142D01*
G04 #@! TO.C,J4*
X219376666Y-109986380D02*
X219376666Y-110700666D01*
X219329047Y-110843523D01*
X219233809Y-110938761D01*
X219090952Y-110986380D01*
X218995714Y-110986380D01*
X220281428Y-110319714D02*
X220281428Y-110986380D01*
X220043333Y-109938761D02*
X219805238Y-110653047D01*
X220424285Y-110653047D01*
G04 #@! TO.C,J5*
X205871380Y-118443333D02*
X206585666Y-118443333D01*
X206728523Y-118490952D01*
X206823761Y-118586190D01*
X206871380Y-118729047D01*
X206871380Y-118824285D01*
X205871380Y-117490952D02*
X205871380Y-117967142D01*
X206347571Y-118014761D01*
X206299952Y-117967142D01*
X206252333Y-117871904D01*
X206252333Y-117633809D01*
X206299952Y-117538571D01*
X206347571Y-117490952D01*
X206442809Y-117443333D01*
X206680904Y-117443333D01*
X206776142Y-117490952D01*
X206823761Y-117538571D01*
X206871380Y-117633809D01*
X206871380Y-117871904D01*
X206823761Y-117967142D01*
X206776142Y-118014761D01*
G04 #@! TO.C,J6*
X190293666Y-120693380D02*
X190293666Y-121407666D01*
X190246047Y-121550523D01*
X190150809Y-121645761D01*
X190007952Y-121693380D01*
X189912714Y-121693380D01*
X191198428Y-120693380D02*
X191007952Y-120693380D01*
X190912714Y-120741000D01*
X190865095Y-120788619D01*
X190769857Y-120931476D01*
X190722238Y-121121952D01*
X190722238Y-121502904D01*
X190769857Y-121598142D01*
X190817476Y-121645761D01*
X190912714Y-121693380D01*
X191103190Y-121693380D01*
X191198428Y-121645761D01*
X191246047Y-121598142D01*
X191293666Y-121502904D01*
X191293666Y-121264809D01*
X191246047Y-121169571D01*
X191198428Y-121121952D01*
X191103190Y-121074333D01*
X190912714Y-121074333D01*
X190817476Y-121121952D01*
X190769857Y-121169571D01*
X190722238Y-121264809D01*
G04 #@! TO.C,J9*
X216074666Y-121074380D02*
X216074666Y-121788666D01*
X216027047Y-121931523D01*
X215931809Y-122026761D01*
X215788952Y-122074380D01*
X215693714Y-122074380D01*
X216598476Y-122074380D02*
X216788952Y-122074380D01*
X216884190Y-122026761D01*
X216931809Y-121979142D01*
X217027047Y-121836285D01*
X217074666Y-121645809D01*
X217074666Y-121264857D01*
X217027047Y-121169619D01*
X216979428Y-121122000D01*
X216884190Y-121074380D01*
X216693714Y-121074380D01*
X216598476Y-121122000D01*
X216550857Y-121169619D01*
X216503238Y-121264857D01*
X216503238Y-121502952D01*
X216550857Y-121598190D01*
X216598476Y-121645809D01*
X216693714Y-121693428D01*
X216884190Y-121693428D01*
X216979428Y-121645809D01*
X217027047Y-121598190D01*
X217074666Y-121502952D01*
G04 #@! TO.C,U1*
X211161380Y-84835904D02*
X211970904Y-84835904D01*
X212066142Y-84788285D01*
X212113761Y-84740666D01*
X212161380Y-84645428D01*
X212161380Y-84454952D01*
X212113761Y-84359714D01*
X212066142Y-84312095D01*
X211970904Y-84264476D01*
X211161380Y-84264476D01*
X212161380Y-83264476D02*
X212161380Y-83835904D01*
X212161380Y-83550190D02*
X211161380Y-83550190D01*
X211304238Y-83645428D01*
X211399476Y-83740666D01*
X211447095Y-83835904D01*
G04 #@! TO.C,J10*
X184102476Y-113708380D02*
X184102476Y-114422666D01*
X184054857Y-114565523D01*
X183959619Y-114660761D01*
X183816761Y-114708380D01*
X183721523Y-114708380D01*
X185102476Y-114708380D02*
X184531047Y-114708380D01*
X184816761Y-114708380D02*
X184816761Y-113708380D01*
X184721523Y-113851238D01*
X184626285Y-113946476D01*
X184531047Y-113994095D01*
X185721523Y-113708380D02*
X185816761Y-113708380D01*
X185912000Y-113756000D01*
X185959619Y-113803619D01*
X186007238Y-113898857D01*
X186054857Y-114089333D01*
X186054857Y-114327428D01*
X186007238Y-114517904D01*
X185959619Y-114613142D01*
X185912000Y-114660761D01*
X185816761Y-114708380D01*
X185721523Y-114708380D01*
X185626285Y-114660761D01*
X185578666Y-114613142D01*
X185531047Y-114517904D01*
X185483428Y-114327428D01*
X185483428Y-114089333D01*
X185531047Y-113898857D01*
X185578666Y-113803619D01*
X185626285Y-113756000D01*
X185721523Y-113708380D01*
G04 #@! TD*
M02*
