G04 #@! TF.GenerationSoftware,KiCad,Pcbnew,(5.0.0-3-g5ebb6b6)*
G04 #@! TF.CreationDate,2019-09-06T00:58:35-07:00*
G04 #@! TF.ProjectId,keyboard,6B6579626F6172642E6B696361645F70,rev?*
G04 #@! TF.SameCoordinates,Original*
G04 #@! TF.FileFunction,Copper,L1,Top,Signal*
G04 #@! TF.FilePolarity,Positive*
%FSLAX46Y46*%
G04 Gerber Fmt 4.6, Leading zero omitted, Abs format (unit mm)*
G04 Created by KiCad (PCBNEW (5.0.0-3-g5ebb6b6)) date Friday, September 06, 2019 at 12:58:35 AM*
%MOMM*%
%LPD*%
G01*
G04 APERTURE LIST*
G04 #@! TA.AperFunction,NonConductor*
%ADD10C,0.300000*%
G04 #@! TD*
G04 #@! TA.AperFunction,ComponentPad*
%ADD11R,1.700000X1.700000*%
G04 #@! TD*
G04 #@! TA.AperFunction,ComponentPad*
%ADD12O,1.700000X1.700000*%
G04 #@! TD*
G04 #@! TA.AperFunction,ComponentPad*
%ADD13O,1.350000X1.350000*%
G04 #@! TD*
G04 #@! TA.AperFunction,ComponentPad*
%ADD14R,1.350000X1.350000*%
G04 #@! TD*
G04 #@! TA.AperFunction,ComponentPad*
%ADD15C,1.350000*%
G04 #@! TD*
G04 #@! TA.AperFunction,ComponentPad*
%ADD16C,1.600000*%
G04 #@! TD*
G04 #@! TA.AperFunction,ComponentPad*
%ADD17R,1.600000X1.600000*%
G04 #@! TD*
G04 #@! TA.AperFunction,Conductor*
%ADD18C,0.250000*%
G04 #@! TD*
G04 APERTURE END LIST*
D10*
X188687428Y-147212857D02*
X188901714Y-147284285D01*
X188973142Y-147355714D01*
X189044571Y-147498571D01*
X189044571Y-147712857D01*
X188973142Y-147855714D01*
X188901714Y-147927142D01*
X188758857Y-147998571D01*
X188187428Y-147998571D01*
X188187428Y-146498571D01*
X188687428Y-146498571D01*
X188830285Y-146570000D01*
X188901714Y-146641428D01*
X188973142Y-146784285D01*
X188973142Y-146927142D01*
X188901714Y-147070000D01*
X188830285Y-147141428D01*
X188687428Y-147212857D01*
X188187428Y-147212857D01*
X189973142Y-147284285D02*
X189973142Y-147998571D01*
X189473142Y-146498571D02*
X189973142Y-147284285D01*
X190473142Y-146498571D01*
X190973142Y-147855714D02*
X191044571Y-147927142D01*
X190973142Y-147998571D01*
X190901714Y-147927142D01*
X190973142Y-147855714D01*
X190973142Y-147998571D01*
X190973142Y-147070000D02*
X191044571Y-147141428D01*
X190973142Y-147212857D01*
X190901714Y-147141428D01*
X190973142Y-147070000D01*
X190973142Y-147212857D01*
X193258857Y-146498571D02*
X193258857Y-147570000D01*
X193187428Y-147784285D01*
X193044571Y-147927142D01*
X192830285Y-147998571D01*
X192687428Y-147998571D01*
X194187428Y-147998571D02*
X194044571Y-147927142D01*
X193973142Y-147855714D01*
X193901714Y-147712857D01*
X193901714Y-147284285D01*
X193973142Y-147141428D01*
X194044571Y-147070000D01*
X194187428Y-146998571D01*
X194401714Y-146998571D01*
X194544571Y-147070000D01*
X194616000Y-147141428D01*
X194687428Y-147284285D01*
X194687428Y-147712857D01*
X194616000Y-147855714D01*
X194544571Y-147927142D01*
X194401714Y-147998571D01*
X194187428Y-147998571D01*
X195330285Y-146998571D02*
X195330285Y-147998571D01*
X195330285Y-147141428D02*
X195401714Y-147070000D01*
X195544571Y-146998571D01*
X195758857Y-146998571D01*
X195901714Y-147070000D01*
X195973142Y-147212857D01*
X195973142Y-147998571D01*
X197330285Y-147998571D02*
X197330285Y-147212857D01*
X197258857Y-147070000D01*
X197116000Y-146998571D01*
X196830285Y-146998571D01*
X196687428Y-147070000D01*
X197330285Y-147927142D02*
X197187428Y-147998571D01*
X196830285Y-147998571D01*
X196687428Y-147927142D01*
X196616000Y-147784285D01*
X196616000Y-147641428D01*
X196687428Y-147498571D01*
X196830285Y-147427142D01*
X197187428Y-147427142D01*
X197330285Y-147355714D01*
X197830285Y-146998571D02*
X198401714Y-146998571D01*
X198044571Y-146498571D02*
X198044571Y-147784285D01*
X198116000Y-147927142D01*
X198258857Y-147998571D01*
X198401714Y-147998571D01*
X198901714Y-147998571D02*
X198901714Y-146498571D01*
X199544571Y-147998571D02*
X199544571Y-147212857D01*
X199473142Y-147070000D01*
X199330285Y-146998571D01*
X199115999Y-146998571D01*
X198973142Y-147070000D01*
X198901714Y-147141428D01*
X200901714Y-147998571D02*
X200901714Y-147212857D01*
X200830285Y-147070000D01*
X200687428Y-146998571D01*
X200401714Y-146998571D01*
X200258857Y-147070000D01*
X200901714Y-147927142D02*
X200758857Y-147998571D01*
X200401714Y-147998571D01*
X200258857Y-147927142D01*
X200187428Y-147784285D01*
X200187428Y-147641428D01*
X200258857Y-147498571D01*
X200401714Y-147427142D01*
X200758857Y-147427142D01*
X200901714Y-147355714D01*
X201615999Y-146998571D02*
X201615999Y-147998571D01*
X201615999Y-147141428D02*
X201687428Y-147070000D01*
X201830285Y-146998571D01*
X202044571Y-146998571D01*
X202187428Y-147070000D01*
X202258857Y-147212857D01*
X202258857Y-147998571D01*
X204830285Y-147998571D02*
X204115999Y-147998571D01*
X204115999Y-146498571D01*
X205544571Y-147998571D02*
X205401714Y-147927142D01*
X205330285Y-147855714D01*
X205258857Y-147712857D01*
X205258857Y-147284285D01*
X205330285Y-147141428D01*
X205401714Y-147070000D01*
X205544571Y-146998571D01*
X205758857Y-146998571D01*
X205901714Y-147070000D01*
X205973142Y-147141428D01*
X206044571Y-147284285D01*
X206044571Y-147712857D01*
X205973142Y-147855714D01*
X205901714Y-147927142D01*
X205758857Y-147998571D01*
X205544571Y-147998571D01*
X206544571Y-146998571D02*
X206830285Y-147998571D01*
X207115999Y-147284285D01*
X207401714Y-147998571D01*
X207687428Y-146998571D01*
X187775571Y-143577571D02*
X188632714Y-143577571D01*
X188204142Y-145077571D02*
X188204142Y-143577571D01*
X189132714Y-145077571D02*
X189132714Y-143577571D01*
X189704142Y-143577571D01*
X189846999Y-143649000D01*
X189918428Y-143720428D01*
X189989857Y-143863285D01*
X189989857Y-144077571D01*
X189918428Y-144220428D01*
X189846999Y-144291857D01*
X189704142Y-144363285D01*
X189132714Y-144363285D01*
X190632714Y-144506142D02*
X191775571Y-144506142D01*
X192489857Y-145077571D02*
X192489857Y-143577571D01*
X193346999Y-145077571D02*
X192704142Y-144220428D01*
X193346999Y-143577571D02*
X192489857Y-144434714D01*
X194561285Y-145006142D02*
X194418428Y-145077571D01*
X194132714Y-145077571D01*
X193989857Y-145006142D01*
X193918428Y-144863285D01*
X193918428Y-144291857D01*
X193989857Y-144149000D01*
X194132714Y-144077571D01*
X194418428Y-144077571D01*
X194561285Y-144149000D01*
X194632714Y-144291857D01*
X194632714Y-144434714D01*
X193918428Y-144577571D01*
X195132714Y-144077571D02*
X195489857Y-145077571D01*
X195846999Y-144077571D02*
X195489857Y-145077571D01*
X195346999Y-145434714D01*
X195275571Y-145506142D01*
X195132714Y-145577571D01*
X196418428Y-145077571D02*
X196418428Y-143577571D01*
X196418428Y-144149000D02*
X196561285Y-144077571D01*
X196846999Y-144077571D01*
X196989857Y-144149000D01*
X197061285Y-144220428D01*
X197132714Y-144363285D01*
X197132714Y-144791857D01*
X197061285Y-144934714D01*
X196989857Y-145006142D01*
X196846999Y-145077571D01*
X196561285Y-145077571D01*
X196418428Y-145006142D01*
X197989857Y-145077571D02*
X197846999Y-145006142D01*
X197775571Y-144934714D01*
X197704142Y-144791857D01*
X197704142Y-144363285D01*
X197775571Y-144220428D01*
X197846999Y-144149000D01*
X197989857Y-144077571D01*
X198204142Y-144077571D01*
X198346999Y-144149000D01*
X198418428Y-144220428D01*
X198489857Y-144363285D01*
X198489857Y-144791857D01*
X198418428Y-144934714D01*
X198346999Y-145006142D01*
X198204142Y-145077571D01*
X197989857Y-145077571D01*
X199775571Y-145077571D02*
X199775571Y-144291857D01*
X199704142Y-144149000D01*
X199561285Y-144077571D01*
X199275571Y-144077571D01*
X199132714Y-144149000D01*
X199775571Y-145006142D02*
X199632714Y-145077571D01*
X199275571Y-145077571D01*
X199132714Y-145006142D01*
X199061285Y-144863285D01*
X199061285Y-144720428D01*
X199132714Y-144577571D01*
X199275571Y-144506142D01*
X199632714Y-144506142D01*
X199775571Y-144434714D01*
X200489857Y-145077571D02*
X200489857Y-144077571D01*
X200489857Y-144363285D02*
X200561285Y-144220428D01*
X200632714Y-144149000D01*
X200775571Y-144077571D01*
X200918428Y-144077571D01*
X202061285Y-145077571D02*
X202061285Y-143577571D01*
X202061285Y-145006142D02*
X201918428Y-145077571D01*
X201632714Y-145077571D01*
X201489857Y-145006142D01*
X201418428Y-144934714D01*
X201346999Y-144791857D01*
X201346999Y-144363285D01*
X201418428Y-144220428D01*
X201489857Y-144149000D01*
X201632714Y-144077571D01*
X201918428Y-144077571D01*
X202061285Y-144149000D01*
X203704142Y-143577571D02*
X204561285Y-143577571D01*
X204132714Y-145077571D02*
X204132714Y-143577571D01*
X205632714Y-145006142D02*
X205489857Y-145077571D01*
X205204142Y-145077571D01*
X205061285Y-145006142D01*
X204989857Y-144863285D01*
X204989857Y-144291857D01*
X205061285Y-144149000D01*
X205204142Y-144077571D01*
X205489857Y-144077571D01*
X205632714Y-144149000D01*
X205704142Y-144291857D01*
X205704142Y-144434714D01*
X204989857Y-144577571D01*
X206275571Y-145006142D02*
X206418428Y-145077571D01*
X206704142Y-145077571D01*
X206846999Y-145006142D01*
X206918428Y-144863285D01*
X206918428Y-144791857D01*
X206846999Y-144649000D01*
X206704142Y-144577571D01*
X206489857Y-144577571D01*
X206346999Y-144506142D01*
X206275571Y-144363285D01*
X206275571Y-144291857D01*
X206346999Y-144149000D01*
X206489857Y-144077571D01*
X206704142Y-144077571D01*
X206846999Y-144149000D01*
X207346999Y-144077571D02*
X207918428Y-144077571D01*
X207561285Y-143577571D02*
X207561285Y-144863285D01*
X207632714Y-145006142D01*
X207775571Y-145077571D01*
X207918428Y-145077571D01*
X210061285Y-144291857D02*
X210275571Y-144363285D01*
X210346999Y-144434714D01*
X210418428Y-144577571D01*
X210418428Y-144791857D01*
X210346999Y-144934714D01*
X210275571Y-145006142D01*
X210132714Y-145077571D01*
X209561285Y-145077571D01*
X209561285Y-143577571D01*
X210061285Y-143577571D01*
X210204142Y-143649000D01*
X210275571Y-143720428D01*
X210346999Y-143863285D01*
X210346999Y-144006142D01*
X210275571Y-144149000D01*
X210204142Y-144220428D01*
X210061285Y-144291857D01*
X209561285Y-144291857D01*
X211275571Y-145077571D02*
X211132714Y-145006142D01*
X211061285Y-144934714D01*
X210989857Y-144791857D01*
X210989857Y-144363285D01*
X211061285Y-144220428D01*
X211132714Y-144149000D01*
X211275571Y-144077571D01*
X211489857Y-144077571D01*
X211632714Y-144149000D01*
X211704142Y-144220428D01*
X211775571Y-144363285D01*
X211775571Y-144791857D01*
X211704142Y-144934714D01*
X211632714Y-145006142D01*
X211489857Y-145077571D01*
X211275571Y-145077571D01*
X213061285Y-145077571D02*
X213061285Y-144291857D01*
X212989857Y-144149000D01*
X212846999Y-144077571D01*
X212561285Y-144077571D01*
X212418428Y-144149000D01*
X213061285Y-145006142D02*
X212918428Y-145077571D01*
X212561285Y-145077571D01*
X212418428Y-145006142D01*
X212346999Y-144863285D01*
X212346999Y-144720428D01*
X212418428Y-144577571D01*
X212561285Y-144506142D01*
X212918428Y-144506142D01*
X213061285Y-144434714D01*
X213775571Y-145077571D02*
X213775571Y-144077571D01*
X213775571Y-144363285D02*
X213846999Y-144220428D01*
X213918428Y-144149000D01*
X214061285Y-144077571D01*
X214204142Y-144077571D01*
X215346999Y-145077571D02*
X215346999Y-143577571D01*
X215346999Y-145006142D02*
X215204142Y-145077571D01*
X214918428Y-145077571D01*
X214775571Y-145006142D01*
X214704142Y-144934714D01*
X214632714Y-144791857D01*
X214632714Y-144363285D01*
X214704142Y-144220428D01*
X214775571Y-144149000D01*
X214918428Y-144077571D01*
X215204142Y-144077571D01*
X215346999Y-144149000D01*
X217061285Y-144077571D02*
X217418428Y-145077571D01*
X217775571Y-144077571D01*
X219132714Y-145077571D02*
X218275571Y-145077571D01*
X218704142Y-145077571D02*
X218704142Y-143577571D01*
X218561285Y-143791857D01*
X218418428Y-143934714D01*
X218275571Y-144006142D01*
X219775571Y-144934714D02*
X219846999Y-145006142D01*
X219775571Y-145077571D01*
X219704142Y-145006142D01*
X219775571Y-144934714D01*
X219775571Y-145077571D01*
X220775571Y-143577571D02*
X220918428Y-143577571D01*
X221061285Y-143649000D01*
X221132714Y-143720428D01*
X221204142Y-143863285D01*
X221275571Y-144149000D01*
X221275571Y-144506142D01*
X221204142Y-144791857D01*
X221132714Y-144934714D01*
X221061285Y-145006142D01*
X220918428Y-145077571D01*
X220775571Y-145077571D01*
X220632714Y-145006142D01*
X220561285Y-144934714D01*
X220489857Y-144791857D01*
X220418428Y-144506142D01*
X220418428Y-144149000D01*
X220489857Y-143863285D01*
X220561285Y-143720428D01*
X220632714Y-143649000D01*
X220775571Y-143577571D01*
D11*
G04 #@! TO.P,J2,1*
G04 #@! TO.N,Net-(J2-Pad1)*
X252349000Y-122809000D03*
D12*
G04 #@! TO.P,J2,2*
G04 #@! TO.N,Net-(J2-Pad2)*
X249809000Y-122809000D03*
G04 #@! TO.P,J2,3*
G04 #@! TO.N,Net-(J2-Pad3)*
X247269000Y-122809000D03*
G04 #@! TO.P,J2,4*
G04 #@! TO.N,Net-(J2-Pad4)*
X244729000Y-122809000D03*
G04 #@! TO.P,J2,5*
G04 #@! TO.N,Net-(J2-Pad5)*
X242189000Y-122809000D03*
G04 #@! TO.P,J2,6*
G04 #@! TO.N,Net-(J2-Pad6)*
X239649000Y-122809000D03*
G04 #@! TO.P,J2,7*
G04 #@! TO.N,Net-(J2-Pad7)*
X237109000Y-122809000D03*
G04 #@! TO.P,J2,8*
G04 #@! TO.N,Net-(J2-Pad8)*
X234569000Y-122809000D03*
G04 #@! TD*
D13*
G04 #@! TO.P,J1,27*
G04 #@! TO.N,Net-(J1-Pad27)*
X250190000Y-60614000D03*
G04 #@! TO.P,J1,25*
G04 #@! TO.N,Net-(J1-Pad25)*
X250190000Y-62614000D03*
G04 #@! TO.P,J1,23*
G04 #@! TO.N,Net-(J1-Pad23)*
X250190000Y-64614000D03*
G04 #@! TO.P,J1,21*
G04 #@! TO.N,Net-(J1-Pad21)*
X250190000Y-66614000D03*
G04 #@! TO.P,J1,19*
G04 #@! TO.N,Net-(J1-Pad19)*
X250190000Y-68614000D03*
G04 #@! TO.P,J1,17*
G04 #@! TO.N,Net-(J1-Pad17)*
X250190000Y-70614000D03*
G04 #@! TO.P,J1,15*
G04 #@! TO.N,Net-(J1-Pad15)*
X250190000Y-72614000D03*
G04 #@! TO.P,J1,13*
G04 #@! TO.N,Net-(J1-Pad13)*
X250190000Y-74614000D03*
G04 #@! TO.P,J1,11*
G04 #@! TO.N,Net-(J1-Pad11)*
X250190000Y-76614000D03*
G04 #@! TO.P,J1,9*
G04 #@! TO.N,Net-(J1-Pad9)*
X250190000Y-78614000D03*
G04 #@! TO.P,J1,7*
G04 #@! TO.N,Net-(J1-Pad7)*
X250190000Y-80614000D03*
G04 #@! TO.P,J1,5*
G04 #@! TO.N,Net-(J1-Pad5)*
X250190000Y-82614000D03*
G04 #@! TO.P,J1,3*
G04 #@! TO.N,Net-(J1-Pad3)*
X250190000Y-84614000D03*
D14*
G04 #@! TO.P,J1,1*
G04 #@! TO.N,Net-(J1-Pad1)*
X250190000Y-86614000D03*
D13*
G04 #@! TO.P,J1,14*
G04 #@! TO.N,Net-(J1-Pad14)*
X248140000Y-73664000D03*
G04 #@! TO.P,J1,28*
G04 #@! TO.N,Net-(J1-Pad28)*
X248140000Y-59664000D03*
G04 #@! TO.P,J1,12*
G04 #@! TO.N,Net-(J1-Pad12)*
X248140000Y-75664000D03*
G04 #@! TO.P,J1,10*
G04 #@! TO.N,Net-(J1-Pad10)*
X248140000Y-77664000D03*
G04 #@! TO.P,J1,22*
G04 #@! TO.N,Net-(J1-Pad22)*
X248140000Y-65664000D03*
G04 #@! TO.P,J1,24*
G04 #@! TO.N,Net-(J1-Pad24)*
X248140000Y-63664000D03*
D15*
G04 #@! TO.P,J1,2*
G04 #@! TO.N,Net-(J1-Pad2)*
X248140000Y-85664000D03*
D13*
G04 #@! TO.P,J1,18*
G04 #@! TO.N,Net-(J1-Pad18)*
X248140000Y-69664000D03*
G04 #@! TO.P,J1,4*
G04 #@! TO.N,Net-(J1-Pad4)*
X248140000Y-83664000D03*
G04 #@! TO.P,J1,26*
G04 #@! TO.N,Net-(J1-Pad26)*
X248140000Y-61664000D03*
G04 #@! TO.P,J1,20*
G04 #@! TO.N,Net-(J1-Pad20)*
X248140000Y-67664000D03*
G04 #@! TO.P,J1,6*
G04 #@! TO.N,Net-(J1-Pad6)*
X248140000Y-81664000D03*
G04 #@! TO.P,J1,16*
G04 #@! TO.N,Net-(J1-Pad16)*
X248140000Y-71664000D03*
G04 #@! TO.P,J1,8*
G04 #@! TO.N,Net-(J1-Pad8)*
X248140000Y-79664000D03*
G04 #@! TD*
D11*
G04 #@! TO.P,J7,28*
G04 #@! TO.N,Net-(J1-Pad28)*
X234823000Y-61087000D03*
D12*
G04 #@! TO.P,J7,26*
G04 #@! TO.N,Net-(J1-Pad26)*
X234823000Y-63627000D03*
G04 #@! TO.P,J7,24*
G04 #@! TO.N,Net-(J1-Pad24)*
X234823000Y-66167000D03*
G04 #@! TO.P,J7,22*
G04 #@! TO.N,Net-(J1-Pad22)*
X234823000Y-68707000D03*
G04 #@! TO.P,J7,20*
G04 #@! TO.N,Net-(J1-Pad20)*
X234823000Y-71247000D03*
G04 #@! TO.P,J7,18*
G04 #@! TO.N,Net-(J1-Pad18)*
X234823000Y-73787000D03*
G04 #@! TO.P,J7,16*
G04 #@! TO.N,Net-(J1-Pad16)*
X234823000Y-76327000D03*
G04 #@! TO.P,J7,14*
G04 #@! TO.N,Net-(J1-Pad14)*
X234823000Y-78867000D03*
G04 #@! TO.P,J7,12*
G04 #@! TO.N,Net-(J1-Pad12)*
X234823000Y-81407000D03*
G04 #@! TO.P,J7,10*
G04 #@! TO.N,Net-(J1-Pad10)*
X234823000Y-83947000D03*
G04 #@! TO.P,J7,8*
G04 #@! TO.N,Net-(J1-Pad8)*
X234823000Y-86487000D03*
G04 #@! TO.P,J7,6*
G04 #@! TO.N,Net-(J1-Pad6)*
X234823000Y-89027000D03*
G04 #@! TO.P,J7,4*
G04 #@! TO.N,Net-(J1-Pad4)*
X234823000Y-91567000D03*
G04 #@! TO.P,J7,2*
G04 #@! TO.N,Net-(J1-Pad2)*
X234823000Y-94107000D03*
G04 #@! TO.P,J7,19*
G04 #@! TO.N,Net-(J1-Pad19)*
X239173000Y-72547000D03*
G04 #@! TO.P,J7,17*
G04 #@! TO.N,Net-(J1-Pad17)*
X239173000Y-75087000D03*
G04 #@! TO.P,J7,9*
G04 #@! TO.N,Net-(J1-Pad9)*
X239173000Y-85247000D03*
G04 #@! TO.P,J7,23*
G04 #@! TO.N,Net-(J1-Pad23)*
X239173000Y-67467000D03*
G04 #@! TO.P,J7,7*
G04 #@! TO.N,Net-(J1-Pad7)*
X239173000Y-87787000D03*
G04 #@! TO.P,J7,25*
G04 #@! TO.N,Net-(J1-Pad25)*
X239173000Y-64927000D03*
G04 #@! TO.P,J7,21*
G04 #@! TO.N,Net-(J1-Pad21)*
X239173000Y-70007000D03*
D11*
G04 #@! TO.P,J7,27*
G04 #@! TO.N,Net-(J1-Pad27)*
X239173000Y-62387000D03*
D12*
G04 #@! TO.P,J7,5*
G04 #@! TO.N,Net-(J1-Pad5)*
X239173000Y-90327000D03*
G04 #@! TO.P,J7,3*
G04 #@! TO.N,Net-(J1-Pad3)*
X239173000Y-92867000D03*
G04 #@! TO.P,J7,15*
G04 #@! TO.N,Net-(J1-Pad15)*
X239173000Y-77627000D03*
G04 #@! TO.P,J7,13*
G04 #@! TO.N,Net-(J1-Pad13)*
X239173000Y-80167000D03*
G04 #@! TO.P,J7,1*
G04 #@! TO.N,Net-(J1-Pad1)*
X239173000Y-95407000D03*
G04 #@! TO.P,J7,11*
G04 #@! TO.N,Net-(J1-Pad11)*
X239173000Y-82707000D03*
G04 #@! TD*
D11*
G04 #@! TO.P,J8,1*
G04 #@! TO.N,Net-(J2-Pad1)*
X252222000Y-134747000D03*
D12*
G04 #@! TO.P,J8,2*
G04 #@! TO.N,Net-(J2-Pad2)*
X249682000Y-134747000D03*
G04 #@! TO.P,J8,3*
G04 #@! TO.N,Net-(J2-Pad3)*
X247142000Y-134747000D03*
G04 #@! TO.P,J8,4*
G04 #@! TO.N,Net-(J2-Pad4)*
X244602000Y-134747000D03*
G04 #@! TO.P,J8,5*
G04 #@! TO.N,Net-(J2-Pad5)*
X242062000Y-134747000D03*
G04 #@! TO.P,J8,6*
G04 #@! TO.N,Net-(J2-Pad6)*
X239522000Y-134747000D03*
G04 #@! TO.P,J8,7*
G04 #@! TO.N,Net-(J2-Pad7)*
X236982000Y-134747000D03*
G04 #@! TO.P,J8,8*
G04 #@! TO.N,Net-(J2-Pad8)*
X234442000Y-134747000D03*
G04 #@! TD*
D11*
G04 #@! TO.P,J3,1*
G04 #@! TO.N,Net-(J3-Pad1)*
X184912000Y-59944000D03*
D12*
G04 #@! TO.P,J3,2*
G04 #@! TO.N,Net-(J3-Pad2)*
X184912000Y-62484000D03*
G04 #@! TO.P,J3,3*
G04 #@! TO.N,Net-(J3-Pad3)*
X184912000Y-65024000D03*
G04 #@! TO.P,J3,4*
G04 #@! TO.N,Net-(J3-Pad4)*
X184912000Y-67564000D03*
G04 #@! TO.P,J3,5*
G04 #@! TO.N,Net-(J3-Pad5)*
X184912000Y-70104000D03*
G04 #@! TO.P,J3,6*
G04 #@! TO.N,Net-(J3-Pad6)*
X184912000Y-72644000D03*
G04 #@! TO.P,J3,7*
G04 #@! TO.N,Net-(J3-Pad7)*
X184912000Y-75184000D03*
G04 #@! TO.P,J3,8*
G04 #@! TO.N,Net-(J3-Pad8)*
X184912000Y-77724000D03*
G04 #@! TO.P,J3,9*
G04 #@! TO.N,Net-(J3-Pad9)*
X184912000Y-80264000D03*
G04 #@! TO.P,J3,10*
G04 #@! TO.N,Net-(J3-Pad10)*
X184912000Y-82804000D03*
G04 #@! TO.P,J3,11*
G04 #@! TO.N,Net-(J3-Pad11)*
X184912000Y-85344000D03*
G04 #@! TO.P,J3,12*
G04 #@! TO.N,Net-(J3-Pad12)*
X184912000Y-87884000D03*
G04 #@! TO.P,J3,13*
G04 #@! TO.N,Net-(J3-Pad13)*
X184912000Y-90424000D03*
G04 #@! TO.P,J3,14*
G04 #@! TO.N,Net-(J3-Pad14)*
X184912000Y-92964000D03*
G04 #@! TO.P,J3,15*
G04 #@! TO.N,Net-(J3-Pad15)*
X184912000Y-95504000D03*
G04 #@! TO.P,J3,16*
G04 #@! TO.N,Net-(J3-Pad16)*
X184912000Y-98044000D03*
G04 #@! TO.P,J3,17*
G04 #@! TO.N,Net-(J3-Pad17)*
X184912000Y-100584000D03*
G04 #@! TO.P,J3,18*
G04 #@! TO.N,Net-(J3-Pad18)*
X184912000Y-103124000D03*
G04 #@! TO.P,J3,19*
G04 #@! TO.N,Net-(J3-Pad19)*
X184912000Y-105664000D03*
G04 #@! TO.P,J3,20*
G04 #@! TO.N,Net-(J3-Pad20)*
X184912000Y-108204000D03*
G04 #@! TD*
G04 #@! TO.P,J4,20*
G04 #@! TO.N,Net-(J4-Pad20)*
X219710000Y-59944000D03*
G04 #@! TO.P,J4,19*
G04 #@! TO.N,Net-(J4-Pad19)*
X219710000Y-62484000D03*
G04 #@! TO.P,J4,18*
G04 #@! TO.N,Net-(J4-Pad18)*
X219710000Y-65024000D03*
G04 #@! TO.P,J4,17*
G04 #@! TO.N,Net-(J4-Pad17)*
X219710000Y-67564000D03*
G04 #@! TO.P,J4,16*
G04 #@! TO.N,Net-(J4-Pad16)*
X219710000Y-70104000D03*
G04 #@! TO.P,J4,15*
G04 #@! TO.N,Net-(J4-Pad15)*
X219710000Y-72644000D03*
G04 #@! TO.P,J4,14*
G04 #@! TO.N,Net-(J4-Pad14)*
X219710000Y-75184000D03*
G04 #@! TO.P,J4,13*
G04 #@! TO.N,Net-(J4-Pad13)*
X219710000Y-77724000D03*
G04 #@! TO.P,J4,12*
G04 #@! TO.N,Net-(J4-Pad12)*
X219710000Y-80264000D03*
G04 #@! TO.P,J4,11*
G04 #@! TO.N,Net-(J4-Pad11)*
X219710000Y-82804000D03*
G04 #@! TO.P,J4,10*
G04 #@! TO.N,Net-(J4-Pad10)*
X219710000Y-85344000D03*
G04 #@! TO.P,J4,9*
G04 #@! TO.N,Net-(J4-Pad9)*
X219710000Y-87884000D03*
G04 #@! TO.P,J4,8*
G04 #@! TO.N,Net-(J4-Pad8)*
X219710000Y-90424000D03*
G04 #@! TO.P,J4,7*
G04 #@! TO.N,Net-(J4-Pad7)*
X219710000Y-92964000D03*
G04 #@! TO.P,J4,6*
G04 #@! TO.N,Net-(J4-Pad6)*
X219710000Y-95504000D03*
G04 #@! TO.P,J4,5*
G04 #@! TO.N,Net-(J4-Pad5)*
X219710000Y-98044000D03*
G04 #@! TO.P,J4,4*
G04 #@! TO.N,Net-(J4-Pad4)*
X219710000Y-100584000D03*
G04 #@! TO.P,J4,3*
G04 #@! TO.N,Net-(J4-Pad3)*
X219710000Y-103124000D03*
G04 #@! TO.P,J4,2*
G04 #@! TO.N,Net-(J4-Pad2)*
X219710000Y-105664000D03*
D11*
G04 #@! TO.P,J4,1*
G04 #@! TO.N,Net-(J4-Pad1)*
X219710000Y-108204000D03*
G04 #@! TD*
G04 #@! TO.P,J5,1*
G04 #@! TO.N,Net-(J5-Pad1)*
X204089000Y-118110000D03*
D12*
G04 #@! TO.P,J5,2*
G04 #@! TO.N,Net-(J5-Pad2)*
X201549000Y-118110000D03*
G04 #@! TO.P,J5,3*
G04 #@! TO.N,Net-(J5-Pad3)*
X199009000Y-118110000D03*
G04 #@! TD*
D11*
G04 #@! TO.P,J6,1*
G04 #@! TO.N,Net-(J6-Pad1)*
X190627000Y-123571000D03*
D12*
G04 #@! TO.P,J6,2*
G04 #@! TO.N,Net-(J6-Pad2)*
X190627000Y-126111000D03*
G04 #@! TO.P,J6,3*
G04 #@! TO.N,Net-(J6-Pad3)*
X190627000Y-128651000D03*
G04 #@! TO.P,J6,4*
G04 #@! TO.N,Net-(J6-Pad4)*
X190627000Y-131191000D03*
G04 #@! TD*
G04 #@! TO.P,J9,4*
G04 #@! TO.N,Net-(J9-Pad4)*
X216408000Y-131572000D03*
G04 #@! TO.P,J9,3*
G04 #@! TO.N,Net-(J9-Pad3)*
X216408000Y-129032000D03*
G04 #@! TO.P,J9,2*
G04 #@! TO.N,Net-(J9-Pad2)*
X216408000Y-126492000D03*
D11*
G04 #@! TO.P,J9,1*
G04 #@! TO.N,Net-(J9-Pad1)*
X216408000Y-123952000D03*
G04 #@! TD*
D16*
G04 #@! TO.P,U1,9*
G04 #@! TO.N,Net-(J3-Pad9)*
X193929000Y-80264000D03*
G04 #@! TO.P,U1,10*
G04 #@! TO.N,Net-(J3-Pad10)*
X193929000Y-82804000D03*
G04 #@! TO.P,U1,11*
G04 #@! TO.N,Net-(J3-Pad11)*
X193929000Y-85344000D03*
G04 #@! TO.P,U1,8*
G04 #@! TO.N,Net-(J3-Pad8)*
X193929000Y-77724000D03*
G04 #@! TO.P,U1,7*
G04 #@! TO.N,Net-(J3-Pad7)*
X193929000Y-75184000D03*
G04 #@! TO.P,U1,6*
G04 #@! TO.N,Net-(J3-Pad6)*
X193929000Y-72644000D03*
G04 #@! TO.P,U1,5*
G04 #@! TO.N,Net-(J3-Pad5)*
X193929000Y-70104000D03*
G04 #@! TO.P,U1,4*
G04 #@! TO.N,Net-(J3-Pad4)*
X193929000Y-67564000D03*
G04 #@! TO.P,U1,3*
G04 #@! TO.N,Net-(J3-Pad3)*
X193929000Y-65024000D03*
G04 #@! TO.P,U1,2*
G04 #@! TO.N,Net-(J3-Pad2)*
X193929000Y-62484000D03*
D17*
G04 #@! TO.P,U1,1*
G04 #@! TO.N,Net-(J3-Pad1)*
X193929000Y-59944000D03*
D16*
G04 #@! TO.P,U1,12*
G04 #@! TO.N,Net-(J3-Pad12)*
X193929000Y-87884000D03*
G04 #@! TO.P,U1,13*
G04 #@! TO.N,Net-(J3-Pad13)*
X193929000Y-90424000D03*
G04 #@! TO.P,U1,14*
G04 #@! TO.N,Net-(J3-Pad14)*
X193929000Y-92964000D03*
G04 #@! TO.P,U1,15*
G04 #@! TO.N,Net-(J3-Pad15)*
X193929000Y-95504000D03*
G04 #@! TO.P,U1,16*
G04 #@! TO.N,Net-(J3-Pad16)*
X193929000Y-98044000D03*
G04 #@! TO.P,U1,17*
G04 #@! TO.N,Net-(J3-Pad17)*
X193929000Y-100584000D03*
G04 #@! TO.P,U1,18*
G04 #@! TO.N,Net-(J3-Pad18)*
X193929000Y-103124000D03*
G04 #@! TO.P,U1,19*
G04 #@! TO.N,Net-(J3-Pad19)*
X193929000Y-105664000D03*
G04 #@! TO.P,U1,20*
G04 #@! TO.N,Net-(J3-Pad20)*
X193929000Y-108204000D03*
G04 #@! TO.P,U1,21*
G04 #@! TO.N,Net-(J5-Pad3)*
X199009000Y-108204000D03*
G04 #@! TO.P,U1,22*
G04 #@! TO.N,Net-(J5-Pad2)*
X201549000Y-108204000D03*
G04 #@! TO.P,U1,23*
G04 #@! TO.N,Net-(J5-Pad1)*
X204089000Y-108204000D03*
G04 #@! TO.P,U1,24*
G04 #@! TO.N,Net-(J4-Pad1)*
X209169000Y-108204000D03*
G04 #@! TO.P,U1,25*
G04 #@! TO.N,Net-(J4-Pad2)*
X209169000Y-105664000D03*
G04 #@! TO.P,U1,26*
G04 #@! TO.N,Net-(J4-Pad3)*
X209169000Y-103124000D03*
G04 #@! TO.P,U1,27*
G04 #@! TO.N,Net-(J4-Pad4)*
X209169000Y-100584000D03*
G04 #@! TO.P,U1,28*
G04 #@! TO.N,Net-(J4-Pad5)*
X209169000Y-98044000D03*
G04 #@! TO.P,U1,29*
G04 #@! TO.N,Net-(J4-Pad6)*
X209169000Y-95504000D03*
G04 #@! TO.P,U1,30*
G04 #@! TO.N,Net-(J4-Pad7)*
X209169000Y-92964000D03*
G04 #@! TO.P,U1,31*
G04 #@! TO.N,Net-(J4-Pad8)*
X209169000Y-90424000D03*
G04 #@! TO.P,U1,32*
G04 #@! TO.N,Net-(J4-Pad9)*
X209169000Y-87884000D03*
G04 #@! TO.P,U1,33*
G04 #@! TO.N,Net-(J4-Pad10)*
X209169000Y-85344000D03*
G04 #@! TO.P,U1,34*
G04 #@! TO.N,Net-(J4-Pad11)*
X209169000Y-82804000D03*
G04 #@! TO.P,U1,35*
G04 #@! TO.N,Net-(J4-Pad12)*
X209169000Y-80264000D03*
G04 #@! TO.P,U1,36*
G04 #@! TO.N,Net-(J4-Pad13)*
X209169000Y-77724000D03*
G04 #@! TO.P,U1,37*
G04 #@! TO.N,Net-(J4-Pad14)*
X209169000Y-75184000D03*
G04 #@! TO.P,U1,38*
G04 #@! TO.N,Net-(J4-Pad15)*
X209169000Y-72644000D03*
G04 #@! TO.P,U1,39*
G04 #@! TO.N,Net-(J4-Pad16)*
X209169000Y-70104000D03*
G04 #@! TO.P,U1,40*
G04 #@! TO.N,Net-(J4-Pad17)*
X209169000Y-67564000D03*
G04 #@! TO.P,U1,41*
G04 #@! TO.N,Net-(J4-Pad18)*
X209169000Y-65024000D03*
G04 #@! TO.P,U1,42*
G04 #@! TO.N,Net-(J4-Pad19)*
X209169000Y-62484000D03*
G04 #@! TO.P,U1,43*
G04 #@! TO.N,Net-(J4-Pad20)*
X209169000Y-59944000D03*
G04 #@! TO.P,U1,44*
G04 #@! TO.N,Net-(J9-Pad1)*
X204089000Y-92964000D03*
G04 #@! TO.P,U1,45*
G04 #@! TO.N,Net-(J9-Pad2)*
X204089000Y-95504000D03*
G04 #@! TO.P,U1,46*
G04 #@! TO.N,Net-(J9-Pad3)*
X204089000Y-98044000D03*
G04 #@! TO.P,U1,47*
G04 #@! TO.N,Net-(J9-Pad4)*
X204089000Y-100584000D03*
G04 #@! TO.P,U1,48*
G04 #@! TO.N,Net-(J6-Pad1)*
X201549000Y-92964000D03*
G04 #@! TO.P,U1,49*
G04 #@! TO.N,Net-(J6-Pad2)*
X201549000Y-95504000D03*
G04 #@! TO.P,U1,50*
G04 #@! TO.N,Net-(J6-Pad3)*
X201549000Y-98044000D03*
G04 #@! TO.P,U1,51*
G04 #@! TO.N,Net-(J6-Pad4)*
X201549000Y-100584000D03*
G04 #@! TO.P,U1,52*
G04 #@! TO.N,Net-(J10-Pad1)*
X199009000Y-100584000D03*
G04 #@! TD*
D11*
G04 #@! TO.P,J10,1*
G04 #@! TO.N,Net-(J10-Pad1)*
X184912000Y-116586000D03*
G04 #@! TD*
D18*
G04 #@! TO.N,Net-(J1-Pad14)*
X242937000Y-78867000D02*
X234823000Y-78867000D01*
X248140000Y-73664000D02*
X242937000Y-78867000D01*
G04 #@! TO.N,Net-(J1-Pad12)*
X242397000Y-81407000D02*
X234823000Y-81407000D01*
X248140000Y-75664000D02*
X242397000Y-81407000D01*
G04 #@! TO.N,Net-(J1-Pad10)*
X241857000Y-83947000D02*
X234823000Y-83947000D01*
X248140000Y-77664000D02*
X241857000Y-83947000D01*
G04 #@! TO.N,Net-(J1-Pad8)*
X241317000Y-86487000D02*
X234823000Y-86487000D01*
X248140000Y-79664000D02*
X241317000Y-86487000D01*
G04 #@! TO.N,Net-(J1-Pad6)*
X236025081Y-89027000D02*
X234823000Y-89027000D01*
X239822406Y-89027000D02*
X236025081Y-89027000D01*
X247185406Y-81664000D02*
X239822406Y-89027000D01*
X248140000Y-81664000D02*
X247185406Y-81664000D01*
G04 #@! TO.N,Net-(J1-Pad4)*
X248140000Y-83664000D02*
X246663000Y-83664000D01*
X236025081Y-91567000D02*
X234823000Y-91567000D01*
X239672002Y-91567000D02*
X236025081Y-91567000D01*
X240348001Y-90891001D02*
X239672002Y-91567000D01*
X240348001Y-89978999D02*
X240348001Y-90891001D01*
X246663000Y-83664000D02*
X240348001Y-89978999D01*
G04 #@! TO.N,Net-(J1-Pad2)*
X239697000Y-94107000D02*
X234823000Y-94107000D01*
X248140000Y-85664000D02*
X239697000Y-94107000D01*
G04 #@! TO.N,Net-(J1-Pad28)*
X235146000Y-59664000D02*
X234823000Y-59987000D01*
X234823000Y-59987000D02*
X234823000Y-61087000D01*
X248140000Y-59664000D02*
X235146000Y-59664000D01*
G04 #@! TO.N,Net-(J1-Pad20)*
X244557000Y-71247000D02*
X234823000Y-71247000D01*
X248140000Y-67664000D02*
X244557000Y-71247000D01*
G04 #@! TO.N,Net-(J1-Pad26)*
X248140000Y-61664000D02*
X242639000Y-61664000D01*
X242639000Y-61664000D02*
X241427000Y-60452000D01*
X241427000Y-60452000D02*
X237998000Y-60452000D01*
X237998000Y-60452000D02*
X236855000Y-61595000D01*
X236855000Y-61595000D02*
X234823000Y-63627000D01*
G04 #@! TO.N,Net-(J1-Pad16)*
X243477000Y-76327000D02*
X234823000Y-76327000D01*
X248140000Y-71664000D02*
X243477000Y-76327000D01*
G04 #@! TO.N,Net-(J1-Pad24)*
X237326000Y-63664000D02*
X234823000Y-66167000D01*
X248140000Y-63664000D02*
X237326000Y-63664000D01*
G04 #@! TO.N,Net-(J1-Pad22)*
X244142406Y-68707000D02*
X236025081Y-68707000D01*
X247185406Y-65664000D02*
X244142406Y-68707000D01*
X236025081Y-68707000D02*
X234823000Y-68707000D01*
X248140000Y-65664000D02*
X247185406Y-65664000D01*
G04 #@! TO.N,Net-(J1-Pad18)*
X244017000Y-73787000D02*
X234823000Y-73787000D01*
X248140000Y-69664000D02*
X244017000Y-73787000D01*
G04 #@! TO.N,Net-(J10-Pad1)*
X197877630Y-100584000D02*
X197231000Y-101230630D01*
X199009000Y-100584000D02*
X197877630Y-100584000D01*
X197231000Y-101230630D02*
X197231000Y-110871000D01*
X191516000Y-116586000D02*
X184912000Y-116586000D01*
X197231000Y-110871000D02*
X191516000Y-116586000D01*
G04 #@! TD*
M02*
