G04 #@! TF.GenerationSoftware,KiCad,Pcbnew,(5.0.0-3-g5ebb6b6)*
G04 #@! TF.CreationDate,2020-04-03T01:15:25-07:00*
G04 #@! TF.ProjectId,keyboard,6B6579626F6172642E6B696361645F70,rev?*
G04 #@! TF.SameCoordinates,Original*
G04 #@! TF.FileFunction,Soldermask,Bot*
G04 #@! TF.FilePolarity,Negative*
%FSLAX46Y46*%
G04 Gerber Fmt 4.6, Leading zero omitted, Abs format (unit mm)*
G04 Created by KiCad (PCBNEW (5.0.0-3-g5ebb6b6)) date Friday, April 03, 2020 at 01:15:25 AM*
%MOMM*%
%LPD*%
G01*
G04 APERTURE LIST*
%ADD10R,2.100000X2.100000*%
%ADD11O,2.100000X2.100000*%
%ADD12C,2.000000*%
%ADD13R,2.000000X2.000000*%
%ADD14O,1.750000X1.750000*%
%ADD15R,1.750000X1.750000*%
%ADD16C,1.750000*%
%ADD17C,2.100000*%
G04 APERTURE END LIST*
D10*
G04 #@! TO.C,J2*
X252349000Y-122809000D03*
D11*
X249809000Y-122809000D03*
X247269000Y-122809000D03*
X244729000Y-122809000D03*
X242189000Y-122809000D03*
X239649000Y-122809000D03*
X237109000Y-122809000D03*
X234569000Y-122809000D03*
G04 #@! TD*
D10*
G04 #@! TO.C,J8*
X252222000Y-134747000D03*
D11*
X249682000Y-134747000D03*
X247142000Y-134747000D03*
X244602000Y-134747000D03*
X242062000Y-134747000D03*
X239522000Y-134747000D03*
X236982000Y-134747000D03*
X234442000Y-134747000D03*
G04 #@! TD*
D10*
G04 #@! TO.C,J3*
X184912000Y-59944000D03*
D11*
X184912000Y-62484000D03*
X184912000Y-65024000D03*
X184912000Y-67564000D03*
X184912000Y-70104000D03*
X184912000Y-72644000D03*
X184912000Y-75184000D03*
X184912000Y-77724000D03*
X184912000Y-80264000D03*
X184912000Y-82804000D03*
X184912000Y-85344000D03*
X184912000Y-87884000D03*
X184912000Y-90424000D03*
X184912000Y-92964000D03*
X184912000Y-95504000D03*
X184912000Y-98044000D03*
X184912000Y-100584000D03*
X184912000Y-103124000D03*
X184912000Y-105664000D03*
X184912000Y-108204000D03*
G04 #@! TD*
G04 #@! TO.C,J4*
X219710000Y-59944000D03*
X219710000Y-62484000D03*
X219710000Y-65024000D03*
X219710000Y-67564000D03*
X219710000Y-70104000D03*
X219710000Y-72644000D03*
X219710000Y-75184000D03*
X219710000Y-77724000D03*
X219710000Y-80264000D03*
X219710000Y-82804000D03*
X219710000Y-85344000D03*
X219710000Y-87884000D03*
X219710000Y-90424000D03*
X219710000Y-92964000D03*
X219710000Y-95504000D03*
X219710000Y-98044000D03*
X219710000Y-100584000D03*
X219710000Y-103124000D03*
X219710000Y-105664000D03*
D10*
X219710000Y-108204000D03*
G04 #@! TD*
G04 #@! TO.C,J5*
X204089000Y-118110000D03*
D11*
X201549000Y-118110000D03*
X199009000Y-118110000D03*
G04 #@! TD*
D10*
G04 #@! TO.C,J6*
X190627000Y-123571000D03*
D11*
X190627000Y-126111000D03*
X190627000Y-128651000D03*
X190627000Y-131191000D03*
G04 #@! TD*
G04 #@! TO.C,J9*
X216408000Y-131572000D03*
X216408000Y-129032000D03*
X216408000Y-126492000D03*
D10*
X216408000Y-123952000D03*
G04 #@! TD*
D12*
G04 #@! TO.C,U1*
X193929000Y-80264000D03*
X193929000Y-82804000D03*
X193929000Y-85344000D03*
X193929000Y-77724000D03*
X193929000Y-75184000D03*
X193929000Y-72644000D03*
X193929000Y-70104000D03*
X193929000Y-67564000D03*
X193929000Y-65024000D03*
X193929000Y-62484000D03*
D13*
X193929000Y-59944000D03*
D12*
X193929000Y-87884000D03*
X193929000Y-90424000D03*
X193929000Y-92964000D03*
X193929000Y-95504000D03*
X193929000Y-98044000D03*
X193929000Y-100584000D03*
X193929000Y-103124000D03*
X193929000Y-105664000D03*
X193929000Y-108204000D03*
X199009000Y-108204000D03*
X201549000Y-108204000D03*
X204089000Y-108204000D03*
X209169000Y-108204000D03*
X209169000Y-105664000D03*
X209169000Y-103124000D03*
X209169000Y-100584000D03*
X209169000Y-98044000D03*
X209169000Y-95504000D03*
X209169000Y-92964000D03*
X209169000Y-90424000D03*
X209169000Y-87884000D03*
X209169000Y-85344000D03*
X209169000Y-82804000D03*
X209169000Y-80264000D03*
X209169000Y-77724000D03*
X209169000Y-75184000D03*
X209169000Y-72644000D03*
X209169000Y-70104000D03*
X209169000Y-67564000D03*
X209169000Y-65024000D03*
X209169000Y-62484000D03*
X209169000Y-59944000D03*
X204089000Y-92964000D03*
X204089000Y-95504000D03*
X204089000Y-98044000D03*
X204089000Y-100584000D03*
X201549000Y-92964000D03*
X201549000Y-95504000D03*
X201549000Y-98044000D03*
X201549000Y-100584000D03*
X199009000Y-100584000D03*
G04 #@! TD*
D10*
G04 #@! TO.C,J10*
X184912000Y-116586000D03*
G04 #@! TD*
D14*
G04 #@! TO.C,J1*
X254904240Y-67294200D03*
X254904240Y-69294200D03*
X254904240Y-71294200D03*
X254904240Y-73294200D03*
X254904240Y-75294200D03*
X254904240Y-77294200D03*
X254904240Y-79294200D03*
X254904240Y-81294200D03*
X254904240Y-83294200D03*
X254904240Y-85294200D03*
X254904240Y-87294200D03*
X254904240Y-89294200D03*
X254904240Y-91294200D03*
D15*
X254904240Y-93294200D03*
D14*
X252854240Y-80344200D03*
X252854240Y-66344200D03*
X252854240Y-82344200D03*
X252854240Y-84344200D03*
X252854240Y-72344200D03*
X252854240Y-70344200D03*
D16*
X252854240Y-92344200D03*
D14*
X252854240Y-76344200D03*
X252854240Y-90344200D03*
X252854240Y-68344200D03*
X252854240Y-74344200D03*
X252854240Y-88344200D03*
X252854240Y-78344200D03*
X252854240Y-86344200D03*
X252854240Y-64344200D03*
X254904240Y-65294200D03*
G04 #@! TD*
D17*
G04 #@! TO.C,J7*
X239537240Y-67767200D03*
D11*
X239537240Y-70307200D03*
X239537240Y-72847200D03*
X239537240Y-75387200D03*
X239537240Y-77927200D03*
X239537240Y-80467200D03*
X239537240Y-83007200D03*
X239537240Y-85547200D03*
X239537240Y-88087200D03*
X239537240Y-90627200D03*
X239537240Y-93167200D03*
X239537240Y-95707200D03*
X239537240Y-98247200D03*
X239537240Y-100787200D03*
X243887240Y-79227200D03*
X243887240Y-81767200D03*
X243887240Y-91927200D03*
X243887240Y-74147200D03*
X243887240Y-94467200D03*
X243887240Y-71607200D03*
X243887240Y-76687200D03*
D17*
X243887240Y-69067200D03*
D11*
X243887240Y-97007200D03*
X243887240Y-99547200D03*
X243887240Y-84307200D03*
X243887240Y-86847200D03*
X243887240Y-102087200D03*
X243887240Y-89387200D03*
D17*
X239537240Y-65217200D03*
X243887240Y-66417200D03*
G04 #@! TD*
M02*
