M48
;DRILL file {KiCad (5.0.0-3-g5ebb6b6)} date Friday, September 06, 2019 at 12:58:30 AM
;FORMAT={-:-/ absolute / inch / decimal}
FMAT,2
INCH,TZ
T1C0.0315
T2C0.0394
T3C0.0433
%
G90
G05
M72
T1
X9.7693Y-2.349
X9.7693Y-2.4277
X9.7693Y-2.5065
X9.7693Y-2.5852
X9.7693Y-2.6639
X9.7693Y-2.7427
X9.7693Y-2.8214
X9.7693Y-2.9002
X9.7693Y-2.9789
X9.7693Y-3.0576
X9.7693Y-3.1364
X9.7693Y-3.2151
X9.7693Y-3.2939
X9.7693Y-3.3726
X9.85Y-2.3864
X9.85Y-2.4651
X9.85Y-2.5439
X9.85Y-2.6226
X9.85Y-2.7013
X9.85Y-2.7801
X9.85Y-2.8588
X9.85Y-2.9376
X9.85Y-3.0163
X9.85Y-3.095
X9.85Y-3.1738
X9.85Y-3.2525
X9.85Y-3.3313
X9.85Y-3.41
T2
X9.245Y-2.405
X9.245Y-2.505
X9.245Y-2.605
X9.245Y-2.705
X9.245Y-2.805
X9.245Y-2.905
X9.245Y-3.005
X9.245Y-3.105
X9.245Y-3.205
X9.245Y-3.305
X9.245Y-3.405
X9.245Y-3.505
X9.245Y-3.605
X9.245Y-3.705
X9.4163Y-2.4562
X9.4163Y-2.5562
X9.4163Y-2.6562
X9.4163Y-2.7562
X9.4163Y-2.8562
X9.4163Y-2.9562
X9.4163Y-3.0562
X9.4163Y-3.1562
X9.4163Y-3.2562
X9.4163Y-3.3562
X9.4163Y-3.4562
X9.4163Y-3.5562
X9.4163Y-3.6562
X9.4163Y-3.7562
X7.505Y-4.865
X7.505Y-4.965
X7.505Y-5.065
X7.505Y-5.165
X9.23Y-5.305
X9.33Y-5.305
X9.43Y-5.305
X9.53Y-5.305
X9.63Y-5.305
X9.73Y-5.305
X9.83Y-5.305
X9.93Y-5.305
X9.235Y-4.835
X9.335Y-4.835
X9.435Y-4.835
X9.535Y-4.835
X9.635Y-4.835
X9.735Y-4.835
X9.835Y-4.835
X9.935Y-4.835
X7.28Y-4.59
X8.65Y-2.36
X8.65Y-2.46
X8.65Y-2.56
X8.65Y-2.66
X8.65Y-2.76
X8.65Y-2.86
X8.65Y-2.96
X8.65Y-3.06
X8.65Y-3.16
X8.65Y-3.26
X8.65Y-3.36
X8.65Y-3.46
X8.65Y-3.56
X8.65Y-3.66
X8.65Y-3.76
X8.65Y-3.86
X8.65Y-3.96
X8.65Y-4.06
X8.65Y-4.16
X8.65Y-4.26
X7.835Y-4.65
X7.935Y-4.65
X8.035Y-4.65
X7.28Y-2.36
X7.28Y-2.46
X7.28Y-2.56
X7.28Y-2.66
X7.28Y-2.76
X7.28Y-2.86
X7.28Y-2.96
X7.28Y-3.06
X7.28Y-3.16
X7.28Y-3.26
X7.28Y-3.36
X7.28Y-3.46
X7.28Y-3.56
X7.28Y-3.66
X7.28Y-3.76
X7.28Y-3.86
X7.28Y-3.96
X7.28Y-4.06
X7.28Y-4.16
X7.28Y-4.26
X8.52Y-4.88
X8.52Y-4.98
X8.52Y-5.08
X8.52Y-5.18
T3
X7.635Y-2.36
X7.635Y-2.46
X7.635Y-2.56
X7.635Y-2.66
X7.635Y-2.76
X7.635Y-2.86
X7.635Y-2.96
X7.635Y-3.06
X7.635Y-3.16
X7.635Y-3.26
X7.635Y-3.36
X7.635Y-3.46
X7.635Y-3.56
X7.635Y-3.66
X7.635Y-3.76
X7.635Y-3.86
X7.635Y-3.96
X7.635Y-4.06
X7.635Y-4.16
X7.635Y-4.26
X7.835Y-3.96
X7.835Y-4.26
X7.935Y-3.66
X7.935Y-3.76
X7.935Y-3.86
X7.935Y-3.96
X7.935Y-4.26
X8.035Y-3.66
X8.035Y-3.76
X8.035Y-3.86
X8.035Y-3.96
X8.035Y-4.26
X8.235Y-2.36
X8.235Y-2.46
X8.235Y-2.56
X8.235Y-2.66
X8.235Y-2.76
X8.235Y-2.86
X8.235Y-2.96
X8.235Y-3.06
X8.235Y-3.16
X8.235Y-3.26
X8.235Y-3.36
X8.235Y-3.46
X8.235Y-3.56
X8.235Y-3.66
X8.235Y-3.76
X8.235Y-3.86
X8.235Y-3.96
X8.235Y-4.06
X8.235Y-4.16
X8.235Y-4.26
T0
M30
