M48
;DRILL file {KiCad (5.0.0-3-g5ebb6b6)} date Friday, April 03, 2020 at 01:17:01 AM
;FORMAT={-:-/ absolute / inch / decimal}
FMAT,2
INCH,TZ
T1C0.0315
T2C0.0394
T3C0.0433
%
G90
G05
M72
T1
X9.9549Y-2.5332
X9.9549Y-2.612
X9.9549Y-2.6907
X9.9549Y-2.7695
X9.9549Y-2.8482
X9.9549Y-2.9269
X9.9549Y-3.0057
X9.9549Y-3.0844
X9.9549Y-3.1632
X9.9549Y-3.2419
X9.9549Y-3.3206
X9.9549Y-3.3994
X9.9549Y-3.4781
X9.9549Y-3.5569
X9.9549Y-3.6356
X10.0356Y-2.5706
X10.0356Y-2.6494
X10.0356Y-2.7281
X10.0356Y-2.8069
X10.0356Y-2.8856
X10.0356Y-2.9643
X10.0356Y-3.0431
X10.0356Y-3.1218
X10.0356Y-3.2006
X10.0356Y-3.2793
X10.0356Y-3.358
X10.0356Y-3.4368
X10.0356Y-3.5155
X10.0356Y-3.5943
X10.0356Y-3.673
T2
X8.52Y-4.88
X8.52Y-4.98
X8.52Y-5.08
X8.52Y-5.18
X9.4306Y-2.5676
X9.4306Y-2.668
X9.4306Y-2.768
X9.4306Y-2.868
X9.4306Y-2.968
X9.4306Y-3.068
X9.4306Y-3.168
X9.4306Y-3.268
X9.4306Y-3.368
X9.4306Y-3.468
X9.4306Y-3.568
X9.4306Y-3.668
X9.4306Y-3.768
X9.4306Y-3.868
X9.4306Y-3.968
X9.6019Y-2.6149
X9.6019Y-2.7192
X9.6019Y-2.8192
X9.6019Y-2.9192
X9.6019Y-3.0192
X9.6019Y-3.1192
X9.6019Y-3.2192
X9.6019Y-3.3192
X9.6019Y-3.4192
X9.6019Y-3.5192
X9.6019Y-3.6192
X9.6019Y-3.7192
X9.6019Y-3.8192
X9.6019Y-3.9192
X9.6019Y-4.0192
X7.28Y-4.59
X7.28Y-2.36
X7.28Y-2.46
X7.28Y-2.56
X7.28Y-2.66
X7.28Y-2.76
X7.28Y-2.86
X7.28Y-2.96
X7.28Y-3.06
X7.28Y-3.16
X7.28Y-3.26
X7.28Y-3.36
X7.28Y-3.46
X7.28Y-3.56
X7.28Y-3.66
X7.28Y-3.76
X7.28Y-3.86
X7.28Y-3.96
X7.28Y-4.06
X7.28Y-4.16
X7.28Y-4.26
X9.235Y-4.835
X9.335Y-4.835
X9.435Y-4.835
X9.535Y-4.835
X9.635Y-4.835
X9.735Y-4.835
X9.835Y-4.835
X9.935Y-4.835
X7.505Y-4.865
X7.505Y-4.965
X7.505Y-5.065
X7.505Y-5.165
X7.835Y-4.65
X7.935Y-4.65
X8.035Y-4.65
X8.65Y-2.36
X8.65Y-2.46
X8.65Y-2.56
X8.65Y-2.66
X8.65Y-2.76
X8.65Y-2.86
X8.65Y-2.96
X8.65Y-3.06
X8.65Y-3.16
X8.65Y-3.26
X8.65Y-3.36
X8.65Y-3.46
X8.65Y-3.56
X8.65Y-3.66
X8.65Y-3.76
X8.65Y-3.86
X8.65Y-3.96
X8.65Y-4.06
X8.65Y-4.16
X8.65Y-4.26
X9.23Y-5.305
X9.33Y-5.305
X9.43Y-5.305
X9.53Y-5.305
X9.63Y-5.305
X9.73Y-5.305
X9.83Y-5.305
X9.93Y-5.305
T3
X7.635Y-2.36
X7.635Y-2.46
X7.635Y-2.56
X7.635Y-2.66
X7.635Y-2.76
X7.635Y-2.86
X7.635Y-2.96
X7.635Y-3.06
X7.635Y-3.16
X7.635Y-3.26
X7.635Y-3.36
X7.635Y-3.46
X7.635Y-3.56
X7.635Y-3.66
X7.635Y-3.76
X7.635Y-3.86
X7.635Y-3.96
X7.635Y-4.06
X7.635Y-4.16
X7.635Y-4.26
X7.835Y-3.96
X7.835Y-4.26
X7.935Y-3.66
X7.935Y-3.76
X7.935Y-3.86
X7.935Y-3.96
X7.935Y-4.26
X8.035Y-3.66
X8.035Y-3.76
X8.035Y-3.86
X8.035Y-3.96
X8.035Y-4.26
X8.235Y-2.36
X8.235Y-2.46
X8.235Y-2.56
X8.235Y-2.66
X8.235Y-2.76
X8.235Y-2.86
X8.235Y-2.96
X8.235Y-3.06
X8.235Y-3.16
X8.235Y-3.26
X8.235Y-3.36
X8.235Y-3.46
X8.235Y-3.56
X8.235Y-3.66
X8.235Y-3.76
X8.235Y-3.86
X8.235Y-3.96
X8.235Y-4.06
X8.235Y-4.16
X8.235Y-4.26
T0
M30
