G04 #@! TF.GenerationSoftware,KiCad,Pcbnew,(5.0.0-3-g5ebb6b6)*
G04 #@! TF.CreationDate,2019-09-06T00:58:35-07:00*
G04 #@! TF.ProjectId,keyboard,6B6579626F6172642E6B696361645F70,rev?*
G04 #@! TF.SameCoordinates,Original*
G04 #@! TF.FileFunction,Copper,L2,Bot,Signal*
G04 #@! TF.FilePolarity,Positive*
%FSLAX46Y46*%
G04 Gerber Fmt 4.6, Leading zero omitted, Abs format (unit mm)*
G04 Created by KiCad (PCBNEW (5.0.0-3-g5ebb6b6)) date Friday, September 06, 2019 at 12:58:35 AM*
%MOMM*%
%LPD*%
G01*
G04 APERTURE LIST*
G04 #@! TA.AperFunction,ComponentPad*
%ADD10R,1.700000X1.700000*%
G04 #@! TD*
G04 #@! TA.AperFunction,ComponentPad*
%ADD11O,1.700000X1.700000*%
G04 #@! TD*
G04 #@! TA.AperFunction,ComponentPad*
%ADD12O,1.350000X1.350000*%
G04 #@! TD*
G04 #@! TA.AperFunction,ComponentPad*
%ADD13R,1.350000X1.350000*%
G04 #@! TD*
G04 #@! TA.AperFunction,ComponentPad*
%ADD14C,1.350000*%
G04 #@! TD*
G04 #@! TA.AperFunction,ComponentPad*
%ADD15C,1.600000*%
G04 #@! TD*
G04 #@! TA.AperFunction,ComponentPad*
%ADD16R,1.600000X1.600000*%
G04 #@! TD*
G04 #@! TA.AperFunction,Conductor*
%ADD17C,0.250000*%
G04 #@! TD*
G04 APERTURE END LIST*
D10*
G04 #@! TO.P,J2,1*
G04 #@! TO.N,Net-(J2-Pad1)*
X252349000Y-122809000D03*
D11*
G04 #@! TO.P,J2,2*
G04 #@! TO.N,Net-(J2-Pad2)*
X249809000Y-122809000D03*
G04 #@! TO.P,J2,3*
G04 #@! TO.N,Net-(J2-Pad3)*
X247269000Y-122809000D03*
G04 #@! TO.P,J2,4*
G04 #@! TO.N,Net-(J2-Pad4)*
X244729000Y-122809000D03*
G04 #@! TO.P,J2,5*
G04 #@! TO.N,Net-(J2-Pad5)*
X242189000Y-122809000D03*
G04 #@! TO.P,J2,6*
G04 #@! TO.N,Net-(J2-Pad6)*
X239649000Y-122809000D03*
G04 #@! TO.P,J2,7*
G04 #@! TO.N,Net-(J2-Pad7)*
X237109000Y-122809000D03*
G04 #@! TO.P,J2,8*
G04 #@! TO.N,Net-(J2-Pad8)*
X234569000Y-122809000D03*
G04 #@! TD*
D12*
G04 #@! TO.P,J1,27*
G04 #@! TO.N,Net-(J1-Pad27)*
X250190000Y-60614000D03*
G04 #@! TO.P,J1,25*
G04 #@! TO.N,Net-(J1-Pad25)*
X250190000Y-62614000D03*
G04 #@! TO.P,J1,23*
G04 #@! TO.N,Net-(J1-Pad23)*
X250190000Y-64614000D03*
G04 #@! TO.P,J1,21*
G04 #@! TO.N,Net-(J1-Pad21)*
X250190000Y-66614000D03*
G04 #@! TO.P,J1,19*
G04 #@! TO.N,Net-(J1-Pad19)*
X250190000Y-68614000D03*
G04 #@! TO.P,J1,17*
G04 #@! TO.N,Net-(J1-Pad17)*
X250190000Y-70614000D03*
G04 #@! TO.P,J1,15*
G04 #@! TO.N,Net-(J1-Pad15)*
X250190000Y-72614000D03*
G04 #@! TO.P,J1,13*
G04 #@! TO.N,Net-(J1-Pad13)*
X250190000Y-74614000D03*
G04 #@! TO.P,J1,11*
G04 #@! TO.N,Net-(J1-Pad11)*
X250190000Y-76614000D03*
G04 #@! TO.P,J1,9*
G04 #@! TO.N,Net-(J1-Pad9)*
X250190000Y-78614000D03*
G04 #@! TO.P,J1,7*
G04 #@! TO.N,Net-(J1-Pad7)*
X250190000Y-80614000D03*
G04 #@! TO.P,J1,5*
G04 #@! TO.N,Net-(J1-Pad5)*
X250190000Y-82614000D03*
G04 #@! TO.P,J1,3*
G04 #@! TO.N,Net-(J1-Pad3)*
X250190000Y-84614000D03*
D13*
G04 #@! TO.P,J1,1*
G04 #@! TO.N,Net-(J1-Pad1)*
X250190000Y-86614000D03*
D12*
G04 #@! TO.P,J1,14*
G04 #@! TO.N,Net-(J1-Pad14)*
X248140000Y-73664000D03*
G04 #@! TO.P,J1,28*
G04 #@! TO.N,Net-(J1-Pad28)*
X248140000Y-59664000D03*
G04 #@! TO.P,J1,12*
G04 #@! TO.N,Net-(J1-Pad12)*
X248140000Y-75664000D03*
G04 #@! TO.P,J1,10*
G04 #@! TO.N,Net-(J1-Pad10)*
X248140000Y-77664000D03*
G04 #@! TO.P,J1,22*
G04 #@! TO.N,Net-(J1-Pad22)*
X248140000Y-65664000D03*
G04 #@! TO.P,J1,24*
G04 #@! TO.N,Net-(J1-Pad24)*
X248140000Y-63664000D03*
D14*
G04 #@! TO.P,J1,2*
G04 #@! TO.N,Net-(J1-Pad2)*
X248140000Y-85664000D03*
D12*
G04 #@! TO.P,J1,18*
G04 #@! TO.N,Net-(J1-Pad18)*
X248140000Y-69664000D03*
G04 #@! TO.P,J1,4*
G04 #@! TO.N,Net-(J1-Pad4)*
X248140000Y-83664000D03*
G04 #@! TO.P,J1,26*
G04 #@! TO.N,Net-(J1-Pad26)*
X248140000Y-61664000D03*
G04 #@! TO.P,J1,20*
G04 #@! TO.N,Net-(J1-Pad20)*
X248140000Y-67664000D03*
G04 #@! TO.P,J1,6*
G04 #@! TO.N,Net-(J1-Pad6)*
X248140000Y-81664000D03*
G04 #@! TO.P,J1,16*
G04 #@! TO.N,Net-(J1-Pad16)*
X248140000Y-71664000D03*
G04 #@! TO.P,J1,8*
G04 #@! TO.N,Net-(J1-Pad8)*
X248140000Y-79664000D03*
G04 #@! TD*
D10*
G04 #@! TO.P,J7,28*
G04 #@! TO.N,Net-(J1-Pad28)*
X234823000Y-61087000D03*
D11*
G04 #@! TO.P,J7,26*
G04 #@! TO.N,Net-(J1-Pad26)*
X234823000Y-63627000D03*
G04 #@! TO.P,J7,24*
G04 #@! TO.N,Net-(J1-Pad24)*
X234823000Y-66167000D03*
G04 #@! TO.P,J7,22*
G04 #@! TO.N,Net-(J1-Pad22)*
X234823000Y-68707000D03*
G04 #@! TO.P,J7,20*
G04 #@! TO.N,Net-(J1-Pad20)*
X234823000Y-71247000D03*
G04 #@! TO.P,J7,18*
G04 #@! TO.N,Net-(J1-Pad18)*
X234823000Y-73787000D03*
G04 #@! TO.P,J7,16*
G04 #@! TO.N,Net-(J1-Pad16)*
X234823000Y-76327000D03*
G04 #@! TO.P,J7,14*
G04 #@! TO.N,Net-(J1-Pad14)*
X234823000Y-78867000D03*
G04 #@! TO.P,J7,12*
G04 #@! TO.N,Net-(J1-Pad12)*
X234823000Y-81407000D03*
G04 #@! TO.P,J7,10*
G04 #@! TO.N,Net-(J1-Pad10)*
X234823000Y-83947000D03*
G04 #@! TO.P,J7,8*
G04 #@! TO.N,Net-(J1-Pad8)*
X234823000Y-86487000D03*
G04 #@! TO.P,J7,6*
G04 #@! TO.N,Net-(J1-Pad6)*
X234823000Y-89027000D03*
G04 #@! TO.P,J7,4*
G04 #@! TO.N,Net-(J1-Pad4)*
X234823000Y-91567000D03*
G04 #@! TO.P,J7,2*
G04 #@! TO.N,Net-(J1-Pad2)*
X234823000Y-94107000D03*
G04 #@! TO.P,J7,19*
G04 #@! TO.N,Net-(J1-Pad19)*
X239173000Y-72547000D03*
G04 #@! TO.P,J7,17*
G04 #@! TO.N,Net-(J1-Pad17)*
X239173000Y-75087000D03*
G04 #@! TO.P,J7,9*
G04 #@! TO.N,Net-(J1-Pad9)*
X239173000Y-85247000D03*
G04 #@! TO.P,J7,23*
G04 #@! TO.N,Net-(J1-Pad23)*
X239173000Y-67467000D03*
G04 #@! TO.P,J7,7*
G04 #@! TO.N,Net-(J1-Pad7)*
X239173000Y-87787000D03*
G04 #@! TO.P,J7,25*
G04 #@! TO.N,Net-(J1-Pad25)*
X239173000Y-64927000D03*
G04 #@! TO.P,J7,21*
G04 #@! TO.N,Net-(J1-Pad21)*
X239173000Y-70007000D03*
D10*
G04 #@! TO.P,J7,27*
G04 #@! TO.N,Net-(J1-Pad27)*
X239173000Y-62387000D03*
D11*
G04 #@! TO.P,J7,5*
G04 #@! TO.N,Net-(J1-Pad5)*
X239173000Y-90327000D03*
G04 #@! TO.P,J7,3*
G04 #@! TO.N,Net-(J1-Pad3)*
X239173000Y-92867000D03*
G04 #@! TO.P,J7,15*
G04 #@! TO.N,Net-(J1-Pad15)*
X239173000Y-77627000D03*
G04 #@! TO.P,J7,13*
G04 #@! TO.N,Net-(J1-Pad13)*
X239173000Y-80167000D03*
G04 #@! TO.P,J7,1*
G04 #@! TO.N,Net-(J1-Pad1)*
X239173000Y-95407000D03*
G04 #@! TO.P,J7,11*
G04 #@! TO.N,Net-(J1-Pad11)*
X239173000Y-82707000D03*
G04 #@! TD*
D10*
G04 #@! TO.P,J8,1*
G04 #@! TO.N,Net-(J2-Pad1)*
X252222000Y-134747000D03*
D11*
G04 #@! TO.P,J8,2*
G04 #@! TO.N,Net-(J2-Pad2)*
X249682000Y-134747000D03*
G04 #@! TO.P,J8,3*
G04 #@! TO.N,Net-(J2-Pad3)*
X247142000Y-134747000D03*
G04 #@! TO.P,J8,4*
G04 #@! TO.N,Net-(J2-Pad4)*
X244602000Y-134747000D03*
G04 #@! TO.P,J8,5*
G04 #@! TO.N,Net-(J2-Pad5)*
X242062000Y-134747000D03*
G04 #@! TO.P,J8,6*
G04 #@! TO.N,Net-(J2-Pad6)*
X239522000Y-134747000D03*
G04 #@! TO.P,J8,7*
G04 #@! TO.N,Net-(J2-Pad7)*
X236982000Y-134747000D03*
G04 #@! TO.P,J8,8*
G04 #@! TO.N,Net-(J2-Pad8)*
X234442000Y-134747000D03*
G04 #@! TD*
D10*
G04 #@! TO.P,J3,1*
G04 #@! TO.N,Net-(J3-Pad1)*
X184912000Y-59944000D03*
D11*
G04 #@! TO.P,J3,2*
G04 #@! TO.N,Net-(J3-Pad2)*
X184912000Y-62484000D03*
G04 #@! TO.P,J3,3*
G04 #@! TO.N,Net-(J3-Pad3)*
X184912000Y-65024000D03*
G04 #@! TO.P,J3,4*
G04 #@! TO.N,Net-(J3-Pad4)*
X184912000Y-67564000D03*
G04 #@! TO.P,J3,5*
G04 #@! TO.N,Net-(J3-Pad5)*
X184912000Y-70104000D03*
G04 #@! TO.P,J3,6*
G04 #@! TO.N,Net-(J3-Pad6)*
X184912000Y-72644000D03*
G04 #@! TO.P,J3,7*
G04 #@! TO.N,Net-(J3-Pad7)*
X184912000Y-75184000D03*
G04 #@! TO.P,J3,8*
G04 #@! TO.N,Net-(J3-Pad8)*
X184912000Y-77724000D03*
G04 #@! TO.P,J3,9*
G04 #@! TO.N,Net-(J3-Pad9)*
X184912000Y-80264000D03*
G04 #@! TO.P,J3,10*
G04 #@! TO.N,Net-(J3-Pad10)*
X184912000Y-82804000D03*
G04 #@! TO.P,J3,11*
G04 #@! TO.N,Net-(J3-Pad11)*
X184912000Y-85344000D03*
G04 #@! TO.P,J3,12*
G04 #@! TO.N,Net-(J3-Pad12)*
X184912000Y-87884000D03*
G04 #@! TO.P,J3,13*
G04 #@! TO.N,Net-(J3-Pad13)*
X184912000Y-90424000D03*
G04 #@! TO.P,J3,14*
G04 #@! TO.N,Net-(J3-Pad14)*
X184912000Y-92964000D03*
G04 #@! TO.P,J3,15*
G04 #@! TO.N,Net-(J3-Pad15)*
X184912000Y-95504000D03*
G04 #@! TO.P,J3,16*
G04 #@! TO.N,Net-(J3-Pad16)*
X184912000Y-98044000D03*
G04 #@! TO.P,J3,17*
G04 #@! TO.N,Net-(J3-Pad17)*
X184912000Y-100584000D03*
G04 #@! TO.P,J3,18*
G04 #@! TO.N,Net-(J3-Pad18)*
X184912000Y-103124000D03*
G04 #@! TO.P,J3,19*
G04 #@! TO.N,Net-(J3-Pad19)*
X184912000Y-105664000D03*
G04 #@! TO.P,J3,20*
G04 #@! TO.N,Net-(J3-Pad20)*
X184912000Y-108204000D03*
G04 #@! TD*
G04 #@! TO.P,J4,20*
G04 #@! TO.N,Net-(J4-Pad20)*
X219710000Y-59944000D03*
G04 #@! TO.P,J4,19*
G04 #@! TO.N,Net-(J4-Pad19)*
X219710000Y-62484000D03*
G04 #@! TO.P,J4,18*
G04 #@! TO.N,Net-(J4-Pad18)*
X219710000Y-65024000D03*
G04 #@! TO.P,J4,17*
G04 #@! TO.N,Net-(J4-Pad17)*
X219710000Y-67564000D03*
G04 #@! TO.P,J4,16*
G04 #@! TO.N,Net-(J4-Pad16)*
X219710000Y-70104000D03*
G04 #@! TO.P,J4,15*
G04 #@! TO.N,Net-(J4-Pad15)*
X219710000Y-72644000D03*
G04 #@! TO.P,J4,14*
G04 #@! TO.N,Net-(J4-Pad14)*
X219710000Y-75184000D03*
G04 #@! TO.P,J4,13*
G04 #@! TO.N,Net-(J4-Pad13)*
X219710000Y-77724000D03*
G04 #@! TO.P,J4,12*
G04 #@! TO.N,Net-(J4-Pad12)*
X219710000Y-80264000D03*
G04 #@! TO.P,J4,11*
G04 #@! TO.N,Net-(J4-Pad11)*
X219710000Y-82804000D03*
G04 #@! TO.P,J4,10*
G04 #@! TO.N,Net-(J4-Pad10)*
X219710000Y-85344000D03*
G04 #@! TO.P,J4,9*
G04 #@! TO.N,Net-(J4-Pad9)*
X219710000Y-87884000D03*
G04 #@! TO.P,J4,8*
G04 #@! TO.N,Net-(J4-Pad8)*
X219710000Y-90424000D03*
G04 #@! TO.P,J4,7*
G04 #@! TO.N,Net-(J4-Pad7)*
X219710000Y-92964000D03*
G04 #@! TO.P,J4,6*
G04 #@! TO.N,Net-(J4-Pad6)*
X219710000Y-95504000D03*
G04 #@! TO.P,J4,5*
G04 #@! TO.N,Net-(J4-Pad5)*
X219710000Y-98044000D03*
G04 #@! TO.P,J4,4*
G04 #@! TO.N,Net-(J4-Pad4)*
X219710000Y-100584000D03*
G04 #@! TO.P,J4,3*
G04 #@! TO.N,Net-(J4-Pad3)*
X219710000Y-103124000D03*
G04 #@! TO.P,J4,2*
G04 #@! TO.N,Net-(J4-Pad2)*
X219710000Y-105664000D03*
D10*
G04 #@! TO.P,J4,1*
G04 #@! TO.N,Net-(J4-Pad1)*
X219710000Y-108204000D03*
G04 #@! TD*
G04 #@! TO.P,J5,1*
G04 #@! TO.N,Net-(J5-Pad1)*
X204089000Y-118110000D03*
D11*
G04 #@! TO.P,J5,2*
G04 #@! TO.N,Net-(J5-Pad2)*
X201549000Y-118110000D03*
G04 #@! TO.P,J5,3*
G04 #@! TO.N,Net-(J5-Pad3)*
X199009000Y-118110000D03*
G04 #@! TD*
D10*
G04 #@! TO.P,J6,1*
G04 #@! TO.N,Net-(J6-Pad1)*
X190627000Y-123571000D03*
D11*
G04 #@! TO.P,J6,2*
G04 #@! TO.N,Net-(J6-Pad2)*
X190627000Y-126111000D03*
G04 #@! TO.P,J6,3*
G04 #@! TO.N,Net-(J6-Pad3)*
X190627000Y-128651000D03*
G04 #@! TO.P,J6,4*
G04 #@! TO.N,Net-(J6-Pad4)*
X190627000Y-131191000D03*
G04 #@! TD*
G04 #@! TO.P,J9,4*
G04 #@! TO.N,Net-(J9-Pad4)*
X216408000Y-131572000D03*
G04 #@! TO.P,J9,3*
G04 #@! TO.N,Net-(J9-Pad3)*
X216408000Y-129032000D03*
G04 #@! TO.P,J9,2*
G04 #@! TO.N,Net-(J9-Pad2)*
X216408000Y-126492000D03*
D10*
G04 #@! TO.P,J9,1*
G04 #@! TO.N,Net-(J9-Pad1)*
X216408000Y-123952000D03*
G04 #@! TD*
D15*
G04 #@! TO.P,U1,9*
G04 #@! TO.N,Net-(J3-Pad9)*
X193929000Y-80264000D03*
G04 #@! TO.P,U1,10*
G04 #@! TO.N,Net-(J3-Pad10)*
X193929000Y-82804000D03*
G04 #@! TO.P,U1,11*
G04 #@! TO.N,Net-(J3-Pad11)*
X193929000Y-85344000D03*
G04 #@! TO.P,U1,8*
G04 #@! TO.N,Net-(J3-Pad8)*
X193929000Y-77724000D03*
G04 #@! TO.P,U1,7*
G04 #@! TO.N,Net-(J3-Pad7)*
X193929000Y-75184000D03*
G04 #@! TO.P,U1,6*
G04 #@! TO.N,Net-(J3-Pad6)*
X193929000Y-72644000D03*
G04 #@! TO.P,U1,5*
G04 #@! TO.N,Net-(J3-Pad5)*
X193929000Y-70104000D03*
G04 #@! TO.P,U1,4*
G04 #@! TO.N,Net-(J3-Pad4)*
X193929000Y-67564000D03*
G04 #@! TO.P,U1,3*
G04 #@! TO.N,Net-(J3-Pad3)*
X193929000Y-65024000D03*
G04 #@! TO.P,U1,2*
G04 #@! TO.N,Net-(J3-Pad2)*
X193929000Y-62484000D03*
D16*
G04 #@! TO.P,U1,1*
G04 #@! TO.N,Net-(J3-Pad1)*
X193929000Y-59944000D03*
D15*
G04 #@! TO.P,U1,12*
G04 #@! TO.N,Net-(J3-Pad12)*
X193929000Y-87884000D03*
G04 #@! TO.P,U1,13*
G04 #@! TO.N,Net-(J3-Pad13)*
X193929000Y-90424000D03*
G04 #@! TO.P,U1,14*
G04 #@! TO.N,Net-(J3-Pad14)*
X193929000Y-92964000D03*
G04 #@! TO.P,U1,15*
G04 #@! TO.N,Net-(J3-Pad15)*
X193929000Y-95504000D03*
G04 #@! TO.P,U1,16*
G04 #@! TO.N,Net-(J3-Pad16)*
X193929000Y-98044000D03*
G04 #@! TO.P,U1,17*
G04 #@! TO.N,Net-(J3-Pad17)*
X193929000Y-100584000D03*
G04 #@! TO.P,U1,18*
G04 #@! TO.N,Net-(J3-Pad18)*
X193929000Y-103124000D03*
G04 #@! TO.P,U1,19*
G04 #@! TO.N,Net-(J3-Pad19)*
X193929000Y-105664000D03*
G04 #@! TO.P,U1,20*
G04 #@! TO.N,Net-(J3-Pad20)*
X193929000Y-108204000D03*
G04 #@! TO.P,U1,21*
G04 #@! TO.N,Net-(J5-Pad3)*
X199009000Y-108204000D03*
G04 #@! TO.P,U1,22*
G04 #@! TO.N,Net-(J5-Pad2)*
X201549000Y-108204000D03*
G04 #@! TO.P,U1,23*
G04 #@! TO.N,Net-(J5-Pad1)*
X204089000Y-108204000D03*
G04 #@! TO.P,U1,24*
G04 #@! TO.N,Net-(J4-Pad1)*
X209169000Y-108204000D03*
G04 #@! TO.P,U1,25*
G04 #@! TO.N,Net-(J4-Pad2)*
X209169000Y-105664000D03*
G04 #@! TO.P,U1,26*
G04 #@! TO.N,Net-(J4-Pad3)*
X209169000Y-103124000D03*
G04 #@! TO.P,U1,27*
G04 #@! TO.N,Net-(J4-Pad4)*
X209169000Y-100584000D03*
G04 #@! TO.P,U1,28*
G04 #@! TO.N,Net-(J4-Pad5)*
X209169000Y-98044000D03*
G04 #@! TO.P,U1,29*
G04 #@! TO.N,Net-(J4-Pad6)*
X209169000Y-95504000D03*
G04 #@! TO.P,U1,30*
G04 #@! TO.N,Net-(J4-Pad7)*
X209169000Y-92964000D03*
G04 #@! TO.P,U1,31*
G04 #@! TO.N,Net-(J4-Pad8)*
X209169000Y-90424000D03*
G04 #@! TO.P,U1,32*
G04 #@! TO.N,Net-(J4-Pad9)*
X209169000Y-87884000D03*
G04 #@! TO.P,U1,33*
G04 #@! TO.N,Net-(J4-Pad10)*
X209169000Y-85344000D03*
G04 #@! TO.P,U1,34*
G04 #@! TO.N,Net-(J4-Pad11)*
X209169000Y-82804000D03*
G04 #@! TO.P,U1,35*
G04 #@! TO.N,Net-(J4-Pad12)*
X209169000Y-80264000D03*
G04 #@! TO.P,U1,36*
G04 #@! TO.N,Net-(J4-Pad13)*
X209169000Y-77724000D03*
G04 #@! TO.P,U1,37*
G04 #@! TO.N,Net-(J4-Pad14)*
X209169000Y-75184000D03*
G04 #@! TO.P,U1,38*
G04 #@! TO.N,Net-(J4-Pad15)*
X209169000Y-72644000D03*
G04 #@! TO.P,U1,39*
G04 #@! TO.N,Net-(J4-Pad16)*
X209169000Y-70104000D03*
G04 #@! TO.P,U1,40*
G04 #@! TO.N,Net-(J4-Pad17)*
X209169000Y-67564000D03*
G04 #@! TO.P,U1,41*
G04 #@! TO.N,Net-(J4-Pad18)*
X209169000Y-65024000D03*
G04 #@! TO.P,U1,42*
G04 #@! TO.N,Net-(J4-Pad19)*
X209169000Y-62484000D03*
G04 #@! TO.P,U1,43*
G04 #@! TO.N,Net-(J4-Pad20)*
X209169000Y-59944000D03*
G04 #@! TO.P,U1,44*
G04 #@! TO.N,Net-(J9-Pad1)*
X204089000Y-92964000D03*
G04 #@! TO.P,U1,45*
G04 #@! TO.N,Net-(J9-Pad2)*
X204089000Y-95504000D03*
G04 #@! TO.P,U1,46*
G04 #@! TO.N,Net-(J9-Pad3)*
X204089000Y-98044000D03*
G04 #@! TO.P,U1,47*
G04 #@! TO.N,Net-(J9-Pad4)*
X204089000Y-100584000D03*
G04 #@! TO.P,U1,48*
G04 #@! TO.N,Net-(J6-Pad1)*
X201549000Y-92964000D03*
G04 #@! TO.P,U1,49*
G04 #@! TO.N,Net-(J6-Pad2)*
X201549000Y-95504000D03*
G04 #@! TO.P,U1,50*
G04 #@! TO.N,Net-(J6-Pad3)*
X201549000Y-98044000D03*
G04 #@! TO.P,U1,51*
G04 #@! TO.N,Net-(J6-Pad4)*
X201549000Y-100584000D03*
G04 #@! TO.P,U1,52*
G04 #@! TO.N,Net-(J10-Pad1)*
X199009000Y-100584000D03*
G04 #@! TD*
D10*
G04 #@! TO.P,J10,1*
G04 #@! TO.N,Net-(J10-Pad1)*
X184912000Y-116586000D03*
G04 #@! TD*
D17*
G04 #@! TO.N,Net-(J3-Pad1)*
X193929000Y-59944000D02*
X184912000Y-59944000D01*
G04 #@! TO.N,Net-(J3-Pad2)*
X184912000Y-62484000D02*
X193929000Y-62484000D01*
G04 #@! TO.N,Net-(J3-Pad3)*
X193929000Y-65024000D02*
X184912000Y-65024000D01*
G04 #@! TO.N,Net-(J3-Pad4)*
X186114081Y-67564000D02*
X193929000Y-67564000D01*
X184912000Y-67564000D02*
X186114081Y-67564000D01*
G04 #@! TO.N,Net-(J3-Pad5)*
X193929000Y-70104000D02*
X184912000Y-70104000D01*
G04 #@! TO.N,Net-(J4-Pad1)*
X219710000Y-108204000D02*
X209169000Y-108204000D01*
G04 #@! TO.N,Net-(J4-Pad2)*
X209169000Y-105664000D02*
X219710000Y-105664000D01*
G04 #@! TO.N,Net-(J4-Pad3)*
X219710000Y-103124000D02*
X209169000Y-103124000D01*
G04 #@! TO.N,Net-(J4-Pad4)*
X209169000Y-100584000D02*
X219710000Y-100584000D01*
G04 #@! TO.N,Net-(J4-Pad5)*
X219710000Y-98044000D02*
X209169000Y-98044000D01*
G04 #@! TO.N,Net-(J4-Pad6)*
X210300370Y-95504000D02*
X219710000Y-95504000D01*
X209169000Y-95504000D02*
X210300370Y-95504000D01*
G04 #@! TO.N,Net-(J4-Pad7)*
X209169000Y-92964000D02*
X219710000Y-92964000D01*
G04 #@! TO.N,Net-(J4-Pad8)*
X218507919Y-90424000D02*
X209169000Y-90424000D01*
X219710000Y-90424000D02*
X218507919Y-90424000D01*
G04 #@! TO.N,Net-(J4-Pad9)*
X209169000Y-87884000D02*
X219710000Y-87884000D01*
G04 #@! TO.N,Net-(J4-Pad10)*
X219710000Y-85344000D02*
X209169000Y-85344000D01*
G04 #@! TO.N,Net-(J4-Pad11)*
X219710000Y-82804000D02*
X209169000Y-82804000D01*
G04 #@! TO.N,Net-(J4-Pad12)*
X210300370Y-80264000D02*
X219710000Y-80264000D01*
X209169000Y-80264000D02*
X210300370Y-80264000D01*
G04 #@! TO.N,Net-(J4-Pad13)*
X210300370Y-77724000D02*
X219710000Y-77724000D01*
X209169000Y-77724000D02*
X210300370Y-77724000D01*
G04 #@! TO.N,Net-(J4-Pad14)*
X209169000Y-75184000D02*
X219710000Y-75184000D01*
G04 #@! TO.N,Net-(J5-Pad3)*
X199009000Y-108204000D02*
X199009000Y-118110000D01*
G04 #@! TO.N,Net-(J5-Pad2)*
X201549000Y-108204000D02*
X201549000Y-118110000D01*
G04 #@! TO.N,Net-(J5-Pad1)*
X204089000Y-108204000D02*
X204089000Y-118110000D01*
G04 #@! TO.N,Net-(J6-Pad3)*
X196977000Y-113792000D02*
X196088000Y-114681000D01*
X196977000Y-99820590D02*
X196977000Y-113792000D01*
X196088000Y-127127000D02*
X194564000Y-128651000D01*
X196088000Y-114681000D02*
X196088000Y-127127000D01*
X194564000Y-128651000D02*
X190627000Y-128651000D01*
X198753590Y-98044000D02*
X196977000Y-99820590D01*
X201549000Y-98044000D02*
X198753590Y-98044000D01*
G04 #@! TO.N,Net-(J6-Pad4)*
X196850000Y-129159000D02*
X194818000Y-131191000D01*
X194818000Y-131191000D02*
X190627000Y-131191000D01*
X197612000Y-99822000D02*
X197612000Y-114427000D01*
X196850000Y-115189000D02*
X196850000Y-129159000D01*
X198247000Y-99187000D02*
X197612000Y-99822000D01*
X200152000Y-99187000D02*
X198247000Y-99187000D01*
X197612000Y-114427000D02*
X196850000Y-115189000D01*
X201549000Y-100584000D02*
X200152000Y-99187000D01*
G04 #@! TO.N,Net-(J1-Pad13)*
X238323001Y-81016999D02*
X239173000Y-80167000D01*
X236757999Y-82582001D02*
X238323001Y-81016999D01*
X234258999Y-82582001D02*
X236757999Y-82582001D01*
X231890980Y-95622800D02*
X231890980Y-84950020D01*
X231890980Y-84950020D02*
X234258999Y-82582001D01*
X253440046Y-88481006D02*
X242769999Y-99151047D01*
X235419226Y-99151046D02*
X231890980Y-95622800D01*
X242769999Y-99151047D02*
X235419226Y-99151046D01*
X253440047Y-77864047D02*
X253440046Y-88481006D01*
X250190000Y-74614000D02*
X253440047Y-77864047D01*
G04 #@! TO.N,Net-(J1-Pad11)*
X238323001Y-83556999D02*
X239173000Y-82707000D01*
X232340990Y-95436400D02*
X232340990Y-87064010D01*
X235605627Y-98701037D02*
X232340990Y-95436400D01*
X236757999Y-85122001D02*
X238323001Y-83556999D01*
X234282999Y-85122001D02*
X236757999Y-85122001D01*
X242583600Y-98701038D02*
X235605627Y-98701037D01*
X232340990Y-87064010D02*
X234282999Y-85122001D01*
X252990037Y-88294605D02*
X242583600Y-98701038D01*
X252990038Y-79414038D02*
X252990037Y-88294605D01*
X250190000Y-76614000D02*
X252990038Y-79414038D01*
G04 #@! TO.N,Net-(J1-Pad9)*
X242397200Y-98251028D02*
X235792028Y-98251028D01*
X252540028Y-88108204D02*
X242397200Y-98251028D01*
X252540029Y-80964029D02*
X252540028Y-88108204D01*
X250190000Y-78614000D02*
X252540029Y-80964029D01*
X235792028Y-98251028D02*
X232791000Y-95250000D01*
X238323001Y-86096999D02*
X239173000Y-85247000D01*
X236757999Y-87662001D02*
X238323001Y-86096999D01*
X234258999Y-87662001D02*
X236757999Y-87662001D01*
X232791000Y-89130000D02*
X234258999Y-87662001D01*
X232791000Y-95250000D02*
X232791000Y-89130000D01*
G04 #@! TO.N,Net-(J1-Pad7)*
X238323001Y-88636999D02*
X239173000Y-87787000D01*
X236462980Y-96384800D02*
X236462980Y-90497020D01*
X237879198Y-97801018D02*
X236462980Y-96384800D01*
X252090020Y-82514020D02*
X252090019Y-87921803D01*
X236462980Y-90497020D02*
X238323001Y-88636999D01*
X242210801Y-97801019D02*
X237879198Y-97801018D01*
X252090019Y-87921803D02*
X242210801Y-97801019D01*
X250190000Y-80614000D02*
X252090020Y-82514020D01*
G04 #@! TO.N,Net-(J1-Pad5)*
X238323001Y-91176999D02*
X239173000Y-90327000D01*
X236912990Y-96198400D02*
X236912990Y-92587010D01*
X238065599Y-97351009D02*
X236912990Y-96198400D01*
X242024402Y-97351010D02*
X238065599Y-97351009D01*
X251640010Y-87735402D02*
X242024402Y-97351010D01*
X236912990Y-92587010D02*
X238323001Y-91176999D01*
X251640011Y-84064011D02*
X251640010Y-87735402D01*
X250190000Y-82614000D02*
X251640011Y-84064011D01*
G04 #@! TO.N,Net-(J1-Pad3)*
X251190001Y-87549001D02*
X241838002Y-96901000D01*
X251190001Y-85614001D02*
X251190001Y-87549001D01*
X250190000Y-84614000D02*
X251190001Y-85614001D01*
X241838002Y-96901000D02*
X238252000Y-96901000D01*
X238252000Y-96901000D02*
X237363000Y-96012000D01*
X237363000Y-94677000D02*
X239173000Y-92867000D01*
X237363000Y-96012000D02*
X237363000Y-94677000D01*
G04 #@! TO.N,Net-(J1-Pad1)*
X242322000Y-95407000D02*
X240375081Y-95407000D01*
X240375081Y-95407000D02*
X239173000Y-95407000D01*
X250190000Y-87539000D02*
X242322000Y-95407000D01*
X250190000Y-86614000D02*
X250190000Y-87539000D01*
G04 #@! TO.N,Net-(J1-Pad21)*
X234519208Y-57069972D02*
X231775000Y-59814180D01*
X252360018Y-59444198D02*
X249985789Y-57069971D01*
X249985789Y-57069971D02*
X234519208Y-57069972D01*
X252360019Y-64443981D02*
X252360018Y-59444198D01*
X250190000Y-66614000D02*
X252360019Y-64443981D01*
X237970919Y-70007000D02*
X239173000Y-70007000D01*
X234383998Y-70007000D02*
X237970919Y-70007000D01*
X231775000Y-67398002D02*
X234383998Y-70007000D01*
X231775000Y-59814180D02*
X231775000Y-67398002D01*
G04 #@! TO.N,Net-(J1-Pad19)*
X252810026Y-59257799D02*
X250067227Y-56515000D01*
X252810026Y-65993974D02*
X252810026Y-59257799D01*
X250190000Y-68614000D02*
X252810026Y-65993974D01*
X250067227Y-56515000D02*
X234315000Y-56515000D01*
X237970919Y-72547000D02*
X239173000Y-72547000D01*
X234383998Y-72547000D02*
X237970919Y-72547000D01*
X231324990Y-69487992D02*
X234383998Y-72547000D01*
X231324990Y-59505010D02*
X231324990Y-69487992D01*
X234315000Y-56515000D02*
X231324990Y-59505010D01*
G04 #@! TO.N,Net-(J1-Pad25)*
X251144594Y-62614000D02*
X251460000Y-62298594D01*
X250190000Y-62614000D02*
X251144594Y-62614000D01*
X251460000Y-62298594D02*
X251460000Y-59817000D01*
X249612990Y-57969990D02*
X234892010Y-57969990D01*
X251460000Y-59817000D02*
X249612990Y-57969990D01*
X234892010Y-57969990D02*
X232791000Y-60071000D01*
X232791000Y-60071000D02*
X232791000Y-64262000D01*
X233456000Y-64927000D02*
X239173000Y-64927000D01*
X232791000Y-64262000D02*
X233456000Y-64927000D01*
G04 #@! TO.N,Net-(J1-Pad15)*
X233816609Y-55614981D02*
X230251000Y-59180590D01*
X250440027Y-55614980D02*
X233816609Y-55614981D01*
X253710044Y-58884997D02*
X250440027Y-55614980D01*
X253710045Y-69093955D02*
X253710044Y-58884997D01*
X250190000Y-72614000D02*
X253710045Y-69093955D01*
X237970919Y-77627000D02*
X239173000Y-77627000D01*
X234383998Y-77627000D02*
X237970919Y-77627000D01*
X230251000Y-73494002D02*
X234383998Y-77627000D01*
X230251000Y-59180590D02*
X230251000Y-73494002D01*
G04 #@! TO.N,Net-(J1-Pad23)*
X234383998Y-67467000D02*
X237970919Y-67467000D01*
X232340990Y-65423992D02*
X234383998Y-67467000D01*
X237970919Y-67467000D02*
X239173000Y-67467000D01*
X232340990Y-59884600D02*
X232340990Y-65423992D01*
X249799390Y-57519980D02*
X234705609Y-57519981D01*
X251910009Y-59630599D02*
X249799390Y-57519980D01*
X251910010Y-62893990D02*
X251910009Y-59630599D01*
X234705609Y-57519981D02*
X232340990Y-59884600D01*
X250190000Y-64614000D02*
X251910010Y-62893990D01*
G04 #@! TO.N,Net-(J1-Pad27)*
X250190000Y-59659406D02*
X248950594Y-58420000D01*
X250190000Y-60614000D02*
X250190000Y-59659406D01*
X248950594Y-58420000D02*
X240157000Y-58420000D01*
X239173000Y-59404000D02*
X239173000Y-62387000D01*
X240157000Y-58420000D02*
X239173000Y-59404000D01*
G04 #@! TO.N,Net-(J1-Pad17)*
X253260035Y-59071398D02*
X250253627Y-56064990D01*
X250253627Y-56064990D02*
X234003010Y-56064990D01*
X253260036Y-67543964D02*
X253260035Y-59071398D01*
X250190000Y-70614000D02*
X253260036Y-67543964D01*
X234003010Y-56064990D02*
X230759000Y-59309000D01*
X234383998Y-75087000D02*
X237970919Y-75087000D01*
X237970919Y-75087000D02*
X239173000Y-75087000D01*
X230759000Y-71462002D02*
X234383998Y-75087000D01*
X230759000Y-59309000D02*
X230759000Y-71462002D01*
G04 #@! TO.N,Net-(J2-Pad1)*
X252349000Y-134620000D02*
X252222000Y-134747000D01*
X252349000Y-122809000D02*
X252349000Y-134620000D01*
G04 #@! TO.N,Net-(J2-Pad2)*
X249682000Y-122936000D02*
X249809000Y-122809000D01*
X249682000Y-134747000D02*
X249682000Y-122936000D01*
G04 #@! TO.N,Net-(J2-Pad3)*
X247142000Y-122936000D02*
X247269000Y-122809000D01*
X247142000Y-134747000D02*
X247142000Y-122936000D01*
G04 #@! TO.N,Net-(J2-Pad4)*
X244602000Y-122936000D02*
X244729000Y-122809000D01*
X244602000Y-134747000D02*
X244602000Y-122936000D01*
G04 #@! TO.N,Net-(J2-Pad5)*
X242189000Y-134620000D02*
X242062000Y-134747000D01*
X242189000Y-122809000D02*
X242189000Y-134620000D01*
G04 #@! TO.N,Net-(J2-Pad6)*
X239522000Y-122936000D02*
X239649000Y-122809000D01*
X239522000Y-134747000D02*
X239522000Y-122936000D01*
G04 #@! TO.N,Net-(J2-Pad7)*
X237109000Y-134620000D02*
X236982000Y-134747000D01*
X237109000Y-122809000D02*
X237109000Y-134620000D01*
G04 #@! TO.N,Net-(J2-Pad8)*
X234442000Y-122936000D02*
X234569000Y-122809000D01*
X234442000Y-134747000D02*
X234442000Y-122936000D01*
G04 #@! TO.N,Net-(J9-Pad1)*
X216408000Y-119507000D02*
X216408000Y-122852000D01*
X216408000Y-122852000D02*
X216408000Y-123952000D01*
X207264000Y-96139000D02*
X207264000Y-110363000D01*
X207264000Y-110363000D02*
X216408000Y-119507000D01*
X204089000Y-92964000D02*
X207264000Y-96139000D01*
G04 #@! TO.N,Net-(J3-Pad6)*
X193929000Y-72644000D02*
X184912000Y-72644000D01*
G04 #@! TO.N,Net-(J3-Pad7)*
X192797630Y-75184000D02*
X184912000Y-75184000D01*
X193929000Y-75184000D02*
X192797630Y-75184000D01*
G04 #@! TO.N,Net-(J3-Pad8)*
X184912000Y-77724000D02*
X193929000Y-77724000D01*
G04 #@! TO.N,Net-(J3-Pad9)*
X193929000Y-80264000D02*
X184912000Y-80264000D01*
G04 #@! TO.N,Net-(J3-Pad10)*
X184912000Y-82804000D02*
X193929000Y-82804000D01*
G04 #@! TO.N,Net-(J3-Pad11)*
X193929000Y-85344000D02*
X192797630Y-85344000D01*
X193929000Y-85344000D02*
X184912000Y-85344000D01*
G04 #@! TO.N,Net-(J3-Pad12)*
X193929000Y-87884000D02*
X184912000Y-87884000D01*
G04 #@! TO.N,Net-(J3-Pad13)*
X184912000Y-90424000D02*
X193929000Y-90424000D01*
G04 #@! TO.N,Net-(J3-Pad14)*
X193929000Y-92964000D02*
X184912000Y-92964000D01*
G04 #@! TO.N,Net-(J3-Pad15)*
X193929000Y-95504000D02*
X184912000Y-95504000D01*
G04 #@! TO.N,Net-(J3-Pad16)*
X184912000Y-98044000D02*
X193929000Y-98044000D01*
G04 #@! TO.N,Net-(J3-Pad17)*
X193929000Y-100584000D02*
X184912000Y-100584000D01*
G04 #@! TO.N,Net-(J3-Pad18)*
X193929000Y-103124000D02*
X184912000Y-103124000D01*
G04 #@! TO.N,Net-(J3-Pad19)*
X184912000Y-105664000D02*
X193929000Y-105664000D01*
G04 #@! TO.N,Net-(J3-Pad20)*
X193929000Y-108204000D02*
X192797630Y-108204000D01*
X193929000Y-108204000D02*
X184912000Y-108204000D01*
G04 #@! TO.N,Net-(J4-Pad20)*
X209169000Y-59944000D02*
X219710000Y-59944000D01*
G04 #@! TO.N,Net-(J4-Pad19)*
X219710000Y-62484000D02*
X209169000Y-62484000D01*
G04 #@! TO.N,Net-(J4-Pad18)*
X209169000Y-65024000D02*
X219710000Y-65024000D01*
G04 #@! TO.N,Net-(J4-Pad17)*
X219710000Y-67564000D02*
X209169000Y-67564000D01*
G04 #@! TO.N,Net-(J4-Pad16)*
X209169000Y-70104000D02*
X219710000Y-70104000D01*
G04 #@! TO.N,Net-(J4-Pad15)*
X209169000Y-72644000D02*
X219710000Y-72644000D01*
G04 #@! TO.N,Net-(J6-Pad1)*
X194564000Y-122682000D02*
X193675000Y-123571000D01*
X195707000Y-112776000D02*
X194564000Y-113919000D01*
X195707000Y-95250000D02*
X195707000Y-112776000D01*
X193675000Y-123571000D02*
X190627000Y-123571000D01*
X197993000Y-92964000D02*
X195707000Y-95250000D01*
X194564000Y-113919000D02*
X194564000Y-122682000D01*
X201549000Y-92964000D02*
X197993000Y-92964000D01*
G04 #@! TO.N,Net-(J6-Pad2)*
X193675000Y-126111000D02*
X190627000Y-126111000D01*
X195326000Y-124460000D02*
X193675000Y-126111000D01*
X195326000Y-114427000D02*
X195326000Y-124460000D01*
X196342000Y-113411000D02*
X195326000Y-114427000D01*
X196342000Y-97917000D02*
X196342000Y-113411000D01*
X198755000Y-95504000D02*
X196342000Y-97917000D01*
X201549000Y-95504000D02*
X198755000Y-95504000D01*
G04 #@! TO.N,Net-(J9-Pad4)*
X214757000Y-131572000D02*
X215205919Y-131572000D01*
X204888999Y-105320999D02*
X205486000Y-105918000D01*
X205486000Y-110998000D02*
X213614000Y-119126000D01*
X213614000Y-119126000D02*
X213614000Y-130429000D01*
X205486000Y-105918000D02*
X205486000Y-110998000D01*
X215205919Y-131572000D02*
X216408000Y-131572000D01*
X204888999Y-101383999D02*
X204888999Y-105320999D01*
X213614000Y-130429000D02*
X214757000Y-131572000D01*
X204089000Y-100584000D02*
X204888999Y-101383999D01*
G04 #@! TO.N,Net-(J9-Pad3)*
X215205919Y-129032000D02*
X216408000Y-129032000D01*
X214249000Y-128075081D02*
X215205919Y-129032000D01*
X214249000Y-119124590D02*
X214249000Y-128075081D01*
X205994000Y-110869590D02*
X214249000Y-119124590D01*
X205994000Y-99949000D02*
X205994000Y-110869590D01*
X204089000Y-98044000D02*
X205994000Y-99949000D01*
G04 #@! TO.N,Net-(J9-Pad2)*
X216408000Y-126492000D02*
X215519000Y-126492000D01*
X215519000Y-126492000D02*
X214884000Y-125857000D01*
X214884000Y-121539000D02*
X214884000Y-121412000D01*
X214884000Y-125857000D02*
X214884000Y-121539000D01*
X214884000Y-118872000D02*
X214884000Y-121539000D01*
X206629000Y-110617000D02*
X214884000Y-118872000D01*
X206629000Y-98044000D02*
X206629000Y-110617000D01*
X204089000Y-95504000D02*
X206629000Y-98044000D01*
G04 #@! TD*
M02*
