M48
; DRILL file {KiCad (5.1.5)-3} date 5/26/2020 1:54:42 AM
; FORMAT={-:-/ absolute / inch / decimal}
; #@! TF.CreationDate,2020-05-26T01:54:42-08:00
; #@! TF.GenerationSoftware,Kicad,Pcbnew,(5.1.5)-3
; #@! TF.FileFunction,Plated,1,2,PTH
FMAT,2
INCH
T1C0.0157
T2C0.0394
T3C0.0433
%
G90
G05
T1
X1.5276Y-2.9606
X5.2087Y-4.315
X5.3268Y-4.7087
X5.4134Y-2.752
X5.6142Y-4.2559
X5.6496Y-4.315
X5.8425Y-3.9094
X5.9488Y-3.6772
X6.0591Y-3.5906
X6.1378Y-3.4764
X6.3701Y-3.2953
X6.4685Y-3.2165
T2
X4.9213Y-4.6969
X5.0512Y-4.6969
X5.1575Y-4.6929
X5.2677Y-5.0197
X5.374Y-5.0157
X5.4724Y-5.0118
X6.1606Y-5.3228
X6.2606Y-5.3228
X6.3606Y-5.3228
X6.4606Y-5.3228
X7.5709Y-2.5748
X7.5709Y-2.6748
X7.5709Y-2.7748
T3
X4.7315Y-2.6012
X4.7315Y-2.7012
X4.7315Y-2.8012
X4.7315Y-2.9012
X4.7315Y-3.0012
X4.7315Y-3.1012
X4.7315Y-3.2012
X4.7315Y-3.3012
X4.7315Y-3.4012
X4.7315Y-3.5012
X4.7315Y-3.6012
X4.7315Y-3.7012
X4.7315Y-3.8012
X4.7315Y-3.9012
X4.7315Y-4.0012
X4.7315Y-4.1012
X4.7315Y-4.2012
X4.7315Y-4.3012
X4.7315Y-4.4012
X4.7315Y-4.5012
X4.9315Y-4.2012
X4.9315Y-4.5012
X5.0315Y-3.9012
X5.0315Y-4.0012
X5.0315Y-4.1012
X5.0315Y-4.2012
X5.0315Y-4.5012
X5.1315Y-3.9012
X5.1315Y-4.0012
X5.1315Y-4.1012
X5.1315Y-4.2012
X5.1315Y-4.5012
X5.3315Y-2.6012
X5.3315Y-2.7012
X5.3315Y-2.8012
X5.3315Y-2.9012
X5.3315Y-3.0012
X5.3315Y-3.1012
X5.3315Y-3.2012
X5.3315Y-3.3012
X5.3315Y-3.4012
X5.3315Y-3.5012
X5.3315Y-3.6012
X5.3315Y-3.7012
X5.3315Y-3.8012
X5.3315Y-3.9012
X5.3315Y-4.0012
X5.3315Y-4.1012
X5.3315Y-4.2012
X5.3315Y-4.3012
X5.3315Y-4.4012
X5.3315Y-4.5012
T0
M30
